<svg width="55" height="49" viewBox="0 0 55 49" fill="none" xmlns="http://www.w3.org/2000/svg">
<path d="M30.3448 42.7452V38.988H0V42.7604C0 46.1767 2.77821 49 6.21654 49H33.4031C33.1423 48.7644 32.891 48.5578 32.6535 48.3213C31.9183 47.5886 31.3359 46.7188 30.9397 45.762C30.5435 44.8051 30.3414 43.7799 30.3448 42.7452ZM21.4853 19.9679L25.8886 22.9719L30.3091 19.9679C31.5182 19.1484 32.4784 17.2992 32.4784 15.8453V9.63745L25.8998 6.40428L19.3211 9.62921V15.8453C19.3211 17.2988 20.2759 19.1484 21.4853 19.9679ZM22.4766 14.1006C22.554 14.0244 22.6458 13.9641 22.7467 13.9231C22.8476 13.8822 22.9556 13.8614 23.0645 13.8619C23.1735 13.8625 23.2813 13.8844 23.3817 13.9263C23.4822 13.9683 23.5733 14.0295 23.65 14.1065L24.9723 15.4335L28.1551 12.2712C28.2322 12.1946 28.3237 12.1338 28.4244 12.0924C28.5252 12.051 28.6331 12.0296 28.7421 12.0297C28.8512 12.0297 28.9591 12.0511 29.0598 12.0926C29.1605 12.1342 29.2519 12.195 29.329 12.2717C29.4845 12.4264 29.5719 12.6362 29.5718 12.8549C29.5717 13.0737 29.4842 13.2834 29.3285 13.438L25.5562 17.1884C25.4008 17.3437 25.1899 17.4315 24.9695 17.4327H24.9677C24.8582 17.4321 24.7498 17.4099 24.649 17.3674C24.5481 17.3249 24.4567 17.2629 24.3802 17.1851L22.4706 15.2683C22.3158 15.1125 22.2295 14.9021 22.2307 14.6832C22.2318 14.4643 22.3203 14.2548 22.4766 14.1006ZM50.6017 0H50.5753C48.1374 0 46.1099 2.02408 46.1099 4.44793V12.0144H55V4.4332C55.0111 2.00476 53.0456 0.0234399 50.6017 0Z" fill="#00519B"/>
<path d="M12.7388 1.01801e-07C10.4333 1.01801e-07 8.557 1.8395 8.557 4.09586L8.31222 37.3389H31.1745C31.3985 37.3478 31.6102 37.4427 31.7651 37.6038C31.9199 37.7648 32.0057 37.9794 32.0043 38.2021V42.7452C31.996 46.1799 34.7825 48.9751 38.2385 49H38.2593C41.7028 48.9753 44.4741 46.1813 44.4504 42.7596V4.44922C44.4504 2.7162 45.2352 1.17788 46.4145 1.01801e-07H12.7388ZM17.6616 9.11483C17.6565 8.96279 17.695 8.81244 17.7727 8.68135C17.8503 8.55026 17.9639 8.44384 18.1002 8.37452L25.5308 4.74558C25.6433 4.69018 25.7673 4.66136 25.8929 4.66136C26.0185 4.66136 26.1424 4.69018 26.255 4.74558L33.699 8.38465C33.8353 8.45398 33.9489 8.5604 34.0266 8.69148C34.1043 8.82256 34.1429 8.9729 34.1379 9.12496V15.8453C34.1379 17.8453 32.9095 20.2034 31.2459 21.3303L26.3712 24.6519C26.2345 24.7454 26.0726 24.7954 25.9068 24.7954C25.7416 24.7956 25.5802 24.7455 25.4446 24.6518L20.5555 21.3302C18.8928 20.2031 17.6616 17.845 17.6616 15.8454V9.11483ZM37.6939 33.5697H14.9353C14.477 33.5697 14.1056 33.2007 14.1056 32.7452C14.1056 32.2897 14.477 31.9207 14.9353 31.9207H37.6939C38.1523 31.9207 38.5237 32.2897 38.5237 32.7452C38.5237 33.2007 38.1523 33.5697 37.6939 33.5697ZM37.6939 29.2115H14.9353C14.477 29.2115 14.1056 28.8425 14.1056 28.387C14.1056 27.9315 14.477 27.5625 14.9353 27.5625H37.6939C38.1523 27.5625 38.5237 27.9315 38.5237 28.387C38.5237 28.8425 38.1523 29.2115 37.6939 29.2115Z" fill="#00519B"/>
</svg>
