<svg width="48" height="55" viewBox="0 0 48 55" fill="none" xmlns="http://www.w3.org/2000/svg">
<path d="M29.938 25.9786C30.3837 25.0897 30.6347 24.0867 30.6347 23.0252C30.6347 19.3714 27.6643 16.4095 24 16.4095C20.3357 16.4095 17.3653 19.3714 17.3653 23.0252C17.3653 24.1157 17.6299 25.1446 18.0987 26.0513H14.4495C14.3385 25.7025 14.2468 25.3478 14.175 24.9889H12.1989V21.0615H14.175C14.4305 19.7844 14.9354 18.5698 15.6608 17.4869L14.2627 16.0928L17.0478 13.3158L18.4459 14.7097C19.5319 13.9864 20.75 13.483 22.0308 13.2282V11.2575H25.9694V13.2282C27.2502 13.4829 28.4682 13.9863 29.5542 14.7097L30.9523 13.3156L33.7373 16.0928L32.3392 17.4869C33.0646 18.5698 33.5694 19.7843 33.8249 21.0614H35.8011V24.9888H33.8249C33.6671 25.7779 33.4137 26.5449 33.0701 27.273C32.0782 27.0505 31.0363 26.6392 29.938 25.9786ZM17.7847 3.96202C19.8064 3.30715 21.8748 2.98569 24 2.98569C26.1252 2.98569 28.1936 3.30715 30.2153 3.96202C30.3272 3.99945 30.4454 4.01439 30.5632 4.00599C30.6809 3.99759 30.7958 3.96601 30.9012 3.91308C31.0067 3.86015 31.1005 3.78691 31.1774 3.6976C31.2543 3.60829 31.3127 3.50467 31.3492 3.39274C31.3856 3.2808 31.3995 3.16277 31.39 3.04545C31.3805 2.92813 31.3478 2.81386 31.2937 2.70923C31.2397 2.6046 31.1653 2.51168 31.0751 2.43586C30.9848 2.36003 30.8803 2.30279 30.7677 2.26744C28.5949 1.56347 26.2846 1.20039 24 1.20039C21.7153 1.20039 19.4051 1.56347 17.2323 2.26744C17.0089 2.34212 16.8242 2.50171 16.7183 2.71148C16.6124 2.92126 16.5938 3.16426 16.6666 3.38762C16.7394 3.61099 16.8978 3.79665 17.1071 3.90421C17.3165 4.01178 17.56 4.03256 17.7847 3.96202ZM33.8103 29.2022C31.6888 28.9631 29.4007 28.0499 26.9199 26.0091C25.7168 25.0194 24.1062 24.856 22.8846 25.8731L16.6559 31.0587C16.1709 31.4625 15.8745 31.9894 16.011 32.6131L17.6934 40.3005C20.7244 39.1659 20.9495 36.6225 21.192 33.8747C21.2403 33.3655 21.2347 32.8657 21.5101 32.413C21.8122 31.9163 22.3024 31.6389 22.9415 31.5922C24.4709 31.4805 27.0153 33.1211 27.9914 34.2075L38.8174 45.1599L39.935 44.0455L36.9475 29.0921C35.9503 29.2682 34.9068 29.3259 33.8103 29.2022ZM47.9831 43.2147L44.5487 26.0247C44.4542 25.5517 43.9888 25.2418 43.5143 25.3359L39.0948 26.2139C38.6204 26.3081 38.3095 26.7723 38.4041 27.2453L41.8384 44.4353C41.933 44.9084 42.3983 45.2183 42.8729 45.124L47.2924 44.246C47.7668 44.1519 48.0775 43.6877 47.9831 43.2147ZM11.7955 13.1836C10.9089 12.0096 9.53059 11.3121 8.04969 11.3121C6.5688 11.3121 5.19052 12.0096 4.30394 13.1836C5.39284 13.8541 6.67589 14.2412 8.04969 14.2412C9.4235 14.2411 10.7065 13.854 11.7955 13.1836ZM5.47923 10.0612C5.05747 9.69539 4.71943 9.24355 4.48797 8.73622C4.25651 8.22889 4.13705 7.67791 4.13765 7.12055C4.13765 4.96625 5.88934 3.21967 8.04981 3.21967C10.2103 3.21967 11.962 4.96636 11.962 7.12055C11.9626 7.67789 11.8431 8.22886 11.6117 8.73618C11.3802 9.24349 11.0421 9.6953 10.6204 10.061C11.632 10.5025 12.5151 11.192 13.1877 12.0653C14.4277 10.7844 15.1909 9.04142 15.1909 7.12055C15.1909 3.18798 11.9937 0 8.04992 0C4.1061 0 0.908985 3.18798 0.908985 7.12055C0.908985 9.04142 1.67215 10.7844 2.91212 12.0653C3.58457 11.192 4.46768 10.5026 5.47923 10.0612ZM26.7193 35.4567C25.6487 34.4848 24.6914 33.8637 23.9344 33.5626C23.5709 33.418 23.2779 33.3553 23.0674 33.3707C22.9629 33.3783 22.9975 33.7775 22.9753 34.0282C22.6539 37.6697 22.3579 41.0171 17.2959 42.2853C16.7949 42.4428 16.2633 42.1371 16.152 41.6233L14.2625 32.99C13.982 31.7083 14.5248 30.5113 15.5089 29.6921L17.7374 27.8367H11.3034L8.02653 44.2386L18.3034 54.486C18.4665 54.6491 18.6604 54.7785 18.8739 54.8667C19.0873 54.9549 19.3161 55.0002 19.5471 55C19.7784 55.0007 20.0074 54.9558 20.2212 54.8678C20.4349 54.7799 20.6292 54.6508 20.7927 54.4877C20.9562 54.3247 21.0858 54.1311 21.1739 53.9179C21.2621 53.7048 21.3072 53.4764 21.3066 53.2458C21.3066 52.7978 21.1348 52.3484 20.7913 52.0058L17.6533 48.8768C17.5702 48.7939 17.5043 48.6955 17.4593 48.5872C17.4143 48.4789 17.3911 48.3629 17.3911 48.2457C17.3911 48.1284 17.4143 48.0124 17.4593 47.9041C17.5043 47.7958 17.5702 47.6974 17.6533 47.6146C17.7364 47.5317 17.8351 47.4659 17.9437 47.4211C18.0523 47.3762 18.1687 47.3531 18.2862 47.3531C18.4038 47.3531 18.5202 47.3762 18.6288 47.4211C18.7374 47.4659 18.836 47.5317 18.9192 47.6146L25.6699 54.346C25.8331 54.5091 26.027 54.6385 26.2404 54.7266C26.4539 54.8148 26.6827 54.8601 26.9138 54.8598C27.8893 54.8598 28.6695 54.0783 28.6695 53.1056C28.6695 52.6553 28.4988 52.2057 28.1576 51.8655L21.8544 45.5803C21.7713 45.4974 21.7054 45.3991 21.6604 45.2908C21.6154 45.1825 21.5922 45.0664 21.5922 44.9492C21.5922 44.832 21.6154 44.7159 21.6604 44.6077C21.7054 44.4994 21.7713 44.401 21.8544 44.3181C21.9375 44.2352 22.0362 44.1695 22.1448 44.1246C22.2534 44.0798 22.3698 44.0567 22.4873 44.0567C22.6049 44.0567 22.7213 44.0798 22.8299 44.1246C22.9385 44.1695 23.0371 44.2352 23.1202 44.3181L31.4708 52.6449C32.1579 53.3301 33.2712 53.33 33.9583 52.6449C34.6411 51.9641 34.641 50.8449 33.9584 50.1643L26.0555 42.2841C25.8917 42.1159 25.8008 41.8901 25.8025 41.6557C25.8043 41.4212 25.8985 41.1968 26.0647 41.031C26.231 40.8652 26.4561 40.7713 26.6912 40.7696C26.9264 40.7679 27.1527 40.8585 27.3214 41.0219L35.2242 48.9021C35.5471 49.2308 36.0076 49.4161 36.468 49.4161C37.3336 49.4161 38.0747 48.787 38.2043 47.9283C38.2545 47.5959 38.2113 47.2534 38.0746 46.9452L26.7193 35.4567ZM8.90517 26.2139L4.48566 25.3359C4.0112 25.2418 3.54581 25.5517 3.45125 26.0247L0.016914 43.2147C-0.0775301 43.6878 0.233218 44.1519 0.707564 44.2461L5.12708 45.1241C5.60165 45.2183 6.06704 44.9084 6.1616 44.4354L9.59594 27.2454C9.69049 26.7723 9.37974 26.3081 8.90517 26.2139ZM3.85398 17.0582C3.7401 17.0298 3.62173 17.024 3.50562 17.0412C3.38951 17.0585 3.27793 17.0983 3.17727 17.1585C3.07661 17.2188 2.98884 17.2982 2.91896 17.3922C2.84908 17.4863 2.79846 17.5931 2.77 17.7067C2.38562 19.2369 2.17134 20.8104 2.12579 22.3872C2.11929 22.623 2.20701 22.8518 2.36965 23.0231C2.53228 23.1944 2.75652 23.2943 2.99302 23.3008C3.22952 23.3073 3.45892 23.2198 3.63075 23.0576C3.80258 22.8955 3.90276 22.6719 3.90926 22.4361C3.9512 20.9865 4.15077 19.5457 4.50446 18.1391C4.5619 17.9097 4.52564 17.667 4.40366 17.4643C4.28168 17.2616 4.08396 17.1155 3.85398 17.0582ZM10.1714 7.12055C10.1714 5.95196 9.22163 5.00486 8.04969 5.00486C6.87776 5.00486 5.92795 5.95185 5.92795 7.12055C5.92795 8.28914 6.87765 9.23624 8.04969 9.23624C9.22163 9.23624 10.1714 8.28914 10.1714 7.12055ZM36.2045 13.1836C37.2934 13.8541 38.5765 14.2412 39.9503 14.2412C41.3241 14.2412 42.6072 13.8541 43.6961 13.1836C42.8095 12.0096 41.4312 11.3121 39.9503 11.3121C38.4694 11.312 37.0911 12.0096 36.2045 13.1836ZM42.0719 7.12055C42.0719 5.95196 41.1221 5.00486 39.9502 5.00486C38.7783 5.00486 37.8284 5.95185 37.8284 7.12055C37.8284 8.28914 38.7783 9.23624 39.9502 9.23624C41.1222 9.23624 42.0719 8.28914 42.0719 7.12055ZM37.3797 10.0612C36.958 9.6954 36.6199 9.24358 36.3885 8.73627C36.157 8.22896 36.0376 7.678 36.0382 7.12066C36.0382 4.96636 37.7898 3.21978 39.9502 3.21978C42.1107 3.21978 43.8623 4.96647 43.8623 7.12066C43.863 7.678 43.7435 8.22898 43.512 8.73629C43.2806 9.2436 42.9425 9.69541 42.5208 10.0612C43.5324 10.5026 44.4155 11.1921 45.0881 12.0654C46.3281 10.7845 47.0912 9.04153 47.0912 7.12066C47.0912 3.1881 43.8941 0.00011152 39.9503 0.00011152C36.0065 0.00011152 32.8094 3.1881 32.8094 7.12066C32.8094 9.04153 33.5725 10.7845 34.8125 12.0654C35.485 11.1921 36.3682 10.5027 37.3797 10.0612ZM44.0908 22.4361C44.0973 22.6719 44.1975 22.8955 44.3694 23.0576C44.5412 23.2198 44.7706 23.3073 45.0071 23.3008C45.2436 23.2943 45.4678 23.1944 45.6305 23.0231C45.7931 22.8518 45.8808 22.623 45.8743 22.3872C45.8289 20.8104 45.6145 19.237 45.2301 17.7067C45.1705 17.4796 45.0235 17.2851 44.821 17.1655C44.6185 17.0458 44.3768 17.0107 44.1484 17.0676C43.9201 17.1245 43.7234 17.269 43.6012 17.4696C43.479 17.6702 43.4411 17.9107 43.4956 18.1391C43.8493 19.5457 44.0489 20.9865 44.0908 22.4361Z" fill="#00519B"/>
</svg>
