<svg width="80" height="80" viewBox="0 0 80 80" fill="none" xmlns="http://www.w3.org/2000/svg">
<rect width="80" height="80" rx="20" fill="#00519B"/>
<path d="M40 47.9167C44.3723 47.9167 47.9167 44.3723 47.9167 40C47.9167 35.6277 44.3723 32.0833 40 32.0833C35.6277 32.0833 32.0833 35.6277 32.0833 40C32.0833 44.3723 35.6277 47.9167 40 47.9167Z" fill="white"/>
<path d="M57.4167 38.4167H55.7526C55.0084 30.9481 49.0519 24.9916 41.5833 24.2474V22.5833C41.5833 22.1634 41.4165 21.7607 41.1196 21.4637C40.8227 21.1668 40.4199 21 40 21C39.5801 21 39.1773 21.1668 38.8804 21.4637C38.5835 21.7607 38.4167 22.1634 38.4167 22.5833V24.2474C30.9481 24.9916 24.9916 30.9481 24.2474 38.4167H22.5833C22.1634 38.4167 21.7607 38.5835 21.4637 38.8804C21.1668 39.1773 21 39.5801 21 40C21 40.4199 21.1668 40.8227 21.4637 41.1196C21.7607 41.4165 22.1634 41.5833 22.5833 41.5833H24.2474C24.9932 49.0519 30.9481 55.0084 38.4167 55.7526V57.4167C38.4167 57.8366 38.5835 58.2393 38.8804 58.5363C39.1773 58.8332 39.5801 59 40 59C40.4199 59 40.8227 58.8332 41.1196 58.5363C41.4165 58.2393 41.5833 57.8366 41.5833 57.4167V55.7526C49.0519 55.0068 55.0084 49.0519 55.7526 41.5833H57.4167C57.8366 41.5833 58.2393 41.4165 58.5363 41.1196C58.8332 40.8227 59 40.4199 59 40C59 39.5801 58.8332 39.1773 58.5363 38.8804C58.2393 38.5835 57.8366 38.4167 57.4167 38.4167ZM41.5612 52.5606C41.5042 51.7388 40.8376 51.0833 40 51.0833C39.1624 51.0833 38.4958 51.7388 38.4388 52.5606C35.6445 52.2094 33.0467 50.9377 31.0553 48.9463C29.0638 46.9549 27.7922 44.3571 27.441 41.5628C28.2627 41.5042 28.9167 40.836 28.9167 40C28.9167 39.164 28.2627 38.4958 27.4394 38.4388C27.7906 35.6445 29.0623 33.0467 31.0537 31.0553C33.0451 29.0638 35.6429 27.7922 38.4373 27.441C38.4958 28.2612 39.1624 28.9167 40 28.9167C40.8376 28.9167 41.5042 28.2612 41.5612 27.4394C44.3555 27.7906 46.9533 29.0623 48.9447 31.0537C50.9362 33.0451 52.2078 35.6429 52.559 38.4373C51.7372 38.4958 51.0833 39.164 51.0833 40C51.0833 40.836 51.7373 41.5042 52.5606 41.5612C52.2088 44.3557 50.9369 46.9536 48.9452 48.9452C46.9536 50.9369 44.3557 52.2088 41.5612 52.5606Z" fill="white"/>
</svg>
