<svg width="50" height="50" viewBox="0 0 50 50" fill="none" xmlns="http://www.w3.org/2000/svg">
<path fill-rule="evenodd" clip-rule="evenodd" d="M48.3578 29.1421C43.4346 29.1421 40.9645 35.1065 44.4455 38.5874C44.7535 38.8954 44.9266 39.3132 44.9266 39.7489C44.9266 40.1845 44.7535 40.6023 44.4455 40.9103L40.9099 44.4459C40.6018 44.754 40.1841 44.927 39.7484 44.927C39.3128 44.927 38.895 44.754 38.587 44.4459C37.6369 43.4749 36.3566 42.8963 35 42.825C34.977 42.6562 34.9905 42.4845 35.0394 42.3214C35.0884 42.1583 35.1718 42.0075 35.2839 41.8793C35.396 41.7512 35.5343 41.6485 35.6895 41.5782C35.8446 41.508 36.013 41.4718 36.1833 41.4721C36.7786 41.4719 37.3494 41.2354 37.7703 40.8145C38.1912 40.3937 38.4277 39.8228 38.4279 39.2276V36.8339C38.4277 36.2386 38.1912 35.6678 37.7703 35.2469C37.3494 34.826 36.7786 34.5894 36.1833 34.5893C36.1202 34.5894 36.0571 34.5846 35.9946 34.5752C37.8324 32.4652 39.0242 29.8708 39.4277 27.1019C39.8312 24.333 39.4294 21.5065 38.2702 18.9597C37.111 16.4129 35.2435 14.2535 32.8905 12.7392C30.5375 11.2249 27.7984 10.4197 25.0003 10.4197C22.2021 10.4197 19.463 11.2249 17.11 12.7392C14.757 14.2535 12.8895 16.4129 11.7303 18.9597C10.5712 21.5065 10.1693 24.333 10.5729 27.1019C10.9764 29.8708 12.1681 32.4652 14.0059 34.5752C13.9435 34.5847 13.8804 34.5894 13.8172 34.5893C13.222 34.5895 12.6512 34.8261 12.2304 35.247C11.8095 35.6679 11.5731 36.2387 11.5729 36.8339V39.2276C11.5731 39.8228 11.8096 40.3936 12.2305 40.8145C12.6514 41.2354 13.2222 41.4719 13.8174 41.4721C13.9875 41.4718 14.1556 41.5079 14.3106 41.5779C14.4655 41.6479 14.6037 41.7503 14.7158 41.8782C14.828 42.0061 14.9114 42.1564 14.9606 42.3192C15.0098 42.482 15.0237 42.6534 15.0011 42.822C13.644 42.8945 12.3635 43.4739 11.4131 44.4455C11.1051 44.7535 10.6873 44.9265 10.2517 44.9265C9.81605 44.9265 9.39827 44.7535 9.09021 44.4455L5.55448 40.9099C5.24645 40.6018 5.07341 40.1841 5.07341 39.7484C5.07341 39.3128 5.24645 38.895 5.55448 38.587C9.03552 35.106 6.56542 29.1417 1.64219 29.1417C1.20673 29.1417 0.7891 28.9688 0.481139 28.6609C0.173178 28.353 0.000110496 27.9355 3.3045e-09 27.5V22.5C-1.36776e-05 22.2843 0.0424534 22.0708 0.124976 21.8715C0.207499 21.6723 0.328461 21.4913 0.480955 21.3388C0.633449 21.1863 0.814488 21.0653 1.01373 20.9828C1.21298 20.9003 1.42653 20.8578 1.64219 20.8578C6.56542 20.8578 9.03552 14.8934 5.55448 11.4125C5.24645 11.1045 5.07341 10.6867 5.07341 10.251C5.07341 9.81541 5.24645 9.39763 5.55448 9.08958L9.09 5.55396C9.24252 5.40143 9.42359 5.28043 9.62288 5.19788C9.82216 5.11533 10.0358 5.07285 10.2515 5.07285C10.4672 5.07285 10.6808 5.11533 10.88 5.19788C11.0793 5.28043 11.2604 5.40143 11.4129 5.55396C14.8939 9.035 20.8582 6.5649 20.8582 1.64167C20.8583 1.20629 21.0313 0.78877 21.3392 0.480918C21.6471 0.173067 22.0646 8.28454e-05 22.5 3.3045e-09H27.5C27.7157 -1.36776e-05 27.9292 0.0424534 28.1285 0.124976C28.3277 0.207499 28.5087 0.328461 28.6612 0.480955C28.8137 0.633449 28.9347 0.814488 29.0172 1.01373C29.0997 1.21298 29.1422 1.42653 29.1422 1.64219C29.1422 6.56542 35.1066 9.03552 38.5875 5.55448C38.74 5.40194 38.9211 5.28093 39.1204 5.19837C39.3197 5.11582 39.5332 5.07332 39.749 5.07332C39.9647 5.07332 40.1783 5.11582 40.3775 5.19837C40.5768 5.28093 40.7579 5.40194 40.9104 5.55448L44.446 9.0901C44.7541 9.39815 44.9271 9.81594 44.9271 10.2516C44.9271 10.6872 44.7541 11.105 44.446 11.413C40.965 14.894 43.4351 20.8583 48.3583 20.8583C48.7937 20.8584 49.2112 21.0314 49.519 21.3393C49.8269 21.6471 49.9999 22.0646 50 22.5V27.5C50 27.7157 49.9575 27.9292 49.875 28.1285C49.7925 28.3277 49.6715 28.5087 49.519 28.6612C49.3666 28.8137 49.1855 28.9347 48.9863 29.0172C48.787 29.0997 48.5735 29.1422 48.3578 29.1422V29.1421ZM21.5824 38.1525L23.4062 40.2857C23.4757 40.3666 23.5621 40.4312 23.6593 40.4751C23.7565 40.5189 23.8621 40.5409 23.9688 40.5394C24.0754 40.538 24.1804 40.5132 24.2763 40.4667C24.3723 40.4202 24.4569 40.3533 24.5242 40.2705L27.8251 36.7441C27.9542 36.6031 28.0225 36.417 28.0151 36.226C28.0078 36.035 27.9254 35.8547 27.7858 35.7241C27.6462 35.5936 27.4608 35.5234 27.2698 35.5287C27.0787 35.5341 26.8975 35.6146 26.7655 35.7528L23.9843 38.7239L22.6875 37.2066C22.6257 37.1332 22.5499 37.0727 22.4646 37.0288C22.3793 36.9848 22.2861 36.9581 22.1905 36.9503C22.0948 36.9425 21.9986 36.9537 21.9073 36.9833C21.816 37.0128 21.7314 37.0602 21.6585 37.1226C21.5856 37.185 21.5257 37.2612 21.4824 37.3468C21.4391 37.4324 21.4131 37.5258 21.406 37.6215C21.3989 37.7172 21.4109 37.8134 21.4411 37.9045C21.4714 37.9955 21.5194 38.0797 21.5823 38.1522L21.5824 38.1525ZM36.183 36.0483C33.8259 36.0483 32.6433 33.1927 34.3099 31.5261C34.4573 31.3787 34.5401 31.1787 34.5401 30.9702C34.5401 30.7616 34.4573 30.5616 34.3099 30.4142L32.6172 28.7215C32.4697 28.574 32.2697 28.4912 32.0612 28.4912C31.8527 28.4912 31.6527 28.574 31.5052 28.7215C29.8385 30.3881 26.983 29.2054 26.983 26.8483C26.983 26.7451 26.9627 26.6428 26.9232 26.5475C26.8837 26.4521 26.8258 26.3654 26.7528 26.2924C26.6798 26.2194 26.5931 26.1614 26.4977 26.1219C26.4024 26.0824 26.3001 26.0621 26.1969 26.0621H23.8031C23.5946 26.0621 23.3946 26.1449 23.2472 26.2924C23.0997 26.4398 23.0169 26.6398 23.0169 26.8483C23.0169 29.2054 20.1614 30.3881 18.4947 28.7215C18.3472 28.574 18.1473 28.4912 17.9387 28.4912C17.7302 28.4912 17.5303 28.574 17.3828 28.7215L15.69 30.4142C15.5426 30.5616 15.4598 30.7616 15.4598 30.9702C15.4598 31.1787 15.5426 31.3787 15.69 31.5261C17.3567 33.1928 16.1741 36.0483 13.8169 36.0483C13.6083 36.0483 13.4084 36.1312 13.2609 36.2786C13.1135 36.4261 13.0306 36.6261 13.0306 36.8346V39.2283C13.0306 39.3316 13.051 39.4338 13.0905 39.5292C13.13 39.6246 13.1879 39.7113 13.2609 39.7843C13.3339 39.8573 13.4206 39.9152 13.516 39.9547C13.6114 39.9942 13.7136 40.0145 13.8169 40.0145C16.1741 40.0145 17.3567 42.8701 15.69 44.5367C15.5426 44.6841 15.4598 44.8841 15.4598 45.0927C15.4598 45.3012 15.5426 45.5012 15.69 45.6486L17.3828 47.3414C17.4558 47.4144 17.5425 47.4723 17.6379 47.5118C17.7333 47.5513 17.8355 47.5717 17.9387 47.5717C18.042 47.5717 18.1442 47.5513 18.2396 47.5118C18.335 47.4723 18.4217 47.4144 18.4947 47.3414C20.1634 45.6726 23.0169 46.8546 23.0169 49.2145C23.017 49.4229 23.1 49.6227 23.2474 49.77C23.3948 49.9173 23.5947 50 23.8031 50H26.1969C26.3001 50 26.4024 49.9797 26.4978 49.9402C26.5932 49.9007 26.6798 49.8427 26.7528 49.7697C26.8258 49.6967 26.8837 49.61 26.9232 49.5146C26.9627 49.4192 26.983 49.317 26.983 49.2137C26.983 46.8567 29.8386 45.6741 31.5052 47.3406C31.5782 47.4136 31.6649 47.4716 31.7603 47.5111C31.8557 47.5506 31.9579 47.5709 32.0612 47.5709C32.1645 47.5709 32.2667 47.5506 32.3621 47.5111C32.4575 47.4716 32.5442 47.4136 32.6172 47.3406L34.3099 45.6479C34.4573 45.5004 34.5401 45.3004 34.5401 45.0919C34.5401 44.8834 34.4573 44.6834 34.3099 44.5359C32.6432 42.8693 33.8259 40.0137 36.183 40.0137C36.2863 40.0138 36.3885 39.9935 36.4839 39.954C36.5793 39.9145 36.666 39.8566 36.739 39.7836C36.812 39.7106 36.8699 39.6239 36.9094 39.5285C36.949 39.4331 36.9693 39.3309 36.9693 39.2276V36.8339C36.9693 36.7306 36.949 36.6283 36.9095 36.533C36.8699 36.4376 36.812 36.3509 36.739 36.2779C36.666 36.2048 36.5793 36.1469 36.4839 36.1074C36.3885 36.0679 36.2863 36.0476 36.183 36.0476V36.0483ZM25 43.7818C23.8626 43.7818 22.7506 43.4445 21.8049 42.8125C20.8591 42.1806 20.122 41.2824 19.6867 40.2316C19.2514 39.1807 19.1376 38.0243 19.3595 36.9088C19.5814 35.7932 20.1291 34.7684 20.9334 33.9641C21.7377 33.1598 22.7624 32.6121 23.878 32.3902C24.9936 32.1683 26.15 32.2822 27.2008 32.7175C28.2517 33.1527 29.1499 33.8899 29.7818 34.8356C30.4137 35.7814 30.751 36.8933 30.751 38.0307C30.751 39.556 30.1451 41.0188 29.0666 42.0973C27.988 43.1758 26.5253 43.7817 25 43.7818ZM36.0357 32.1008C36.9397 30.6995 37.5665 29.1379 37.8824 27.5005C37.2184 26.3564 36.1537 25.499 34.8943 25.0943C33.6348 24.6895 32.27 24.7661 31.0637 25.3093C31.3462 25.8642 31.5506 26.4556 31.671 27.0666C32.0264 27.0036 32.3918 27.0273 32.7361 27.1358C33.0803 27.2443 33.3933 27.4342 33.6484 27.6896C34.2126 28.2539 34.7768 28.8181 35.3411 29.3823C35.7032 29.7447 35.9306 30.2199 35.9855 30.7292C36.0405 31.2385 35.9197 31.7513 35.6432 32.1825C35.7768 32.1575 35.908 32.1304 36.0361 32.1008H36.0357ZM19.6881 27.8266C19.8668 27.9507 20.0761 28.0235 20.2933 28.037C20.5104 28.0506 20.7271 28.0044 20.9199 27.9035C21.1127 27.8026 21.2741 27.6508 21.3867 27.4646C21.4993 27.2784 21.5587 27.065 21.5585 26.8474C21.5588 26.2522 21.7954 25.6815 22.2163 25.2606C22.6372 24.8398 23.2079 24.6033 23.8031 24.6031H26.1969C26.7921 24.6033 27.3629 24.8398 27.7838 25.2607C28.2047 25.6816 28.4412 26.2524 28.4414 26.8476C28.4412 27.0652 28.5006 27.2786 28.6132 27.4648C28.7258 27.651 28.8872 27.8028 29.08 27.9037C29.2728 28.0046 29.4895 28.0508 29.7066 28.0372C29.9238 28.0237 30.1331 27.9509 30.3118 27.8268C30.173 26.5147 29.5535 25.3005 28.5728 24.418C27.592 23.5355 26.3193 23.0472 24.9999 23.0472C23.6806 23.0472 22.4079 23.5355 21.4271 24.418C20.4464 25.3005 19.8269 26.5147 19.6881 27.8268V27.8266ZM22.5312 19.1562C22.5312 19.6445 22.676 20.1218 22.9473 20.5278C23.2186 20.9338 23.6041 21.2502 24.0553 21.4371C24.5064 21.6239 25.0027 21.6728 25.4816 21.5776C25.9605 21.4823 26.4004 21.2472 26.7457 20.9019C27.0909 20.5567 27.3261 20.1168 27.4213 19.6379C27.5166 19.159 27.4677 18.6626 27.2808 18.2115C27.094 17.7604 26.7775 17.3748 26.3716 17.1036C25.9656 16.8323 25.4883 16.6875 25 16.6875C24.3452 16.6875 23.7173 16.9476 23.2543 17.4106C22.7913 17.8736 22.5312 18.5015 22.5312 19.1562ZM14.3572 32.1825C14.0806 31.7513 13.9598 31.2386 14.0146 30.7293C14.0695 30.22 14.2967 29.7447 14.6587 29.3823L16.3516 27.6896C16.6067 27.4342 16.9197 27.2443 17.2639 27.1358C17.6082 27.0273 17.9735 27.0036 18.329 27.0666C18.4494 26.4556 18.6538 25.8641 18.9364 25.3092C17.73 24.7661 16.3652 24.6895 15.1057 25.0943C13.8463 25.4991 12.7816 26.3565 12.1176 27.5007C12.4335 29.138 13.0604 30.6996 13.9643 32.1008C14.0924 32.1303 14.2236 32.1575 14.3572 32.1825ZM14.2708 20.9467C14.2707 21.435 14.4154 21.9123 14.6866 22.3184C14.9578 22.7244 15.3434 23.0409 15.7945 23.2279C16.2456 23.4148 16.742 23.4638 17.2209 23.3686C17.6998 23.2734 18.1398 23.0383 18.4851 22.693C18.8304 22.3478 19.0656 21.9079 19.1609 21.429C19.2562 20.9501 19.2073 20.4537 19.0205 20.0026C18.8336 19.5514 18.5172 19.1658 18.1112 18.8945C17.7052 18.6232 17.2279 18.4784 16.7396 18.4784C16.0849 18.4784 15.4571 18.7385 14.9941 19.2013C14.5311 19.6642 14.271 20.292 14.2708 20.9467ZM30.7917 20.9467C30.7916 21.435 30.9363 21.9123 31.2075 22.3184C31.4787 22.7244 31.8642 23.0409 32.3153 23.2279C32.7664 23.4148 33.2628 23.4638 33.7417 23.3686C34.2206 23.2734 34.6606 23.0383 35.0059 22.693C35.3512 22.3478 35.5864 21.9079 35.6817 21.429C35.777 20.9501 35.7281 20.4537 35.5413 20.0026C35.3545 19.5514 35.038 19.1658 34.632 18.8945C34.226 18.6232 33.7487 18.4784 33.2604 18.4784C32.6058 18.4784 31.9779 18.7385 31.5149 19.2013C31.052 19.6642 30.7918 20.292 30.7917 20.9467Z" fill="#00519B"/>
</svg>
