<svg width="80" height="80" viewBox="0 0 80 80" fill="none" xmlns="http://www.w3.org/2000/svg">
<rect width="80" height="80" rx="20" fill="#00519B"/>
<path fill-rule="evenodd" clip-rule="evenodd" d="M30.8774 27.1112C31.588 26.4007 31.588 25.2452 30.8774 24.5347C30.1735 23.8308 29.038 23.8241 28.3208 24.5148L23.5595 29.0968L23.5329 29.1233C22.8224 29.8339 22.8224 30.9894 23.5329 31.6999C24.2368 32.4038 25.3724 32.4105 26.0896 31.7198L30.8509 27.1378L30.8774 27.1112ZM49.1392 27.1112C48.4286 26.4007 48.4286 25.2452 49.1392 24.5347C49.8364 23.8308 50.972 23.8241 51.6892 24.5015L56.4505 29.0835L56.4771 29.1101C57.1876 29.8206 57.1876 30.9761 56.4771 31.6866C55.7731 32.3905 54.6376 32.4038 53.9204 31.7132L49.1591 27.1312L49.1392 27.1112ZM50.4407 51.3694C54.704 47.1261 55.9591 40.7179 53.6083 35.1796C52.1142 31.6335 49.2919 28.8112 45.7392 27.3171C42.0735 25.7831 37.9364 25.7831 34.2708 27.3171C32.5243 28.0608 30.9306 29.1366 29.5892 30.4847C28.2544 31.8394 27.1786 33.4331 26.4282 35.1796C24.861 38.8585 24.861 43.0155 26.4282 46.6944C27.1786 48.4343 28.2478 50.0214 29.5892 51.3694C30.9372 52.7042 32.5243 53.7733 34.2708 54.5105C37.9364 56.0444 42.0735 56.0444 45.7392 54.5105C47.4923 53.7667 49.086 52.7042 50.4407 51.3694ZM47.3043 35.3757L46.2056 34.2461C45.7336 33.7643 44.9767 33.7643 44.5128 34.2461L37.4732 41.4226L35.52 39.4292C35.048 38.9474 34.2911 38.9474 33.8191 39.4292L32.7123 40.5505C32.2403 41.0323 32.2403 41.8047 32.7123 42.2865L36.6187 46.2735C37.0907 46.7552 37.8476 46.7552 38.3196 46.2735L47.3043 37.1117C47.7763 36.63 47.7763 35.8575 47.3043 35.3757Z" fill="white"/>
</svg>
