<svg width="80" height="80" viewBox="0 0 80 80" fill="none" xmlns="http://www.w3.org/2000/svg">
<rect width="80" height="80" rx="20" fill="#00519B"/>
<path fill-rule="evenodd" clip-rule="evenodd" d="M55 48.8607H47.6923C46.5702 48.8607 45.4941 48.416 44.7007 47.6244C43.9073 46.8329 43.4615 45.7593 43.4615 44.6399V41.5702C43.4615 40.4508 43.9073 39.3773 44.7007 38.5857C45.4941 37.7942 46.5702 37.3495 47.6923 37.3495H55V35.4309C55 34.312 54.5538 33.2377 53.7615 32.4457C52.9674 31.6549 51.8913 31.2106 50.7692 31.2102H29.2308C28.1092 31.2102 27.0323 31.6553 26.2385 32.4457C25.4458 33.238 25.0005 34.3115 25 35.4309V50.7792C25 51.8981 25.4462 52.9725 26.2385 53.7645C27.0326 54.5552 28.1087 54.9995 29.2308 55H50.7692C51.8908 55 52.9677 54.5549 53.7615 53.7645C54.5542 52.9721 54.9995 51.8986 55 50.7792V48.8607ZM55 39.6517V46.5584H47.6923C46.6308 46.5584 45.7692 45.6989 45.7692 44.6399V41.5702C45.7692 40.5112 46.6308 39.6517 47.6923 39.6517H55ZM28.5062 29.7214C28.7465 29.6907 28.9885 29.6753 29.2308 29.6753H44.1215L44.12 29.6723L41.9369 23.932C41.7976 23.5642 41.5869 23.2274 41.3169 22.941C41.0469 22.6546 40.7229 22.4242 40.3634 22.2629C40.004 22.1016 39.6162 22.0127 39.2222 22.0013C38.8283 21.9898 38.4359 22.056 38.0677 22.1961L30.0123 25.2443C29.6436 25.3833 29.3061 25.5935 29.019 25.8628C28.7319 26.1322 28.5009 26.4554 28.3393 26.814C28.1776 27.1726 28.0885 27.5595 28.077 27.9526C28.0655 28.3456 28.1319 28.737 28.2723 29.1044L28.5062 29.7214ZM45.7277 29.6753H50.7692C51.1031 29.6753 51.4354 29.7045 51.76 29.7613L51.7277 29.6723L49.5462 23.932C49.2631 23.1905 48.6967 22.5912 47.9714 22.2658C47.246 21.9404 46.4208 21.9153 45.6769 22.1961L43.2585 23.1109C43.3015 23.2014 43.34 23.2935 43.3754 23.3887L45.5585 29.1289C45.6262 29.3085 45.6831 29.4911 45.7277 29.6753Z" fill="white"/>
</svg>
