<svg width="80" height="80" viewBox="0 0 80 80" fill="none" xmlns="http://www.w3.org/2000/svg">
<rect width="80" height="80" rx="20" fill="#00519B"/>
<path d="M53.6552 27.4916L40.3507 23.0568C40.123 22.9811 39.8769 22.9811 39.6492 23.0568L26.3448 27.4916C26.1241 27.5652 25.9321 27.7064 25.7961 27.8952C25.6601 28.0839 25.5869 28.3107 25.5869 28.5434V37.4325C25.5868 50.1552 36.9115 57 40 57C42.2159 57 54.4131 50.9767 54.4131 37.4325V28.5433C54.4131 28.3107 54.3399 28.0839 54.2039 27.8952C54.0678 27.7064 53.8759 27.5652 53.6552 27.4916ZM49.9783 37.4349C49.9783 47.0683 41.6395 52.2432 39.9999 52.2451V27.6856C40.3308 27.6863 48.9057 30.5798 49.2196 30.6841C49.4404 30.7577 49.6326 30.8988 49.7687 31.0877C49.9049 31.2765 49.9782 31.5033 49.9782 31.7361L49.9783 37.4349Z" fill="white"/>
</svg>
