<svg width="50" height="50" viewBox="0 0 50 50" fill="none" xmlns="http://www.w3.org/2000/svg">
<path d="M26.4677 0C23.2359 0 20.5102 2.72548 20.5102 5.95702C20.5102 9.18855 23.2359 11.914 26.4677 11.914C29.6996 11.914 32.3277 9.18855 32.3277 5.95702C32.3277 2.72548 29.6996 0 26.4677 0ZM32.9715 11.914C31.3615 13.6991 29.0555 14.8437 26.4677 14.8437C23.88 14.8437 21.4764 13.6991 19.8664 11.914C18.4608 13.4725 17.5802 15.5142 17.5802 17.7734V19.2382C17.5802 20.0479 18.2354 20.7031 19.0452 20.7031H33.7926C34.6024 20.7031 35.2576 20.0479 35.2576 19.2382V17.7734C35.2576 15.5142 34.3771 13.4725 32.9715 11.914ZM14.1538 44.9612L6.68818 29.9949C5.96731 28.5497 4.21285 27.9604 2.76574 28.6773L0.814488 29.6438C0.087956 30.004 -0.207677 30.8869 0.154954 31.6121L8.94483 49.1902C9.30629 49.9151 10.1856 50.2036 10.9062 49.8482L12.8324 48.894C14.2852 48.1745 14.8773 46.4119 14.1538 44.9612ZM48.8039 24.1894C47.6025 23.3105 45.9324 23.4863 44.9363 24.5703L36.9278 34.414C36.3711 34.9999 35.3163 35.3515 34.7596 35.3515H27.9327C27.1122 35.3515 26.4677 34.707 26.4677 33.8866C26.4677 33.0662 27.1122 32.4218 27.9327 32.4218H33.7926C35.4041 32.4218 36.7226 31.1034 36.7226 29.4921C36.7226 27.8808 35.4041 26.5624 33.7926 26.5624H26.1161C25.386 26.5624 25.0219 26.0994 24.4461 25.5955C22.1794 23.556 18.7865 22.5734 15.3516 23.3695C13.4444 23.8115 12.1582 24.5819 10.8538 25.6149L10.8103 25.5796L8.69139 27.4443L17.0187 44.1405H33.7926C36.5468 44.1405 39.1839 42.8222 40.8246 40.6249L49.4191 28.3202C50.386 27.0311 50.1223 25.1563 48.8039 24.1894Z" fill="#00519B"/>
</svg>
