<svg width="80" height="80" viewBox="0 0 80 80" fill="none" xmlns="http://www.w3.org/2000/svg">
<rect width="80" height="80" rx="20" fill="#00519B"/>
<path d="M42.7907 38.1652C41.7657 38.1652 40.9319 38.9883 40.9319 40.0001C40.9319 41.0118 41.7657 41.8349 42.7907 41.8349C43.8157 41.8349 44.6495 41.0118 44.6495 40.0001C44.6495 38.9883 43.8157 38.1652 42.7907 38.1652ZM44.0219 32.6035V35.9122C44.9765 36.1928 45.7937 36.7905 46.3474 37.5817L49.5356 36.5591C48.4513 34.4967 46.4245 32.9917 44.0219 32.6035ZM50.2982 38.87L47.1091 39.8929C47.11 39.9286 47.112 39.9642 47.112 40.0001C47.112 40.9742 46.7787 41.8725 46.2198 42.5914L48.1889 45.2664C49.5455 43.9117 50.3845 42.0508 50.3845 40.0001C50.3845 39.616 50.3549 39.2387 50.2982 38.87Z" fill="white"/>
<path d="M42.7907 24H27.8125C27.1326 24 26.5813 24.5441 26.5813 25.2152C26.5813 25.8864 27.1326 26.4305 27.8125 26.4305H34.2121C32.8643 27.2639 31.6472 28.2872 30.5991 29.4679H22.2311C21.5512 29.4679 21 30.0121 21 30.6833C21 31.3544 21.5512 31.8985 22.2311 31.8985H28.8181C27.3977 34.2763 26.5813 37.0457 26.5813 40C26.5813 43.4377 27.6856 46.6256 29.562 49.2365H26.0688C25.3889 49.2365 24.8376 49.7806 24.8376 50.4518C24.8376 51.1229 25.3889 51.667 26.0688 51.667H31.7108C32.4803 52.3795 33.318 53.0167 34.2121 53.5695H22.3581C21.6782 53.5695 21.127 54.1136 21.127 54.7848C21.127 55.4559 21.6782 56 22.3581 56H42.7907C51.7286 56 59 48.8224 59 40C59 31.1776 51.7286 24 42.7907 24ZM48.7711 47.9752C48.7484 47.9941 48.726 48.0131 48.7015 48.0305C48.6741 48.0502 48.6459 48.0686 48.6175 48.0857C46.9725 49.2441 44.9608 49.9263 42.7907 49.9263C40.6205 49.9263 38.6089 49.2441 36.9638 48.0857C36.9351 48.0685 36.907 48.05 36.8798 48.0305C36.8555 48.013 36.833 47.9939 36.8103 47.9752C34.3391 46.1649 32.7345 43.2641 32.7345 40C32.7345 34.5267 37.2457 30.0737 42.7907 30.0737C48.3356 30.0737 52.8468 34.5267 52.8468 40C52.8468 43.2642 51.2423 46.1649 48.7711 47.9752Z" fill="white"/>
<path d="M36.0458 36.559L39.2339 37.5816C39.7878 36.7905 40.6049 36.1928 41.5595 35.9121V32.6035C39.157 32.9917 37.1302 34.4966 36.0458 36.559ZM44.229 44.0217C43.7671 44.1833 43.2807 44.2658 42.7907 44.2656C42.3007 44.2658 41.8143 44.1833 41.3524 44.0217L39.3829 46.6973C40.4083 47.2077 41.566 47.4958 42.7907 47.4958C44.0154 47.4958 45.173 47.2078 46.1985 46.6973L44.229 44.0217ZM38.4695 40.0001C38.4695 39.9642 38.4713 39.9286 38.4722 39.8929L35.2831 38.87C35.2256 39.244 35.1968 39.6218 35.1968 40.0001C35.1968 42.0509 36.0359 43.9117 37.3925 45.2665L39.3616 42.5914C38.8028 41.8725 38.4695 40.9742 38.4695 40.0001Z" fill="white"/>
</svg>
