<svg width="80" height="80" viewBox="0 0 80 80" fill="none" xmlns="http://www.w3.org/2000/svg">
<rect width="80" height="80" rx="20" fill="#00519B"/>
<path d="M37.4663 23C33.1404 23 29.8212 26.9076 30.5631 31.2048C30.657 31.7485 31.174 32.1106 31.714 32.017C32.2562 31.9233 32.6198 31.4082 32.5262 30.866C31.9957 27.7921 34.3668 24.9922 37.4664 24.9922C40.5566 24.9922 42.9322 27.7789 42.409 30.8539C42.3167 31.3963 42.6816 31.9107 43.2238 32.003C43.7662 32.0956 44.2806 31.7304 44.3729 31.188C45.1011 26.908 41.7976 23 37.4663 23Z" fill="white"/>
<path d="M48.0661 38.9798C47.3141 37.5043 45.5289 36.9362 44.0817 37.6516C43.3995 36.3132 41.841 35.6937 40.44 36.1801V30.0805C40.44 28.4546 39.1334 27.0961 37.527 27.052C35.8437 27.0042 34.4489 28.3524 34.4489 30.0392V45.3845L33.2788 44.1591C32.1556 42.9833 30.2749 42.9005 29.0861 43.9752C27.8317 45.1091 27.7691 47.0398 28.9242 48.2532L35.6494 55.4264C36.5874 56.4264 37.9117 57.0002 39.2828 57.0002H47.394C50.1402 57.0002 52.3745 54.766 52.3745 52.0198V41.6604C52.3745 39.4469 50.0396 38.0039 48.066 38.9798H48.0661Z" fill="white"/>
</svg>
