<svg width="60" height="45" viewBox="0 0 60 45" fill="none" xmlns="http://www.w3.org/2000/svg">
<path d="M12.2838 22.5194V22.452C12.2782 22.4463 12.2782 22.4463 12.2782 22.4463C12.2782 22.3845 12.0045 18.9516 12.0045 18.9516L9.92129 21.0473L10.8261 23.4184H13.2723L13.3226 23.1093L12.2838 22.5194Z" fill="#00519B"/>
<path d="M16.0314 3.17451L15.5622 3.46668L15.4115 4.1353L12.1051 5.74222L14.4229 7.22553L16.0314 5.57366V3.17451Z" fill="#00519B"/>
<path d="M16.0314 8.84369V6.51758L16.0258 6.37712L15.5455 6.68052L15.3891 7.37723L14.3447 8.01775L11.2059 5.7984L11.2561 5.79278L11.5186 4.80953L12.6636 3.55096L12.9484 2.20249L13.546 1.7811V1.45522L12.8702 1.65187L13.4734 1.03382L13.2333 0.162939L12.9764 0L12.6133 0.129227L12.5854 0.398921L11.6974 0.685469L11.3343 0.505675L10.3011 0.898977C10.1168 0.803461 9.97716 0.668614 9.77051 0.7248C9.60854 0.769749 9.50801 0.921451 9.4745 1.09001C9.40748 1.06754 9.33488 1.05068 9.25668 1.05068C8.90482 1.05068 8.54738 1.41027 8.68142 1.73615C8.73727 1.87661 8.77637 1.96651 8.88248 2.19688L6.87743 5.34891L4.93382 15.0354L6.87185 18.0694L6.0285 21.0361L7.23488 23.4015L7.57557 23.4071H9.72025L9.77051 23.0981L8.49711 22.3845L8.40216 21.6878L12.9596 17.221L13.0266 13.9173L12.0548 9.76514L14.1045 10.3101L16.0314 8.84369Z" fill="#00519B"/>
<path d="M47.7383 22.5194V22.4519C47.7439 22.4463 47.7439 22.4463 47.7439 22.4463C47.7439 22.3845 48.0175 18.9515 48.0175 18.9515L50.1008 21.0473L49.196 23.4183H46.7497L46.6994 23.1093L47.7383 22.5194Z" fill="#00519B"/>
<path d="M43.9903 3.17428L44.4595 3.46645L44.6103 4.13506L47.9166 5.74198L45.5988 7.2253L43.9903 5.57343V3.17428Z" fill="#00519B"/>
<path d="M43.9903 8.84369V6.51758L43.9959 6.37712L44.4762 6.68052L44.6326 7.37723L45.677 8.01775L48.8158 5.7984L48.7656 5.79278L48.5031 4.80953L47.3581 3.55096L47.0733 2.20249L46.4757 1.7811V1.45522L47.1515 1.65187L46.5483 1.03382L46.7884 0.162939L47.0454 0L47.4084 0.129227L47.4363 0.398921L48.3243 0.685469L48.6874 0.505675L49.7206 0.898977C49.9049 0.803461 50.0446 0.668614 50.2512 0.7248C50.4132 0.769749 50.5137 0.921451 50.5472 1.09001C50.6142 1.06753 50.6868 1.05068 50.765 1.05068C51.1169 1.05068 51.4743 1.41027 51.3403 1.73615C51.2844 1.87661 51.2453 1.96651 51.1392 2.19688L53.1443 5.34891L55.0823 15.0354L53.1443 18.0694L53.9876 21.0361L52.7812 23.4015L52.4406 23.4071H50.2959L50.2456 23.0981L51.519 22.3845L51.614 21.6878L47.0565 17.221L46.9895 13.9173L47.9613 9.76514L45.9116 10.3101L43.9903 8.84369Z" fill="#00519B"/>
<path d="M46.8 24.018V25.8194H52.8V24.018H46.8Z" fill="#00519B"/>
<path d="M7.19996 24.018V25.8194H13.2V24.018H7.19996Z" fill="#00519B"/>
<path d="M42.8619 20.1538H42.8731V3.19689H17.137V20.1538H17.1649L17.1425 20.1763C20.6723 24.924 24.6154 28.9751 29.0611 32.1664L30.0106 31.1663L30.9601 32.1664C35.4058 28.9751 39.3489 24.924 42.8787 20.1763L42.8619 20.1538ZM30.0162 31.1495C25.9 28.3683 22.0854 24.5083 18.5332 19.7268V4.59593H41.488V19.7437C37.9303 24.5195 34.1212 28.3739 30.0162 31.1495Z" fill="#00519B"/>
<path d="M30.1728 13.1362C28.9329 13.1362 27.9109 14.17 27.9165 15.4117C27.922 16.6703 28.9385 17.6873 30.1896 17.6873C31.4295 17.6873 32.446 16.6591 32.446 15.4117C32.4404 14.1588 31.4239 13.1362 30.1728 13.1362Z" fill="#00519B"/>
<path d="M30.1897 7.48961C25.8334 7.49523 22.2924 11.035 22.2924 15.3838C22.2924 19.7944 25.811 23.3453 30.1786 23.3397C34.5517 23.3397 38.0647 19.7831 38.0591 15.3613C38.0591 11.0406 34.507 7.484 30.1897 7.48961ZM36.6182 11.9564C35.2275 12.1812 33.9541 12.6025 32.7812 13.288C33.0158 13.5802 33.2001 13.9173 33.3286 14.2825C33.5743 14.1364 33.8368 13.9791 34.0993 13.8386C34.4735 13.6364 34.87 13.4847 35.2945 13.4172C36.0429 13.2993 36.6182 13.5914 36.9812 14.26C37.2995 14.8556 37.3666 15.4961 37.3275 16.1535C37.3051 16.5861 37.2325 17.0075 37.1097 17.4402C35.9982 16.6367 34.8086 16.0243 33.5073 15.6759C33.4738 16.0636 33.3788 16.4288 33.2336 16.7716C33.4905 16.8446 33.7642 16.912 34.0379 16.9907C34.4121 17.1087 34.7751 17.2604 35.099 17.4851C35.8251 17.9908 36.0317 18.665 35.719 19.5022C35.49 20.1202 35.0711 20.6034 34.574 21.0136C34.2836 21.2552 33.9708 21.4631 33.6301 21.7103C33.4123 20.3506 33.0158 19.1033 32.3679 17.9515C32.0887 18.1987 31.7647 18.3953 31.4129 18.5414C31.5357 18.7605 31.6698 18.9909 31.7927 19.2269C31.9993 19.6314 32.1557 20.0472 32.2004 20.5023C32.2674 21.2103 31.9658 21.7159 31.3626 22.053C30.765 22.3902 30.1171 22.4576 29.4525 22.407C29.0671 22.3789 28.6818 22.289 28.2964 22.2216C28.2629 22.216 28.2349 22.2047 28.1847 22.1879C28.9387 21.1316 29.5251 20.0079 29.8825 18.7718C29.4972 18.7381 29.1341 18.6425 28.799 18.4908C28.7879 18.5246 28.7823 18.5583 28.7711 18.592C28.6538 19.0696 28.503 19.5359 28.2573 19.9685C27.7267 20.9012 26.928 21.1597 25.9506 20.7046C25.381 20.4405 24.9342 20.0303 24.5544 19.5415C24.3477 19.2718 24.1578 18.9909 23.94 18.6819C25.2302 18.4684 26.4254 18.0975 27.5201 17.4964C27.2911 17.2042 27.1068 16.8727 26.9839 16.5187C26.7772 16.6367 26.5594 16.7603 26.3304 16.8727C25.8613 17.1031 25.3754 17.2772 24.8448 17.2491C24.236 17.2154 23.8451 16.8671 23.5658 16.3558C23.3424 15.94 23.253 15.4849 23.2307 15.0185C23.2028 14.4286 23.281 13.8499 23.4318 13.2824C23.4373 13.2655 23.4485 13.2487 23.4597 13.215C24.4985 13.9679 25.6099 14.5522 26.8275 14.9118C26.8834 14.5297 27.0006 14.1701 27.1738 13.8443C26.956 13.7881 26.727 13.7375 26.5091 13.6476C26.174 13.5128 25.8278 13.3835 25.5262 13.1925C24.7443 12.7037 24.532 11.9733 24.8727 11.1136C25.1408 10.4338 25.6211 9.92809 26.1852 9.48984C26.4198 9.31004 26.6711 9.15272 26.9448 8.96169C27.1626 10.2933 27.5536 11.5294 28.1847 12.6644C28.4863 12.4452 28.827 12.271 29.1956 12.1587C29.1453 12.0744 29.0895 11.9845 29.0336 11.889C28.7432 11.3945 28.4919 10.8889 28.3913 10.3102C28.2629 9.55726 28.5365 8.97855 29.2012 8.6021C29.7541 8.28746 30.3629 8.19756 30.9828 8.23689C31.4017 8.26498 31.8206 8.35488 32.2395 8.41668C32.2841 8.4223 32.3288 8.44478 32.3903 8.46163C31.5972 9.5685 30.994 10.754 30.6421 12.0463C31.0275 12.1025 31.3905 12.2261 31.7256 12.4003C31.748 12.3104 31.7647 12.2092 31.7927 12.1081C31.9323 11.5182 32.111 10.9451 32.4684 10.4394C32.9543 9.75391 33.619 9.55164 34.4121 9.84381C35.0711 10.0854 35.5793 10.5405 36.0094 11.0799C36.2049 11.3496 36.3948 11.6418 36.6182 11.9564Z" fill="#00519B"/>
<path d="M19.4829 5.44436V19.3055C22.834 23.7666 26.3805 27.3288 30.022 29.8909C33.6579 27.3288 37.1989 23.7779 40.5443 19.3223V5.44436H19.4829ZM30.1896 24.0757C25.4422 24.0813 21.5662 20.2101 21.5606 15.4511C21.5606 10.6247 25.392 6.74788 30.1728 6.74788C34.9369 6.74226 38.785 10.6135 38.7906 15.4062C38.8018 20.1932 34.9537 24.07 30.1896 24.0757Z" fill="#00519B"/>
<path d="M24.0853 31.7169L24.9566 30.6325C22.1026 28.3176 19.5223 25.7949 17.8859 23.7216L17.7462 23.5474L17.534 23.4856C16.6404 23.2215 15.7021 23.6092 14.9537 24.5419C13.8032 25.9803 13.2391 28.6098 14.2835 30.537L14.3226 30.5988C14.9369 31.4921 15.8697 32.0708 16.8247 32.1383C16.8861 32.1439 16.9532 32.1439 17.0146 32.1439C17.763 32.1439 18.4667 31.8236 19.0085 31.2337L19.0587 31.1719C19.6452 30.3515 19.6563 29.3177 19.0755 28.5311C18.679 27.9917 18.0869 27.6827 17.4447 27.6434L16.9923 29.0874C17.5675 28.9019 17.8803 29.2503 17.9641 29.3627C18.0423 29.4694 18.2712 29.8515 17.9585 30.3178C17.6569 30.6269 17.3106 30.7729 16.9196 30.7448C16.4002 30.7055 15.8529 30.3628 15.4787 29.8346C14.747 28.4412 15.1939 26.4635 16.0316 25.4184C16.188 25.2218 16.5622 24.8116 16.9643 24.8004C18.6734 26.913 21.2537 29.4189 24.0853 31.7169Z" fill="#00519B"/>
<path d="M45.0681 24.5419C44.3197 23.6092 43.3758 23.2215 42.4878 23.4856L42.2756 23.5474L42.1359 23.7216C40.4939 25.7949 37.9192 28.3176 35.0652 30.6325L35.9365 31.7169C38.7681 29.4189 41.3484 26.913 43.0519 24.8004C43.454 24.8116 43.8282 25.2218 43.9846 25.4184C44.8224 26.4635 45.2692 28.4468 44.5375 29.8346C44.1689 30.3572 43.616 30.7055 43.0966 30.7448C42.7056 30.7729 42.3593 30.6269 42.0577 30.3178C41.745 29.8515 41.974 29.4694 42.0522 29.3627C42.1304 29.2559 42.404 28.9525 42.9067 29.0536L42.4655 27.649C41.8623 27.7108 41.3149 28.0198 40.9407 28.5255C40.3655 29.3121 40.371 30.3459 40.9575 31.1662L41.0078 31.228C41.5495 31.818 42.2532 32.1383 43.0016 32.1383C43.0631 32.1383 43.1301 32.1383 43.1915 32.1326C44.1466 32.0652 45.0793 31.4865 45.6936 30.5931L45.7327 30.5313C46.7827 28.6154 46.2186 25.9803 45.0681 24.5419Z" fill="#00519B"/>
<path d="M5.52428 42.5786V37.7039H3.39303L3.36122 38.5146C3.34708 38.9483 3.31881 39.3537 3.2764 39.7306C3.24105 40.1075 3.18804 40.4524 3.11735 40.7653C3.05373 41.0782 2.96537 41.3484 2.85227 41.5759C2.74624 41.7964 2.61546 41.9671 2.45995 42.088L0.222668 41.8213C0.470076 41.8284 0.671538 41.7466 0.827052 41.5759C0.989634 41.3982 1.11687 41.1528 1.20877 40.8399C1.30773 40.527 1.37842 40.1573 1.42083 39.7306C1.47031 39.3039 1.50566 38.8381 1.52686 38.3332L1.61169 36.0292H7.59191V42.5786H5.52428ZM0 45V41.8213H8.59922V45H6.68003V43.496H1.92979V45H0Z" fill="#00519B"/>
<path d="M8.93338 43.496L12.2098 36.0292H14.2774L17.5644 43.496H15.3801L12.8142 37.0639H13.6412L11.0752 43.496H8.93338ZM10.7253 42.0453L11.2661 40.4879H14.8924L15.4332 42.0453H10.7253Z" fill="#00519B"/>
<path d="M18.415 43.496V36.0292H20.4826V40.4133L23.5469 36.0292H25.5191V43.496H23.4515V39.1226L20.3978 43.496H18.415ZM21.9565 35.5812C21.186 35.5812 20.6311 35.4318 20.2918 35.1332C19.9525 34.8274 19.7828 34.3972 19.7828 33.8425H21.193C21.2001 34.0914 21.2637 34.2763 21.3839 34.3972C21.5041 34.518 21.6949 34.5785 21.9565 34.5785C22.2251 34.5785 22.4195 34.518 22.5396 34.3972C22.6669 34.2763 22.734 34.0914 22.7411 33.8425H24.1513C24.1513 34.3972 23.9781 34.8274 23.6318 35.1332C23.2854 35.4318 22.727 35.5812 21.9565 35.5812Z" fill="#00519B"/>
<path d="M26.551 36.0185H28.9579L30.2833 38.0452L31.5981 36.0185H34.0368L31.5981 39.5919L34.2489 43.496H31.7784L30.2833 41.2879L28.7989 43.496H26.3813L29.0215 39.6879L26.551 36.0185Z" fill="#00519B"/>
<path d="M43.843 43.624C43.7016 43.624 43.5496 43.6133 43.3871 43.592C43.2316 43.5706 43.0654 43.5386 42.8887 43.496L43.0054 41.7679C43.1043 41.7893 43.1997 41.7999 43.2916 41.7999C43.5815 41.7999 43.8006 41.6862 43.949 41.4586C44.0975 41.2239 44.2 40.8968 44.2565 40.4773C44.3202 40.0577 44.359 39.567 44.3732 39.0052L44.4792 36.0292H50.4594V43.496H48.3918V37.2345L48.8477 37.7039H45.847L46.2711 37.2132L46.2181 38.9199C46.1969 39.6452 46.1474 40.2995 46.0697 40.8826C45.9919 41.4586 45.8682 41.9528 45.6986 42.3653C45.5289 42.7706 45.2921 43.0835 44.9882 43.304C44.6913 43.5173 44.3095 43.624 43.843 43.624Z" fill="#00519B"/>
<path d="M56.9251 42.5786V37.7039H54.7938L54.762 38.5146C54.7479 38.9483 54.7196 39.3537 54.6772 39.7306C54.6418 40.1075 54.5888 40.4524 54.5181 40.7653C54.4545 41.0782 54.3661 41.3484 54.2531 41.5759C54.147 41.7964 54.0162 41.9671 53.8607 42.088L51.6235 41.8213C51.8709 41.8284 52.0723 41.7466 52.2278 41.5759C52.3904 41.3982 52.5177 41.1528 52.6096 40.8399C52.7085 40.527 52.7792 40.1573 52.8216 39.7306C52.8711 39.3039 52.9064 38.8381 52.9277 38.3332L53.0125 36.0292H58.9927V42.5786H56.9251ZM51.4008 45V41.8213H60V45H58.0808V43.496H53.3306V45H51.4008Z" fill="#00519B"/>
<path d="M38.4681 39.2533C38.2006 39.2533 37.9804 39.4749 37.9804 39.7439C37.9804 40.013 38.2006 40.2346 38.4681 40.2346C38.7356 40.2346 38.9558 40.013 38.9558 39.7439C38.9558 39.4749 38.7356 39.2533 38.4681 39.2533Z" fill="#00519B"/>
<path d="M42.318 38.1612C42.1134 37.6811 41.8197 37.259 41.4422 36.9055C41.0646 36.5467 40.624 36.2724 40.1206 36.0825C39.6171 35.8873 39.0664 35.7923 38.4633 35.7923C37.8602 35.7923 37.3095 35.8925 36.8061 36.0877C36.3026 36.283 35.8621 36.5626 35.4845 36.9161C35.1069 37.2748 34.8184 37.6916 34.6087 38.1664C34.4041 38.6465 34.2993 39.1689 34.2993 39.7439C34.2993 40.3137 34.4041 40.836 34.6087 41.3162C34.8132 41.7963 35.1069 42.2183 35.4845 42.5718C35.8621 42.9306 36.3026 43.2049 36.8113 43.4001C37.32 43.5953 37.8707 43.6956 38.4738 43.6956C39.0664 43.6956 39.6171 43.6006 40.1206 43.4054C40.624 43.2102 41.0646 42.9358 41.4422 42.5824C41.8197 42.2236 42.1082 41.8068 42.318 41.3214C42.5225 40.836 42.6274 40.3085 42.6274 39.7439C42.6274 39.1689 42.5277 38.6413 42.318 38.1612ZM41.2901 41.448L38.4214 40.4193L39.3444 41.2159C39.1923 41.8437 38.4843 42.097 37.6714 42.2711C38.0595 42.25 39.1346 42.1181 39.5279 41.3795L39.8059 41.5694C39.5332 42.2236 38.6416 42.5824 37.5455 42.5929C37.6662 42.7723 38.07 42.8884 38.3007 42.9464C37.7815 43.0044 37.32 42.9464 36.8952 42.7617L37.6976 39.6595L36.9687 40.6303C36.3865 40.3876 36.0928 39.7703 35.9617 38.9473C35.925 39.7967 36.2974 40.4351 36.8061 40.8783L36.612 41.179C35.9408 40.6197 35.6261 39.7439 35.5946 38.7785C35.4058 39 35.3639 39.2427 35.3062 39.5329C35.1908 39.0106 35.3114 38.4197 35.6156 37.9923L38.5525 39.037L37.5246 38.1981C37.9074 37.4489 38.4895 37.3117 39.0664 37.164C38.3794 37.1482 37.7711 37.3856 37.2886 37.9818L37.0735 37.7655C37.7134 37.1165 38.5 36.8739 39.3654 36.858C39.187 36.7261 38.9039 36.6206 38.5892 36.5204C39.2238 36.4887 39.6223 36.552 40.1415 36.8105C40.1415 36.8527 39.1713 39.8336 39.1713 39.8336L39.9632 38.8418C40.4824 39.0211 40.86 39.4485 40.9072 40.4351C41.0331 39.6384 40.7027 39.0686 40.1573 38.6043L40.3513 38.3458C41.0383 38.9737 41.2796 39.6595 41.2953 40.5881C41.4841 40.414 41.5942 40.2135 41.6834 40.0077C41.6677 40.6514 41.5995 41.0154 41.2901 41.448Z" fill="#00519B"/>
</svg>
