<svg width="50" height="50" viewBox="0 0 50 50" fill="none" xmlns="http://www.w3.org/2000/svg">
<path d="M20.1562 27.0831H6.92562L0 38.5419L6.92562 50H20.1562L27.0831 38.5419L20.1562 27.0831ZM13.5419 43.75C12.1704 43.735 10.8602 43.1796 9.89567 42.2045C8.93116 41.2293 8.39018 39.9131 8.39018 38.5416C8.39018 37.17 8.93116 35.8538 9.89567 34.8787C10.8602 33.9035 12.1704 33.3481 13.5419 33.3331C16.4188 33.3331 18.75 35.6688 18.75 38.5419C18.7501 39.2258 18.6154 39.9031 18.3537 40.535C18.092 41.167 17.7084 41.7411 17.2248 42.2248C16.7411 42.7084 16.167 43.092 15.535 43.3537C14.9031 43.6154 14.2258 43.7501 13.5419 43.75ZM38.5419 12.5L27.0831 19.4275V32.6581L38.5419 39.5831L50 32.6581V19.4275L38.5419 12.5ZM38.5419 31.25C35.6688 31.25 33.3331 28.9144 33.3331 26.0419C33.3331 23.165 35.6688 20.8337 38.5419 20.8337C41.4144 20.8337 43.75 23.165 43.75 26.0419C43.75 28.9144 41.4144 31.25 38.5419 31.25ZM22.54 2.77937L10.5875 0L2.08313 8.50438L4.86187 20.4569L16.815 23.2381L25.3187 14.7319L22.54 2.77937ZM13.7 15.7856C12.5955 15.7845 11.5365 15.345 10.7557 14.5637C9.97495 13.7825 9.53612 12.7233 9.53563 11.6187C9.5353 11.0715 9.64285 10.5295 9.85214 10.0238C10.0614 9.51807 10.3683 9.05859 10.7553 8.67159C11.1423 8.2846 11.6018 7.97768 12.1075 7.76839C12.6132 7.5591 13.1552 7.45155 13.7025 7.45188C16.0012 7.45 17.865 9.3175 17.8694 11.6169C17.8681 12.7222 17.4283 13.7819 16.6467 14.5634C15.8651 15.3449 14.8053 15.7845 13.7 15.7856Z" fill="#00519B"/>
</svg>
