<svg width="80" height="80" viewBox="0 0 80 80" fill="none" xmlns="http://www.w3.org/2000/svg">
<rect width="80" height="80" rx="20" fill="#00519B"/>
<path fill-rule="evenodd" clip-rule="evenodd" d="M24 31.875C24 30.5821 24.5057 29.3421 25.4059 28.4279C26.3061 27.5136 27.527 27 28.8 27H51.2C52.473 27 53.6939 27.5136 54.5941 28.4279C55.4943 29.3421 56 30.5821 56 31.875V33.9062H24V31.875ZM24 36.3438H56V48.125C56 49.4179 55.4943 50.6579 54.5941 51.5721C53.6939 52.4864 52.473 53 51.2 53H28.8C27.527 53 26.3061 52.4864 25.4059 51.5721C24.5057 50.6579 24 49.4179 24 48.125V36.3438ZM28.8 42.0312C28.4817 42.0312 28.1765 42.1597 27.9515 42.3882C27.7264 42.6168 27.6 42.9268 27.6 43.25C27.6 43.5732 27.7264 43.8832 27.9515 44.1118C28.1765 44.3403 28.4817 44.4688 28.8 44.4688H35.2C35.5183 44.4688 35.8235 44.3403 36.0485 44.1118C36.2736 43.8832 36.4 43.5732 36.4 43.25C36.4 42.9268 36.2736 42.6168 36.0485 42.3882C35.8235 42.1597 35.5183 42.0312 35.2 42.0312H28.8Z" fill="white"/>
</svg>
