<svg width="80" height="80" viewBox="0 0 80 80" fill="none" xmlns="http://www.w3.org/2000/svg">
<rect width="80" height="80" rx="20" fill="#00519B"/>
<path d="M22 50.153V31.6922C22 30.7129 22.3898 29.7738 23.0837 29.0814C23.7776 28.389 24.7187 28 25.7 28H55.3C56.2813 28 57.2224 28.389 57.9163 29.0814C58.6102 29.7738 59 30.7129 59 31.6922V50.153C59 51.1322 58.6102 52.0713 57.9163 52.7638C57.2224 53.4562 56.2813 53.8452 55.3 53.8452H46.975C46.6878 53.8452 46.4045 53.9119 46.1477 54.0401C45.8908 54.1682 45.6673 54.3543 45.495 54.5836L41.98 59.2616C41.8077 59.4908 41.5842 59.6769 41.3273 59.8051C41.0705 59.9333 40.7872 60 40.5 60C40.2128 60 39.9295 59.9333 39.6727 59.8051C39.4158 59.6769 39.1923 59.4908 39.02 59.2616L35.505 54.5836C35.3327 54.3543 35.1092 54.1682 34.8523 54.0401C34.5955 53.9119 34.3122 53.8452 34.025 53.8452H25.7C24.7187 53.8452 23.7776 53.4562 23.0837 52.7638C22.3898 52.0713 22 51.1322 22 50.153Z" fill="white"/>
</svg>
