<svg width="80" height="80" viewBox="0 0 80 80" fill="none" xmlns="http://www.w3.org/2000/svg">
<rect width="80" height="80" rx="20" fill="#00519B"/>
<path d="M37.3667 23C33.0408 23 29.7216 26.9076 30.4635 31.2048C30.5574 31.7485 31.0743 32.1106 31.6144 32.017C32.1566 31.9233 32.5202 31.4082 32.4266 30.866C31.8961 27.7921 34.2672 24.9922 37.3668 24.9922C40.457 24.9922 42.8326 27.7789 42.3094 30.8539C42.2171 31.3963 42.582 31.9107 43.1242 32.003C43.6666 32.0956 44.181 31.7304 44.2733 31.188C45.0015 26.908 41.698 23 37.3667 23Z" fill="white"/>
<path d="M47.9665 38.9798C47.2145 37.5043 45.4293 36.9362 43.9821 37.6516C43.2999 36.3132 41.7414 35.6937 40.3404 36.1801V30.0805C40.3404 28.4546 39.0338 27.0961 37.4274 27.052C35.7441 27.0042 34.3493 28.3524 34.3493 30.0392V45.3845L33.1792 44.1591C32.056 42.9833 30.1753 42.9005 28.9865 43.9752C27.732 45.1091 27.6695 47.0398 28.8246 48.2532L35.5498 55.4264C36.4878 56.4264 37.812 57.0002 39.1832 57.0002H47.2944C50.0406 57.0002 52.2749 54.766 52.2749 52.0198V41.6604C52.2749 39.4469 49.94 38.0039 47.9664 38.9798H47.9665Z" fill="white"/>
</svg>
