<svg width="50" height="50" viewBox="0 0 50 50" fill="none" xmlns="http://www.w3.org/2000/svg">
<path d="M26.7837 0C25.5176 0 25.1806 2.11681 25.0137 3.35476C24.6861 5.59757 24.0562 8.38848 21.7129 9.65164C20.7932 10.1462 19.8925 10.4391 19.2751 10.8486C18.661 11.255 18.3397 11.7212 18.3397 12.5465V24.2645C18.3397 25.1308 19.0893 25.8364 20.0216 25.8364H35.2971C36.1821 25.8364 36.6514 25.0426 37.0293 23.9779C38.0466 21.0106 40.6986 14.1058 40.7962 12.8898C40.7962 12.0267 40.0655 11.3211 39.1206 11.3211H30.853C30.7389 11.3216 30.6258 11.2993 30.5203 11.2558C30.4148 11.2122 30.319 11.1481 30.2385 11.0672C30.1579 10.9864 30.0942 10.8904 30.051 10.7847C30.0078 10.679 29.986 10.5659 29.9869 10.4517C30.0121 6.85758 29.9869 0 26.7837 0ZM10.8406 11.6865C10.7307 11.6861 10.6219 11.7075 10.5204 11.7496C10.4189 11.7916 10.3268 11.8534 10.2494 11.9314C10.1721 12.0094 10.111 12.102 10.0697 12.2038C10.0284 12.3056 10.0078 12.4146 10.0091 12.5244V24.9985C10.0091 25.471 10.3902 25.8364 10.8406 25.8364H15.8421C15.9519 25.8364 16.0607 25.8146 16.162 25.7722C16.2634 25.7297 16.3552 25.6676 16.4323 25.5893C16.5094 25.511 16.5702 25.4182 16.611 25.3162C16.6519 25.2143 16.6721 25.1052 16.6704 24.9953V12.5213C16.6717 12.4117 16.6512 12.303 16.6101 12.2014C16.5691 12.0998 16.5082 12.0073 16.4312 11.9294C16.3541 11.8514 16.2624 11.7896 16.1613 11.7473C16.0602 11.7051 15.9517 11.6834 15.8421 11.6834L10.8406 11.6865ZM25.0137 29.1628C24.7019 29.1628 24.4153 29.3455 24.2767 29.6385L21.757 34.984L16.1193 35.8408C15.4516 35.9448 15.187 36.8016 15.6689 37.2961L19.7476 41.4542L18.7807 47.3289C18.6641 48.0282 19.3633 48.5574 19.9618 48.233L25.0011 45.4578L30.0467 48.2298C30.6451 48.5606 31.3443 48.0251 31.2278 47.3289L30.264 41.4542L34.3459 37.293C34.8309 36.7984 34.5632 35.9353 33.8923 35.8377L28.2546 34.984L25.7349 29.6385C25.6711 29.5 25.5697 29.3822 25.4421 29.2986C25.3146 29.2151 25.1661 29.166 25.0137 29.1628ZM42.9316 35.8251C42.776 35.8247 42.6235 35.869 42.4922 35.9527C42.361 36.0365 42.2566 36.1562 42.1915 36.2976L40.4435 40.002L36.538 40.5942C35.8703 40.6982 35.6057 41.555 36.0876 42.0495L38.9128 44.9349L38.2451 48.9984C38.1285 49.6977 38.8277 50.2301 39.4261 49.8993L42.9222 47.9778L46.4119 49.8993C47.0103 50.2269 47.7064 49.6946 47.593 48.9984L46.9316 44.9318L49.7536 42.0464C50.2355 41.5518 49.9709 40.6982 49.3032 40.5942L45.3978 40.002L43.6497 36.3007C43.5866 36.1621 43.4858 36.044 43.3589 35.9599C43.2319 35.8758 43.0839 35.8291 42.9316 35.8251ZM7.08942 35.8314C6.93376 35.831 6.78125 35.8753 6.65004 35.959C6.51883 36.0428 6.41443 36.1625 6.34927 36.3039L4.6044 40.0083L0.698925 40.5974C0.0280643 40.7013 -0.2365 41.5644 0.248535 42.0558L3.07371 44.9349L2.406 49.0016C2.29261 49.6977 2.98867 50.2301 3.58709 49.8993L7.07997 47.9778L10.5697 49.8993C11.1681 50.2269 11.8673 49.6946 11.7508 48.9984L11.0862 44.9349L13.9114 42.0495C14.3901 41.555 14.1256 40.7013 13.461 40.5974L9.55554 40.0051L7.81067 36.307C7.74734 36.1679 7.64606 36.0495 7.51849 35.9654C7.39091 35.8813 7.2422 35.8348 7.08942 35.8314Z" fill="#00519B"/>
</svg>
