<svg width="379" height="457" viewBox="0 0 379 457" fill="none" xmlns="http://www.w3.org/2000/svg">
<g opacity="0.1">
<path d="M133.665 425.628L133.425 424.732C133.33 424.677 133.33 424.677 133.33 424.677C133.11 423.855 117.234 379.164 117.234 379.164L96.9921 414.467L117.479 442.782L150.019 434.063L149.586 429.773L133.665 425.628Z" fill="#EEF4FE"/>
<path d="M114.566 154.944L109.366 160.503L109.744 169.934L71.4894 203.094L107.608 214.564L123.117 186.858L114.566 154.944Z" fill="#EEF4FE"/>
<path d="M134.772 230.356L126.481 199.414L125.906 197.565L120.599 203.313L121.002 213.138L109.392 225.381L59.7285 207.047L60.3772 206.793L60.3643 192.778L71.1086 171.955L70.0912 153.003L76.5387 145.267L75.3771 140.933L67.0886 145.957L72.9093 135.586L66.6106 124.857L62.6124 123.606L58.2439 126.619L58.8337 130.306L48.0424 137.282L42.5725 136.185L30.2301 145.099C27.438 144.486 25.1 143.189 22.5514 144.673C20.5571 145.849 19.7605 148.225 19.9156 150.587C18.944 150.526 17.9181 150.561 16.878 150.84C12.1975 152.094 8.7244 158.151 11.669 162.008C12.9126 163.678 13.753 164.734 15.9857 167.42L0.549104 216.495L9.22035 352.273L45.8143 385.725L45.1699 428.193L69.6483 455.358L74.2002 454.219L102.729 446.574L102.296 442.285L82.8139 437.331L79.0676 428.402L123.77 352.741L112.886 308.555L85.1597 256.787L114.368 256.731L134.772 230.356Z" fill="#EEF4FE"/>
<path d="M605.283 299.257L605.042 298.36C605.097 298.265 605.096 298.265 605.096 298.265C604.876 297.443 596.281 250.802 596.281 250.802L631.462 271.255L627.877 306.019L595.337 314.739L593.567 310.807L605.283 299.257Z" fill="#EEF4FE"/>
<path d="M486.476 55.2877L493.758 57.502L498.147 65.8585L547.856 75.449L522.312 103.441L495.027 87.2013L486.476 55.2877Z" fill="#EEF4FE"/>
<path d="M506.684 130.703L498.393 99.7606L497.966 97.8722L505.437 100.196L510 108.906L526.176 113.704L560.019 72.9944L559.33 73.0989L552.334 60.9551L532.618 48.2945L524.022 31.3723L514.571 27.8969L513.41 23.5621L523.1 23.7692L512.873 17.6979L512.964 5.2573L515.801 2.17417L521.09 2.59922L522.423 6.08717L535.257 6.73365L539.445 3.04808L554.591 4.59705C556.703 2.66955 558.079 0.378132 561.028 0.38897C563.343 0.409595 565.221 2.06922 566.268 4.19196C567.079 3.65412 567.985 3.17112 569.025 2.89241C573.705 1.63828 579.742 5.14754 579.12 9.96018C578.878 12.0277 578.678 13.3629 578.088 16.8054L615.994 51.5875L676.299 173.53L661.333 220.797L683.126 257.253L675.509 293.018L670.997 294.307L642.469 301.951L640.699 298.02L655.094 283.989L653.874 274.383L577.33 231.21L564.663 187.502L562.79 128.806L537.467 143.361L506.684 130.703Z" fill="#EEF4FE"/>
<path d="M598.144 322.538L604.565 346.5L684.377 325.114L677.957 301.153L598.144 322.538Z" fill="#EEF4FE"/>
<path d="M71.3814 463.684L77.8019 487.646L157.614 466.26L151.194 442.298L71.3814 463.684Z" fill="#EEF4FE"/>
<path d="M531.985 285.171L532.134 285.132L471.695 59.5689L129.351 151.3L189.79 376.862L190.162 376.763L189.945 377.141C253.82 427.715 320.711 467.547 391.223 494.153L400.288 477.466L416.483 487.385C464.245 429.087 502.257 361.146 532.288 285.411L531.985 285.171ZM400.302 477.222C335.635 454.897 271.135 417.148 206.842 366.205L152.911 164.933L458.256 83.1159L512.247 284.613C481.945 360.821 445.015 425.669 400.302 477.222Z" fill="#EEF4FE"/>
<path d="M338.182 237.049C321.689 241.469 311.778 258.864 316.278 275.361C320.838 292.083 337.984 301.988 354.626 297.528C371.119 293.109 380.976 275.809 376.53 259.217C371.99 242.57 354.823 232.59 338.182 237.049Z" fill="#EEF4FE"/>
<path d="M318.281 161.88C260.352 177.482 225.867 237.188 241.367 295.036C257.088 353.707 316.549 388.4 374.626 372.758C432.798 357.171 466.852 297.34 451.017 238.54C435.617 181.066 375.69 146.417 318.281 161.88ZM419.713 198.385C402.015 206.331 386.578 216.475 373.42 229.774C377.582 232.824 381.235 236.651 384.246 241.052C386.994 238.232 389.925 235.204 392.916 232.4C397.173 228.376 401.907 224.944 407.313 222.535C416.847 218.298 425.541 220.134 432.753 227.734C439.111 234.521 442.285 242.803 444.108 251.686C445.353 257.521 445.889 263.385 445.797 269.578C428.149 262.852 410.141 258.945 391.589 258.95C392.525 264.226 392.564 269.423 391.854 274.499C395.532 274.555 399.413 274.477 403.333 274.548C408.732 274.783 414.101 275.507 419.211 277.342C430.672 281.481 435.824 289.713 434.647 301.964C433.804 311.002 429.955 318.922 424.804 326.15C421.802 330.399 418.383 334.279 414.732 338.782C406.988 321.471 397.268 306.293 384.544 293.28C381.711 297.564 378.103 301.335 373.943 304.532C376.358 307.009 378.962 309.595 381.438 312.296C385.629 316.941 389.191 321.914 391.407 327.809C394.822 336.987 392.613 344.789 385.791 351.423C379.043 358.037 370.665 361.243 361.644 362.94C356.418 363.94 350.971 364.117 345.604 364.594C345.139 364.639 344.727 364.589 343.998 364.544C350.263 347.805 354.059 330.767 354.408 313.051C349.161 313.976 343.992 313.999 338.993 313.176C338.965 313.664 339.011 314.132 338.982 314.62C339.124 321.391 338.781 328.132 337.054 334.763C333.32 349.061 323.618 355.345 308.994 352.775C300.475 351.293 293.07 347.43 286.275 342.281C282.565 339.43 279.038 336.37 275.039 333.036C291.44 325.597 306.017 316.404 318.436 304.505C314.348 301.435 310.715 297.683 307.819 293.412C305.49 295.718 303.034 298.139 300.388 300.45C294.969 305.186 289.126 309.235 281.968 310.752C273.75 312.474 267.308 309.233 261.77 303.428C257.317 298.693 254.506 292.958 252.547 286.834C250.072 279.086 249.05 271.109 249.033 263.023C249.047 262.779 249.136 262.515 249.164 262.027C265.666 268.339 282.533 272.15 300.011 272.594C299.392 267.313 299.671 262.111 300.812 257.159C297.715 257.188 294.488 257.332 291.27 256.912C286.332 256.313 281.265 255.828 276.573 254.362C264.429 250.647 259.003 241.687 260.471 229.038C261.614 219.039 266.2 210.6 272.142 202.76C274.621 199.532 277.404 196.544 280.363 193.027C288.007 209.964 297.613 225.013 310.054 237.861C313.285 233.871 317.196 230.34 321.699 227.531C320.73 226.589 319.666 225.593 318.583 224.521C312.957 218.979 307.812 213.149 304.412 205.809C300.019 196.252 301.597 187.578 309.096 180.202C315.33 174.045 323.107 170.68 331.494 168.993C337.166 167.874 343.059 167.577 348.851 166.906C349.465 166.821 350.14 166.961 351.017 166.966C344.413 184.517 340.614 202.437 340.54 220.881C345.866 220.254 351.136 220.605 356.215 221.727C356.191 220.452 356.054 219.047 356.065 217.602C355.819 209.257 356.154 200.996 359.106 192.996C363.127 182.146 371.247 177.086 382.838 178.146C392.465 179.011 400.848 183.253 408.491 188.895C412.053 191.786 415.62 194.995 419.713 198.385Z" fill="#EEF4FE"/>
<path d="M168.569 172.836L217.974 357.217C278.45 404.616 338.323 439.359 395.895 460.461C435.128 413.421 469.573 353.565 498.194 282.372L448.729 97.7669L168.569 172.836ZM377.396 382.509C314.267 399.505 248.909 361.825 231.873 298.541C214.67 234.34 251.817 169.114 315.412 152.073C378.764 135.018 443.751 172.798 460.907 236.53C478.118 300.168 440.748 365.454 377.396 382.509Z" fill="#EEF4FE"/>
<path d="M323.432 505.91L331.157 488.38C284.942 467.76 241.627 443.399 212.469 421.653L209.991 419.834L206.948 419.768C194.12 419.44 183.02 427.942 176.389 443.016C166.212 466.25 168.08 503.238 188.842 525.151L189.582 525.834C200.939 535.528 215.409 539.902 228.353 537.394C229.19 537.25 230.082 537.011 230.899 536.792C240.854 534.125 249.074 527.356 254.178 517.578L254.626 516.577C259.503 503.574 255.967 489.783 245.436 481.389C238.239 475.628 229.263 473.627 220.579 475.393L219.708 496.214C226.699 491.697 232.101 495.216 233.616 496.412C235.037 497.554 239.444 501.82 236.946 509.138C234.036 514.323 229.95 517.501 224.65 518.521C217.6 519.849 209.098 517.241 202.238 511.549C187.539 495.621 186.433 467.721 193.852 450.833C195.231 447.66 198.747 440.87 204.056 439.287C234.32 461.298 277.575 485.435 323.432 505.91Z" fill="#EEF4FE"/>
<path d="M576.973 335.68C563.694 325.941 549.756 324.148 538.885 330.826L536.282 332.404L535.045 335.219C520.593 368.65 495.336 411.385 465.623 452.35L481.077 463.669C510.553 423.008 535.945 380.478 551.075 346.304C556.464 345.02 562.903 349.142 565.685 351.201C580.553 362.116 593.566 386.907 588.78 407.975C585.739 416.24 579.626 422.844 572.857 425.219C567.756 426.986 562.63 426.277 557.516 423.241C551.694 418.153 553.378 412.254 554.037 410.556C554.697 408.857 557.256 403.845 564.303 403.399L553.427 386.287C545.624 389.259 539.445 395.321 536.269 403.381C531.421 415.895 535.18 429.627 545.904 438.449L546.793 439.092C556.103 445.008 566.605 446.76 576.56 444.093C577.378 443.874 578.269 443.635 579.066 443.341C591.53 439.04 601.874 428.017 606.863 413.944L607.162 412.983C614.3 383.754 597.404 350.712 576.973 335.68Z" fill="#EEF4FE"/>
<path d="M115.246 716.551L97.8715 651.706L69.5215 659.303L71.9878 670.2C73.3459 676.021 74.4145 681.513 75.1937 686.678C76.0669 691.817 76.591 696.594 76.7659 701.008C77.0349 705.397 76.8227 709.307 76.1293 712.737C75.5046 716.047 74.3734 718.783 72.7356 720.946L42.0246 725.373C45.341 724.586 47.7294 722.78 49.1897 719.955C50.7188 717.011 51.5369 713.294 51.644 708.804C51.8452 704.289 51.4675 699.118 50.5109 693.292C49.6483 687.44 48.4582 681.118 46.9408 674.326L39.8569 643.375L119.406 622.06L142.75 709.181L115.246 716.551ZM50.3925 768.45L39.0627 726.167L153.45 695.517L164.78 737.8L139.251 744.641L133.89 724.634L70.7019 741.565L76.0627 761.572L50.3925 768.45Z" fill="#EEF4FE"/>
<path d="M163.864 716.602L180.833 605.601L208.337 598.231L278.675 685.839L249.619 693.624L192.561 617.21L203.562 614.262L192.355 708.968L163.864 716.602ZM182.53 690.918L184.173 668.275L232.41 655.349L245.154 674.138L182.53 690.918Z" fill="#EEF4FE"/>
<path d="M289.989 682.807L263.375 583.483L290.879 576.114L306.505 634.431L331.641 565.192L357.875 558.162L384.489 657.486L356.985 664.856L341.397 606.68L316.365 675.74L289.989 682.807ZM308.888 564.901C298.638 567.648 290.725 567.639 285.147 564.875C279.543 562.017 275.753 556.899 273.776 549.521L292.535 544.494C293.516 547.78 295.022 550.012 297.051 551.192C299.08 552.372 301.835 552.496 305.314 551.563C308.887 550.606 311.257 549.109 312.425 547.073C313.687 545.011 313.921 542.312 313.128 538.976L331.887 533.95C333.864 541.328 333.093 547.668 329.576 552.971C326.033 558.178 319.137 562.155 308.888 564.901Z" fill="#EEF4FE"/>
<path d="M371.563 554.343L403.58 545.764L428.434 567.999L438.7 536.353L471.141 527.661L451.437 583.887L500.613 626.371L467.75 635.176L439.992 611.134L428.116 645.796L395.958 654.413L417.505 594.347L371.563 554.343Z" fill="#EEF4FE"/>
<path d="M628.691 593.877C626.81 594.381 624.75 594.781 622.512 595.077C620.367 595.347 618.043 595.514 615.54 595.576L610.933 572.174C612.325 572.105 613.633 571.907 614.855 571.579C618.71 570.546 621.22 568.252 622.383 564.696C623.521 561.045 623.719 556.328 622.976 550.546C622.327 544.738 621.095 538.072 619.28 530.549L610.083 490.583L689.633 469.268L716.246 568.592L688.743 575.962L666.425 492.671L674.163 497.29L634.247 507.985L638.14 499.946L643.518 522.838C645.821 532.562 647.495 541.441 648.539 549.475C649.558 557.414 649.674 564.429 648.887 570.521C648.075 576.517 646.041 581.523 642.783 585.539C639.594 589.435 634.897 592.215 628.691 593.877Z" fill="#EEF4FE"/>
<path d="M798.983 533.344L781.608 468.5L753.258 476.096L755.725 486.993C757.083 492.814 758.151 498.306 758.931 503.471C759.804 508.611 760.328 513.387 760.503 517.801C760.772 522.19 760.559 526.1 759.866 529.53C759.241 532.84 758.11 535.577 756.472 537.739L725.761 542.166C729.078 541.379 731.466 539.573 732.927 536.748C734.456 533.804 735.274 530.087 735.381 525.597C735.582 521.083 735.204 515.912 734.248 510.085C733.385 504.233 732.195 497.911 730.678 491.119L723.594 460.168L803.143 438.853L826.487 525.974L798.983 533.344ZM734.129 585.243L722.8 542.96L837.187 512.31L848.517 554.593L822.988 561.434L817.627 541.427L754.439 558.358L759.8 578.365L734.129 585.243Z" fill="#EEF4FE"/>
<path d="M541.615 554.898C538.057 555.851 535.917 559.583 536.876 563.163C537.835 566.742 541.555 568.904 545.113 567.951C548.671 566.998 550.811 563.265 549.852 559.686C548.893 556.107 545.173 553.944 541.615 554.898Z" fill="#EEF4FE"/>
<path d="M588.934 526.648C584.502 520.991 579.091 516.423 572.808 513.067C566.507 509.64 559.669 507.561 552.295 506.829C544.902 506.027 537.238 506.727 529.216 508.876C521.193 511.026 514.226 514.322 508.224 518.713C502.223 523.104 497.36 528.394 493.597 534.442C489.853 540.56 487.501 547.132 486.403 554.196C485.394 561.312 485.86 568.633 487.91 576.283C489.941 583.863 493.198 590.437 497.63 596.094C502.062 601.751 507.473 606.319 513.755 609.675C520.057 613.102 526.895 615.181 534.357 615.964C541.82 616.748 549.502 616.118 557.525 613.969C565.408 611.857 572.394 608.631 578.396 604.239C584.397 599.848 589.279 594.629 593.042 588.581C596.786 582.463 599.138 575.89 600.198 568.686C601.189 561.501 600.703 554.109 598.691 546.599C596.642 538.95 593.436 532.287 588.934 526.648ZM586.976 574.034L545.15 570.574L560.267 577.881C560.482 586.775 551.967 592.667 541.774 597.88C546.861 596.216 560.692 590.63 563.292 579.403L567.666 580.938C566.37 590.613 555.789 598.563 541.247 602.61C543.491 604.566 549.276 604.671 552.553 604.62C545.853 607.243 539.507 608.116 533.198 607.173L532.815 563.047L526.578 578.559C517.969 577.405 511.862 570.241 507.185 559.76C509.724 571.19 516.953 578.355 525.299 582.437L523.79 587.129C512.867 582.082 505.56 571.554 501.7 558.823C499.978 562.444 500.285 565.821 500.552 569.887C497.156 563.35 496.654 555.06 499.177 548.291L541.967 551.719L525.304 544.224C527.726 532.894 534.98 528.995 542.128 524.973C532.933 527.212 525.686 532.538 521.393 542.188L517.762 540.077C523.96 529.164 533.559 523.132 545.013 519.838C542.171 518.719 538.028 518.324 533.485 518.112C541.814 515.43 547.341 514.851 555.169 516.439C555.319 517.001 553.038 560.111 553.038 560.111L560.037 544.094C567.583 544.63 574.129 548.969 578.273 561.924C577.108 550.878 570.682 544.476 561.772 540.245L563.432 536.114C574.808 542.017 580.462 550.28 583.981 562.576C585.872 559.587 586.622 556.528 587.075 553.473C589.159 562.091 589.55 567.177 586.976 574.034Z" fill="#EEF4FE"/>
</g>
</svg>
