<svg width="217" height="192" viewBox="0 0 217 192" fill="none" xmlns="http://www.w3.org/2000/svg">
<g opacity="0.1">
<path d="M66.3376 166.933L66.2189 166.49C66.1723 166.463 66.1723 166.463 66.1723 166.463C66.0635 166.057 58.2227 143.986 58.2227 143.986L48.2261 161.421L58.3437 175.404L74.4143 171.098L74.2005 168.98L66.3376 166.933Z" fill="#EEF4FE"/>
<path d="M56.905 33.2514L54.3373 35.9966L54.5236 40.6544L35.6312 57.0311L53.4689 62.6956L61.1282 49.0124L56.905 33.2514Z" fill="#EEF4FE"/>
<path d="M66.8843 70.4946L62.7898 55.2134L62.5058 54.3005L59.8845 57.1391L60.0835 61.9914L54.3498 68.0377L29.8229 58.983L30.1432 58.8576L30.1369 51.9361L35.4431 41.6527L34.9407 32.2926L38.1248 28.4724L37.5512 26.3315L33.4578 28.813L36.3324 23.691L33.2217 18.3925L31.2472 17.7744L29.0897 19.2623L29.381 21.0832L24.0516 24.5289L21.3502 23.9868L15.2547 28.3893C13.8758 28.0863 12.7211 27.4462 11.4625 28.179C10.4775 28.7594 10.0841 29.933 10.1607 31.0993C9.68085 31.0696 9.1742 31.0867 8.66053 31.2243C6.34901 31.8437 4.63377 34.8352 6.08799 36.7401C6.70216 37.5646 7.11724 38.0863 8.21987 39.4129L0.596287 63.6494L4.87871 130.705L22.9512 147.226L22.6329 168.199L34.7219 181.615L36.97 181.052L51.0593 177.277L50.8455 175.159L41.2239 172.712L39.3738 168.303L61.4508 130.936L56.0756 109.114L42.3824 83.5478L56.8074 83.5201L66.8843 70.4946Z" fill="#EEF4FE"/>
<path d="M299.253 104.522L299.134 104.079C299.161 104.033 299.161 104.033 299.161 104.033C299.052 103.627 294.807 80.5922 294.807 80.5922L312.182 90.6929L310.411 107.862L294.341 112.168L293.467 110.226L299.253 104.522Z" fill="#EEF4FE"/>
<path d="M240.578 -15.9654L244.175 -14.8719L246.342 -10.7449L270.892 -6.00848L258.276 7.81603L244.802 -0.204415L240.578 -15.9654Z" fill="#EEF4FE"/>
<path d="M250.558 21.2793L246.464 5.99815L246.253 5.06554L249.943 6.21324L252.196 10.5149L260.185 12.8843L276.898 -7.22069L276.558 -7.16912L273.103 -13.1665L263.366 -19.4191L259.121 -27.7764L254.454 -29.4928L253.88 -31.6336L258.666 -31.5313L253.615 -34.5297L253.66 -40.6737L255.061 -42.1963L257.673 -41.9864L258.331 -40.2638L264.67 -39.9445L266.738 -41.7647L274.218 -40.9997C275.261 -41.9517 275.941 -43.0833 277.397 -43.0779C278.54 -43.0678 279.468 -42.2481 279.985 -41.1998C280.385 -41.4654 280.833 -41.704 281.346 -41.8416C283.658 -42.461 286.639 -40.7279 286.332 -38.3511C286.212 -37.33 286.114 -36.6706 285.822 -34.9704L304.543 -17.7928L334.325 42.4303L326.934 65.7737L337.697 83.7781L333.935 101.441L331.707 102.078L317.618 105.853L316.744 103.911L323.853 96.9822L323.25 92.2381L285.448 70.9162L279.192 49.3305L278.267 20.3426L265.761 27.5311L250.558 21.2793Z" fill="#EEF4FE"/>
<path d="M295.727 116.02L298.898 127.854L338.315 117.292L335.144 105.459L295.727 116.02Z" fill="#EEF4FE"/>
<path d="M35.5779 185.727L38.7487 197.561L78.1652 186.999L74.9944 175.165L35.5779 185.727Z" fill="#EEF4FE"/>
<path d="M263.054 97.566L263.127 97.5463L233.278 -13.8511L64.2071 31.4515L94.0559 142.849L94.2394 142.8L94.1322 142.987C125.678 167.963 158.713 187.635 193.536 200.775L198.013 192.533L206.011 197.432C229.599 168.641 248.372 135.087 263.204 97.6841L263.054 97.566ZM198.02 192.413C166.083 181.387 134.229 162.744 102.477 137.586L75.8425 38.1845L226.642 -2.22207L253.306 97.29C238.341 134.927 220.102 166.953 198.02 192.413Z" fill="#EEF4FE"/>
<path d="M167.341 73.8003C159.196 75.9828 154.301 84.5736 156.524 92.7211C158.776 100.979 167.244 105.871 175.462 103.669C183.608 101.486 188.475 92.9421 186.28 84.7479C184.038 76.5266 175.56 71.598 167.341 73.8003Z" fill="#EEF4FE"/>
<path d="M157.513 36.6766C128.904 44.3819 111.873 73.8689 119.528 102.438C127.292 131.413 156.658 148.547 185.34 140.822C214.069 133.124 230.887 103.576 223.066 74.5366C215.461 46.1521 185.865 29.0401 157.513 36.6766ZM207.607 54.705C198.866 58.6295 191.243 63.6393 184.744 70.207C186.799 71.7135 188.604 73.6037 190.09 75.7768C191.448 74.3845 192.895 72.889 194.372 71.5041C196.475 69.5166 198.813 67.822 201.482 66.6319C206.191 64.5394 210.485 65.4461 214.047 69.1995C217.186 72.5517 218.754 76.6415 219.654 81.029C220.269 83.9104 220.534 86.8066 220.488 89.865C211.773 86.5431 202.879 84.6139 193.717 84.6161C194.18 87.222 194.199 89.7883 193.848 92.2955C195.664 92.3231 197.581 92.2843 199.517 92.3193C202.183 92.4358 204.835 92.7933 207.359 93.6995C213.019 95.7435 215.563 99.809 214.982 105.859C214.566 110.323 212.664 114.234 210.121 117.804C208.638 119.902 206.95 121.818 205.147 124.042C201.322 115.493 196.522 107.997 190.238 101.571C188.839 103.686 187.057 105.548 185.002 107.127C186.195 108.351 187.481 109.628 188.704 110.962C190.773 113.256 192.533 115.712 193.627 118.623C195.314 123.156 194.223 127.009 190.853 130.285C187.521 133.552 183.383 135.135 178.928 135.973C176.347 136.467 173.657 136.555 171.007 136.79C170.777 136.812 170.574 136.787 170.214 136.765C173.308 128.499 175.182 120.084 175.354 111.335C172.763 111.791 170.21 111.803 167.742 111.396C167.728 111.637 167.751 111.869 167.736 112.11C167.807 115.454 167.637 118.783 166.784 122.058C164.94 129.119 160.148 132.222 152.926 130.953C148.719 130.221 145.062 128.313 141.706 125.77C139.874 124.362 138.132 122.851 136.157 121.204C144.257 117.531 151.456 112.991 157.589 107.114C155.571 105.598 153.776 103.745 152.346 101.636C151.196 102.775 149.983 103.97 148.676 105.111C146 107.451 143.114 109.45 139.579 110.2C135.52 111.05 132.339 109.449 129.604 106.582C127.405 104.244 126.017 101.411 125.049 98.3871C123.827 94.5606 123.322 90.6211 123.314 86.6277C123.321 86.5071 123.364 86.3767 123.379 86.1356C131.528 89.253 139.858 91.1354 148.49 91.3544C148.184 88.7462 148.322 86.1774 148.886 83.7318C147.356 83.7461 145.762 83.817 144.173 83.6099C141.734 83.3139 139.232 83.0745 136.915 82.3504C130.917 80.5155 128.237 76.0907 128.962 69.8436C129.527 64.9054 131.792 60.7379 134.726 56.8659C135.951 55.2719 137.325 53.796 138.787 52.0592C142.562 60.4237 147.306 67.856 153.45 74.201C155.045 72.2306 156.977 70.4867 159.201 69.0996C158.722 68.6344 158.197 68.1422 157.662 67.613C154.884 64.876 152.342 61.9964 150.663 58.3716C148.494 53.6516 149.273 49.3681 152.977 45.7251C156.055 42.6848 159.896 41.0226 164.038 40.1897C166.84 39.6369 169.75 39.4901 172.61 39.1588C172.914 39.1171 173.247 39.1861 173.68 39.1887C170.418 47.8562 168.543 56.7062 168.506 65.8151C171.136 65.5058 173.739 65.6788 176.247 66.2332C176.235 65.6033 176.167 64.9094 176.173 64.1958C176.052 60.0744 176.217 55.9949 177.675 52.0437C179.661 46.6852 183.671 44.1865 189.395 44.7098C194.15 45.1369 198.29 47.2321 202.065 50.0185C203.823 51.4461 205.585 53.0313 207.607 54.705Z" fill="#EEF4FE"/>
<path d="M83.5752 42.0873L107.975 133.147C137.842 156.555 167.411 173.714 195.843 184.135C215.219 160.904 232.23 131.343 246.365 96.1837L221.936 5.01356L83.5752 42.0873ZM186.708 145.638C155.53 154.031 123.253 135.422 114.839 104.169C106.343 72.462 124.689 40.2492 156.096 31.8336C187.383 23.4106 219.478 42.0685 227.951 73.5438C236.451 104.972 217.995 137.215 186.708 145.638Z" fill="#EEF4FE"/>
<path d="M160.057 206.581L163.872 197.923C141.048 187.74 119.656 175.709 105.256 164.969L104.032 164.071L102.529 164.038C96.1939 163.877 90.7123 168.075 87.4375 175.52C82.4111 186.994 83.334 205.262 93.5875 216.084L93.9532 216.421C99.5617 221.208 106.708 223.368 113.101 222.13C113.514 222.059 113.954 221.941 114.358 221.833C119.275 220.515 123.334 217.173 125.854 212.343L126.076 211.849C128.484 205.427 126.738 198.616 121.537 194.471C117.983 191.626 113.55 190.638 109.261 191.51L108.831 201.792C112.284 199.562 114.952 201.3 115.7 201.89C116.401 202.454 118.578 204.561 117.344 208.175C115.907 210.736 113.889 212.305 111.272 212.809C107.79 213.465 103.591 212.177 100.203 209.366C92.9438 201.5 92.3977 187.721 96.0618 179.38C96.7429 177.813 98.4792 174.46 101.101 173.678C116.047 184.549 137.41 196.469 160.057 206.581Z" fill="#EEF4FE"/>
<path d="M285.272 122.51C278.713 117.7 271.83 116.815 266.461 120.113L265.176 120.893L264.565 122.283C257.428 138.793 244.954 159.898 230.28 180.13L237.912 185.72C252.469 165.639 265.009 144.634 272.481 127.757C275.143 127.123 278.323 129.159 279.697 130.176C287.04 135.566 293.466 147.809 291.103 158.214C289.601 162.296 286.582 165.558 283.239 166.73C280.72 167.603 278.188 167.253 275.663 165.754C272.787 163.241 273.619 160.328 273.945 159.489C274.27 158.65 275.534 156.175 279.014 155.955L273.643 147.503C269.789 148.971 266.738 151.965 265.169 155.945C262.775 162.126 264.631 168.907 269.928 173.264L270.367 173.582C274.964 176.504 280.151 177.369 285.068 176.051C285.471 175.943 285.912 175.825 286.305 175.68C292.461 173.556 297.57 168.113 300.033 161.162L300.181 160.687C303.706 146.253 295.362 129.934 285.272 122.51Z" fill="#EEF4FE"/>
<path d="M57.2412 310.609L48.6604 278.585L34.6593 282.336L35.8773 287.718C36.548 290.593 37.0758 293.305 37.4606 295.856C37.8919 298.394 38.1507 300.753 38.2371 302.933C38.3699 305.101 38.2651 307.031 37.9227 308.725C37.6141 310.36 37.0555 311.712 36.2466 312.78L21.0796 314.966C22.7174 314.577 23.897 313.685 24.6182 312.29C25.3733 310.836 25.7773 309 25.8302 306.783C25.9296 304.553 25.7431 302 25.2706 299.122C24.8446 296.232 24.2569 293.11 23.5075 289.756L20.009 274.47L59.2956 263.943L70.8244 306.969L57.2412 310.609ZM25.2122 336.24L19.6168 315.358L76.1086 300.221L81.7041 321.103L69.0961 324.482L66.4486 314.601L35.2423 322.963L37.8898 332.843L25.2122 336.24Z" fill="#EEF4FE"/>
<path d="M81.2518 310.634L89.6323 255.815L103.215 252.175L137.953 295.441L123.603 299.286L95.4241 261.548L100.857 260.092L95.3226 306.864L81.2518 310.634ZM90.4703 297.95L91.2814 286.767L115.104 280.384L121.398 289.663L90.4703 297.95Z" fill="#EEF4FE"/>
<path d="M143.54 293.944L130.397 244.892L143.98 241.252L151.697 270.053L164.111 235.858L177.067 232.386L190.211 281.439L176.628 285.079L168.929 256.348L156.566 290.454L143.54 293.944ZM152.874 235.715C147.812 237.071 143.904 237.067 141.149 235.702C138.382 234.29 136.51 231.763 135.533 228.119L144.798 225.636C145.282 227.259 146.026 228.362 147.028 228.944C148.03 229.527 149.391 229.588 151.109 229.128C152.873 228.655 154.044 227.916 154.621 226.91C155.244 225.892 155.359 224.559 154.968 222.911L164.232 220.429C165.209 224.073 164.828 227.204 163.091 229.822C161.341 232.394 157.935 234.358 152.874 235.715Z" fill="#EEF4FE"/>
<path d="M183.827 230.5L199.639 226.263L211.914 237.244L216.984 221.616L233.005 217.323L223.274 245.091L247.56 266.072L231.33 270.421L217.622 258.547L211.756 275.666L195.875 279.921L206.516 250.257L183.827 230.5Z" fill="#EEF4FE"/>
<path d="M310.813 250.025C309.884 250.274 308.867 250.471 307.762 250.617C306.702 250.751 305.555 250.833 304.319 250.864L302.043 239.306C302.731 239.272 303.377 239.174 303.98 239.013C305.884 238.503 307.123 237.369 307.698 235.613C308.26 233.81 308.358 231.481 307.991 228.625C307.67 225.757 307.062 222.465 306.166 218.749L301.624 199.012L340.91 188.485L354.054 237.537L340.471 241.177L329.449 200.043L333.27 202.324L313.557 207.606L315.48 203.636L318.136 214.941C319.273 219.743 320.1 224.128 320.616 228.096C321.119 232.017 321.176 235.482 320.788 238.49C320.387 241.451 319.382 243.924 317.773 245.907C316.198 247.831 313.878 249.204 310.813 250.025Z" fill="#EEF4FE"/>
<path d="M394.915 220.13L386.334 188.105L372.333 191.857L373.551 197.239C374.221 200.113 374.749 202.826 375.134 205.376C375.565 207.915 375.824 210.274 375.91 212.454C376.043 214.621 375.938 216.552 375.596 218.246C375.288 219.881 374.729 221.232 373.92 222.3L358.753 224.487C360.391 224.098 361.57 223.206 362.292 221.811C363.047 220.357 363.451 218.521 363.504 216.304C363.603 214.074 363.416 211.52 362.944 208.643C362.518 205.753 361.93 202.631 361.181 199.276L357.682 183.991L396.969 173.464L408.498 216.49L394.915 220.13ZM362.886 245.761L357.29 224.879L413.782 209.742L419.377 230.624L406.77 234.002L404.122 224.122L372.916 232.483L375.563 242.364L362.886 245.761Z" fill="#EEF4FE"/>
<path d="M267.81 230.774C266.053 231.245 264.996 233.088 265.469 234.856C265.943 236.624 267.78 237.692 269.537 237.221C271.294 236.75 272.351 234.907 271.877 233.139C271.404 231.371 269.567 230.303 267.81 230.774Z" fill="#EEF4FE"/>
<path d="M291.179 216.823C288.99 214.029 286.318 211.773 283.215 210.115C280.103 208.423 276.726 207.396 273.084 207.035C269.433 206.639 265.648 206.984 261.686 208.046C257.724 209.108 254.283 210.735 251.319 212.904C248.355 215.073 245.953 217.685 244.095 220.672C242.246 223.693 241.085 226.939 240.542 230.428C240.044 233.942 240.274 237.558 241.287 241.336C242.29 245.079 243.898 248.326 246.087 251.12C248.276 253.914 250.948 256.169 254.051 257.827C257.163 259.519 260.54 260.546 264.225 260.933C267.911 261.32 271.705 261.009 275.667 259.947C279.56 258.904 283.01 257.311 285.974 255.142C288.938 252.974 291.349 250.396 293.208 247.409C295.057 244.388 296.218 241.142 296.742 237.584C297.231 234.035 296.991 230.385 295.998 226.676C294.985 222.898 293.402 219.608 291.179 216.823ZM290.212 240.225L269.555 238.516L277.021 242.125C277.127 246.517 272.922 249.427 267.888 252.002C270.401 251.18 277.231 248.421 278.515 242.876L280.675 243.635C280.035 248.413 274.81 252.339 267.628 254.338C268.736 255.304 271.593 255.355 273.211 255.33C269.903 256.626 266.769 257.057 263.653 256.591L263.463 234.799L260.383 242.46C256.132 241.89 253.116 238.352 250.806 233.176C252.06 238.821 255.63 242.359 259.752 244.375L259.006 246.692C253.612 244.2 250.003 239 248.097 232.713C247.247 234.501 247.398 236.169 247.53 238.177C245.853 234.949 245.605 230.855 246.851 227.512L267.983 229.205L259.754 225.503C260.95 219.908 264.533 217.982 268.063 215.996C263.522 217.101 259.943 219.732 257.823 224.497L256.029 223.455C259.09 218.066 263.831 215.086 269.488 213.459C268.084 212.907 266.038 212.712 263.795 212.607C267.908 211.282 270.638 210.997 274.503 211.781C274.578 212.058 273.451 233.349 273.451 233.349L276.907 225.439C280.634 225.703 283.867 227.846 285.914 234.244C285.338 228.789 282.165 225.628 277.764 223.538L278.584 221.498C284.202 224.413 286.995 228.494 288.732 234.566C289.666 233.09 290.037 231.579 290.26 230.071C291.29 234.327 291.483 236.838 290.212 240.225Z" fill="#EEF4FE"/>
</g>
</svg>
