<svg width="883" height="221" viewBox="0 0 883 221" fill="none" xmlns="http://www.w3.org/2000/svg">
<g opacity="0.1">
<path d="M153.772 294.317L153.495 293.283C153.386 293.22 153.386 293.22 153.386 293.22C153.132 292.272 134.83 240.74 134.83 240.74L111.522 281.438L135.131 314.091L172.614 304.048L172.114 299.101L153.772 294.317Z" fill="white"/>
<path d="M131.69 -17.7871L125.702 -11.3796L126.139 -0.505052L82.0813 37.7174L123.693 50.9527L141.55 19.0117L131.69 -17.7871Z" fill="white"/>
<path d="M154.99 69.1685L145.43 33.49L144.767 31.3584L138.654 37.9842L139.121 49.3125L125.75 63.4251L68.5342 42.271L69.2814 41.9784L69.2624 25.8192L81.6334 1.81405L80.4558 -20.0386L87.8808 -28.9557L86.5415 -33.9542L76.9948 -28.1632L83.6971 -40.1196L76.438 -52.4914L71.8317 -53.9359L66.8002 -50.4632L67.4808 -46.2119L55.0515 -38.1708L48.75 -39.438L34.5344 -29.1633C31.3178 -29.8716 28.6241 -31.3667 25.6887 -29.6565C23.3916 -28.302 22.4747 -25.5624 22.654 -22.8394C21.5347 -22.909 20.3529 -22.8694 19.1548 -22.5484C13.7633 -21.1038 9.76423 -14.1207 13.1574 -9.67257C14.5905 -7.74738 15.559 -6.529 18.1318 -3.4313L0.363716 53.1478L10.3929 209.702L52.5582 248.282L51.8284 297.248L80.035 328.577L85.2783 327.264L118.14 318.459L117.641 313.513L95.196 307.796L90.8778 297.499L142.352 210.275L129.801 159.326L97.845 99.6286L131.492 99.5726L154.99 69.1685Z" fill="white"/>
<path d="M697.027 148.752L696.75 147.718C696.813 147.609 696.813 147.609 696.813 147.609C696.559 146.661 686.643 92.8813 686.643 92.8813L727.177 116.473L723.058 156.556L685.575 166.6L683.534 162.066L697.027 148.752Z" fill="white"/>
<path d="M560.093 -132.581L568.482 -130.026L573.54 -120.39L630.807 -109.317L601.388 -77.0493L569.953 -95.7822L560.093 -132.581Z" fill="white"/>
<path d="M583.393 -45.6219L573.833 -81.3004L573.341 -83.4779L581.948 -80.7962L587.208 -70.7519L605.843 -65.2154L644.817 -112.144L644.024 -112.023L635.96 -126.027L613.244 -140.631L603.338 -160.144L592.449 -164.154L591.11 -169.153L602.273 -168.911L590.49 -175.914L590.591 -190.258L593.858 -193.812L599.952 -193.321L601.488 -189.299L616.273 -188.55L621.096 -192.798L638.545 -191.007C640.976 -193.229 642.561 -195.871 645.959 -195.857C648.625 -195.833 650.789 -193.919 651.995 -191.471C652.93 -192.091 653.973 -192.647 655.171 -192.968C660.563 -194.413 667.518 -190.365 666.803 -184.816C666.525 -182.433 666.295 -180.893 665.616 -176.924L709.293 -136.809L778.799 3.80831L761.573 58.3025L786.688 100.343L777.924 141.578L772.727 143.063L739.865 151.868L737.825 147.335L754.404 131.162L752.996 120.085L664.806 70.2836L650.201 19.8849L648.026 -47.7921L618.859 -31.017L583.393 -45.6219Z" fill="white"/>
<path d="M688.81 175.592L696.214 203.221L788.149 178.587L780.746 150.958L688.81 175.592Z" fill="white"/>
<path d="M82.0339 338.177L89.4372 365.807L181.373 341.173L173.97 313.543L82.0339 338.177Z" fill="white"/>
<path d="M612.587 132.49L612.758 132.444L543.066 -127.647L148.722 -21.983L218.413 238.108L218.841 237.994L218.591 238.43C292.189 296.76 369.257 342.707 450.493 373.405L460.931 354.166L479.59 365.608C534.594 298.405 578.363 220.08 612.936 132.766L612.587 132.49ZM460.947 353.885C386.446 328.126 312.132 284.582 238.053 225.826L175.866 -6.25679L527.593 -100.502L589.849 131.84C554.963 219.7 512.44 294.458 460.947 353.885Z" fill="white"/>
<path d="M389.315 76.9482C370.317 82.0388 358.905 102.092 364.094 121.115C369.352 140.397 389.107 151.822 408.276 146.685C427.275 141.595 438.624 121.65 433.498 102.518C428.263 83.3232 408.485 71.8117 389.315 76.9482Z" fill="white"/>
<path d="M366.367 -9.7303C299.639 8.24177 259.93 77.0733 277.804 143.777C295.931 211.428 364.439 251.447 431.338 233.43C498.346 215.475 537.557 146.5 519.299 78.6987C501.541 12.4263 432.496 -27.5418 366.367 -9.7303ZM483.226 32.3897C462.84 41.5467 445.06 53.2383 429.906 68.5677C434.701 72.086 438.911 76.5001 442.38 81.5744C445.545 78.3247 448.921 74.834 452.366 71.6018C457.268 66.9629 462.721 63.008 468.947 60.2311C479.93 55.3486 489.945 57.4681 498.256 66.2331C505.582 74.0611 509.241 83.6104 511.344 93.854C512.78 100.582 513.399 107.343 513.294 114.484C492.962 106.723 472.217 102.214 450.845 102.213C451.925 108.297 451.971 114.289 451.155 120.142C455.392 120.207 459.862 120.118 464.379 120.201C470.598 120.474 476.784 121.311 482.671 123.428C495.874 128.203 501.812 137.696 500.46 151.821C499.491 162.241 495.059 171.373 489.128 179.705C485.671 184.603 481.733 189.075 477.529 194.266C468.603 174.305 457.401 156.801 442.74 141.794C439.477 146.732 435.321 151.079 430.53 154.764C433.314 157.621 436.314 160.604 439.167 163.719C443.996 169.075 448.101 174.811 450.656 181.608C454.593 192.191 452.05 201.186 444.193 208.833C436.421 216.457 426.771 220.151 416.38 222.105C410.359 223.256 404.085 223.459 397.903 224.007C397.366 224.059 396.892 224.001 396.053 223.949C403.265 204.651 407.632 185.008 408.029 164.58C401.985 165.646 396.03 165.671 390.272 164.72C390.239 165.283 390.292 165.823 390.26 166.386C390.425 174.193 390.031 181.965 388.044 189.61C383.747 206.094 372.572 213.337 355.725 210.37C345.911 208.658 337.379 204.201 329.551 198.263C325.276 194.975 321.212 191.445 316.604 187.6C335.495 179.028 352.285 168.433 366.587 154.717C361.878 151.176 357.691 146.848 354.354 141.923C351.672 144.581 348.843 147.372 345.796 150.036C339.554 155.495 332.825 160.162 324.579 161.909C315.113 163.891 307.69 160.153 301.31 153.458C296.178 147.997 292.939 141.384 290.68 134.323C287.827 125.388 286.647 116.191 286.625 106.867C286.641 106.586 286.743 106.282 286.776 105.719C305.788 113.002 325.219 117.401 345.353 117.918C344.639 111.828 344.958 105.831 346.272 100.122C342.703 100.154 338.987 100.319 335.28 99.8343C329.591 99.1419 323.754 98.5814 318.348 96.8896C304.358 92.6022 298.104 82.2702 299.791 67.6858C301.104 56.1574 306.386 46.4291 313.228 37.3911C316.084 33.6702 319.288 30.2253 322.696 26.1716C331.506 45.702 342.577 63.0564 356.912 77.8736C360.633 73.2744 365.137 69.204 370.324 65.967C369.207 64.8807 367.982 63.7311 366.733 62.4953C360.251 56.1039 354.322 49.3795 350.403 40.9157C345.34 29.895 347.155 19.8949 355.792 11.3921C362.971 4.29589 371.93 0.417547 381.59 -1.52449C388.124 -2.81338 394.912 -3.15431 401.584 -3.92612C402.292 -4.02338 403.069 -3.86209 404.08 -3.85579C396.477 16.3778 392.107 37.0383 392.026 58.3044C398.162 57.584 404.233 57.9894 410.083 59.2851C410.056 57.8145 409.897 56.1945 409.91 54.5286C409.624 44.9064 410.008 35.3823 413.406 26.1586C418.034 13.6496 427.387 7.81837 440.74 9.0436C451.831 10.0435 461.489 14.9374 470.295 21.445C474.399 24.7791 478.509 28.4809 483.226 32.3897Z" fill="white"/>
<path d="M193.905 2.85759L250.873 215.464C320.555 270.132 389.537 310.21 455.864 334.557C501.046 280.331 540.708 211.327 573.658 129.251L516.621 -83.6138L193.905 2.85759ZM434.532 244.673C361.813 264.25 286.512 220.786 266.867 147.814C247.031 73.7854 289.805 -1.40923 363.06 -21.0378C436.035 -40.6838 510.908 2.89502 530.691 76.3837C550.537 149.763 507.507 225.027 434.532 244.673Z" fill="white"/>
<path d="M372.403 386.938L381.297 366.728C328.052 342.94 278.147 314.839 244.552 289.757L241.696 287.659L238.19 287.582C223.412 287.2 210.629 296.999 202.994 314.378C191.277 341.164 193.44 383.812 217.364 409.083L218.217 409.871C231.302 421.051 247.972 426.098 262.883 423.211C263.848 423.045 264.875 422.77 265.816 422.518C277.284 419.445 286.75 411.644 292.627 400.371L293.143 399.216C298.757 384.226 294.679 368.323 282.546 358.643C274.253 351.998 263.912 349.688 253.909 351.722L252.912 375.728C260.964 370.522 267.188 374.581 268.934 375.961C270.571 377.277 275.65 382.197 272.774 390.634C269.423 396.612 264.717 400.275 258.611 401.449C250.491 402.978 240.696 399.968 232.791 393.404C215.854 375.035 214.572 342.865 223.113 323.396C224.701 319.738 228.749 311.91 234.865 310.087C269.734 335.474 319.57 363.316 372.403 386.938Z" fill="white"/>
<path d="M664.426 190.738C649.125 179.504 633.069 177.433 620.548 185.13L617.55 186.949L616.126 190.194C599.487 228.736 570.404 278.002 536.187 325.225L553.994 338.281C587.937 291.408 617.176 242.377 634.594 202.98C640.802 201.501 648.222 206.256 651.426 208.63C668.558 221.22 683.556 249.807 678.048 274.098C674.548 283.626 667.507 291.239 659.71 293.975C653.835 296.011 647.929 295.192 642.038 291.69C635.329 285.821 637.267 279.021 638.027 277.063C638.786 275.104 641.732 269.327 649.85 268.814L637.316 249.081C628.328 252.505 621.211 259.492 617.556 268.785C611.974 283.212 616.309 299.046 628.666 309.221L629.69 309.962C640.416 316.787 652.515 318.81 663.982 315.737C664.924 315.485 665.951 315.21 666.869 314.871C681.226 309.916 693.139 297.21 698.881 280.985L699.226 279.877C707.44 246.178 687.966 208.076 664.426 190.738Z" fill="white"/>
<path d="M132.64 629.745L112.605 554.975L79.9491 563.725L82.7935 576.29C84.3596 583.002 85.5923 589.335 86.4914 595.29C87.4989 601.216 88.104 606.724 88.3068 611.813C88.618 616.874 88.3747 621.381 87.5769 625.336C86.8582 629.153 85.5559 632.307 83.6698 634.8L48.2929 639.895C52.113 638.989 54.8638 636.907 56.5453 633.651C58.3058 630.257 59.2472 625.971 59.3693 620.795C59.5997 615.589 59.163 609.627 58.0593 602.908C57.0639 596.161 55.6912 588.871 53.941 581.04L45.7714 545.351L137.404 520.799L164.322 621.256L132.64 629.745ZM57.9452 689.566L44.881 640.81L176.643 605.504L189.708 654.26L160.301 662.14L154.119 639.071L81.3332 658.574L87.5146 681.643L57.9452 689.566Z" fill="white"/>
<path d="M188.647 629.819L208.162 501.839L239.843 493.35L320.896 594.383L287.428 603.351L221.675 515.228L234.348 511.832L221.465 621.025L188.647 629.819ZM210.142 600.211L212.027 574.103L267.591 559.215L282.278 580.882L210.142 600.211Z" fill="white"/>
<path d="M333.93 590.891L303.242 476.362L334.923 467.873L352.941 535.118L381.877 455.292L412.096 447.195L442.784 561.723L411.102 570.212L393.128 503.131L364.311 582.75L333.93 590.891ZM355.665 454.951C343.859 458.114 334.743 458.102 328.316 454.914C321.861 451.617 317.493 445.714 315.213 437.206L336.822 431.416C337.953 435.205 339.688 437.78 342.026 439.141C344.364 440.501 347.537 440.645 351.544 439.571C355.66 438.468 358.39 436.743 359.735 434.395C361.188 432.019 361.457 428.907 360.542 425.06L382.151 419.27C384.43 427.778 383.545 435.088 379.494 441.201C375.414 447.204 367.471 451.787 355.665 454.951Z" fill="white"/>
<path d="M427.863 442.795L464.743 432.913L493.381 458.557L505.198 422.073L542.566 412.06L519.884 476.883L576.547 525.882L538.691 536.025L506.708 508.295L493.038 548.258L455.995 558.183L480.799 488.934L427.863 442.795Z" fill="white"/>
<path d="M724.079 488.455C721.913 489.035 719.541 489.495 716.962 489.836C714.491 490.147 711.814 490.338 708.931 490.409L703.616 463.425C705.22 463.346 706.726 463.118 708.134 462.741C712.575 461.551 715.465 458.906 716.805 454.806C718.115 450.597 718.341 445.159 717.483 438.491C716.733 431.795 715.313 424.109 713.22 415.434L702.614 369.351L794.246 344.798L824.934 459.326L793.253 467.815L767.519 371.775L776.434 377.102L730.455 389.422L734.937 380.155L741.139 406.55C743.795 417.763 745.726 428.001 746.931 437.264C748.107 446.419 748.243 454.507 747.338 461.53C746.405 468.444 744.062 474.215 740.311 478.845C736.639 483.336 731.228 486.539 724.079 488.455Z" fill="white"/>
<path d="M920.234 418.71L900.2 343.939L867.543 352.69L870.388 365.255C871.954 371.966 873.187 378.3 874.086 384.255C875.093 390.181 875.698 395.688 875.901 400.778C876.212 405.838 875.969 410.346 875.171 414.301C874.453 418.117 873.15 421.272 871.264 423.765L835.887 428.86C839.707 427.953 842.458 425.872 844.14 422.616C845.9 419.221 846.842 414.936 846.964 409.759C847.194 404.554 846.757 398.592 845.654 391.873C844.658 385.125 843.286 377.836 841.535 370.005L833.366 334.316L924.998 309.763L951.916 410.221L920.234 418.71ZM845.54 478.531L832.475 429.774L964.238 394.469L977.302 443.225L947.895 451.104L941.714 428.035L868.928 447.538L875.109 470.607L845.54 478.531Z" fill="white"/>
<path d="M623.759 443.483C619.66 444.581 617.196 448.884 618.302 453.011C619.408 457.138 623.693 459.633 627.792 458.535C631.89 457.437 634.354 453.134 633.248 449.006C632.143 444.879 627.857 442.385 623.759 443.483Z" fill="white"/>
<path d="M678.26 410.926C673.153 404.401 666.918 399.133 659.68 395.262C652.42 391.309 644.542 388.91 636.047 388.064C627.53 387.137 618.702 387.941 609.461 390.417C600.22 392.893 592.194 396.691 585.282 401.753C578.37 406.814 572.769 412.912 568.436 419.884C564.125 426.937 561.418 434.514 560.155 442.658C558.995 450.862 559.534 459.304 561.898 468.125C564.239 476.865 567.993 484.445 573.1 490.97C578.207 497.494 584.442 502.762 591.681 506.633C598.941 510.586 606.819 512.985 615.416 513.891C624.013 514.797 632.862 514.073 642.103 511.597C651.184 509.164 659.231 505.446 666.143 500.385C673.055 495.324 678.678 489.307 683.011 482.335C687.322 475.282 690.029 467.705 691.249 459.399C692.388 451.114 691.827 442.591 689.506 433.932C687.143 425.111 683.448 417.428 678.26 410.926ZM676.019 465.561L627.835 461.559L645.252 469.989C645.502 480.243 635.694 487.034 623.954 493.042C629.814 491.125 645.745 484.688 648.737 471.744L653.776 473.516C652.286 484.67 640.1 493.833 623.348 498.495C625.934 500.751 632.598 500.874 636.373 500.816C628.656 503.838 621.346 504.843 614.078 503.755L613.623 452.877L606.443 470.76C596.525 469.428 589.489 461.166 584.097 449.08C587.025 462.259 595.355 470.522 604.971 475.231L603.233 480.64C590.649 474.819 582.228 462.677 577.778 447.998C575.796 452.171 576.15 456.066 576.459 460.754C572.544 453.216 571.964 443.657 574.869 435.854L624.162 439.819L604.965 431.172C607.752 418.109 616.108 413.615 624.34 408.981C613.748 411.559 605.402 417.698 600.46 428.823L596.276 426.388C603.412 413.808 614.469 406.855 627.663 403.06C624.389 401.769 619.616 401.313 614.382 401.068C623.975 397.977 630.343 397.311 639.361 399.145C639.534 399.792 636.919 449.497 636.919 449.497L644.977 431.032C653.669 431.652 661.211 436.657 665.989 451.596C664.644 438.859 657.239 431.476 646.974 426.594L648.885 421.832C661.992 428.642 668.507 438.171 672.565 452.349C674.742 448.903 675.606 445.376 676.126 441.854C678.53 451.791 678.982 457.655 676.019 465.561Z" fill="white"/>
</g>
</svg>
