<svg width="288" height="287" viewBox="0 0 288 287" fill="none" xmlns="http://www.w3.org/2000/svg">
<g opacity="0.05">
<path d="M55.4723 229.918L55.2527 229.099C55.1666 229.048 55.1666 229.048 55.1666 229.048C54.9654 228.297 40.4632 187.465 40.4632 187.465L21.9954 219.713L40.7018 245.586L70.402 237.628L70.0059 233.709L55.4723 229.918Z" fill="white"/>
<path d="M37.9754 -17.3809L33.2308 -12.3039L33.5774 -3.6873L-1.33245 26.5986L31.6386 37.0857L45.7882 11.777L37.9754 -17.3809Z" fill="white"/>
<path d="M56.4372 51.5192L48.8622 23.249L48.3369 21.56L43.4934 26.81L43.8636 35.7861L33.2692 46.9683L-12.0666 30.2067L-11.4746 29.9749L-11.4896 17.171L-1.68736 -1.84974L-2.6204 -19.1649L3.26286 -26.2305L2.20163 -30.191L-5.36283 -25.6025L-0.0521772 -35.0762L-5.804 -44.8792L-9.45379 -46.0237L-13.4405 -43.2721L-12.9013 -39.9036L-22.7498 -33.5321L-27.7428 -34.5362L-39.0067 -26.3949C-41.5554 -26.9562 -43.6897 -28.1408 -46.0157 -26.7857C-47.8358 -25.7125 -48.5623 -23.5417 -48.4203 -21.3842C-49.3072 -21.4393 -50.2436 -21.4079 -51.1929 -21.1536C-55.4648 -20.0089 -58.6336 -14.4758 -55.9449 -10.9513C-54.8094 -9.42582 -54.042 -8.46043 -52.0035 -6.00594L-66.0822 38.825L-58.1354 162.872L-24.7254 193.442L-25.3037 232.24L-2.95389 257.064L1.20072 256.024L27.2393 249.047L26.8432 245.128L9.0591 240.598L5.63751 232.439L46.4233 163.326L36.4783 122.956L11.158 75.6546L37.8187 75.6101L56.4372 51.5192Z" fill="white"/>
<path d="M485.926 114.578L485.706 113.759C485.756 113.672 485.756 113.672 485.756 113.672C485.554 112.921 477.698 70.3082 477.698 70.3082L509.815 89.0015L506.551 120.761L476.851 128.72L475.235 125.127L485.926 114.578Z" fill="white"/>
<path d="M377.424 -108.339L384.072 -106.314L388.08 -98.679L433.456 -89.9055L410.145 -64.3378L385.237 -79.1811L377.424 -108.339Z" fill="white"/>
<path d="M395.887 -39.4361L388.312 -67.7063L387.922 -69.4316L394.742 -67.3067L398.909 -59.3481L413.675 -54.9612L444.556 -92.1451L443.928 -92.0499L437.539 -103.146L419.54 -114.717L411.69 -130.179L403.062 -133.356L402.001 -137.317L410.846 -137.125L401.51 -142.675L401.59 -154.04L404.179 -156.856L409.007 -156.467L410.224 -153.28L421.939 -152.686L425.761 -156.052L439.587 -154.634C441.513 -156.394 442.769 -158.487 445.461 -158.477C447.574 -158.457 449.288 -156.94 450.244 -155.001C450.985 -155.492 451.811 -155.933 452.761 -156.188C457.033 -157.332 462.543 -154.125 461.977 -149.728C461.757 -147.839 461.575 -146.62 461.037 -143.475L495.645 -111.689L550.718 -0.269583L537.069 42.9094L556.969 76.2206L550.025 108.893L545.907 110.07L519.869 117.047L518.252 113.455L531.389 100.64L530.273 91.8636L460.395 52.4028L448.822 12.4689L447.1 -41.1556L423.988 -27.8638L395.887 -39.4361Z" fill="white"/>
<path d="M479.415 135.845L485.281 157.737L558.127 138.218L552.261 116.325L479.415 135.845Z" fill="white"/>
<path d="M-1.37004 264.671L4.49609 286.563L77.3422 267.044L71.4761 245.151L-1.37004 264.671Z" fill="white"/>
<path d="M419.018 101.693L419.154 101.656L363.933 -104.43L51.4709 -20.7055L106.691 185.38L107.03 185.29L106.832 185.635C165.149 231.854 226.214 268.26 290.582 292.584L298.853 277.34L313.637 286.406C357.22 233.157 391.901 171.096 419.295 101.911L419.018 101.693ZM298.866 277.117C239.834 256.706 180.95 222.204 122.253 175.648L72.979 -8.24474L351.673 -82.9205L401.002 101.177C373.36 170.794 339.666 230.029 298.866 277.117Z" fill="white"/>
<path d="M242.107 57.6835C227.054 61.7171 218.011 77.6066 222.123 92.6796C226.289 107.957 241.942 117.01 257.131 112.94C272.185 108.907 281.177 93.1037 277.116 77.9443C272.967 62.7348 257.296 53.6136 242.107 57.6835Z" fill="white"/>
<path d="M223.924 -10.997C171.052 3.24332 139.588 57.7826 153.75 110.636C168.113 164.24 222.396 195.95 275.404 181.673C328.499 167.446 359.568 112.793 345.101 59.0706C331.03 6.55895 276.322 -25.1102 223.924 -10.997ZM316.518 22.3772C300.366 29.6328 286.277 38.8967 274.27 51.0431C278.069 53.8309 281.405 57.3284 284.154 61.3491C286.662 58.7742 289.336 56.0083 292.066 53.4472C295.95 49.7716 300.271 46.6379 305.205 44.4376C313.907 40.5689 321.843 42.2483 328.427 49.1933C334.232 55.3959 337.132 62.9624 338.798 71.079C339.935 76.4096 340.426 81.7673 340.343 87.425C324.233 81.2758 307.795 77.7028 290.861 77.7025C291.717 82.5232 291.754 87.2707 291.107 91.9085C294.464 91.9604 298.006 91.8896 301.585 91.9553C306.512 92.1719 311.414 92.8346 316.078 94.5122C326.54 98.2959 331.245 105.818 330.174 117.01C329.406 125.266 325.894 132.502 321.195 139.103C318.456 142.985 315.335 146.529 312.004 150.642C304.932 134.825 296.055 120.956 284.439 109.065C281.853 112.978 278.561 116.422 274.764 119.342C276.97 121.605 279.347 123.969 281.608 126.437C285.434 130.681 288.687 135.226 290.711 140.611C293.83 148.997 291.815 156.124 285.59 162.184C279.432 168.225 271.786 171.152 263.552 172.7C258.782 173.612 253.81 173.773 248.912 174.207C248.487 174.248 248.111 174.202 247.446 174.161C253.16 158.87 256.621 143.305 256.935 127.12C252.147 127.964 247.428 127.984 242.865 127.23C242.84 127.676 242.881 128.104 242.856 128.55C242.987 134.736 242.675 140.894 241.1 146.952C237.695 160.013 228.841 165.753 215.492 163.401C207.715 162.045 200.955 158.514 194.752 153.808C191.365 151.203 188.145 148.406 184.494 145.359C199.462 138.567 212.766 130.172 224.099 119.305C220.367 116.499 217.05 113.069 214.405 109.167C212.281 111.273 210.039 113.484 207.624 115.595C202.679 119.921 197.346 123.618 190.813 125.003C183.312 126.574 177.431 123.612 172.376 118.306C168.309 113.98 165.742 108.74 163.952 103.145C161.692 96.0655 160.757 88.7777 160.74 81.3903C160.753 81.1672 160.833 80.926 160.859 80.48C175.923 86.2508 191.32 89.7368 207.274 90.1462C206.708 85.3211 206.96 80.5692 208.001 76.0454C205.174 76.0712 202.229 76.2015 199.292 75.8176C194.784 75.2689 190.159 74.8248 185.875 73.4842C174.79 70.0871 169.835 61.9004 171.172 50.3444C172.213 41.2097 176.397 33.5014 181.819 26.34C184.081 23.3918 186.62 20.6622 189.321 17.4502C196.302 32.9253 205.074 46.6762 216.432 58.4168C219.38 54.7725 222.95 51.5473 227.059 48.9824C226.174 48.1217 225.203 47.2108 224.214 46.2316C219.078 41.1673 214.38 35.8392 211.275 29.1329C207.263 20.4005 208.701 12.4768 215.545 5.73951C221.233 0.116762 228.332 -2.95627 235.986 -4.49506C241.164 -5.51633 246.542 -5.78647 251.829 -6.39802C252.39 -6.47509 253.005 -6.34729 253.806 -6.34229C247.782 9.69001 244.319 26.0606 244.256 42.9109C249.117 42.3401 253.927 42.6613 258.563 43.688C258.542 42.5228 258.416 41.2391 258.425 39.9191C258.199 32.2949 258.503 24.7484 261.196 17.4399C264.863 7.5283 272.274 2.90785 282.854 3.87866C291.642 4.67096 299.295 8.54867 306.273 13.7051C309.524 16.3468 312.781 19.28 316.518 22.3772Z" fill="white"/>
<path d="M87.2725 -1.02288L132.411 167.438C187.624 210.755 242.283 242.51 294.838 261.802C330.638 218.836 362.065 164.16 388.173 99.1261L342.979 -69.5393L87.2725 -1.02288ZM277.935 190.582C220.316 206.094 160.65 171.654 145.084 113.835C129.367 55.1774 163.259 -4.40373 221.303 -19.9567C279.126 -35.5233 338.453 -0.993253 354.128 57.2362C369.853 115.379 335.757 175.015 277.935 190.582Z" fill="white"/>
<path d="M228.707 303.307L235.754 287.293C193.565 268.444 154.022 246.178 127.402 226.304L125.14 224.642L122.362 224.581C110.653 224.279 100.523 232.043 94.4742 245.813C85.1896 267.037 86.9039 300.83 105.86 320.854L106.536 321.478C116.904 330.337 130.113 334.336 141.928 332.048C142.692 331.917 143.506 331.699 144.251 331.499C153.338 329.064 160.839 322.883 165.495 313.95L165.904 313.036C170.353 301.158 167.122 288.557 157.508 280.887C150.937 275.621 142.743 273.792 134.817 275.403L134.027 294.424C140.407 290.299 145.339 293.516 146.722 294.609C148.019 295.652 152.043 299.55 149.765 306.236C147.109 310.972 143.381 313.874 138.543 314.805C132.108 316.016 124.347 313.632 118.084 308.43C104.663 293.875 103.648 268.385 110.416 252.959C111.674 250.06 114.881 243.858 119.727 242.413C147.356 262.529 186.844 284.59 228.707 303.307Z" fill="white"/>
<path d="M460.094 147.846C447.97 138.945 435.248 137.304 425.326 143.402L422.951 144.844L421.823 147.415C408.639 177.954 385.594 216.99 358.482 254.408L372.592 264.753C399.487 227.612 422.655 188.763 436.457 157.546C441.375 156.374 447.254 160.142 449.793 162.023C463.368 171.999 475.251 194.65 470.888 213.897C468.114 221.446 462.535 227.479 456.357 229.647C451.702 231.26 447.022 230.611 442.354 227.836C437.038 223.186 438.574 217.798 439.176 216.246C439.778 214.694 442.112 210.116 448.544 209.71L438.613 194.074C431.491 196.788 425.852 202.324 422.956 209.687C418.533 221.119 421.968 233.665 431.759 241.727L432.57 242.314C441.069 247.722 450.656 249.325 459.742 246.89C460.488 246.69 461.302 246.472 462.029 246.204C473.405 242.278 482.845 232.21 487.394 219.354L487.668 218.476C494.176 191.775 478.746 161.584 460.094 147.846Z" fill="white"/>
<path d="M38.7282 495.697L22.8536 436.452L-3.02196 443.386L-0.768175 453.342C0.472812 458.66 1.44952 463.678 2.16195 468.396C2.9602 473.092 3.43967 477.456 3.60039 481.489C3.84693 485.499 3.65415 489.07 3.02204 492.204C2.45259 495.228 1.42066 497.728 -0.0737618 499.703L-28.105 503.74C-25.0781 503.022 -22.8985 501.372 -21.5661 498.792C-20.1712 496.103 -19.4253 492.707 -19.3286 488.605C-19.146 484.481 -19.492 479.757 -20.3665 474.433C-21.1552 469.086 -22.2429 463.311 -23.6297 457.105L-30.1029 428.827L42.503 409.373L63.8314 488.971L38.7282 495.697ZM-20.4569 543.097L-30.8085 504.464L73.5948 476.49L83.9463 515.122L60.6455 521.366L55.7476 503.086L-1.92521 518.54L2.97266 536.819L-20.4569 543.097Z" fill="white"/>
<path d="M83.1056 495.756L98.5687 394.35L123.672 387.623L187.895 467.678L161.376 474.783L109.276 404.959L119.317 402.268L109.11 488.788L83.1056 495.756ZM100.137 472.295L101.631 451.609L145.658 439.812L157.295 456.98L100.137 472.295Z" fill="white"/>
<path d="M198.222 464.911L173.906 374.163L199.009 367.437L213.286 420.719L236.213 357.468L260.158 351.052L284.474 441.8L259.371 448.526L245.128 395.374L222.295 458.46L198.222 464.911ZM215.444 357.197C206.09 359.704 198.866 359.694 193.774 357.168C188.659 354.556 185.198 349.879 183.392 343.137L200.513 338.55C201.41 341.552 202.784 343.592 204.637 344.67C206.49 345.748 209.004 345.862 212.179 345.011C215.44 344.137 217.604 342.77 218.669 340.91C219.82 339.027 220.033 336.561 219.309 333.514L236.43 328.926C238.237 335.667 237.535 341.459 234.325 346.302C231.093 351.059 224.799 354.691 215.444 357.197Z" fill="white"/>
<path d="M272.651 347.566L301.873 339.735L324.565 360.055L333.928 331.146L363.537 323.213L345.565 374.576L390.462 413.4L360.467 421.437L335.125 399.466L324.293 431.13L294.941 438.995L314.595 384.124L272.651 347.566Z" fill="white"/>
<path d="M507.361 383.744C505.644 384.204 503.764 384.569 501.721 384.839C499.764 385.085 497.642 385.237 495.358 385.293L491.147 363.912C492.418 363.85 493.611 363.669 494.727 363.37C498.245 362.427 500.535 360.331 501.597 357.083C502.635 353.748 502.814 349.439 502.134 344.156C501.54 338.849 500.414 332.76 498.757 325.886L490.352 289.372L562.958 269.917L587.274 360.664L562.171 367.391L541.78 291.293L548.844 295.513L512.413 305.275L515.964 297.932L520.878 318.847C522.983 327.731 524.513 335.843 525.468 343.183C526.399 350.437 526.507 356.846 525.79 362.411C525.051 367.889 523.194 372.462 520.222 376.13C517.312 379.689 513.025 382.227 507.361 383.744Z" fill="white"/>
<path d="M662.786 328.482L646.911 269.236L621.036 276.17L623.29 286.126C624.531 291.444 625.507 296.462 626.22 301.181C627.018 305.876 627.498 310.24 627.658 314.273C627.905 318.283 627.712 321.854 627.08 324.988C626.51 328.012 625.479 330.512 623.984 332.487L595.953 336.524C598.98 335.806 601.159 334.157 602.492 331.576C603.887 328.887 604.633 325.491 604.729 321.389C604.912 317.265 604.566 312.541 603.691 307.217C602.903 301.871 601.815 296.095 600.428 289.889L593.955 261.611L666.561 242.157L687.889 321.755L662.786 328.482ZM603.601 375.881L593.249 337.249L697.653 309.274L708.004 347.906L684.703 354.15L679.806 335.871L622.133 351.324L627.031 369.603L603.601 375.881Z" fill="white"/>
<path d="M427.871 348.111C424.623 348.981 422.671 352.391 423.547 355.661C424.423 358.931 427.819 360.907 431.066 360.037C434.314 359.167 436.266 355.757 435.39 352.487C434.514 349.217 431.118 347.241 427.871 348.111Z" fill="white"/>
<path d="M471.056 322.314C467.009 317.144 462.069 312.97 456.333 309.902C450.58 306.77 444.338 304.869 437.607 304.199C430.859 303.464 423.864 304.101 416.542 306.063C409.22 308.025 402.86 311.035 397.384 315.045C391.907 319.056 387.469 323.887 384.036 329.412C380.619 335 378.475 341.004 377.474 347.457C376.554 353.958 376.982 360.647 378.854 367.636C380.71 374.561 383.684 380.568 387.731 385.737C391.778 390.907 396.718 395.081 402.454 398.149C408.206 401.281 414.448 403.182 421.26 403.899C428.072 404.617 435.084 404.044 442.406 402.082C449.601 400.154 455.978 397.208 461.455 393.198C466.932 389.188 471.387 384.42 474.82 378.896C478.236 373.307 480.381 367.303 481.347 360.722C482.25 354.157 481.805 347.404 479.967 340.543C478.094 333.554 475.166 327.466 471.056 322.314ZM469.28 365.605L431.1 362.433L444.901 369.113C445.099 377.238 437.328 382.619 428.026 387.379C432.669 385.86 445.292 380.76 447.662 370.503L451.655 371.908C450.475 380.746 440.819 388.006 427.546 391.7C429.594 393.488 434.875 393.585 437.866 393.539C431.751 395.934 425.959 396.73 420.2 395.868L419.839 355.555L414.15 369.724C406.292 368.668 400.716 362.122 396.444 352.545C398.765 362.988 405.364 369.535 412.984 373.267L411.607 377.553C401.636 372.94 394.964 363.32 391.438 351.688C389.867 354.995 390.148 358.081 390.392 361.795C387.291 355.823 386.831 348.249 389.132 342.066L428.191 345.207L412.979 338.356C415.187 328.006 421.808 324.445 428.331 320.773C419.939 322.815 413.326 327.68 409.409 336.495L406.094 334.566C411.749 324.597 420.51 319.089 430.964 316.081C428.37 315.058 424.588 314.697 420.441 314.503C428.042 312.053 433.088 311.526 440.233 312.979C440.371 313.492 438.298 352.876 438.298 352.876L444.683 338.246C451.571 338.737 457.547 342.702 461.333 354.539C460.266 344.447 454.4 338.597 446.266 334.729L447.78 330.956C458.165 336.351 463.328 343.902 466.543 355.136C468.268 352.406 468.952 349.611 469.365 346.82C471.27 354.694 471.627 359.34 469.28 365.605Z" fill="white"/>
</g>
</svg>
