<svg width="978" height="193" viewBox="0 0 978 193" fill="none" xmlns="http://www.w3.org/2000/svg">
<g opacity="0.1">
<path d="M153.772 266.317L153.495 265.283C153.386 265.22 153.386 265.22 153.386 265.22C153.132 264.272 134.83 212.739 134.83 212.739L111.522 253.438L135.131 286.091L172.614 276.047L172.114 271.101L153.772 266.317Z" fill="white"/>
<path d="M131.69 -45.7873L125.702 -39.3797L126.139 -28.5052L82.0813 9.71724L123.693 22.9526L141.55 -8.9884L131.69 -45.7873Z" fill="white"/>
<path d="M154.99 41.1684L145.43 5.48984L144.767 3.35827L138.654 9.98402L139.121 21.3124L125.751 35.425L68.5342 14.2708L69.2814 13.9783L69.2624 -2.18094L81.6334 -26.1861L80.4559 -48.0388L87.8809 -56.9558L86.5415 -61.9543L76.9948 -56.1634L83.6971 -68.1197L76.438 -80.4916L71.8318 -81.936L66.8003 -78.4634L67.4808 -74.212L55.0515 -66.1709L48.75 -67.4382L34.5345 -57.1634C31.3178 -57.8718 28.6241 -59.3668 25.6887 -57.6566C23.3916 -56.3022 22.4747 -53.5625 22.654 -50.8396C21.5347 -50.9091 20.3529 -50.8696 19.1548 -50.5485C13.7633 -49.1039 9.76424 -42.1208 13.1574 -37.6727C14.5905 -35.7475 15.559 -34.5291 18.1318 -31.4314L0.363731 25.1477L10.3929 181.702L52.5582 220.282L51.8284 269.248L80.035 300.577L85.2783 299.264L118.14 290.459L117.641 285.513L95.196 279.796L90.8778 269.499L142.352 182.275L129.801 131.326L97.845 71.6285L131.492 71.5724L154.99 41.1684Z" fill="white"/>
<path d="M697.027 120.752L696.75 119.718C696.813 119.609 696.813 119.609 696.813 119.609C696.559 118.661 686.643 64.8811 686.643 64.8811L727.177 88.4731L723.058 128.556L685.575 138.599L683.534 134.066L697.027 120.752Z" fill="white"/>
<path d="M560.093 -160.581L568.482 -158.026L573.541 -148.39L630.807 -137.317L601.388 -105.049L569.953 -123.782L560.093 -160.581Z" fill="white"/>
<path d="M583.393 -73.622L573.833 -109.301L573.341 -111.478L581.948 -108.796L587.208 -98.7521L605.843 -93.2156L644.817 -140.144L644.024 -140.024L635.961 -154.027L613.244 -168.631L603.338 -188.145L592.449 -192.155L591.11 -197.153L602.273 -196.911L590.49 -203.915L590.591 -218.258L593.858 -221.812L599.952 -221.321L601.488 -217.299L616.273 -216.55L621.096 -220.798L638.545 -219.007C640.976 -221.229 642.561 -223.871 645.959 -223.857C648.625 -223.833 650.789 -221.919 651.995 -219.471C652.93 -220.091 653.973 -220.648 655.171 -220.969C660.563 -222.413 667.518 -218.365 666.803 -212.817C666.525 -210.433 666.295 -208.893 665.616 -204.924L709.293 -164.809L778.799 -24.1918L761.573 30.3023L786.688 72.3428L777.924 113.578L772.727 115.063L739.865 123.868L737.825 119.334L754.404 103.161L752.996 92.0852L664.806 42.2835L650.201 -8.1152L648.026 -75.7922L618.859 -59.0172L583.393 -73.622Z" fill="white"/>
<path d="M688.81 147.592L696.214 175.221L788.15 150.587L780.746 122.957L688.81 147.592Z" fill="white"/>
<path d="M82.0339 310.177L89.4373 337.807L181.373 313.172L173.97 285.543L82.0339 310.177Z" fill="white"/>
<path d="M612.587 104.49L612.758 104.444L543.066 -155.647L148.722 -49.9831L218.413 210.108L218.841 209.994L218.591 210.43C292.189 268.76 369.257 314.707 450.493 345.404L460.931 326.166L479.59 337.608C534.594 270.405 578.363 192.08 612.936 104.766L612.587 104.49ZM460.947 325.885C386.446 300.125 312.132 256.581 238.053 197.826L175.866 -34.2569L527.593 -128.502L589.849 103.84C554.963 191.7 512.44 266.458 460.947 325.885Z" fill="white"/>
<path d="M389.315 48.9481C370.317 54.0387 358.905 74.0921 364.094 93.115C369.352 112.396 389.107 123.822 408.276 118.685C427.275 113.595 438.624 93.6502 433.498 74.5183C428.263 55.323 408.485 43.8116 389.315 48.9481Z" fill="white"/>
<path d="M366.367 -37.7304C299.639 -19.7584 259.93 49.0731 277.804 115.776C295.931 183.428 364.439 223.447 431.338 205.429C498.346 187.475 537.557 118.499 519.299 50.6986C501.541 -15.5739 432.496 -55.542 366.367 -37.7304ZM483.226 4.3896C462.84 13.5465 445.06 25.2382 429.906 40.5676C434.701 44.0858 438.911 48.4999 442.38 53.5742C445.545 50.3246 448.921 46.8339 452.366 43.6016C457.268 38.9628 462.721 35.0079 468.948 32.231C479.93 27.3485 489.945 29.468 498.256 38.2329C505.582 46.061 509.241 55.6103 511.344 65.8539C512.78 72.5815 513.399 79.343 513.294 86.4834C492.962 78.7228 472.217 74.2134 450.845 74.2131C451.925 80.2971 451.972 86.2886 451.155 92.1418C455.392 92.2073 459.862 92.1179 464.379 92.2009C470.598 92.4743 476.784 93.3106 482.671 95.4279C495.874 100.203 501.812 109.696 500.46 123.821C499.491 134.241 495.059 143.372 489.128 151.704C485.671 156.603 481.733 161.075 477.529 166.266C468.603 146.305 457.401 128.801 442.74 113.794C439.477 118.732 435.321 123.079 430.53 126.764C433.314 129.62 436.314 132.603 439.167 135.719C443.996 141.075 448.101 146.81 450.656 153.608C454.593 164.191 452.05 173.186 444.193 180.833C436.421 188.457 426.771 192.151 416.38 194.104C410.359 195.256 404.085 195.459 397.903 196.007C397.366 196.059 396.892 196.001 396.053 195.949C403.265 176.651 407.632 157.008 408.029 136.58C401.985 137.645 396.03 137.671 390.272 136.72C390.239 137.283 390.292 137.823 390.26 138.386C390.425 146.193 390.031 153.965 388.044 161.609C383.747 178.094 372.572 185.337 355.725 182.369C345.911 180.658 337.379 176.201 329.551 170.263C325.276 166.975 321.212 163.445 316.604 159.6C335.495 151.028 352.285 140.433 366.587 126.717C361.878 123.176 357.691 118.848 354.354 113.923C351.672 116.581 348.843 119.372 345.796 122.035C339.554 127.495 332.825 132.161 324.579 133.909C315.113 135.891 307.691 132.153 301.31 125.457C296.178 119.997 292.939 113.384 290.68 106.322C287.827 97.3882 286.647 88.1906 286.625 78.8673C286.641 78.5858 286.743 78.2814 286.776 77.7184C305.788 85.0015 325.219 89.401 345.353 89.9177C344.639 83.8281 344.958 77.8311 346.272 72.1218C342.703 72.1543 338.987 72.3188 335.28 71.8342C329.591 71.1417 323.754 70.5813 318.348 68.8894C304.358 64.602 298.104 54.27 299.791 39.6857C301.105 28.1572 306.386 18.429 313.228 9.39093C316.084 5.67009 319.288 2.22519 322.696 -1.82855C331.507 17.7018 342.577 35.0563 356.912 49.8735C360.633 45.2742 365.137 41.2039 370.324 37.9668C369.207 36.8805 367.982 35.731 366.733 34.4952C360.251 28.1037 354.322 21.3794 350.403 12.9156C345.34 1.89488 347.155 -8.10523 355.792 -16.608C362.971 -23.7042 371.93 -27.5826 381.59 -29.5246C388.124 -30.8135 394.912 -31.1544 401.585 -31.9263C402.292 -32.0235 403.069 -31.8622 404.08 -31.8559C396.477 -11.6223 392.107 9.0382 392.026 30.3042C398.162 29.5838 404.233 29.9893 410.083 31.285C410.056 29.8144 409.897 28.1944 409.91 26.5285C409.624 16.9063 410.008 7.3822 413.406 -1.84157C418.034 -14.3505 427.387 -20.1818 440.74 -18.9565C451.831 -17.9566 461.489 -13.0627 470.295 -6.55509C474.399 -3.22103 478.509 0.48075 483.226 4.3896Z" fill="white"/>
<path d="M193.905 -25.1425L250.873 187.464C320.555 242.132 389.538 282.209 455.864 306.557C501.046 252.331 540.708 183.327 573.658 101.251L516.621 -111.614L193.905 -25.1425ZM434.532 216.673C361.813 236.25 286.512 192.786 266.867 119.814C247.031 45.7853 289.805 -29.4094 363.06 -49.038C436.035 -68.684 510.908 -25.1052 530.691 48.3835C550.537 121.763 507.507 197.026 434.532 216.673Z" fill="white"/>
<path d="M372.403 358.938L381.297 338.728C328.052 314.939 278.147 286.838 244.552 261.757L241.696 259.658L238.19 259.582C223.412 259.2 210.629 268.999 202.994 286.378C191.277 313.163 193.44 355.812 217.364 381.083L218.217 381.871C231.302 393.051 247.972 398.098 262.883 395.211C263.848 395.045 264.875 394.77 265.816 394.518C277.284 391.445 286.75 383.644 292.627 372.37L293.143 371.216C298.757 356.226 294.679 340.323 282.546 330.643C274.254 323.997 263.912 321.688 253.909 323.722L252.912 347.728C260.964 342.522 267.188 346.581 268.934 347.96C270.571 349.277 275.65 354.197 272.774 362.634C269.423 368.612 264.717 372.275 258.611 373.449C250.491 374.978 240.696 371.968 232.791 365.404C215.854 347.035 214.572 314.865 223.113 295.396C224.701 291.738 228.749 283.91 234.865 282.087C269.734 307.474 319.57 335.316 372.403 358.938Z" fill="white"/>
<path d="M664.426 162.737C649.125 151.504 633.069 149.433 620.548 157.129L617.55 158.949L616.126 162.194C599.487 200.736 570.404 250.002 536.187 297.225L553.994 310.281C587.938 263.407 617.176 214.377 634.594 174.98C640.802 173.501 648.222 178.256 651.426 180.63C668.558 193.22 683.556 221.807 678.049 246.097C674.548 255.626 667.507 263.239 659.71 265.975C653.835 268.011 647.929 267.192 642.038 263.69C635.329 257.821 637.267 251.021 638.027 249.062C638.786 247.104 641.732 241.327 649.85 240.814L637.316 221.081C628.328 224.505 621.211 231.492 617.556 240.785C611.974 255.212 616.309 271.046 628.666 281.221L629.69 281.962C640.416 288.787 652.515 290.81 663.982 287.737C664.924 287.485 665.951 287.21 666.869 286.871C681.226 281.916 693.139 269.21 698.881 252.985L699.226 251.877C707.44 218.178 687.967 180.076 664.426 162.737Z" fill="white"/>
<path d="M132.64 601.745L112.605 526.974L79.9491 535.725L82.7935 548.29C84.3597 555.001 85.5923 561.335 86.4914 567.29C87.4989 573.216 88.104 578.724 88.3068 583.813C88.618 588.874 88.3747 593.381 87.5769 597.336C86.8582 601.153 85.5559 604.307 83.6699 606.8L48.2929 611.895C52.113 610.989 54.8639 608.907 56.5453 605.651C58.3058 602.256 59.2472 597.971 59.3693 592.794C59.5997 587.589 59.163 581.627 58.0593 574.908C57.0639 568.161 55.6912 560.871 53.941 553.04L45.7714 517.351L137.404 492.798L164.322 593.256L132.64 601.745ZM57.9452 661.566L44.881 612.81L176.643 577.504L189.708 626.26L160.301 634.14L154.119 611.07L81.3332 630.573L87.5146 653.643L57.9452 661.566Z" fill="white"/>
<path d="M188.647 601.819L208.162 473.839L239.843 465.35L320.897 566.383L287.428 575.351L221.675 487.228L234.348 483.832L221.465 593.025L188.647 601.819ZM210.142 572.211L212.027 546.103L267.592 531.215L282.278 552.882L210.142 572.211Z" fill="white"/>
<path d="M333.93 562.89L303.242 448.362L334.923 439.873L352.941 507.118L381.877 427.292L412.096 419.195L442.784 533.723L411.102 542.212L393.128 475.131L364.311 554.75L333.93 562.89ZM355.665 426.95C343.859 430.114 334.743 430.102 328.316 426.914C321.861 423.616 317.493 417.714 315.213 409.206L336.822 403.416C337.953 407.205 339.688 409.78 342.026 411.14C344.364 412.501 347.537 412.645 351.544 411.571C355.66 410.468 358.39 408.743 359.735 406.395C361.188 404.019 361.457 400.907 360.542 397.06L382.151 391.27C384.43 399.778 383.545 407.088 379.494 413.201C375.414 419.204 367.471 423.787 355.665 426.95Z" fill="white"/>
<path d="M427.863 414.795L464.743 404.913L493.381 430.557L505.198 394.073L542.566 384.06L519.884 448.883L576.547 497.881L538.691 508.025L506.709 480.295L493.038 520.258L455.995 530.183L480.799 460.934L427.863 414.795Z" fill="white"/>
<path d="M724.079 460.454C721.913 461.035 719.541 461.495 716.962 461.836C714.491 462.147 711.814 462.338 708.931 462.409L703.616 435.425C705.22 435.346 706.726 435.118 708.135 434.741C712.575 433.551 715.465 430.906 716.805 426.806C718.115 422.597 718.341 417.159 717.483 410.491C716.734 403.795 715.313 396.109 713.22 387.434L702.614 341.351L794.246 316.798L824.934 431.326L793.253 439.815L767.519 343.775L776.434 349.102L730.455 361.422L734.937 352.155L741.139 378.55C743.795 389.763 745.726 400.001 746.931 409.264C748.107 418.418 748.243 426.507 747.338 433.53C746.405 440.444 744.062 446.215 740.311 450.844C736.639 455.336 731.228 458.539 724.079 460.454Z" fill="white"/>
<path d="M920.235 390.71L900.2 315.939L867.544 324.689L870.388 337.254C871.954 343.966 873.187 350.299 874.086 356.255C875.093 362.181 875.699 367.688 875.901 372.778C876.212 377.838 875.969 382.346 875.171 386.301C874.453 390.117 873.15 393.272 871.264 395.765L835.887 400.86C839.708 399.953 842.458 397.872 844.14 394.616C845.9 391.221 846.842 386.936 846.964 381.759C847.194 376.554 846.758 370.591 845.654 363.873C844.659 357.125 843.286 349.836 841.536 342.004L833.366 306.316L924.999 281.763L951.916 382.221L920.235 390.71ZM845.54 450.53L832.476 401.774L964.238 366.469L977.302 415.225L947.895 423.104L941.714 400.035L868.928 419.538L875.109 442.607L845.54 450.53Z" fill="white"/>
<path d="M623.759 415.483C619.66 416.581 617.196 420.884 618.302 425.011C619.408 429.138 623.693 431.633 627.792 430.535C631.89 429.437 634.354 425.133 633.248 421.006C632.143 416.879 627.857 414.385 623.759 415.483Z" fill="white"/>
<path d="M678.26 382.925C673.153 376.401 666.919 371.133 659.68 367.261C652.42 363.309 644.542 360.91 636.047 360.064C627.53 359.136 618.702 359.941 609.461 362.417C600.22 364.893 592.194 368.691 585.282 373.753C578.37 378.814 572.769 384.911 568.436 391.884C564.125 398.937 561.418 406.514 560.155 414.658C558.995 422.862 559.534 431.304 561.898 440.125C564.239 448.864 567.993 456.445 573.1 462.97C578.208 469.494 584.442 474.762 591.681 478.633C598.941 482.586 606.819 484.985 615.416 485.891C624.013 486.796 632.862 486.073 642.104 483.597C651.184 481.164 659.231 477.446 666.143 472.385C673.056 467.324 678.678 461.307 683.011 454.335C687.323 447.282 690.029 439.705 691.249 431.398C692.388 423.114 691.827 414.591 689.506 405.932C687.143 397.111 683.448 389.428 678.26 382.925ZM676.019 437.561L627.835 433.559L645.252 441.989C645.502 452.243 635.694 459.034 623.954 465.042C629.814 463.125 645.745 456.688 648.737 443.744L653.776 445.516C652.286 456.67 640.1 465.833 623.348 470.495C625.934 472.751 632.599 472.874 636.373 472.816C628.656 475.838 621.346 476.843 614.078 475.755L613.623 424.877L606.443 442.76C596.526 441.428 589.489 433.165 584.097 421.08C587.026 434.259 595.355 442.522 604.971 447.231L603.233 452.64C590.649 446.818 582.228 434.677 577.778 419.997C575.796 424.171 576.15 428.066 576.459 432.754C572.545 425.216 571.964 415.657 574.869 407.854L624.163 411.819L604.965 403.172C607.752 390.109 616.108 385.615 624.34 380.981C613.748 383.559 605.402 389.698 600.46 400.823L596.276 398.388C603.412 385.808 614.469 378.855 627.663 375.06C624.389 373.769 619.616 373.313 614.382 373.067C623.975 369.977 630.343 369.311 639.361 371.145C639.534 371.792 636.919 421.497 636.919 421.497L644.977 403.032C653.669 403.652 661.211 408.657 665.989 423.595C664.644 410.859 657.24 403.476 646.974 398.594L648.885 393.832C661.992 400.641 668.508 410.171 672.565 424.349C674.742 420.903 675.606 417.376 676.126 413.854C678.53 423.791 678.982 429.655 676.019 437.561Z" fill="white"/>
</g>
</svg>
