<svg width="80" height="80" viewBox="0 0 80 80" fill="none" xmlns="http://www.w3.org/2000/svg">
<rect width="80" height="80" rx="20" fill="#00519B"/>
<path d="M40 25C31.7335 25 25 31.7335 25 40C25 48.2665 31.7335 55 40 55C48.2665 55 55 48.2665 55 40C55 31.7335 48.2665 25 40 25ZM40 31C40.3978 31 40.7794 31.158 41.0607 31.4393C41.342 31.7206 41.5 32.1022 41.5 32.5V39.3295L45.5575 43.36C45.8395 43.6405 45.9986 44.0215 45.9997 44.4193C46.0008 44.817 45.8439 45.1989 45.5635 45.481C45.283 45.763 44.902 45.9221 44.5042 45.9232C44.1065 45.9243 43.7246 45.7674 43.4425 45.487L38.9425 41.017C38.8021 40.8775 38.6908 40.7115 38.6148 40.5287C38.5389 40.3459 38.4998 40.1499 38.5 39.952V32.5C38.5 32.1022 38.658 31.7206 38.9393 31.4393C39.2206 31.158 39.6022 31 40 31Z" fill="white"/>
</svg>
