<svg width="80" height="80" viewBox="0 0 80 80" fill="none" xmlns="http://www.w3.org/2000/svg">
<rect width="80" height="80" rx="20" fill="#00519B"/>
<path fill-rule="evenodd" clip-rule="evenodd" d="M40.5 22C34.3305 22 29.3143 27.1137 29.3143 33.4212C29.3143 35.5578 30.2456 38.2084 31.6011 40.8523C34.5857 46.6742 39.5571 52.538 39.5571 52.538C39.6738 52.6753 39.8184 52.7855 39.9812 52.8611C40.1439 52.9366 40.3209 52.9757 40.5 52.9757C40.6791 52.9757 40.8561 52.9366 41.0188 52.8611C41.1816 52.7855 41.3262 52.6753 41.4429 52.538C41.4429 52.538 46.4143 46.6742 49.3989 40.8523C50.7544 38.2084 51.6857 35.5578 51.6857 33.4212C51.6857 27.1137 46.6695 22 40.5 22ZM40.5 28.6977C39.3126 28.73 38.1847 29.2294 37.3562 30.0894C36.5277 30.9494 36.0641 32.1022 36.0641 33.3023C36.0641 34.5025 36.5277 35.6553 37.3562 36.5153C38.1847 37.3753 39.3126 37.8746 40.5 37.907C41.6874 37.8746 42.8153 37.3753 43.6438 36.5153C44.4723 35.6553 44.9359 34.5025 44.9359 33.3023C44.9359 32.1022 44.4723 30.9494 43.6438 30.0894C42.8153 29.2294 41.6874 28.73 40.5 28.6977Z" fill="white"/>
<path fill-rule="evenodd" clip-rule="evenodd" d="M48.4278 49.0034C49.775 49.4119 50.8853 49.9176 51.6526 50.5103C52.1497 50.8921 52.5143 51.2655 52.5143 51.7209C52.5143 51.9888 52.3635 52.2316 52.1514 52.4744C51.8001 52.8746 51.2781 53.2346 50.6318 53.5695C48.3482 54.75 44.6561 55.4884 40.5 55.4884C36.3439 55.4884 32.6518 54.75 30.3682 53.5695C29.7219 53.2346 29.1999 52.8746 28.8486 52.4744C28.6365 52.2316 28.4857 51.9888 28.4857 51.7209C28.4857 51.2655 28.8503 50.8921 29.3474 50.5103C30.1147 49.9176 31.225 49.4119 32.5722 49.0034C32.888 48.9074 33.1531 48.6887 33.3093 48.3952C33.4655 48.1018 33.4999 47.7577 33.4049 47.4386C33.31 47.1195 33.0935 46.8516 32.8031 46.6938C32.5127 46.536 32.1721 46.5013 31.8563 46.5972C29.8048 47.2218 28.2106 48.0774 27.2528 49.0234C26.411 49.8523 26 50.7799 26 51.7209C26 52.8964 26.6579 54.0685 27.9952 55.0463C30.3417 56.7609 35.0546 58 40.5 58C45.9454 58 50.6583 56.7609 53.0048 55.0463C54.3421 54.0685 55 52.8964 55 51.7209C55 50.7799 54.589 49.8523 53.7472 49.0234C52.7894 48.0774 51.1952 47.2218 49.1437 46.5972C48.9873 46.5497 48.8232 46.5338 48.6608 46.5504C48.4983 46.567 48.3407 46.6157 48.1969 46.6938C48.0531 46.772 47.9259 46.878 47.8227 47.0057C47.7194 47.1335 47.6421 47.2806 47.5951 47.4386C47.5481 47.5966 47.5323 47.7624 47.5487 47.9265C47.5651 48.0907 47.6134 48.2499 47.6907 48.3952C47.768 48.5405 47.8729 48.669 47.9994 48.7734C48.1258 48.8777 48.2714 48.9559 48.4278 49.0034Z" fill="white"/>
</svg>
