<svg width="80" height="80" viewBox="0 0 80 80" fill="none" xmlns="http://www.w3.org/2000/svg">
<rect width="80" height="80" rx="20" fill="#00519B"/>
<path d="M48.2569 44.9741L52.6469 49.4459C53.1126 49.9206 53.3705 50.5607 53.3639 51.2253C53.3573 51.89 53.0867 52.5248 52.6116 52.9903L52.0609 53.5315C49.8169 55.728 46.8083 56.971 43.6665 56.9995C40.5247 57.028 37.4939 55.8399 35.2103 53.6844C32.4312 51.0596 29.7469 48.3209 27.1572 45.468C25.0441 43.144 23.9143 40.0927 24.0051 36.9545C24.0958 33.8164 25.4001 30.8353 27.644 28.637L27.7685 28.5149C28.0038 28.2844 28.2822 28.1025 28.5879 27.9796C28.8936 27.8566 29.2205 27.795 29.5501 27.7983C29.8796 27.8015 30.2053 27.8696 30.5084 27.9986C30.8116 28.1276 31.0864 28.315 31.317 28.5501L35.8953 33.2144C36.3608 33.6893 36.6185 34.3293 36.6119 34.9939C36.6053 35.6584 36.3349 36.2932 35.8601 36.7588L33.9526 38.6201C33.5686 38.9958 33.3261 39.4922 33.2659 40.0256C33.2058 40.559 33.3316 41.0969 33.6222 41.5485C35.2004 43.9862 37.0958 45.9586 39.3382 47.4217C39.7714 47.7053 40.2866 47.8376 40.8031 47.7978C41.3195 47.758 41.8083 47.5484 42.1929 47.2017L44.7898 44.8641C45.2707 44.4329 45.8996 44.2037 46.5455 44.2242C47.1913 44.2447 47.8044 44.5133 48.2569 44.9741ZM56.9994 38.1911C56.9531 37.2428 56.8518 36.2979 56.7736 35.3518C56.2549 33.2617 55.4024 31.3377 54.0753 29.6513C51.181 25.9734 47.3864 24.0897 42.6918 24.0002C41.6069 23.9815 40.8944 25.0255 41.3272 25.9925C41.6213 26.6525 42.1763 26.8384 42.8614 26.8571C46.5817 26.9583 49.5796 28.5017 51.8506 31.4367C53.3991 33.4421 54.1183 35.7478 54.1634 38.2758C54.1745 38.6514 54.3345 39.0073 54.6083 39.265C54.8821 39.5228 55.2472 39.6614 55.6232 39.6503C55.9993 39.6392 56.3556 39.4794 56.6137 39.2059C56.8717 38.9325 57.0105 38.5678 56.9994 38.1922V38.1911Z" fill="white"/>
<path d="M52.2019 36.7258C51.8594 35.3518 51.3418 34.1043 50.4739 32.9372C48.3923 30.1342 45.6037 28.6722 42.0948 28.637C41.9108 28.6319 41.7275 28.6633 41.5557 28.7293C41.3838 28.7954 41.2268 28.8948 41.0937 29.0219C40.9605 29.1489 40.8539 29.3011 40.78 29.4695C40.7061 29.638 40.6664 29.8194 40.6631 30.0033C40.6497 30.3671 40.7773 30.722 41.0194 30.9942C41.2615 31.2663 41.5994 31.4347 41.9627 31.4642C42.1356 31.4818 42.3107 31.4774 42.4847 31.4884C45.0002 31.6534 46.9507 32.7986 48.3428 34.8865C49.1303 36.068 49.4794 37.388 49.519 38.8016C49.5422 39.6707 50.1798 40.279 50.9772 40.2526C51.167 40.2507 51.3545 40.2103 51.5282 40.1338C51.702 40.0573 51.8583 39.9464 51.9878 39.8077C52.1172 39.669 52.2171 39.5055 52.2814 39.3271C52.3457 39.1486 52.373 38.959 52.3616 38.7697C52.3451 38.0877 52.2581 37.4067 52.2019 36.7258Z" fill="white"/>
<path d="M41.5023 33.3013C41.2459 33.3093 40.9964 33.3865 40.7804 33.5248C40.5644 33.6631 40.39 33.8573 40.2757 34.0867C40.1613 34.3161 40.1114 34.5722 40.1311 34.8277C40.1509 35.0832 40.2395 35.3286 40.3877 35.5377C40.6939 35.9778 41.1323 36.1274 41.651 36.1505C42.9605 36.2077 43.9451 36.8248 44.5024 38.0008C44.7227 38.4661 44.7766 39.0216 44.8526 39.5409C44.9627 40.3043 45.5696 40.8455 46.3394 40.8125C46.704 40.7988 47.0489 40.6442 47.3015 40.3813C47.554 40.1184 47.6944 39.7677 47.693 39.4034C47.693 38.9996 47.6368 38.5948 47.606 38.1933C47.0024 35.3309 44.3592 33.2045 41.5023 33.3013Z" fill="white"/>
</svg>
