<svg width="288" height="317" viewBox="0 0 288 317" fill="none" xmlns="http://www.w3.org/2000/svg">
<g clip-path="url(#clip0_378_8781)">
<rect width="288" height="317" fill="#00519B"/>
<g filter="url(#filter0_f_378_8781)">
<circle cx="45" cy="-140" r="293" fill="#4083F1"/>
</g>
<g opacity="0.1">
<path d="M112.986 169.511L112.844 168.981C112.788 168.949 112.788 168.949 112.788 168.949C112.658 168.463 103.276 142.055 103.276 142.055L91.3151 162.916L103.421 179.648L122.65 174.495L122.394 171.961L112.986 169.511Z" fill="#EEF4FE"/>
<path d="M101.7 9.55938L98.6272 12.844L98.8501 18.4172L76.2451 38.0122L97.5882 44.7899L106.753 28.4176L101.7 9.55938Z" fill="#EEF4FE"/>
<path d="M113.64 54.1214L108.741 35.8373L108.401 34.7449L105.265 38.1415L105.503 43.9472L98.6422 51.1817L69.2954 40.3477L69.6787 40.1977L69.6711 31.916L76.02 19.6116L75.4189 8.41222L79.2288 3.8412L78.5424 1.27966L73.6446 4.24878L77.0841 -1.87976L73.3621 -8.21944L70.9995 -8.95911L68.4181 -7.17871L68.7666 -4.99999L62.3899 -0.877247L59.1576 -1.52589L51.8643 3.74184C50.2144 3.37923 48.8328 2.61336 47.3268 3.49024C46.1484 4.1847 45.6776 5.58888 45.7693 6.9844C45.1951 6.9489 44.5889 6.96932 43.9743 7.13401C41.2085 7.87509 39.1562 11.4545 40.8962 13.7337C41.6311 14.7202 42.1277 15.3445 43.447 16.9317L34.3253 45.9311L39.4493 126.164L61.0733 145.931L60.6925 171.027L75.1572 187.079L77.847 186.406L94.705 181.889L94.4493 179.354L82.9369 176.427L80.7232 171.15L107.139 126.441L100.707 100.331L84.3231 69.7399L101.583 69.7067L113.64 54.1214Z" fill="#EEF4FE"/>
<path d="M391.672 94.8361L391.53 94.3061C391.562 94.2502 391.562 94.2501 391.562 94.2501C391.432 93.7643 386.353 66.2034 386.353 66.2034L407.142 78.2891L405.024 98.8322L385.795 103.985L384.749 101.661L391.672 94.8361Z" fill="#EEF4FE"/>
<path d="M321.468 -49.3293L325.771 -48.0208L328.364 -43.0828L357.738 -37.4156L342.643 -20.8744L326.521 -30.471L321.468 -49.3293Z" fill="#EEF4FE"/>
<path d="M333.408 -4.7654L328.509 -23.0495L328.257 -24.1654L332.672 -22.7922L335.368 -17.6451L344.927 -14.8101L364.925 -38.8661L364.518 -38.8044L360.384 -45.9803L348.733 -53.4617L343.654 -63.4612L338.069 -65.5149L337.383 -68.0765L343.109 -67.9541L337.066 -71.5417L337.12 -78.8931L338.796 -80.7149L341.922 -80.4638L342.709 -78.4027L350.293 -78.0207L352.768 -80.1985L361.718 -79.2832C362.966 -80.4222 363.779 -81.7762 365.522 -81.7698C366.89 -81.7576 367.999 -80.7769 368.618 -79.5226C369.097 -79.8404 369.632 -80.1258 370.247 -80.2905C373.013 -81.0316 376.58 -78.9579 376.213 -76.114C376.069 -74.8923 375.951 -74.1033 375.603 -72.0691L398.002 -51.5158L433.637 20.5421L424.794 48.4728L437.671 70.0154L433.17 91.1496L430.504 91.9113L413.646 96.4284L412.6 94.1052L421.107 85.8143L420.386 80.1379L375.154 54.6259L367.669 28.7983L366.563 -5.8861L351.599 2.71498L333.408 -4.7654Z" fill="#EEF4FE"/>
<path d="M387.454 108.594L391.248 122.753L438.411 110.116L434.617 95.9564L387.454 108.594Z" fill="#EEF4FE"/>
<path d="M76.1813 191.999L79.9753 206.158L127.138 193.521L123.344 179.362L76.1813 191.999Z" fill="#EEF4FE"/>
<path d="M348.36 86.5128L348.448 86.4893L312.733 -46.7994L110.437 7.40577L146.151 140.694L146.371 140.636L146.242 140.859C183.988 170.744 223.514 194.282 265.181 210.004L270.538 200.143L280.107 206.004C308.331 171.555 330.793 131.408 348.539 86.6542L348.36 86.5128ZM270.546 199.998C232.333 186.806 194.219 164.5 156.227 134.397L124.358 15.4619L304.792 -32.8851L336.696 86.1826C318.79 131.216 296.967 169.535 270.546 199.998Z" fill="#EEF4FE"/>
<path d="M233.838 58.0767C224.092 60.6882 218.235 70.9672 220.895 80.7158C223.589 90.5969 233.721 96.4497 243.555 93.8148C253.301 91.2033 259.126 80.9803 256.498 71.1758C253.816 61.3388 243.672 55.4418 233.838 58.0767Z" fill="#EEF4FE"/>
<path d="M222.078 13.6577C187.847 22.8772 167.469 58.1588 176.629 92.3422C185.918 127.011 221.055 147.513 255.374 138.269C289.748 129.059 309.871 93.7036 300.514 58.9578C291.414 24.9953 256.002 4.52052 222.078 13.6577ZM282.016 35.229C271.558 39.9247 262.436 45.919 254.661 53.7774C257.12 55.5799 259.279 57.8416 261.058 60.4417C262.682 58.7758 264.414 56.9864 266.181 55.3294C268.697 52.9513 271.494 50.9237 274.689 49.4997C280.323 46.996 285.46 48.0809 289.722 52.5719C293.479 56.5828 295.354 61.4764 296.432 66.726C297.167 70.1737 297.484 73.639 297.43 77.2984C287.001 73.3238 276.36 71.0155 265.397 71.0181C265.951 74.136 265.973 77.2067 265.554 80.2066C267.727 80.2396 270.02 80.1932 272.337 80.2351C275.527 80.3744 278.7 80.8022 281.72 81.8866C288.492 84.3321 291.536 89.1967 290.841 96.4359C290.343 101.776 288.068 106.457 285.025 110.728C283.251 113.238 281.23 115.531 279.073 118.192C274.497 107.963 268.753 98.9936 261.234 91.3044C259.56 93.8359 257.428 96.0639 254.97 97.9532C256.397 99.4169 257.936 100.945 259.399 102.541C261.875 105.286 263.98 108.225 265.29 111.708C267.308 117.132 266.002 121.742 261.971 125.662C257.983 129.571 253.033 131.465 247.702 132.467C244.614 133.058 241.395 133.163 238.224 133.445C237.949 133.471 237.706 133.442 237.275 133.415C240.977 123.524 243.22 113.456 243.426 102.987C240.326 103.534 237.271 103.548 234.318 103.061C234.301 103.35 234.328 103.626 234.311 103.915C234.395 107.916 234.192 111.899 233.171 115.817C230.965 124.266 225.232 127.98 216.591 126.461C211.556 125.585 207.18 123.302 203.166 120.26C200.973 118.575 198.889 116.767 196.526 114.797C206.217 110.401 214.831 104.969 222.17 97.9377C219.754 96.1234 217.607 93.9059 215.896 91.3823C214.52 92.745 213.068 94.1754 211.505 95.541C208.303 98.3398 204.85 100.732 200.62 101.629C195.764 102.646 191.957 100.731 188.685 97.3007C186.054 94.503 184.393 91.1139 183.235 87.4953C181.773 82.9168 181.168 78.2032 181.159 73.4249C181.167 73.2807 181.219 73.1247 181.236 72.8361C190.987 76.5662 200.954 78.8185 211.282 79.0806C210.917 75.9598 211.081 72.8862 211.756 69.96C209.925 69.9771 208.019 70.0619 206.117 69.8141C203.199 69.4599 200.205 69.1735 197.432 68.3071C190.256 66.1116 187.05 60.8173 187.917 53.3425C188.593 47.434 191.303 42.4475 194.814 37.8146C196.279 35.9072 197.923 34.1413 199.672 32.0633C204.189 42.0715 209.865 50.9643 217.217 58.5563C219.126 56.1987 221.437 54.112 224.098 52.4523C223.525 51.8957 222.897 51.3067 222.257 50.6736C218.932 47.3988 215.892 43.9533 213.883 39.6161C211.287 33.9686 212.219 28.8433 216.651 24.4844C220.334 20.8466 224.93 18.8578 229.886 17.8612C233.238 17.1998 236.72 17.0242 240.143 16.6277C240.506 16.5778 240.904 16.6604 241.423 16.6635C237.52 27.0343 235.275 37.6234 235.232 48.5223C238.379 48.1523 241.493 48.3593 244.494 49.0226C244.48 48.2689 244.399 47.4387 244.405 46.5849C244.26 41.6535 244.458 36.7724 246.203 32.0447C248.578 25.6332 253.377 22.6434 260.226 23.2696C265.915 23.7806 270.869 26.2875 275.385 29.6215C277.49 31.3297 279.598 33.2263 282.016 35.229Z" fill="#EEF4FE"/>
<path d="M133.611 20.1317L162.805 129.086C198.542 157.094 233.922 177.625 267.941 190.094C291.125 162.298 311.479 126.928 328.392 84.8589L299.162 -24.2276L133.611 20.1317ZM257.01 144.031C219.706 154.074 181.085 131.808 171.018 94.4129C160.853 56.4755 182.804 17.9323 220.383 7.86298C257.819 -2.21526 296.22 20.1092 306.359 57.7698C316.529 95.3745 294.446 133.953 257.01 144.031Z" fill="#EEF4FE"/>
<path d="M225.122 216.951L229.687 206.592C202.378 194.407 176.782 180.012 159.553 167.162L158.088 166.087L156.29 166.048C148.709 165.855 142.151 170.878 138.232 179.786C132.218 193.515 133.322 215.372 145.591 228.321L146.028 228.724C152.739 234.453 161.289 237.037 168.938 235.556C169.433 235.47 169.96 235.329 170.443 235.2C176.326 233.623 181.183 229.624 184.199 223.846L184.463 223.254C187.345 215.571 185.256 207.421 179.033 202.461C174.78 199.057 169.476 197.875 164.344 198.918L163.83 211.221C167.961 208.552 171.153 210.632 172.048 211.339C172.888 212.013 175.492 214.534 174.016 218.858C172.296 221.923 169.882 223.8 166.75 224.403C162.584 225.188 157.56 223.646 153.506 220.283C144.821 210.871 144.167 194.384 148.551 184.405C149.366 182.53 151.444 178.518 154.581 177.583C172.464 190.589 198.024 204.852 225.122 216.951Z" fill="#EEF4FE"/>
<path d="M374.944 116.359C367.097 110.604 358.861 109.545 352.437 113.491L350.899 114.424L350.168 116.087C341.628 135.842 326.703 161.095 309.145 185.301L318.277 191.99C335.695 167.963 350.7 142.831 359.64 122.637C362.824 121.879 366.63 124.314 368.273 125.531C377.059 131.981 384.749 146.63 381.921 159.08C380.124 163.963 376.511 167.866 372.511 169.269C369.497 170.313 366.468 169.894 363.446 168.101C360.006 165.094 361.001 161.608 361.391 160.604C361.78 159.601 363.293 156.639 367.457 156.376L361.03 146.264C356.419 148.02 352.767 151.602 350.891 156.365C348.026 163.759 350.247 171.874 356.585 177.087L357.11 177.467C362.611 180.963 368.817 181.998 374.7 180.422C375.183 180.293 375.71 180.151 376.181 179.978C383.546 177.436 389.658 170.923 392.606 162.607L392.783 162.039C397.001 144.767 387.017 125.242 374.944 116.359Z" fill="#EEF4FE"/>
<path d="M102.102 341.422L91.8347 303.104L75.0822 307.593L76.5396 314.033C77.3421 317.472 77.9736 320.718 78.434 323.77C78.95 326.807 79.2597 329.629 79.3631 332.238C79.522 334.831 79.3966 337.141 78.9869 339.168C78.6177 341.124 77.9493 342.741 76.9815 344.019L58.8339 346.635C60.7936 346.17 62.2049 345.103 63.0678 343.434C63.9714 341.694 64.4548 339.497 64.5181 336.844C64.637 334.176 64.4138 331.121 63.8485 327.678C63.3388 324.22 62.6356 320.484 61.7389 316.471L57.5529 298.181L104.56 285.586L118.354 337.067L102.102 341.422ZM63.7786 372.09L57.0836 347.104L124.677 328.993L131.372 353.979L116.286 358.021L113.119 346.198L75.7798 356.203L78.9475 368.026L63.7786 372.09Z" fill="#EEF4FE"/>
<path d="M130.831 341.452L140.858 275.86L157.111 271.505L198.674 323.274L181.505 327.874L147.788 282.72L154.289 280.978L147.667 336.941L130.831 341.452ZM141.861 326.275L142.831 312.895L171.336 305.257L178.866 316.36L141.861 326.275Z" fill="#EEF4FE"/>
<path d="M205.36 321.482L189.634 262.79L205.886 258.436L215.12 292.896L229.973 251.981L245.475 247.828L261.202 306.52L244.949 310.875L235.738 276.498L220.946 317.306L205.36 321.482ZM216.528 251.81C210.471 253.433 205.795 253.428 202.499 251.794C199.188 250.106 196.948 247.081 195.78 242.721L206.865 239.751C207.444 241.692 208.334 243.012 209.533 243.709C210.732 244.406 212.36 244.479 214.416 243.928C216.527 243.363 217.928 242.478 218.618 241.275C219.363 240.056 219.502 238.462 219.033 236.49L230.118 233.52C231.286 237.88 230.831 241.627 228.753 244.76C226.659 247.837 222.584 250.187 216.528 251.81Z" fill="#EEF4FE"/>
<path d="M253.563 245.571L272.483 240.501L287.17 253.64L293.236 234.94L312.406 229.804L300.762 263.029L329.821 288.133L310.402 293.337L294 279.129L286.982 299.612L267.979 304.704L280.711 269.21L253.563 245.571Z" fill="#EEF4FE"/>
<path d="M405.505 268.932C404.393 269.23 403.176 269.466 401.853 269.641C400.586 269.801 399.213 269.899 397.734 269.936L395.011 256.107C395.834 256.067 396.607 255.95 397.329 255.756C399.607 255.146 401.09 253.79 401.777 251.688C402.45 249.531 402.567 246.744 402.127 243.327C401.744 239.895 401.016 235.956 399.944 231.51L394.509 207.894L441.516 195.299L457.243 253.991L440.99 258.346L427.802 209.128L432.375 211.857L408.788 218.177L411.088 213.427L414.266 226.954C415.627 232.7 416.616 237.947 417.233 242.694C417.835 247.386 417.904 251.531 417.439 255.13C416.959 258.674 415.757 261.632 413.832 264.005C411.948 266.307 409.172 267.95 405.505 268.932Z" fill="#EEF4FE"/>
<path d="M506.133 233.162L495.866 194.845L479.114 199.333L480.571 205.773C481.374 209.212 482.005 212.458 482.465 215.51C482.981 218.547 483.291 221.369 483.394 223.978C483.553 226.571 483.428 228.881 483.018 230.908C482.649 232.864 481.981 234.481 481.013 235.759L462.865 238.375C464.825 237.91 466.236 236.843 467.099 235.174C468.003 233.434 468.486 231.238 468.549 228.585C468.668 225.917 468.445 222.861 467.88 219.418C467.37 215.96 466.667 212.224 465.77 208.211L461.584 189.921L508.591 177.326L522.386 228.807L506.133 233.162ZM467.81 263.83L461.115 238.844L528.708 220.733L535.403 245.719L520.318 249.761L517.15 237.939L479.811 247.944L482.979 259.766L467.81 263.83Z" fill="#EEF4FE"/>
<path d="M354.05 245.898C351.948 246.462 350.683 248.667 351.25 250.782C351.817 252.897 354.015 254.175 356.117 253.612C358.219 253.049 359.484 250.843 358.917 248.728C358.351 246.613 356.153 245.335 354.05 245.898Z" fill="#EEF4FE"/>
<path d="M382.012 229.205C379.393 225.862 376.195 223.163 372.483 221.18C368.759 219.155 364.718 217.927 360.361 217.494C355.992 217.02 351.464 217.433 346.723 218.704C341.983 219.974 337.865 221.922 334.319 224.517C330.773 227.111 327.899 230.237 325.675 233.811C323.463 237.426 322.073 241.31 321.425 245.484C320.828 249.689 321.104 254.015 322.315 258.536C323.515 263.014 325.44 266.899 328.058 270.242C330.677 273.585 333.875 276.284 337.587 278.267C341.311 280.292 345.352 281.521 349.761 281.984C354.171 282.447 358.711 282.075 363.451 280.805C368.11 279.556 372.238 277.65 375.784 275.055C379.331 272.461 382.216 269.376 384.439 265.802C386.652 262.187 388.041 258.303 388.668 254.046C389.253 249.8 388.966 245.432 387.777 240.995C386.566 236.475 384.672 232.537 382.012 229.205ZM380.855 257.207L356.139 255.162L365.072 259.48C365.199 264.735 360.167 268.217 354.144 271.298C357.15 270.314 365.323 267.013 366.859 260.379L369.444 261.286C368.678 267.003 362.426 271.701 353.833 274.092C355.158 275.248 358.577 275.31 360.513 275.28C356.554 276.83 352.804 277.346 349.076 276.789L348.85 250.714L345.164 259.88C340.077 259.199 336.469 254.965 333.705 248.772C335.205 255.526 339.477 259.76 344.409 262.172L343.517 264.944C337.062 261.962 332.744 255.741 330.464 248.218C329.446 250.358 329.628 252.354 329.785 254.756C327.778 250.893 327.482 245.995 328.973 241.995L354.258 244.02L344.411 239.592C345.843 232.896 350.13 230.592 354.353 228.216C348.919 229.538 344.638 232.686 342.101 238.388L339.955 237.141C343.617 230.692 349.29 227.128 356.058 225.181C354.379 224.52 351.931 224.287 349.246 224.162C354.167 222.576 357.434 222.234 362.059 223.173C362.148 223.505 360.8 248.979 360.8 248.979L364.936 239.515C369.395 239.831 373.263 242.395 375.712 250.051C375.023 243.523 371.226 239.74 365.961 237.24L366.942 234.799C373.664 238.287 377.005 243.17 379.085 250.436C380.202 248.67 380.645 246.862 380.913 245.057C382.145 250.149 382.376 253.154 380.855 257.207Z" fill="#EEF4FE"/>
</g>
</g>
<defs>
<filter id="filter0_f_378_8781" x="-448" y="-633" width="986" height="986" filterUnits="userSpaceOnUse" color-interpolation-filters="sRGB">
<feFlood flood-opacity="0" result="BackgroundImageFix"/>
<feBlend mode="normal" in="SourceGraphic" in2="BackgroundImageFix" result="shape"/>
<feGaussianBlur stdDeviation="100" result="effect1_foregroundBlur_378_8781"/>
</filter>
<clipPath id="clip0_378_8781">
<rect width="288" height="317" fill="white"/>
</clipPath>
</defs>
</svg>
