<svg width="1420" height="231" viewBox="0 0 1420 231" fill="none" xmlns="http://www.w3.org/2000/svg">
<g clip-path="url(#clip0_205_4979)">
<rect width="1420" height="231" fill="#00519B"/>
<g filter="url(#filter0_f_205_4979)">
<circle cx="227" cy="116" r="462" fill="#4083F1"/>
</g>
<g opacity="0.1">
<path d="M476.507 351.618L476.216 350.534C476.102 350.468 476.102 350.468 476.102 350.468C475.836 349.474 456.647 295.459 456.647 295.459L432.182 338.128L456.943 372.351L496.273 361.813L495.75 356.628L476.507 351.618Z" fill="#EEF4FE"/>
<path d="M453.422 24.4541L447.138 31.1725L447.594 42.5719L401.358 82.6512L445.013 96.5142L463.758 63.0266L453.422 24.4541Z" fill="#EEF4FE"/>
<path d="M477.845 115.601L467.824 78.2027L467.129 75.9684L460.714 82.9156L461.201 94.7907L447.169 109.588L387.143 87.4282L387.927 87.1213L387.912 70.1821L400.898 45.0149L399.668 22.1077L407.461 12.7582L406.057 7.51888L396.039 13.5919L403.074 1.05664L395.461 -11.9105L390.629 -13.4234L385.349 -9.78179L386.062 -5.32545L373.019 3.10716L366.407 1.78043L351.49 12.555C348.115 11.8133 345.289 10.2468 342.209 12.0404C339.798 13.4608 338.836 16.3329 339.023 19.1873C337.849 19.1147 336.609 19.1564 335.352 19.4933C329.695 21.0091 325.497 28.3303 329.056 32.9922C330.559 35.01 331.575 36.2869 334.273 39.5334L315.616 98.8484L326.096 262.957L370.326 303.388L369.547 354.717L399.133 387.551L404.634 386.173L439.116 376.934L438.593 371.749L415.045 365.763L410.517 354.97L464.547 263.522L451.392 210.117L417.881 147.547L453.183 147.479L477.845 115.601Z" fill="#EEF4FE"/>
<path d="M1046.53 198.878L1046.24 197.794C1046.3 197.68 1046.3 197.68 1046.3 197.68C1046.04 196.686 1035.65 140.313 1035.65 140.313L1078.17 165.033L1073.84 207.052L1034.51 217.59L1032.37 212.838L1046.53 198.878Z" fill="#EEF4FE"/>
<path d="M902.934 -95.9961L911.735 -93.3198L917.04 -83.2197L977.121 -71.6281L946.246 -37.7948L913.269 -57.4236L902.934 -95.9961Z" fill="#EEF4FE"/>
<path d="M927.357 -4.84563L917.336 -42.2438L916.821 -44.5262L925.851 -41.7174L931.366 -31.1897L950.917 -25.391L991.821 -74.5948L990.989 -74.4686L982.532 -89.1461L958.703 -104.448L948.314 -124.902L936.891 -129.102L935.487 -134.341L947.199 -134.091L934.839 -141.429L934.948 -156.466L938.377 -160.192L944.77 -159.678L946.381 -155.463L961.893 -154.681L966.955 -159.136L985.261 -157.264C987.813 -159.593 989.477 -162.363 993.041 -162.35C995.839 -162.325 998.109 -160.319 999.374 -157.753C1000.35 -158.403 1001.45 -158.987 1002.71 -159.324C1008.36 -160.84 1015.66 -156.598 1014.91 -150.781C1014.62 -148.282 1014.37 -146.669 1013.66 -142.508L1059.48 -100.468L1132.36 46.918L1114.28 104.047L1140.61 148.11L1131.41 191.338L1125.96 192.896L1091.47 202.135L1089.34 197.383L1106.73 180.425L1105.26 168.815L1012.74 116.633L997.434 63.8052L995.171 -7.13792L964.564 10.4546L927.357 -4.84563Z" fill="#EEF4FE"/>
<path d="M1037.9 227.017L1045.66 255.979L1142.13 230.131L1134.37 201.17L1037.9 227.017Z" fill="#EEF4FE"/>
<path d="M401.227 397.614L408.988 426.575L505.453 400.727L497.693 371.766L401.227 397.614Z" fill="#EEF4FE"/>
<path d="M957.939 181.854L958.118 181.806L885.068 -90.8215L471.293 20.0491L544.343 292.676L544.792 292.556L544.53 293.014C621.733 354.139 702.58 402.283 787.805 434.441L798.762 414.271L818.336 426.26C876.064 355.799 922.008 273.681 958.305 182.143L957.939 181.854ZM798.779 413.976C720.619 386.993 642.66 341.367 564.952 279.796L499.769 36.5271L868.826 -62.3614L934.082 181.178C897.457 273.289 852.821 351.667 798.779 413.976Z" fill="#EEF4FE"/>
<path d="M723.697 123.691C703.762 129.032 691.784 150.057 697.223 169.997C702.734 190.207 723.458 202.179 743.572 196.789C763.507 191.448 775.42 170.538 770.046 150.484C764.559 130.363 743.811 118.301 723.697 123.691Z" fill="#EEF4FE"/>
<path d="M699.644 32.8368C629.628 51.6943 587.947 123.859 606.681 193.777C625.682 264.689 697.55 306.622 767.746 287.716C838.055 268.877 879.215 196.562 860.076 125.493C841.462 56.0265 769.031 14.1477 699.644 32.8368ZM822.24 76.9585C800.85 86.5629 782.192 98.8237 766.288 114.897C771.318 118.584 775.733 123.21 779.372 128.528C782.694 125.121 786.236 121.461 789.852 118.072C794.996 113.208 800.718 109.06 807.252 106.148C818.776 101.027 829.284 103.246 838.001 112.431C845.685 120.635 849.522 130.645 851.725 141.382C853.23 148.434 853.878 155.522 853.766 163.007C832.436 154.877 810.671 150.156 788.248 150.161C789.38 156.538 789.426 162.819 788.568 168.955C793.013 169.023 797.704 168.928 802.443 169.013C808.967 169.298 815.457 170.173 821.634 172.391C835.486 177.394 841.713 187.343 840.291 202.15C839.272 213.074 834.619 222.647 828.394 231.383C824.765 236.518 820.632 241.208 816.22 246.65C806.86 225.728 795.111 207.382 779.733 191.655C776.308 196.832 771.947 201.389 766.92 205.254C769.839 208.248 772.987 211.374 775.979 214.639C781.044 220.252 785.349 226.263 788.028 233.388C792.156 244.481 789.485 253.911 781.239 261.929C773.084 269.924 762.958 273.799 752.055 275.849C745.738 277.057 739.155 277.272 732.668 277.848C732.105 277.902 731.608 277.842 730.727 277.788C738.299 257.557 742.886 236.964 743.308 215.55C736.967 216.668 730.719 216.697 724.678 215.701C724.643 216.291 724.699 216.857 724.664 217.448C724.836 225.631 724.421 233.779 722.333 241.793C717.821 259.074 706.094 266.67 688.419 263.564C678.122 261.772 669.172 257.103 660.96 250.88C656.476 247.434 652.212 243.735 647.379 239.705C667.202 230.715 684.821 219.604 699.83 205.222C694.89 201.511 690.499 196.975 686.998 191.814C684.184 194.601 681.215 197.527 678.017 200.32C671.467 206.045 664.405 210.938 655.754 212.772C645.821 214.853 638.034 210.937 631.342 203.919C625.959 198.197 622.562 191.265 620.194 183.863C617.203 174.499 615.967 164.857 615.947 155.084C615.964 154.789 616.071 154.47 616.105 153.88C636.051 161.509 656.437 166.116 677.562 166.652C676.814 160.269 677.15 153.982 678.53 147.997C674.786 148.032 670.887 148.205 666.997 147.698C661.029 146.974 654.905 146.388 649.233 144.616C634.556 140.125 627.997 129.296 629.771 114.008C631.152 101.922 636.696 91.7231 643.878 82.247C646.874 78.3458 650.237 74.7337 653.814 70.4834C663.053 90.9541 674.664 109.143 689.7 124.672C693.605 119.85 698.332 115.582 703.774 112.187C702.603 111.048 701.318 109.844 700.008 108.549C693.209 101.85 686.99 94.8031 682.88 85.9318C677.572 74.3805 679.479 63.8972 688.542 54.9816C696.077 47.5409 705.477 43.473 715.614 41.4346C722.469 40.0817 729.591 39.7225 736.592 38.9117C737.335 38.8095 738.15 38.9784 739.21 38.9847C731.228 60.197 726.637 81.856 726.547 104.149C732.985 103.392 739.354 103.815 745.492 105.172C745.464 103.63 745.298 101.932 745.311 100.186C745.015 90.0992 745.419 80.1152 748.987 70.4453C753.847 57.3314 763.661 51.2161 777.67 52.4969C789.307 53.5421 799.439 58.6696 808.677 65.489C812.981 68.9829 817.293 72.8622 822.24 76.9585Z" fill="#EEF4FE"/>
<path d="M518.693 46.0787L578.407 268.932C651.502 326.221 723.868 368.214 793.452 393.719C840.871 336.863 882.503 264.518 917.096 178.471L857.31 -44.6534L518.693 46.0787ZM771.094 299.501C694.792 320.043 615.797 274.501 595.206 198.013C574.414 120.416 619.312 41.5801 696.176 20.9843C772.747 0.370397 851.293 46.0327 872.03 123.063C892.832 199.979 847.664 278.887 771.094 299.501Z" fill="#EEF4FE"/>
<path d="M705.87 448.651L715.206 427.463C659.349 402.54 606.996 373.096 571.754 346.813L568.759 344.614L565.08 344.535C549.576 344.139 536.16 354.414 528.146 372.633C515.844 400.715 518.103 445.421 543.197 471.907L544.092 472.732C557.818 484.448 575.307 489.735 590.952 486.704C591.964 486.53 593.041 486.241 594.029 485.977C606.062 482.752 615.996 474.572 622.165 462.753L622.707 461.543C628.601 445.828 624.327 429.158 611.6 419.014C602.901 412.05 592.051 409.632 581.555 411.767L580.503 436.931C588.953 431.472 595.482 435.725 597.313 437.171C599.03 438.551 604.357 443.707 601.338 452.552C597.82 458.819 592.882 462.66 586.476 463.892C577.955 465.498 567.679 462.345 559.387 455.466C541.621 436.215 540.285 402.493 549.252 382.082C550.919 378.246 555.168 370.04 561.585 368.127C598.164 394.73 650.444 423.903 705.87 448.651Z" fill="#EEF4FE"/>
<path d="M1012.31 242.901C996.263 231.13 979.417 228.963 966.278 237.034L963.132 238.942L961.637 242.344C944.169 282.751 913.641 334.403 877.729 383.915L896.408 397.596C932.034 348.451 962.724 297.046 981.011 255.742C987.524 254.19 995.308 259.173 998.669 261.661C1016.64 274.854 1032.37 304.817 1026.58 330.281C1022.91 340.27 1015.52 348.253 1007.34 351.123C1001.17 353.259 994.977 352.402 988.796 348.733C981.759 342.582 983.795 335.453 984.592 333.4C985.389 331.347 988.482 325.29 996.999 324.75L983.854 304.068C974.423 307.66 966.954 314.986 963.116 324.728C957.256 339.853 961.799 356.451 974.762 367.113L975.836 367.89C987.088 375.041 999.782 377.159 1011.81 373.935C1012.8 373.67 1013.88 373.381 1014.84 373.026C1029.91 367.828 1042.41 354.505 1048.44 337.496L1048.8 336.334C1057.43 301.006 1037.01 261.07 1012.31 242.901Z" fill="#EEF4FE"/>
<path d="M454.245 703.242L433.245 624.868L398.979 634.049L401.96 647.22C403.602 654.255 404.893 660.894 405.835 667.136C406.891 673.348 407.524 679.122 407.735 684.457C408.061 689.761 407.804 694.487 406.966 698.633C406.211 702.634 404.844 705.941 402.864 708.555L365.745 713.905C369.754 712.954 372.64 710.771 374.405 707.357C376.253 703.798 377.242 699.306 377.372 693.879C377.615 688.422 377.158 682.173 376.002 675.13C374.96 668.057 373.521 660.416 371.687 652.207L363.125 614.798L459.273 589.036L487.488 694.335L454.245 703.242ZM375.859 765.971L362.165 714.865L500.42 677.819L514.114 728.925L483.258 737.193L476.779 713.012L400.406 733.476L406.885 757.657L375.859 765.971Z" fill="#EEF4FE"/>
<path d="M513.007 703.305L533.517 569.142L566.76 560.235L651.773 666.122L616.656 675.532L547.691 583.174L560.988 579.611L547.443 694.078L513.007 703.305ZM535.568 672.261L537.553 644.893L595.855 629.271L611.259 651.98L535.568 672.261Z" fill="#EEF4FE"/>
<path d="M665.449 662.458L633.282 542.41L666.524 533.503L685.411 603.988L715.791 520.302L747.5 511.805L779.667 631.854L746.424 640.761L727.583 570.447L697.327 653.916L665.449 662.458ZM688.29 519.951C675.903 523.27 666.338 523.259 659.596 519.919C652.823 516.465 648.242 510.278 645.853 501.361L668.526 495.285C669.712 499.256 671.531 501.955 673.984 503.381C676.437 504.807 679.766 504.957 683.971 503.83C688.289 502.673 691.154 500.863 692.566 498.402C694.091 495.91 694.374 492.648 693.415 488.616L716.088 482.541C718.478 491.459 717.547 499.122 713.295 505.53C709.013 511.825 700.678 516.631 688.29 519.951Z" fill="#EEF4FE"/>
<path d="M764.043 507.189L802.741 496.82L832.781 523.695L845.189 485.446L884.398 474.94L860.583 542.897L920.02 594.246L880.3 604.889L846.751 575.83L832.396 617.725L793.528 628.139L819.571 555.541L764.043 507.189Z" fill="#EEF4FE"/>
<path d="M1074.82 554.973C1072.55 555.582 1070.06 556.065 1067.35 556.422C1064.76 556.749 1061.95 556.95 1058.93 557.026L1053.36 528.741C1055.04 528.657 1056.62 528.418 1058.1 528.022C1062.76 526.773 1065.79 524 1067.2 519.702C1068.57 515.29 1068.81 509.589 1067.91 502.6C1067.13 495.58 1065.64 487.524 1063.45 478.43L1052.33 430.126L1148.48 404.363L1180.65 524.411L1147.4 533.319L1120.43 432.65L1129.78 438.231L1081.54 451.158L1086.24 441.442L1092.74 469.11C1095.53 480.864 1097.55 491.595 1098.81 501.305C1100.04 510.901 1100.18 519.38 1099.23 526.742C1098.25 533.99 1095.79 540.041 1091.85 544.895C1088 549.603 1082.32 552.963 1074.82 554.973Z" fill="#EEF4FE"/>
<path d="M1280.65 481.809L1259.65 403.434L1225.38 412.616L1228.36 425.787C1230 432.822 1231.29 439.46 1232.24 445.703C1233.29 451.915 1233.93 457.688 1234.14 463.023C1234.46 468.328 1234.21 473.053 1233.37 477.199C1232.61 481.2 1231.25 484.507 1229.27 487.121L1192.15 492.472C1196.16 491.52 1199.04 489.337 1200.81 485.923C1202.65 482.365 1203.64 477.872 1203.77 472.446C1204.02 466.989 1203.56 460.739 1202.4 453.696C1201.36 446.623 1199.92 438.982 1198.09 430.774L1189.53 393.365L1285.67 367.602L1313.89 472.901L1280.65 481.809ZM1202.26 544.537L1188.57 493.431L1326.82 456.386L1340.52 507.492L1309.66 515.76L1303.18 491.578L1226.81 512.042L1233.29 536.224L1202.26 544.537Z" fill="#EEF4FE"/>
<path d="M969.578 507.86C965.277 509.012 962.691 513.523 963.85 517.849C965.009 522.175 969.505 524.789 973.805 523.637C978.105 522.484 980.692 517.973 979.533 513.647C978.374 509.321 973.878 506.707 969.578 507.86Z" fill="#EEF4FE"/>
<path d="M1026.77 473.716C1021.41 466.878 1014.87 461.357 1007.28 457.301C999.663 453.159 991.398 450.646 982.486 449.762C973.55 448.792 964.288 449.637 954.591 452.236C944.895 454.834 936.473 458.818 929.22 464.125C921.966 469.433 916.088 475.826 911.54 483.136C907.014 490.531 904.173 498.474 902.845 507.012C901.625 515.612 902.189 524.462 904.666 533.707C907.121 542.868 911.058 550.814 916.414 557.652C921.771 564.49 928.311 570.01 935.905 574.067C943.521 578.208 951.786 580.721 960.805 581.668C969.825 582.615 979.11 581.854 988.807 579.256C998.335 576.703 1006.78 572.804 1014.03 567.497C1021.29 562.189 1027.19 555.881 1031.74 548.571C1036.26 541.176 1039.1 533.233 1040.38 524.525C1041.58 515.84 1040.99 506.906 1038.56 497.83C1036.09 488.584 1032.21 480.531 1026.77 473.716ZM1024.4 530.989L973.849 526.807L992.121 535.639C992.381 546.388 982.089 553.51 969.77 559.811C975.918 557.799 992.635 551.047 995.777 537.478L1001.06 539.334C999.498 551.027 986.709 560.636 969.132 565.527C971.845 567.891 978.837 568.018 982.797 567.957C974.7 571.127 967.03 572.182 959.404 571.043L958.941 517.71L951.403 536.458C940.998 535.064 933.617 526.405 927.963 513.737C931.032 527.552 939.769 536.211 949.857 541.145L948.033 546.816C934.831 540.717 925.999 527.991 921.334 512.604C919.253 516.98 919.624 521.063 919.946 525.977C915.841 518.076 915.235 508.056 918.284 499.875L970.002 504.018L949.862 494.959C952.79 481.265 961.558 476.552 970.197 471.692C959.083 474.397 950.325 480.835 945.136 492.498L940.747 489.947C948.238 476.757 959.841 469.466 973.685 465.484C970.25 464.132 965.242 463.655 959.751 463.399C969.817 460.156 976.498 459.457 985.959 461.377C986.141 462.056 983.384 514.161 983.384 514.161L991.843 494.802C1000.96 495.45 1008.88 500.694 1013.88 516.352C1012.48 503.002 1004.71 495.264 993.94 490.149L995.946 485.157C1009.7 492.291 1016.53 502.279 1020.78 517.14C1023.07 513.528 1023.98 509.83 1024.52 506.138C1027.04 516.554 1027.51 522.701 1024.4 530.989Z" fill="#EEF4FE"/>
</g>
</g>
<defs>
<filter id="filter0_f_205_4979" x="-435" y="-546" width="1324" height="1324" filterUnits="userSpaceOnUse" color-interpolation-filters="sRGB">
<feFlood flood-opacity="0" result="BackgroundImageFix"/>
<feBlend mode="normal" in="SourceGraphic" in2="BackgroundImageFix" result="shape"/>
<feGaussianBlur stdDeviation="100" result="effect1_foregroundBlur_205_4979"/>
</filter>
<clipPath id="clip0_205_4979">
<rect width="1420" height="231" fill="white"/>
</clipPath>
</defs>
</svg>
