<svg width="80" height="80" viewBox="0 0 80 80" fill="none" xmlns="http://www.w3.org/2000/svg">
<rect width="80" height="80" rx="20" fill="white"/>
<path d="M56.9999 43.8152V36.1846L53.5952 35.7613C53.3398 34.9408 53.0099 34.1453 52.6097 33.3848L54.7187 30.677L49.3229 25.2813L46.6151 27.3903C45.8545 26.9902 45.0591 26.6603 44.2386 26.4047L43.8152 23H36.1846L35.7614 26.4047C34.9409 26.6602 34.1454 26.9901 33.3848 27.3903L30.677 25.2813L25.2814 30.677L27.3903 33.3848C26.9902 34.1454 26.6603 34.9409 26.4047 35.7614L23 36.1847V43.8153L26.4047 44.2386C26.6602 45.0591 26.9901 45.8546 27.3903 46.6152L25.2814 49.323L30.677 54.7186L33.3848 52.6097C34.1454 53.0098 34.9409 53.3398 35.7614 53.5953L36.1846 57H43.8152L44.2386 53.5953C45.0591 53.3398 45.8546 53.0099 46.6151 52.6097L49.3229 54.7186L54.7187 49.323L52.6097 46.6152C53.0099 45.8547 53.3397 45.0592 53.5952 44.2387L56.9999 43.8152ZM40 47.7646C35.7185 47.7646 32.2352 44.2813 32.2352 39.9999C32.2352 35.7184 35.7185 32.2352 40 32.2352C44.2814 32.2352 47.7647 35.7185 47.7647 39.9999C47.7647 44.2813 44.2814 47.7646 40 47.7646Z" fill="#00519B"/>
</svg>
