<svg width="80" height="80" viewBox="0 0 80 80" fill="none" xmlns="http://www.w3.org/2000/svg">
<rect width="80" height="80" rx="20" fill="white"/>
<path d="M37.4682 23C33.1423 23 29.823 26.9076 30.5649 31.2048C30.6588 31.7485 31.1758 32.1106 31.7158 32.017C32.258 31.9233 32.6216 31.4082 32.528 30.866C31.9975 27.7921 34.3686 24.9922 37.4682 24.9922C40.5584 24.9922 42.934 27.7789 42.4108 30.8539C42.3185 31.3963 42.6834 31.9107 43.2256 32.003C43.768 32.0956 44.2824 31.7304 44.3747 31.188C45.1029 26.908 41.7994 23 37.4682 23Z" fill="#00519B"/>
<path d="M48.0681 38.9795C47.3161 37.5041 45.5309 36.9359 44.0837 37.6514C43.4014 36.3129 41.843 35.6934 40.442 36.1798V30.0802C40.442 28.4543 39.1354 27.0959 37.5289 27.0518C35.8457 27.004 34.4509 28.3521 34.4509 30.039V45.3843L33.2808 44.1589C32.1575 42.983 30.2769 42.9003 29.088 43.9749C27.8336 45.1088 27.771 47.0395 28.9262 48.253L35.6513 55.4262C36.5893 56.4262 37.9136 57 39.2848 57H47.396C50.1422 57 52.3764 54.7658 52.3764 52.0195V41.6602C52.3764 39.4467 50.0416 38.0036 48.0681 38.9795Z" fill="#00519B"/>
</svg>
