<svg width="80" height="80" viewBox="0 0 80 80" fill="none" xmlns="http://www.w3.org/2000/svg">
<rect width="80" height="80" rx="20" fill="white"/>
<path d="M53.6542 27.4916L40.3498 23.0568C40.1221 22.9811 39.8759 22.9811 39.6482 23.0568L26.3438 27.4916C26.1231 27.5652 25.9312 27.7064 25.7951 27.8952C25.6591 28.0839 25.5859 28.3107 25.5859 28.5434V37.4325C25.5859 50.1552 36.9105 57 39.999 57C42.2149 57 54.4121 50.9767 54.4121 37.4325V28.5433C54.4121 28.3107 54.3389 28.0839 54.2029 27.8952C54.0669 27.7064 53.8749 27.5652 53.6542 27.4916ZM49.9773 37.4349C49.9773 47.0683 41.6385 52.2432 39.9989 52.2451V27.6856C40.3298 27.6863 48.9047 30.5798 49.2186 30.6841C49.4395 30.7577 49.6316 30.8988 49.7677 31.0877C49.9039 31.2765 49.9772 31.5033 49.9772 31.7361L49.9773 37.4349Z" fill="#00519B"/>
</svg>
