<svg width="80" height="80" viewBox="0 0 80 80" fill="none" xmlns="http://www.w3.org/2000/svg">
<rect width="80" height="80" rx="20" fill="white"/>
<path d="M24.416 54.1663H30.0827V37.1663H24.416V54.1663ZM55.5827 38.583C55.5827 37.0247 54.3077 35.7497 52.7494 35.7497H43.8244L45.1702 29.3038C45.1702 29.1622 45.241 29.0205 45.241 28.8788C45.241 28.3122 45.0285 27.7455 44.6035 27.3913L43.0452 25.833L33.766 35.183C33.1994 35.6788 32.916 36.3872 32.916 37.1663V51.333C32.916 52.8913 34.191 54.1663 35.7494 54.1663H48.4994C49.7035 54.1663 50.6952 53.458 51.1202 52.4663L55.3702 42.4788C55.5119 42.1247 55.5827 41.7705 55.5827 41.4163V38.583Z" fill="#00519B"/>
</svg>
