<svg width="80" height="80" viewBox="0 0 80 80" fill="none" xmlns="http://www.w3.org/2000/svg">
<rect width="80" height="80" rx="20" fill="#00519B"/>
<path d="M54.9669 31.9151V31.8474C54.9338 31.7798 54.9338 31.7121 54.9007 31.6445V31.6107C54.8675 31.543 54.8013 31.4754 54.7682 31.4415L54.7351 31.4077C54.702 31.3739 54.6358 31.3401 54.6026 31.3062L54.5695 31.2724H54.5364L54.5033 31.2386L40.4305 24.1015C40.1656 23.9662 39.8344 23.9662 39.5364 24.1015L34.8013 26.5031L48.9404 33.9108L48.9735 33.9446C49.0066 33.9446 49.0066 33.9784 49.0397 33.9784C49.0728 34.0123 49.0728 34.0461 49.106 34.0799V42.0288C49.106 42.1641 49.0397 42.2656 48.9404 42.3333L46.0927 43.8554C45.9272 43.9569 45.7285 43.8892 45.6291 43.7201C45.596 43.6863 45.596 43.6186 45.596 43.551V35.8726L31.2914 28.3296L31.2583 28.2958L25.5298 31.2048L25.4967 31.2386H25.4636L25.4305 31.2724C25.3974 31.3062 25.3311 31.3401 25.298 31.3739L25.2649 31.4077C25.1987 31.4754 25.1656 31.543 25.0993 31.6107V31.6445C25.0662 31.7121 25.0331 31.7798 25.0331 31.8474V31.9151C25.0331 31.9827 25 32.0166 25 32.0842V47.8806C25 48.2527 25.1987 48.6247 25.5629 48.7939L39.5033 55.8972C39.702 55.9986 39.9338 56.0325 40.1656 55.9648L40.2318 55.931C40.298 55.931 40.3311 55.8972 40.3974 55.8633L54.4371 48.76C54.7682 48.5909 55 48.2527 55 47.8468V32.0842C54.9669 32.0166 54.9669 31.9827 54.9669 31.9151Z" fill="white"/>
</svg>
