<svg width="80" height="80" viewBox="0 0 80 80" fill="none" xmlns="http://www.w3.org/2000/svg">
<rect width="80" height="80" rx="20" fill="#00519B"/>
<path fill-rule="evenodd" clip-rule="evenodd" d="M40.3498 23.0568L53.6542 27.4916C53.8749 27.5652 54.0669 27.7064 54.2029 27.8952C54.3389 28.0839 54.4121 28.3107 54.4121 28.5433V37.4325C54.4121 50.9767 42.2149 57 39.999 57C36.9105 57 25.5859 50.1552 25.5859 37.4325V28.5434C25.5859 28.3107 25.6591 28.0839 25.7951 27.8952C25.9312 27.7064 26.1231 27.5652 26.3438 27.4916L39.6482 23.0568C39.8759 22.9811 40.1221 22.9811 40.3498 23.0568ZM34.6957 37.0251C33.9147 36.2441 33.9147 34.9777 34.6957 34.1967C35.4768 33.4156 36.7431 33.4156 37.5242 34.1967L39.9991 36.6716L42.4739 34.1967C43.2549 33.4156 44.5213 33.4156 45.3023 34.1967C46.0833 34.9778 46.0833 36.2441 45.3023 37.0251L42.8274 39.4999L45.3024 41.9748C46.0834 42.7559 46.0834 44.0222 45.3024 44.8033C44.5213 45.5843 43.2549 45.5843 42.4739 44.8033L39.9991 42.3284L37.5241 44.8033C36.7431 45.5843 35.4767 45.5843 34.6957 44.8033C33.9146 44.0223 33.9146 42.7559 34.6957 41.9749L37.1707 39.5L34.6957 37.0251Z" fill="white"/>
</svg>
