<svg width="80" height="80" viewBox="0 0 80 80" fill="none" xmlns="http://www.w3.org/2000/svg">
<rect width="80" height="80" rx="20" fill="#00519B"/>
<path d="M53.492 38.6589L49.0581 44.2278L49.5435 51.5049C49.5709 51.9044 49.4952 52.3042 49.3235 52.6657C49.1518 53.0273 48.89 53.3383 48.5633 53.5687C48.1672 53.8486 47.6945 53.999 47.2098 53.9992C46.9018 53.9992 46.5891 53.9384 46.2997 53.812L39.9989 51.1305L33.7027 53.812C32.956 54.1303 32.0972 54.0413 31.4391 53.5687C31.114 53.3368 30.8534 53.0255 30.6818 52.6644C30.5103 52.3032 30.4336 51.9041 30.459 51.5049L30.9444 44.2278L26.5105 38.6589C26.0157 38.0411 25.871 37.2128 26.1184 36.4593C26.3658 35.7059 26.9772 35.135 27.7426 34.9337L34.3608 33.1975L37.992 27.067C38.8321 25.6443 41.1657 25.6443 42.0011 27.067L45.6323 33.1975L52.2551 34.9337C53.0159 35.135 53.6273 35.7106 53.8794 36.4593C54.1314 37.2081 53.982 38.0364 53.492 38.6589Z" fill="white"/>
</svg>
