<svg width="80" height="80" viewBox="0 0 80 80" fill="none" xmlns="http://www.w3.org/2000/svg">
<rect width="80" height="80" rx="20" fill="#E9773E"/>
<path d="M56.3203 47.5634L44.4087 27.4874C42.4631 24.1709 37.5431 24.1709 35.6044 27.4874L23.6858 47.5634C21.7402 50.8799 24.1617 55 28.0879 55H51.8762C55.8024 55 58.2659 50.8391 56.3203 47.5634ZM39.9996 50.5462C38.9638 50.5462 38.1029 49.7086 38.1029 48.7007C38.1029 47.6928 38.9638 46.8552 39.9996 46.8552C41.0354 46.8552 41.8962 47.6928 41.8542 48.7484C41.9032 49.7086 40.9934 50.5462 39.9996 50.5462ZM41.7282 38.615C41.6442 40.0451 41.5533 41.4684 41.4693 42.8985C41.4273 43.3616 41.4273 43.7838 41.4273 44.2401C41.3853 44.996 40.7764 45.5817 39.9996 45.5817C39.2227 45.5817 38.6208 45.0369 38.5719 44.281C38.4459 42.0541 38.3129 39.8681 38.1869 37.6412C38.1449 37.0555 38.1029 36.463 38.054 35.8774C38.054 34.9103 38.6138 34.1136 39.5237 33.8616C40.4335 33.6505 41.3363 34.0727 41.7282 34.9103C41.8612 35.2032 41.9032 35.496 41.9032 35.8365C41.8612 36.7695 41.7702 37.6956 41.7282 38.615Z" fill="white"/>
</svg>
