<svg width="80" height="80" viewBox="0 0 80 80" fill="none" xmlns="http://www.w3.org/2000/svg">
<rect width="80" height="80" rx="20" fill="#00519B"/>
<path fill-rule="evenodd" clip-rule="evenodd" d="M40.3498 23.0568L53.6542 27.4916C53.8749 27.5652 54.0669 27.7064 54.2029 27.8952C54.3389 28.0839 54.4121 28.3107 54.4121 28.5433V37.4325C54.4121 50.9767 42.2149 57 39.999 57C36.9105 57 25.5859 50.1552 25.5859 37.4325V28.5434C25.5859 28.3107 25.6591 28.0839 25.7951 27.8952C25.9312 27.7064 26.1231 27.5652 26.3438 27.4916L39.6482 23.0568C39.8759 22.9811 40.1221 22.9811 40.3498 23.0568ZM48.2778 34.4041C49.0071 35.1333 49.0071 36.3158 48.2778 37.045L38.7237 46.5992L33.3085 41.1841C32.5854 40.4609 32.5854 39.2884 33.3085 38.5653C34.0317 37.8421 35.2042 37.8421 35.9273 38.5653L38.7015 41.3394L45.6368 34.4041C46.3661 33.6748 47.5485 33.6748 48.2778 34.4041Z" fill="white"/>
</svg>
