<svg width="34" height="30" viewBox="0 0 34 30" fill="none" xmlns="http://www.w3.org/2000/svg">
<path d="M33.3203 22.5634L21.4087 2.48737C19.4631 -0.829125 14.5431 -0.829125 12.6044 2.48737L0.685813 22.5634C-1.2598 25.8799 1.16172 30 5.08794 30H28.8762C32.8024 30 35.2659 25.8391 33.3203 22.5634ZM16.9996 25.5462C15.9638 25.5462 15.1029 24.7086 15.1029 23.7007C15.1029 22.6928 15.9638 21.8552 16.9996 21.8552C18.0354 21.8552 18.8962 22.6928 18.8542 23.7484C18.9032 24.7086 17.9934 25.5462 16.9996 25.5462ZM18.7282 13.615C18.6442 15.0451 18.5533 16.4684 18.4693 17.8985C18.4273 18.3616 18.4273 18.7838 18.4273 19.2401C18.3853 19.996 17.7764 20.5817 16.9996 20.5817C16.2227 20.5817 15.6208 20.0369 15.5719 19.281C15.4459 17.0541 15.3129 14.8681 15.1869 12.6412C15.1449 12.0555 15.1029 11.463 15.054 10.8774C15.054 9.91033 15.6138 9.11356 16.5237 8.86159C17.4335 8.65047 18.3363 9.0727 18.7282 9.91033C18.8612 10.2032 18.9032 10.496 18.9032 10.8365C18.8612 11.7695 18.7702 12.6956 18.7282 13.615Z" fill="#81C3FF"/>
</svg>
