<svg width="80" height="80" viewBox="0 0 80 80" fill="none" xmlns="http://www.w3.org/2000/svg">
<rect width="80" height="80" rx="20" fill="#E9773E"/>
<path fill-rule="evenodd" clip-rule="evenodd" d="M40.7638 23.0568L54.0683 27.4916C54.289 27.5652 54.4809 27.7064 54.6169 27.8952C54.753 28.0839 54.8262 28.3107 54.8262 28.5433V37.4325C54.8262 50.9767 42.629 57 40.4131 57C37.3246 57 25.9999 50.1552 26 37.4325V28.5434C26 28.3107 26.0732 28.0839 26.2092 27.8952C26.3452 27.7064 26.5372 27.5652 26.7579 27.4916L40.0623 23.0568C40.29 22.9811 40.5361 22.9811 40.7638 23.0568ZM38.2522 33L38.9922 41.9H42.0122L42.7722 33H38.2522ZM38.8722 46.56C39.2988 46.9733 39.8455 47.18 40.5122 47.18C41.1788 47.18 41.7188 46.9733 42.1322 46.56C42.5588 46.1467 42.7722 45.6533 42.7722 45.08C42.7722 44.4933 42.5588 44.0067 42.1322 43.62C41.7188 43.22 41.1788 43.02 40.5122 43.02C39.8455 43.02 39.2988 43.22 38.8722 43.62C38.4455 44.0067 38.2322 44.4933 38.2322 45.08C38.2322 45.6533 38.4455 46.1467 38.8722 46.56Z" fill="white"/>
</svg>
