<svg width="80" height="80" viewBox="0 0 80 80" fill="none" xmlns="http://www.w3.org/2000/svg">
<rect width="80" height="80" rx="20" fill="#E9773E"/>
<path d="M40.4995 24C34.2438 24 29.1556 29.0882 29.1556 35.3438C29.1556 41.5993 34.2438 46.6875 40.4995 46.6875C46.7531 46.6875 51.8434 41.5993 51.8434 35.3438C51.8434 29.0882 46.7531 24 40.4995 24ZM46.4623 33.7391L44.5029 36.1935L44.7174 39.4007C44.7295 39.5767 44.696 39.753 44.6201 39.9123C44.5443 40.0716 44.4286 40.2087 44.2842 40.3102C44.1092 40.4336 43.9003 40.4999 43.6861 40.5C43.55 40.5 43.4118 40.4732 43.2839 40.4175L40.4995 39.2357L37.7171 40.4175C37.3871 40.5577 37.0076 40.5186 36.7168 40.3102C36.5731 40.2081 36.458 40.0709 36.3822 39.9117C36.3064 39.7525 36.2725 39.5766 36.2837 39.4007L36.4982 36.1935L34.5388 33.7391C34.3201 33.4669 34.2562 33.1018 34.3655 32.7697C34.4748 32.4377 34.745 32.1861 35.0833 32.0974L38.0079 31.3322L39.6126 28.6303C39.9838 28.0033 41.0151 28.0033 41.3843 28.6303L42.989 31.3322L45.9157 32.0974C46.2519 32.1861 46.5221 32.4397 46.6334 32.7697C46.7448 33.0997 46.6788 33.4648 46.4623 33.7391Z" fill="white"/>
<path d="M28.8977 42.0324L24.1374 50.2969C23.9291 50.6599 23.96 51.1116 24.2137 51.4416C24.4674 51.7716 24.8944 51.9201 25.2986 51.8087L31.3542 50.1814L32.9651 56.2369C33.0723 56.6391 33.4126 56.9381 33.8251 56.9938C33.8705 56.9979 33.9179 57 33.9613 57C34.1423 57 34.3201 56.9523 34.4769 56.8618C34.6336 56.7713 34.7638 56.6411 34.8543 56.4844L39.3568 48.6922C34.8832 48.3127 31.0387 45.7284 28.8977 42.0324ZM56.8636 50.2969L52.1012 42.0324C49.9624 45.7284 46.1158 48.3127 41.6421 48.6922L46.1446 56.4844C46.3303 56.8061 46.6726 57 47.0377 57C47.081 57 47.1285 56.9979 47.1718 56.9917C47.5863 56.9361 47.9246 56.637 48.0339 56.2348L49.6447 50.1793L55.7003 51.8066C56.1046 51.918 56.5295 51.7695 56.7852 51.4395C57.041 51.1116 57.0699 50.6599 56.8636 50.2969Z" fill="white"/>
</svg>
