<svg width="340" height="86" viewBox="0 0 340 86" fill="none" xmlns="http://www.w3.org/2000/svg">
<path d="M23.4376 43.0371V42.9082C23.4269 42.8975 23.4269 42.8975 23.4269 42.8975C23.4269 42.7793 22.9048 36.2186 22.9048 36.2186L18.93 40.2238L20.6563 44.7551H25.3237L25.4196 44.1645L23.4376 43.0371Z" fill="white"/>
<path d="M30.5879 6.06685L29.6928 6.62521L29.4051 7.90301L23.0966 10.974L27.5189 13.8088L30.5879 10.6519V6.06685Z" fill="white"/>
<path d="M30.5879 16.9013V12.4558L30.5772 12.1874L29.6608 12.7672L29.3624 14.0987L27.3697 15.3228L21.381 11.0814L21.4769 11.0707L21.9777 9.19155L24.1622 6.78628L24.7057 4.20921L25.8459 3.40388V2.78109L24.5565 3.15691L25.7074 1.97575L25.2492 0.311395L24.759 0L24.0663 0.246968L24.013 0.762384L22.3187 1.31001L21.6261 0.966401L19.6547 1.71805C19.303 1.5355 19.0366 1.2778 18.6423 1.38517C18.3333 1.47108 18.1415 1.761 18.0775 2.08313C17.9497 2.04018 17.8111 2.00796 17.6619 2.00796C16.9906 2.00796 16.3086 2.69518 16.5644 3.31798C16.6709 3.58642 16.7455 3.75823 16.948 4.19847L13.1224 10.2224L9.41406 28.7343L13.1118 34.5327L11.5027 40.2023L13.8044 44.7229L14.4544 44.7336H18.5464L18.6423 44.143L16.2127 42.7793L16.0316 41.4478L24.727 32.9113L24.8549 26.5975L23.0007 18.6623L26.9115 19.7038L30.5879 16.9013Z" fill="white"/>
<path d="M91.0836 43.0368V42.9079C91.0943 42.8972 91.0943 42.8972 91.0943 42.8972C91.0943 42.779 91.6164 36.2183 91.6164 36.2183L95.5912 40.2235L93.8649 44.7548H93.2894H91.0943H89.1975L89.1016 44.1642L91.0836 43.0368Z" fill="white"/>
<path d="M83.9316 6.17378V6.06641L84.8268 6.62477L85.1145 7.90257L91.4229 10.9736L87.0006 13.8084L83.9316 10.6514V6.17378Z" fill="white"/>
<path d="M83.9326 16.9013V12.4558L83.9433 12.1874L84.8597 12.7672L85.1581 14.0987L87.1508 15.3228L93.1396 11.0814L93.0437 11.0707L92.5428 9.19154L90.3583 6.78628L89.8148 4.20921L88.6746 3.40388V2.78109L89.964 3.15691L88.8131 1.97575L89.2714 0.311395L89.7616 0L90.4542 0.246968L90.5075 0.762383L92.2018 1.31001L92.8945 0.966401L94.8659 1.71805C95.2175 1.5355 95.4839 1.2778 95.8782 1.38517C96.1872 1.47108 96.379 1.761 96.443 2.08313C96.5708 2.04018 96.7094 2.00796 96.8586 2.00796C97.5299 2.00796 98.2119 2.69518 97.9562 3.31797C97.8496 3.58642 97.775 3.75823 97.5725 4.19847L101.398 10.2224L105.096 28.7343L101.398 34.5327L103.007 40.2023L100.705 44.7229L100.055 44.7336H95.9634L95.8676 44.143L98.2972 42.7793L98.4783 41.4478L89.7829 32.9113L89.655 26.5975L91.5092 18.6623L87.5983 19.7038L83.9326 16.9013Z" fill="white"/>
<path d="M89.293 45.9012V49.3438H100.741V45.9012H89.293Z" fill="white"/>
<path d="M137.373 45.9012V49.3438L274.747 49.3438V45.9012L137.373 45.9012Z" fill="white"/>
<path d="M13.7373 45.9012V49.3438H25.1851V45.9012H13.7373Z" fill="white"/>
<path d="M81.7796 38.516H81.801V8.78308V6.10938H79.1476H35.3507H32.6973V8.78308V38.516H32.7505L32.7079 38.559C39.4426 47.6324 46.9659 55.3743 55.4482 61.4734L57.2598 59.5621L59.0713 61.4734C67.5536 55.3743 75.0769 47.6324 81.8116 38.559L81.7796 38.516ZM57.2704 59.5299C49.4168 54.2147 42.1386 46.8378 35.3613 37.6999V8.78308H79.1582V37.7322C72.3702 46.8593 65.1027 54.2254 57.2704 59.5299Z" fill="white"/>
<path d="M57.5688 25.1045C55.2031 25.1045 53.2531 27.0802 53.2637 29.4533C53.2744 31.8586 55.2138 33.8021 57.6008 33.8021C59.9665 33.8021 61.9059 31.8371 61.9059 29.4533C61.8952 27.0588 59.9558 25.1045 57.5688 25.1045Z" fill="white"/>
<path d="M57.6011 14.3135C49.2892 14.3242 42.5332 21.089 42.5332 29.4001C42.5332 37.8292 49.2466 44.6155 57.5797 44.6048C65.9235 44.6048 72.6263 37.8078 72.6156 29.3571C72.6156 21.0998 65.8383 14.3028 57.6011 14.3135ZM69.8663 22.85C67.2129 23.2795 64.7833 24.0849 62.5455 25.3949C62.9931 25.9532 63.3447 26.5975 63.5898 27.2955C64.0587 27.0163 64.5595 26.7156 65.0604 26.4472C65.7743 26.0606 66.5309 25.7707 67.3408 25.6419C68.7687 25.4164 69.8663 25.9747 70.559 27.2525C71.1664 28.3907 71.2942 29.6148 71.2197 30.8712C71.177 31.698 71.0385 32.5033 70.8041 33.3301C68.6835 31.7946 66.4137 30.6242 63.9308 29.9584C63.8669 30.6993 63.6857 31.3973 63.4087 32.0523C63.8989 32.1919 64.421 32.3208 64.9432 32.4711C65.6571 32.6966 66.3498 32.9865 66.9678 33.416C68.3531 34.3824 68.7474 35.6709 68.1507 37.2709C67.7138 38.452 66.9146 39.3755 65.9662 40.1593C65.412 40.6211 64.8153 41.0184 64.1653 41.4908C63.7497 38.8923 62.9931 36.5085 61.757 34.3072C61.2242 34.7797 60.6061 35.1555 59.9348 35.4347C60.1692 35.8535 60.4249 36.2937 60.6594 36.7447C61.0537 37.5178 61.352 38.3124 61.4373 39.1822C61.5652 40.5352 60.9897 41.5016 59.8389 42.1458C58.6986 42.7901 57.4625 42.9189 56.1944 42.8223C55.4592 42.7686 54.7239 42.5968 53.9886 42.468C53.9247 42.4572 53.8714 42.4357 53.7755 42.4035C55.2141 40.3848 56.333 38.2373 57.015 35.875C56.2797 35.8105 55.587 35.628 54.9477 35.3381C54.9263 35.4025 54.9157 35.4669 54.8944 35.5314C54.6706 36.4441 54.3829 37.3353 53.914 38.1621C52.9017 39.9446 51.3778 40.4385 49.513 39.5688C48.4261 39.0641 47.5736 38.2802 46.849 37.346C46.4547 36.8306 46.0924 36.2937 45.6768 35.7032C48.1384 35.2951 50.4188 34.5864 52.5074 33.4375C52.0705 32.8791 51.7188 32.2456 51.4844 31.5691C51.0901 31.7946 50.6745 32.0308 50.2376 32.2456C49.3425 32.6858 48.4154 33.0187 47.4031 32.965C46.2416 32.9006 45.4956 32.2349 44.9628 31.2577C44.5366 30.4631 44.3661 29.5934 44.3234 28.7021C44.2702 27.5747 44.4194 26.4687 44.7071 25.3841C44.7177 25.3519 44.739 25.3197 44.7603 25.2553C46.7424 26.6942 48.863 27.8109 51.186 28.4981C51.2926 27.7679 51.5164 27.0807 51.8467 26.4579C51.4311 26.3505 50.9942 26.2539 50.5786 26.0821C49.9393 25.8244 49.2786 25.5774 48.7031 25.2123C47.2113 24.2782 46.8063 22.8822 47.4564 21.2394C47.9679 19.9401 48.8843 18.9737 49.9606 18.1361C50.4081 17.7925 50.8877 17.4919 51.4098 17.1268C51.8254 19.6716 52.5713 22.034 53.7755 24.203C54.3509 23.7842 55.0009 23.4513 55.7043 23.2366C55.6083 23.0755 55.5018 22.9037 55.3952 22.7212C54.8411 21.7763 54.3616 20.8098 54.1698 19.7039C53.9247 18.265 54.4468 17.159 55.7149 16.4396C56.7699 15.8383 57.9314 15.6665 59.1142 15.7416C59.9134 15.7953 60.7127 15.9671 61.5119 16.0852C61.5971 16.096 61.6824 16.1389 61.7996 16.1711C60.2864 18.2865 59.1355 20.5521 58.4642 23.0218C59.1995 23.1292 59.8921 23.3654 60.5315 23.6983C60.5741 23.5265 60.6061 23.3332 60.6594 23.1399C60.9258 22.0125 61.2668 20.9172 61.9488 19.9508C62.8759 18.6408 64.1439 18.2543 65.6571 18.8126C66.9146 19.2743 67.8843 20.1441 68.7048 21.1749C69.0778 21.6903 69.4401 22.2487 69.8663 22.85Z" fill="white"/>
<path d="M37.1729 10.4048V36.8949C43.5666 45.4207 50.3332 52.2285 57.2811 57.1249C64.2182 52.2285 70.9743 45.4422 77.3573 36.9271V10.4048H37.1729ZM57.6008 46.0113C48.543 46.022 41.1476 38.6237 41.137 29.5288C41.137 20.305 48.4471 12.896 57.5688 12.896C66.6585 12.8852 74.0006 20.2835 74.0113 29.4429C74.0326 38.5915 66.6905 46.0005 57.6008 46.0113Z" fill="white"/>
<path d="M45.954 60.6145L47.6164 58.5421C42.1711 54.1181 37.2479 49.2968 34.1257 45.3346L33.8593 45.0017L33.4543 44.8836C31.7493 44.3789 29.9591 45.1199 28.5312 46.9023C26.336 49.6512 25.2597 54.6765 27.2524 58.3595L27.327 58.4777C28.4992 60.185 30.2788 61.291 32.101 61.4198C32.2182 61.4305 32.3461 61.4305 32.4633 61.4305C33.8912 61.4305 35.2339 60.8185 36.2676 59.691L36.3635 59.5729C37.4824 58.0052 37.5037 56.0294 36.3955 54.5262C35.6389 53.4953 34.5093 52.9047 33.2838 52.8296L32.4207 55.5892C33.5183 55.2348 34.115 55.9006 34.2749 56.1153C34.4241 56.3194 34.861 57.0495 34.2642 57.9408C33.6888 58.5313 33.0281 58.8105 32.2822 58.7568C31.2911 58.6817 30.2468 58.0267 29.5329 57.0173C28.1369 54.3543 28.9894 50.5746 30.5878 48.5774C30.8862 48.2016 31.6002 47.4177 32.3674 47.3963C35.6282 51.4337 40.5514 56.2227 45.954 60.6145Z" fill="white"/>
<path d="M85.9885 46.9023C84.5606 45.1199 82.7597 44.3789 81.0654 44.8836L80.6604 45.0017L80.394 45.3346C77.2611 49.2968 72.3486 54.1181 66.9033 58.5421L68.5657 60.6145C73.9684 56.2227 78.8915 51.4337 82.1417 47.3963C82.9089 47.4177 83.6229 48.2016 83.9212 48.5774C85.5197 50.5746 86.3722 54.3651 84.9762 57.0173C84.2729 58.0159 83.2179 58.6817 82.2269 58.7568C81.481 58.8105 80.8203 58.5313 80.2449 57.9408C79.6481 57.0495 80.085 56.3194 80.2342 56.1153C80.3834 55.9113 80.9055 55.3315 81.8646 55.5248L81.0228 52.8403C79.8719 52.9584 78.8276 53.549 78.1136 54.5154C77.016 56.0187 77.0267 57.9945 78.1456 59.5622L78.2415 59.6803C79.2751 60.8078 80.6178 61.4198 82.0457 61.4198C82.163 61.4198 82.2908 61.4198 82.4081 61.4091C84.2303 61.2802 86.0099 60.1742 87.182 58.4669L87.2566 58.3488C89.26 54.6872 88.1837 49.6512 85.9885 46.9023Z" fill="white"/>
<path d="M10.5402 81.3725V72.0563H6.4738L6.41311 73.6056C6.38613 74.4346 6.33218 75.2093 6.25126 75.9296C6.18383 76.6499 6.08267 77.309 5.9478 77.907C5.82642 78.5049 5.65783 79.0214 5.44204 79.4563C5.23973 79.8776 4.99022 80.2037 4.6935 80.4348L0.424843 79.9251C0.896891 79.9387 1.28127 79.7824 1.57799 79.4563C1.88819 79.1165 2.13096 78.6476 2.30629 78.0497C2.49511 77.4517 2.62998 76.745 2.7109 75.9296C2.80531 75.1142 2.87275 74.224 2.91321 73.2591L3.07505 68.8558H14.4851V81.3725H10.5402ZM0 86V79.9251H16.407V86H12.7453V83.1257H3.68197V86H0Z" fill="white"/>
<path d="M17.0446 83.1257L23.2959 68.8558H27.2408L33.5123 83.1257H29.3448L24.449 70.8332H26.027L21.1312 83.1257H17.0446ZM20.4636 80.3532L21.4953 77.3769H28.4142L29.446 80.3532H20.4636Z" fill="white"/>
<path d="M35.1352 83.1257V68.8558H39.0802V77.2342L44.9268 68.8558H48.6897V83.1257H44.7448V74.7676L38.9183 83.1257H35.1352ZM41.8922 67.9996C40.4221 67.9996 39.3634 67.7142 38.716 67.1434C38.0686 66.559 37.745 65.7368 37.745 64.6768H40.4356C40.4491 65.1524 40.5705 65.5058 40.7998 65.7368C41.0291 65.9678 41.3932 66.0834 41.8922 66.0834C42.4047 66.0834 42.7756 65.9678 43.0049 65.7368C43.2477 65.5058 43.3758 65.1524 43.3893 64.6768H46.08C46.08 65.7368 45.7495 66.559 45.0887 67.1434C44.4278 67.7142 43.3623 67.9996 41.8922 67.9996Z" fill="white"/>
<path d="M50.6584 68.8354H55.2508L57.7796 72.7087L60.2882 68.8354H64.9412L60.2882 75.6646L65.3458 83.1257H60.6321L57.7796 78.9059L54.9473 83.1257H50.3347L55.3722 75.848L50.6584 68.8354Z" fill="white"/>
<path d="M83.6511 83.3703C83.3813 83.3703 83.0914 83.3499 82.7812 83.3091C82.4844 83.2684 82.1675 83.2072 81.8303 83.1257L82.0529 79.8232C82.2417 79.864 82.4238 79.8844 82.5991 79.8844C83.1521 79.8844 83.5702 79.6669 83.8534 79.232C84.1366 78.7835 84.3322 78.1584 84.4401 77.3566C84.5615 76.5547 84.6356 75.617 84.6626 74.5434L84.8649 68.8558H96.275V83.1257H92.33V71.1594L93.1999 72.0563H87.4747L88.2839 71.1186L88.1827 74.3803C88.1423 75.7665 88.0479 77.0168 87.8995 78.1312C87.7512 79.232 87.5151 80.1766 87.1914 80.9648C86.8677 81.7395 86.4159 82.3374 85.836 82.7587C85.2695 83.1664 84.5412 83.3703 83.6511 83.3703Z" fill="white"/>
<path d="M108.611 81.3725V72.0563H104.545L104.484 73.6056C104.457 74.4346 104.403 75.2093 104.322 75.9296C104.255 76.6499 104.154 77.309 104.019 77.907C103.897 78.5049 103.729 79.0214 103.513 79.4563C103.311 79.8776 103.061 80.2037 102.765 80.4348L98.4959 79.9251C98.968 79.9387 99.3524 79.7824 99.6491 79.4563C99.9593 79.1165 100.202 78.6476 100.377 78.0497C100.566 77.4517 100.701 76.745 100.782 75.9296C100.876 75.1142 100.944 74.224 100.984 73.2591L101.146 68.8558H112.556V81.3725H108.611ZM98.0711 86V79.9251H114.478V86H110.816V83.1257H101.753V86H98.0711Z" fill="white"/>
<path d="M73.3954 75.0176C72.8851 75.0176 72.4648 75.441 72.4648 75.9553C72.4648 76.4695 72.8851 76.893 73.3954 76.893C73.9057 76.893 74.326 76.4695 74.326 75.9553C74.326 75.441 73.9057 75.0176 73.3954 75.0176Z" fill="white"/>
<path d="M80.7409 72.9305C80.3506 72.013 79.7903 71.2063 79.0698 70.5308C78.3494 69.8452 77.5089 69.3209 76.5483 68.9579C75.5877 68.5848 74.537 68.4033 73.3863 68.4033C72.2356 68.4033 71.185 68.5949 70.2244 68.968C69.2638 69.341 68.4232 69.8754 67.7028 70.551C66.9824 71.2366 66.432 72.0331 66.0318 72.9406C65.6415 73.8581 65.4414 74.8563 65.4414 75.9553C65.4414 77.0443 65.6415 78.0425 66.0318 78.96C66.422 79.8776 66.9824 80.6842 67.7028 81.3597C68.4232 82.0454 69.2638 82.5697 70.2344 82.9427C71.205 83.3158 72.2556 83.5074 73.4063 83.5074C74.537 83.5074 75.5877 83.3259 76.5483 82.9528C77.5089 82.5798 78.3494 82.0554 79.0698 81.3799C79.7903 80.6943 80.3406 79.8977 80.7409 78.9701C81.1311 78.0425 81.3312 77.0342 81.3312 75.9553C81.3312 74.8563 81.1411 73.848 80.7409 72.9305ZM78.7797 79.2121L73.3063 77.2459L75.0674 78.7685C74.7772 79.9683 73.4263 80.4523 71.8754 80.785C72.6158 80.7447 74.6671 80.4926 75.4176 79.081L75.9479 79.444C75.4276 80.6943 73.7265 81.3799 71.6352 81.4001C71.8654 81.7429 72.6359 81.9647 73.0761 82.0756C72.0855 82.1865 71.205 82.0756 70.3945 81.7227L71.9254 75.794L70.5346 77.6493C69.4239 77.1855 68.8635 76.0058 68.6134 74.4328C68.5433 76.0562 69.2538 77.2762 70.2244 78.1231L69.8541 78.6979C68.5733 77.6291 67.973 75.9554 67.9129 74.1102C67.5527 74.5337 67.4727 74.9975 67.3626 75.552C67.1425 74.5538 67.3726 73.4246 67.953 72.6079L73.5564 74.6042L71.5952 73.0011C72.3257 71.5693 73.4363 71.3072 74.537 71.0249C73.2262 70.9946 72.0655 71.4483 71.1449 72.5877L70.7347 72.1743C71.9554 70.9341 73.4564 70.4703 75.1074 70.44C74.7672 70.188 74.2268 69.9863 73.6265 69.7947C74.8372 69.7343 75.5977 69.8552 76.5883 70.3493C76.5883 70.43 74.7371 76.1268 74.7371 76.1268L76.2481 74.2312C77.2387 74.574 77.9591 75.3907 78.0492 77.2762C78.2893 75.7537 77.659 74.6647 76.6183 73.7775L76.9885 73.2834C78.2994 74.4833 78.7596 75.794 78.7897 77.5686C79.1499 77.2359 79.36 76.8527 79.5301 76.4595C79.5001 77.6896 79.37 78.3853 78.7797 79.2121Z" fill="white"/>
<path d="M138.573 24.6032H147.933V27.0512H141.693V28.8592H144.589C145.944 28.8592 146.984 29.1472 147.709 29.7232C148.434 30.2992 148.797 31.1259 148.797 32.2032C148.797 33.3339 148.392 34.2192 147.581 34.8592C146.77 35.4886 145.634 35.8032 144.173 35.8032H138.573V24.6032ZM143.965 33.5312C144.498 33.5312 144.904 33.4246 145.181 33.2112C145.458 32.9979 145.597 32.6939 145.597 32.2992C145.597 31.5099 145.053 31.1152 143.965 31.1152H141.693V33.5312H143.965ZM154.528 35.9472C153.6 35.9472 152.763 35.7552 152.016 35.3712C151.27 34.9872 150.683 34.4539 150.256 33.7712C149.84 33.0886 149.632 32.3152 149.632 31.4512C149.632 30.5979 149.84 29.8299 150.256 29.1472C150.683 28.4646 151.264 27.9366 152 27.5632C152.747 27.1792 153.59 26.9872 154.528 26.9872C155.467 26.9872 156.31 27.1792 157.056 27.5632C157.803 27.9366 158.384 28.4646 158.8 29.1472C159.216 29.8192 159.424 30.5872 159.424 31.4512C159.424 32.3152 159.216 33.0886 158.8 33.7712C158.384 34.4539 157.803 34.9872 157.056 35.3712C156.31 35.7552 155.467 35.9472 154.528 35.9472ZM154.528 33.5312C155.062 33.5312 155.499 33.3499 155.84 32.9872C156.182 32.6139 156.352 32.1019 156.352 31.4512C156.352 30.8112 156.182 30.3099 155.84 29.9472C155.499 29.5846 155.062 29.4032 154.528 29.4032C153.995 29.4032 153.558 29.5846 153.216 29.9472C152.875 30.3099 152.704 30.8112 152.704 31.4512C152.704 32.1019 152.875 32.6139 153.216 32.9872C153.558 33.3499 153.995 33.5312 154.528 33.5312ZM169.526 27.1312V35.8032H166.486V29.5472H164.294L164.23 30.8752C164.187 32.0059 164.075 32.9392 163.894 33.6752C163.713 34.4112 163.414 34.9872 162.998 35.4032C162.582 35.8086 162.011 36.0112 161.286 36.0112C160.913 36.0112 160.422 35.9419 159.814 35.8032L159.942 33.3232C160.134 33.3446 160.262 33.3552 160.326 33.3552C160.657 33.3552 160.907 33.2486 161.078 33.0352C161.249 32.8219 161.366 32.5392 161.43 32.1872C161.494 31.8246 161.537 31.3446 161.558 30.7472L161.686 27.1312H169.526ZM180.353 31.4832C180.353 31.5046 180.337 31.7552 180.305 32.2352H174.001C174.129 32.6832 174.374 33.0299 174.737 33.2752C175.11 33.5099 175.574 33.6272 176.129 33.6272C176.545 33.6272 176.902 33.5686 177.201 33.4512C177.51 33.3339 177.82 33.1419 178.129 32.8752L179.729 34.5392C178.886 35.4779 177.654 35.9472 176.033 35.9472C175.02 35.9472 174.129 35.7552 173.361 35.3712C172.593 34.9872 171.996 34.4539 171.569 33.7712C171.153 33.0886 170.945 32.3152 170.945 31.4512C170.945 30.5979 171.148 29.8352 171.553 29.1632C171.969 28.4806 172.54 27.9472 173.265 27.5632C173.99 27.1792 174.806 26.9872 175.713 26.9872C176.577 26.9872 177.361 27.1686 178.065 27.5312C178.769 27.8832 179.324 28.4006 179.729 29.0832C180.145 29.7552 180.353 30.5552 180.353 31.4832ZM175.729 29.1472C175.26 29.1472 174.865 29.2806 174.545 29.5472C174.236 29.8139 174.038 30.1766 173.953 30.6352H177.505C177.42 30.1766 177.217 29.8139 176.897 29.5472C176.588 29.2806 176.198 29.1472 175.729 29.1472ZM190.744 31.4832C190.744 31.5046 190.728 31.7552 190.696 32.2352H184.392C184.52 32.6832 184.765 33.0299 185.128 33.2752C185.501 33.5099 185.965 33.6272 186.52 33.6272C186.936 33.6272 187.293 33.5686 187.592 33.4512C187.901 33.3339 188.21 33.1419 188.52 32.8752L190.12 34.5392C189.277 35.4779 188.045 35.9472 186.424 35.9472C185.41 35.9472 184.52 35.7552 183.752 35.3712C182.984 34.9872 182.386 34.4539 181.96 33.7712C181.544 33.0886 181.336 32.3152 181.336 31.4512C181.336 30.5979 181.538 29.8352 181.944 29.1632C182.36 28.4806 182.93 27.9472 183.656 27.5632C184.381 27.1792 185.197 26.9872 186.104 26.9872C186.968 26.9872 187.752 27.1686 188.456 27.5312C189.16 27.8832 189.714 28.4006 190.12 29.0832C190.536 29.7552 190.744 30.5552 190.744 31.4832ZM186.12 29.1472C185.65 29.1472 185.256 29.2806 184.936 29.5472C184.626 29.8139 184.429 30.1766 184.344 30.6352H187.896C187.81 30.1766 187.608 29.8139 187.288 29.5472C186.978 29.2806 186.589 29.1472 186.12 29.1472ZM201.326 24.6032V35.8032H198.158V27.0512H196.078V24.6032H201.326ZM207.203 28.6832C208.771 28.6832 209.928 29.0032 210.675 29.6432C211.432 30.2832 211.811 31.1366 211.811 32.2032C211.811 32.8966 211.629 33.5366 211.267 34.1232C210.915 34.6992 210.371 35.1632 209.635 35.5152C208.909 35.8566 208.008 36.0272 206.931 36.0272C206.141 36.0272 205.357 35.9312 204.579 35.7392C203.811 35.5472 203.149 35.2752 202.595 34.9232L203.731 32.5392C204.179 32.8379 204.669 33.0672 205.203 33.2272C205.747 33.3872 206.291 33.4672 206.835 33.4672C207.379 33.4672 207.811 33.3659 208.131 33.1632C208.461 32.9499 208.627 32.6566 208.627 32.2832C208.627 31.9099 208.467 31.6272 208.147 31.4352C207.827 31.2432 207.261 31.1472 206.451 31.1472H203.411L203.971 24.6032H211.107V27.0512H206.595L206.451 28.6832H207.203ZM226.698 27.1312V35.8032H223.658V29.5472H221.466L221.402 30.8752C221.359 32.0059 221.247 32.9392 221.066 33.6752C220.884 34.4112 220.586 34.9872 220.17 35.4032C219.754 35.8086 219.183 36.0112 218.458 36.0112C218.084 36.0112 217.594 35.9419 216.986 35.8032L217.114 33.3232C217.306 33.3446 217.434 33.3552 217.498 33.3552C217.828 33.3552 218.079 33.2486 218.25 33.0352C218.42 32.8219 218.538 32.5392 218.602 32.1872C218.666 31.8246 218.708 31.3446 218.73 30.7472L218.858 27.1312H226.698ZM237.525 31.4832C237.525 31.5046 237.509 31.7552 237.477 32.2352H231.173C231.301 32.6832 231.546 33.0299 231.909 33.2752C232.282 33.5099 232.746 33.6272 233.301 33.6272C233.717 33.6272 234.074 33.5686 234.373 33.4512C234.682 33.3339 234.991 33.1419 235.301 32.8752L236.901 34.5392C236.058 35.4779 234.826 35.9472 233.205 35.9472C232.191 35.9472 231.301 35.7552 230.533 35.3712C229.765 34.9872 229.167 34.4539 228.741 33.7712C228.325 33.0886 228.117 32.3152 228.117 31.4512C228.117 30.5979 228.319 29.8352 228.725 29.1632C229.141 28.4806 229.711 27.9472 230.437 27.5632C231.162 27.1792 231.978 26.9872 232.885 26.9872C233.749 26.9872 234.533 27.1686 235.237 27.5312C235.941 27.8832 236.495 28.4006 236.901 29.0832C237.317 29.7552 237.525 30.5552 237.525 31.4832ZM232.901 29.1472C232.431 29.1472 232.037 29.2806 231.717 29.5472C231.407 29.8139 231.21 30.1766 231.125 30.6352H234.677C234.591 30.1766 234.389 29.8139 234.069 29.5472C233.759 29.2806 233.37 29.1472 232.901 29.1472ZM246.61 29.5472H243.826V35.8032H240.802V29.5472H238.002V27.1312H246.61V29.5472Z" fill="white"/>
<path d="M138.675 56.2187H140.019V59.3687H144.247V56.2187H145.591V63.6387H144.247V60.5307H140.019V63.6387H138.675V56.2187ZM150.85 56.1487C151.877 56.1487 152.661 56.4007 153.202 56.9047C153.753 57.4087 154.028 58.16 154.028 59.1587V63.6387H152.754V62.6587C152.53 63.004 152.208 63.27 151.788 63.4567C151.378 63.634 150.888 63.7227 150.318 63.7227C149.488 63.7227 148.82 63.522 148.316 63.1207C147.822 62.7193 147.574 62.192 147.574 61.5387C147.574 60.8853 147.812 60.3627 148.288 59.9707C148.764 59.5693 149.52 59.3687 150.556 59.3687H152.684V59.1027C152.684 58.524 152.516 58.0807 152.18 57.7727C151.844 57.4647 151.35 57.3107 150.696 57.3107C150.258 57.3107 149.828 57.3853 149.408 57.5347C148.988 57.6747 148.634 57.866 148.344 58.1087L147.784 57.1007C148.167 56.7927 148.624 56.5593 149.156 56.4007C149.688 56.2327 150.253 56.1487 150.85 56.1487ZM150.542 62.6867C151.056 62.6867 151.499 62.5747 151.872 62.3507C152.246 62.1173 152.516 61.7907 152.684 61.3707V60.3347H150.612C149.474 60.3347 148.904 60.7173 148.904 61.4827C148.904 61.856 149.049 62.15 149.338 62.3647C149.628 62.5793 150.029 62.6867 150.542 62.6867ZM164.142 56.1487C164.861 56.1487 165.505 56.3073 166.074 56.6247C166.644 56.942 167.087 57.3853 167.404 57.9547C167.731 58.524 167.894 59.182 167.894 59.9287C167.894 60.6753 167.731 61.338 167.404 61.9167C167.087 62.486 166.644 62.9293 166.074 63.2467C165.505 63.564 164.861 63.7227 164.142 63.7227C163.61 63.7227 163.12 63.62 162.672 63.4147C162.234 63.2093 161.86 62.9107 161.552 62.5187V66.3547H160.208V56.2187H161.496V57.3947C161.795 56.984 162.173 56.676 162.63 56.4707C163.088 56.256 163.592 56.1487 164.142 56.1487ZM164.03 62.5467C164.506 62.5467 164.931 62.4393 165.304 62.2247C165.687 62.0007 165.986 61.6927 166.2 61.3007C166.424 60.8993 166.536 60.442 166.536 59.9287C166.536 59.4153 166.424 58.9627 166.2 58.5707C165.986 58.1693 165.687 57.8613 165.304 57.6467C164.931 57.432 164.506 57.3247 164.03 57.3247C163.564 57.3247 163.139 57.4367 162.756 57.6607C162.383 57.8753 162.084 58.1787 161.86 58.5707C161.646 58.9627 161.538 59.4153 161.538 59.9287C161.538 60.442 161.646 60.8993 161.86 61.3007C162.075 61.6927 162.374 62.0007 162.756 62.2247C163.139 62.4393 163.564 62.5467 164.03 62.5467ZM173.193 58.7387C174.126 58.748 174.84 58.9627 175.335 59.3827C175.83 59.8027 176.077 60.3953 176.077 61.1607C176.077 61.9633 175.806 62.584 175.265 63.0227C174.733 63.452 173.968 63.662 172.969 63.6527L169.847 63.6387V56.2187H171.191V58.7247L173.193 58.7387ZM177.183 56.2187H178.527V63.6387H177.183V56.2187ZM172.871 62.6307C173.478 62.64 173.935 62.5187 174.243 62.2667C174.56 62.0147 174.719 61.6413 174.719 61.1467C174.719 60.6613 174.565 60.3067 174.257 60.0827C173.949 59.8587 173.487 59.742 172.871 59.7327L171.191 59.7047V62.6167L172.871 62.6307ZM181.14 56.2187H182.484V59.3687H186.712V56.2187H188.056V63.6387H186.712V60.5307H182.484V63.6387H181.14V56.2187ZM193.553 60.5027H192.013V63.6387H190.669V56.2187H192.013V59.3547H193.581L195.989 56.2187H197.431L194.617 59.7887L197.627 63.6387H196.045L193.553 60.5027ZM205.496 59.9707C205.496 60.0733 205.487 60.2087 205.468 60.3767H199.448C199.532 61.03 199.817 61.5573 200.302 61.9587C200.797 62.3507 201.408 62.5467 202.136 62.5467C203.023 62.5467 203.737 62.248 204.278 61.6507L205.02 62.5187C204.684 62.9107 204.264 63.2093 203.76 63.4147C203.266 63.62 202.71 63.7227 202.094 63.7227C201.31 63.7227 200.615 63.564 200.008 63.2467C199.402 62.92 198.93 62.4673 198.594 61.8887C198.268 61.31 198.104 60.6567 198.104 59.9287C198.104 59.21 198.263 58.5613 198.58 57.9827C198.907 57.404 199.35 56.956 199.91 56.6387C200.48 56.312 201.119 56.1487 201.828 56.1487C202.538 56.1487 203.168 56.312 203.718 56.6387C204.278 56.956 204.712 57.404 205.02 57.9827C205.338 58.5613 205.496 59.224 205.496 59.9707ZM201.828 57.2827C201.184 57.2827 200.643 57.4787 200.204 57.8707C199.775 58.2627 199.523 58.776 199.448 59.4107H204.208C204.134 58.7853 203.877 58.2767 203.438 57.8847C203.009 57.4833 202.472 57.2827 201.828 57.2827ZM215.975 63.6387L213.833 60.7967L211.663 63.6387H210.165L213.091 59.8447L210.305 56.2187H211.803L213.847 58.8927L215.877 56.2187H217.347L214.547 59.8447L217.501 63.6387H215.975ZM221.847 63.7227C221.11 63.7227 220.447 63.5593 219.859 63.2327C219.271 62.906 218.809 62.458 218.473 61.8887C218.147 61.31 217.983 60.6567 217.983 59.9287C217.983 59.2007 218.147 58.552 218.473 57.9827C218.809 57.404 219.271 56.956 219.859 56.6387C220.447 56.312 221.11 56.1487 221.847 56.1487C222.585 56.1487 223.243 56.312 223.821 56.6387C224.409 56.956 224.867 57.404 225.193 57.9827C225.529 58.552 225.697 59.2007 225.697 59.9287C225.697 60.6567 225.529 61.31 225.193 61.8887C224.867 62.458 224.409 62.906 223.821 63.2327C223.243 63.5593 222.585 63.7227 221.847 63.7227ZM221.847 62.5467C222.323 62.5467 222.748 62.4393 223.121 62.2247C223.504 62.0007 223.803 61.6927 224.017 61.3007C224.232 60.8993 224.339 60.442 224.339 59.9287C224.339 59.4153 224.232 58.9627 224.017 58.5707C223.803 58.1693 223.504 57.8613 223.121 57.6467C222.748 57.432 222.323 57.3247 221.847 57.3247C221.371 57.3247 220.942 57.432 220.559 57.6467C220.186 57.8613 219.887 58.1693 219.663 58.5707C219.449 58.9627 219.341 59.4153 219.341 59.9287C219.341 60.442 219.449 60.8993 219.663 61.3007C219.887 61.6927 220.186 62.0007 220.559 62.2247C220.942 62.4393 221.371 62.5467 221.847 62.5467ZM233.953 56.2187V63.6387H232.609V57.3947H229.417L229.333 59.0467C229.287 60.0453 229.198 60.8807 229.067 61.5527C228.937 62.2153 228.722 62.7473 228.423 63.1487C228.125 63.55 227.709 63.7507 227.177 63.7507C226.935 63.7507 226.659 63.7087 226.351 63.6247L226.435 62.4907C226.557 62.5187 226.669 62.5327 226.771 62.5327C227.145 62.5327 227.425 62.3693 227.611 62.0427C227.798 61.716 227.919 61.3287 227.975 60.8807C228.031 60.4327 228.083 59.7933 228.129 58.9627L228.255 56.2187H233.953ZM239.73 63.7227C238.993 63.7227 238.33 63.5593 237.742 63.2327C237.154 62.906 236.692 62.458 236.356 61.8887C236.029 61.31 235.866 60.6567 235.866 59.9287C235.866 59.2007 236.029 58.552 236.356 57.9827C236.692 57.404 237.154 56.956 237.742 56.6387C238.33 56.312 238.993 56.1487 239.73 56.1487C240.467 56.1487 241.125 56.312 241.704 56.6387C242.292 56.956 242.749 57.404 243.076 57.9827C243.412 58.552 243.58 59.2007 243.58 59.9287C243.58 60.6567 243.412 61.31 243.076 61.8887C242.749 62.458 242.292 62.906 241.704 63.2327C241.125 63.5593 240.467 63.7227 239.73 63.7227ZM239.73 62.5467C240.206 62.5467 240.631 62.4393 241.004 62.2247C241.387 62.0007 241.685 61.6927 241.9 61.3007C242.115 60.8993 242.222 60.442 242.222 59.9287C242.222 59.4153 242.115 58.9627 241.9 58.5707C241.685 58.1693 241.387 57.8613 241.004 57.6467C240.631 57.432 240.206 57.3247 239.73 57.3247C239.254 57.3247 238.825 57.432 238.442 57.6467C238.069 57.8613 237.77 58.1693 237.546 58.5707C237.331 58.9627 237.224 59.4153 237.224 59.9287C237.224 60.442 237.331 60.8993 237.546 61.3007C237.77 61.6927 238.069 62.0007 238.442 62.2247C238.825 62.4393 239.254 62.5467 239.73 62.5467ZM253.012 62.4627V65.3607H251.752V63.6387H245.55V65.3607H244.276V62.4627H244.668C245.144 62.4347 245.471 62.0987 245.648 61.4547C245.825 60.8107 245.947 59.9007 246.012 58.7247L246.124 56.2187H251.878V62.4627H253.012ZM247.244 58.8227C247.207 59.756 247.127 60.5307 247.006 61.1467C246.894 61.7533 246.684 62.192 246.376 62.4627H250.534V57.3947H247.314L247.244 58.8227ZM254.763 56.2187H256.107V61.6227L260.657 56.2187H261.875V63.6387H260.531V58.2347L255.995 63.6387H254.763V56.2187ZM270.854 56.2187V63.6387H269.51V57.3947H266.318L266.234 59.0467C266.187 60.0453 266.098 60.8807 265.968 61.5527C265.837 62.2153 265.622 62.7473 265.324 63.1487C265.025 63.55 264.61 63.7507 264.078 63.7507C263.835 63.7507 263.56 63.7087 263.252 63.6247L263.336 62.4907C263.457 62.5187 263.569 62.5327 263.672 62.5327C264.045 62.5327 264.325 62.3693 264.512 62.0427C264.698 61.716 264.82 61.3287 264.876 60.8807C264.932 60.4327 264.983 59.7933 265.03 58.9627L265.156 56.2187H270.854ZM276.882 58.7387C277.825 58.748 278.544 58.9627 279.038 59.3827C279.533 59.8027 279.78 60.3953 279.78 61.1607C279.78 61.9633 279.51 62.584 278.968 63.0227C278.436 63.452 277.671 63.662 276.672 63.6527L273.452 63.6387V56.2187H274.796V58.7247L276.882 58.7387ZM276.56 62.6307C277.167 62.64 277.624 62.5187 277.932 62.2667C278.25 62.0147 278.408 61.6413 278.408 61.1467C278.408 60.6613 278.254 60.3067 277.946 60.0827C277.648 59.8587 277.186 59.742 276.56 59.7327L274.796 59.7047V62.6167L276.56 62.6307ZM281.505 56.2187H282.849V59.3687H287.077V56.2187H288.421V63.6387H287.077V60.5307H282.849V63.6387H281.505V56.2187ZM294.212 63.7227C293.475 63.7227 292.812 63.5593 292.224 63.2327C291.636 62.906 291.174 62.458 290.838 61.8887C290.512 61.31 290.348 60.6567 290.348 59.9287C290.348 59.2007 290.512 58.552 290.838 57.9827C291.174 57.404 291.636 56.956 292.224 56.6387C292.812 56.312 293.475 56.1487 294.212 56.1487C294.95 56.1487 295.608 56.312 296.186 56.6387C296.774 56.956 297.232 57.404 297.558 57.9827C297.894 58.552 298.062 59.2007 298.062 59.9287C298.062 60.6567 297.894 61.31 297.558 61.8887C297.232 62.458 296.774 62.906 296.186 63.2327C295.608 63.5593 294.95 63.7227 294.212 63.7227ZM294.212 62.5467C294.688 62.5467 295.113 62.4393 295.486 62.2247C295.869 62.0007 296.168 61.6927 296.382 61.3007C296.597 60.8993 296.704 60.442 296.704 59.9287C296.704 59.4153 296.597 58.9627 296.382 58.5707C296.168 58.1693 295.869 57.8613 295.486 57.6467C295.113 57.432 294.688 57.3247 294.212 57.3247C293.736 57.3247 293.307 57.432 292.924 57.6467C292.551 57.8613 292.252 58.1693 292.028 58.5707C291.814 58.9627 291.706 59.4153 291.706 59.9287C291.706 60.442 291.814 60.8993 292.028 61.3007C292.252 61.6927 292.551 62.0007 292.924 62.2247C293.307 62.4393 293.736 62.5467 294.212 62.5467ZM305.463 57.3947H301.347V63.6387H300.003V56.2187H305.463V57.3947ZM309.689 63.7227C308.952 63.7227 308.289 63.5593 307.701 63.2327C307.113 62.906 306.651 62.458 306.315 61.8887C305.988 61.31 305.825 60.6567 305.825 59.9287C305.825 59.2007 305.988 58.552 306.315 57.9827C306.651 57.404 307.113 56.956 307.701 56.6387C308.289 56.312 308.952 56.1487 309.689 56.1487C310.426 56.1487 311.084 56.312 311.663 56.6387C312.251 56.956 312.708 57.404 313.035 57.9827C313.371 58.552 313.539 59.2007 313.539 59.9287C313.539 60.6567 313.371 61.31 313.035 61.8887C312.708 62.458 312.251 62.906 311.663 63.2327C311.084 63.5593 310.426 63.7227 309.689 63.7227ZM309.689 62.5467C310.165 62.5467 310.59 62.4393 310.963 62.2247C311.346 62.0007 311.644 61.6927 311.859 61.3007C312.074 60.8993 312.181 60.442 312.181 59.9287C312.181 59.4153 312.074 58.9627 311.859 58.5707C311.644 58.1693 311.346 57.8613 310.963 57.6467C310.59 57.432 310.165 57.3247 309.689 57.3247C309.213 57.3247 308.784 57.432 308.401 57.6467C308.028 57.8613 307.729 58.1693 307.505 58.5707C307.29 58.9627 307.183 59.4153 307.183 59.9287C307.183 60.442 307.29 60.8993 307.505 61.3007C307.729 61.6927 308.028 62.0007 308.401 62.2247C308.784 62.4393 309.213 62.5467 309.689 62.5467ZM141.853 77.7227C141.116 77.7227 140.453 77.5593 139.865 77.2327C139.277 76.906 138.815 76.458 138.479 75.8887C138.152 75.31 137.989 74.6567 137.989 73.9287C137.989 73.2007 138.152 72.552 138.479 71.9827C138.815 71.404 139.277 70.956 139.865 70.6387C140.453 70.312 141.116 70.1487 141.853 70.1487C142.59 70.1487 143.248 70.312 143.827 70.6387C144.415 70.956 144.872 71.404 145.199 71.9827C145.535 72.552 145.703 73.2007 145.703 73.9287C145.703 74.6567 145.535 75.31 145.199 75.8887C144.872 76.458 144.415 76.906 143.827 77.2327C143.248 77.5593 142.59 77.7227 141.853 77.7227ZM141.853 76.5467C142.329 76.5467 142.754 76.4393 143.127 76.2247C143.51 76.0007 143.808 75.6927 144.023 75.3007C144.238 74.8993 144.345 74.442 144.345 73.9287C144.345 73.4153 144.238 72.9627 144.023 72.5707C143.808 72.1693 143.51 71.8613 143.127 71.6467C142.754 71.432 142.329 71.3247 141.853 71.3247C141.377 71.3247 140.948 71.432 140.565 71.6467C140.192 71.8613 139.893 72.1693 139.669 72.5707C139.454 72.9627 139.347 73.4153 139.347 73.9287C139.347 74.442 139.454 74.8993 139.669 75.3007C139.893 75.6927 140.192 76.0007 140.565 76.2247C140.948 76.4393 141.377 76.5467 141.853 76.5467ZM151.424 70.4707C152.114 70.4707 152.73 70.6247 153.272 70.9327C153.813 71.2407 154.233 71.67 154.532 72.2207C154.84 72.762 154.994 73.3827 154.994 74.0827C154.994 74.8013 154.83 75.4407 154.504 76.0007C154.186 76.5513 153.734 76.9807 153.146 77.2887C152.567 77.5967 151.904 77.7507 151.158 77.7507C149.898 77.7507 148.922 77.3213 148.232 76.4627C147.55 75.5947 147.21 74.3767 147.21 72.8087C147.21 71.2873 147.522 70.0973 148.148 69.2387C148.773 68.3707 149.73 67.7967 151.018 67.5167L154.406 66.7607L154.602 67.9927L151.48 68.6647C150.509 68.8793 149.786 69.2433 149.31 69.7567C148.834 70.27 148.563 71.0073 148.498 71.9687C148.815 71.4927 149.226 71.124 149.73 70.8627C150.234 70.6013 150.798 70.4707 151.424 70.4707ZM151.186 76.6307C151.662 76.6307 152.082 76.5233 152.446 76.3087C152.819 76.094 153.108 75.8 153.314 75.4267C153.519 75.044 153.622 74.61 153.622 74.1247C153.622 73.3873 153.398 72.7947 152.95 72.3467C152.502 71.8987 151.914 71.6747 151.186 71.6747C150.458 71.6747 149.865 71.8987 149.408 72.3467C148.96 72.7947 148.736 73.3873 148.736 74.1247C148.736 74.61 148.838 75.044 149.044 75.4267C149.258 75.8 149.552 76.094 149.926 76.3087C150.299 76.5233 150.719 76.6307 151.186 76.6307ZM160.091 77.7227C159.354 77.7227 158.691 77.5593 158.103 77.2327C157.515 76.906 157.053 76.458 156.717 75.8887C156.391 75.31 156.227 74.6567 156.227 73.9287C156.227 73.2007 156.391 72.552 156.717 71.9827C157.053 71.404 157.515 70.956 158.103 70.6387C158.691 70.312 159.354 70.1487 160.091 70.1487C160.829 70.1487 161.487 70.312 162.065 70.6387C162.653 70.956 163.111 71.404 163.437 71.9827C163.773 72.552 163.941 73.2007 163.941 73.9287C163.941 74.6567 163.773 75.31 163.437 75.8887C163.111 76.458 162.653 76.906 162.065 77.2327C161.487 77.5593 160.829 77.7227 160.091 77.7227ZM160.091 76.5467C160.567 76.5467 160.992 76.4393 161.365 76.2247C161.748 76.0007 162.047 75.6927 162.261 75.3007C162.476 74.8993 162.583 74.442 162.583 73.9287C162.583 73.4153 162.476 72.9627 162.261 72.5707C162.047 72.1693 161.748 71.8613 161.365 71.6467C160.992 71.432 160.567 71.3247 160.091 71.3247C159.615 71.3247 159.186 71.432 158.803 71.6467C158.43 71.8613 158.131 72.1693 157.907 72.5707C157.693 72.9627 157.585 73.4153 157.585 73.9287C157.585 74.442 157.693 74.8993 157.907 75.3007C158.131 75.6927 158.43 76.0007 158.803 76.2247C159.186 76.4393 159.615 76.5467 160.091 76.5467ZM169.816 70.1487C170.535 70.1487 171.179 70.3073 171.748 70.6247C172.317 70.942 172.761 71.3853 173.078 71.9547C173.405 72.524 173.568 73.182 173.568 73.9287C173.568 74.6753 173.405 75.338 173.078 75.9167C172.761 76.486 172.317 76.9293 171.748 77.2467C171.179 77.564 170.535 77.7227 169.816 77.7227C169.284 77.7227 168.794 77.62 168.346 77.4147C167.907 77.2093 167.534 76.9107 167.226 76.5187V80.3547H165.882V70.2187H167.17V71.3947C167.469 70.984 167.847 70.676 168.304 70.4707C168.761 70.256 169.265 70.1487 169.816 70.1487ZM169.704 76.5467C170.18 76.5467 170.605 76.4393 170.978 76.2247C171.361 76.0007 171.659 75.6927 171.874 75.3007C172.098 74.8993 172.21 74.442 172.21 73.9287C172.21 73.4153 172.098 72.9627 171.874 72.5707C171.659 72.1693 171.361 71.8613 170.978 71.6467C170.605 71.432 170.18 71.3247 169.704 71.3247C169.237 71.3247 168.813 71.4367 168.43 71.6607C168.057 71.8753 167.758 72.1787 167.534 72.5707C167.319 72.9627 167.212 73.4153 167.212 73.9287C167.212 74.442 167.319 74.8993 167.534 75.3007C167.749 75.6927 168.047 76.0007 168.43 76.2247C168.813 76.4393 169.237 76.5467 169.704 76.5467ZM181.938 70.2187L178.34 78.3807C178.022 79.1367 177.649 79.6687 177.22 79.9767C176.8 80.2847 176.291 80.4387 175.694 80.4387C175.33 80.4387 174.975 80.378 174.63 80.2567C174.294 80.1447 174.014 79.9767 173.79 79.7527L174.364 78.7447C174.746 79.1087 175.19 79.2907 175.694 79.2907C176.02 79.2907 176.291 79.202 176.506 79.0247C176.73 78.8567 176.93 78.5627 177.108 78.1427L177.346 77.6247L174.07 70.2187H175.47L178.06 76.1547L180.622 70.2187H181.938ZM190.463 76.4627V79.3607H189.203V77.6387H183.001V79.3607H181.727V76.4627H182.119C182.595 76.4347 182.922 76.0987 183.099 75.4547C183.277 74.8107 183.398 73.9007 183.463 72.7247L183.575 70.2187H189.329V76.4627H190.463ZM184.695 72.8227C184.658 73.756 184.579 74.5307 184.457 75.1467C184.345 75.7533 184.135 76.192 183.827 76.4627H187.985V71.3947H184.765L184.695 72.8227ZM195.392 77.7227C194.655 77.7227 193.992 77.5593 193.404 77.2327C192.816 76.906 192.354 76.458 192.018 75.8887C191.691 75.31 191.528 74.6567 191.528 73.9287C191.528 73.2007 191.691 72.552 192.018 71.9827C192.354 71.404 192.816 70.956 193.404 70.6387C193.992 70.312 194.655 70.1487 195.392 70.1487C196.129 70.1487 196.787 70.312 197.366 70.6387C197.954 70.956 198.411 71.404 198.738 71.9827C199.074 72.552 199.242 73.2007 199.242 73.9287C199.242 74.6567 199.074 75.31 198.738 75.8887C198.411 76.458 197.954 76.906 197.366 77.2327C196.787 77.5593 196.129 77.7227 195.392 77.7227ZM195.392 76.5467C195.868 76.5467 196.293 76.4393 196.666 76.2247C197.049 76.0007 197.347 75.6927 197.562 75.3007C197.777 74.8993 197.884 74.442 197.884 73.9287C197.884 73.4153 197.777 72.9627 197.562 72.5707C197.347 72.1693 197.049 71.8613 196.666 71.6467C196.293 71.432 195.868 71.3247 195.392 71.3247C194.916 71.3247 194.487 71.432 194.104 71.6467C193.731 71.8613 193.432 72.1693 193.208 72.5707C192.993 72.9627 192.886 73.4153 192.886 73.9287C192.886 74.442 192.993 74.8993 193.208 75.3007C193.432 75.6927 193.731 76.0007 194.104 76.2247C194.487 76.4393 194.916 76.5467 195.392 76.5467ZM206.237 73.7887C207.198 74.0313 207.679 74.6333 207.679 75.5947C207.679 76.248 207.432 76.752 206.937 77.1067C206.452 77.4613 205.724 77.6387 204.753 77.6387H201.183V70.2187H204.627C205.504 70.2187 206.19 70.3867 206.685 70.7227C207.18 71.0493 207.427 71.516 207.427 72.1227C207.427 72.5147 207.32 72.8553 207.105 73.1447C206.9 73.4247 206.61 73.6393 206.237 73.7887ZM202.499 73.4107H204.515C205.028 73.4107 205.416 73.3173 205.677 73.1307C205.948 72.944 206.083 72.6733 206.083 72.3187C206.083 71.6093 205.56 71.2547 204.515 71.2547H202.499V73.4107ZM204.655 76.6027C205.215 76.6027 205.635 76.514 205.915 76.3367C206.195 76.1593 206.335 75.884 206.335 75.5107C206.335 75.128 206.204 74.8433 205.943 74.6567C205.691 74.47 205.29 74.3767 204.739 74.3767H202.499V76.6027H204.655ZM212.428 70.1487C213.455 70.1487 214.239 70.4007 214.78 70.9047C215.331 71.4087 215.606 72.16 215.606 73.1587V77.6387H214.332V76.6587C214.108 77.004 213.786 77.27 213.366 77.4567C212.956 77.634 212.466 77.7227 211.896 77.7227C211.066 77.7227 210.398 77.522 209.894 77.1207C209.4 76.7193 209.152 76.192 209.152 75.5387C209.152 74.8853 209.39 74.3627 209.866 73.9707C210.342 73.5693 211.098 73.3687 212.134 73.3687H214.262V73.1027C214.262 72.524 214.094 72.0807 213.758 71.7727C213.422 71.4647 212.928 71.3107 212.274 71.3107C211.836 71.3107 211.406 71.3853 210.986 71.5347C210.566 71.6747 210.212 71.866 209.922 72.1087L209.362 71.1007C209.745 70.7927 210.202 70.5593 210.734 70.4007C211.266 70.2327 211.831 70.1487 212.428 70.1487ZM212.12 76.6867C212.634 76.6867 213.077 76.5747 213.45 76.3507C213.824 76.1173 214.094 75.7907 214.262 75.3707V74.3347H212.19C211.052 74.3347 210.482 74.7173 210.482 75.4827C210.482 75.856 210.627 76.15 210.916 76.3647C211.206 76.5793 211.607 76.6867 212.12 76.6867ZM218.027 70.2187H219.371V73.3687H223.599V70.2187H224.943V77.6387H223.599V74.5307H219.371V77.6387H218.027V70.2187ZM227.556 70.2187H228.9V75.6227L233.45 70.2187H234.668V77.6387H233.324V72.2347L228.788 77.6387H227.556V70.2187ZM243.227 70.2187V77.6387H242.023V75.2867H239.867H239.713L238.089 77.6387H236.647L238.453 75.1047C237.893 74.9367 237.463 74.6613 237.165 74.2787C236.866 73.8867 236.717 73.4013 236.717 72.8227C236.717 71.9733 237.006 71.3293 237.585 70.8907C238.163 70.4427 238.961 70.2187 239.979 70.2187H243.227ZM238.089 72.8647C238.089 73.3593 238.243 73.728 238.551 73.9707C238.868 74.204 239.339 74.3207 239.965 74.3207H242.023V71.3947H240.021C238.733 71.3947 238.089 71.8847 238.089 72.8647Z" fill="white"/>
</svg>
