<svg width="314" height="86" fill="none" xmlns="http://www.w3.org/2000/svg"><path d="M23.438 43.037v-.129l-.011-.01c0-.119-.522-6.68-.522-6.68l-3.975 4.006 1.726 4.531h4.668l.096-.59-1.982-1.128zm7.15-36.97l-.895.558-.288 1.278-6.308 3.071 4.422 2.835 3.069-3.157V6.067z" fill="#00519B"/><path d="M30.588 16.901v-4.445l-.01-.269-.917.58-.299 1.332-1.992 1.224-5.989-4.242.096-.01.5-1.88 2.185-2.405.544-2.577 1.14-.805V2.78l-1.29.376 1.151-1.181L25.25.31 24.76 0l-.693.247-.053.515-1.694.548-.693-.344-1.971.752c-.352-.182-.618-.44-1.013-.333-.309.086-.5.376-.564.698a1.298 1.298 0 00-.416-.075c-.671 0-1.353.687-1.098 1.31.107.268.181.44.384.88l-3.826 6.024-3.708 18.512 3.698 5.799-1.61 5.67 2.302 4.52.65.01h4.092l.096-.59-2.43-1.364-.18-1.331 8.695-8.537.128-6.314L23 18.663l3.91 1.042 3.677-2.803zm60.495 26.136v-.129l.01-.01c0-.119.522-6.68.522-6.68l3.975 4.006-1.726 4.531h-4.668l-.095-.59 1.982-1.128zM83.932 6.066l.895.559.288 1.277 6.308 3.071L87 13.808l-3.07-3.157V6.066z" fill="#00519B"/><path d="M83.932 16.901v-4.445l.01-.269.917.58.298 1.332 1.993 1.224 5.989-4.242-.096-.01-.5-1.88-2.186-2.405-.543-2.577-1.14-.805V2.78l1.29.376-1.152-1.181.459-1.665.49-.311.693.247.053.515 1.694.548.693-.344 1.971.752c.352-.182.618-.44 1.013-.333.308.086.5.376.564.698.128-.043.267-.075.416-.075.671 0 1.353.687 1.097 1.31-.106.268-.18.44-.383.88l3.825 6.024 3.698 18.512-3.698 5.799 1.609 5.67-2.301 4.52-.65.01h-4.092l-.096-.59 2.43-1.364.18-1.331-8.695-8.537-.128-6.314 1.854-7.935-3.91 1.042-3.666-2.803z" fill="#00519B"/><path d="M89.293 45.901v3.443h11.448V45.9H89.293zm48.08 0v3.443h137.374V45.9H137.373zm-123.636 0v3.443h11.448V45.9H13.737zm68.043-7.385h.021V6.109H32.697v32.407h.053l-.042.043c6.735 9.073 14.258 16.815 22.74 22.914l1.812-1.91 1.811 1.91c8.483-6.099 16.006-13.84 22.74-22.914l-.031-.043zM57.27 59.53c-7.853-5.315-15.13-12.692-21.909-21.83V8.783h43.797v28.95C72.37 46.858 65.103 54.224 57.27 59.53z" fill="#E9773E"/><path d="M57.569 25.105c-2.366 0-4.316 1.975-4.305 4.348.01 2.406 1.95 4.35 4.337 4.35 2.366 0 4.305-1.966 4.305-4.35-.01-2.394-1.95-4.348-4.337-4.348z" fill="#00519B"/><path d="M57.601 14.313c-8.312.011-15.068 6.776-15.068 15.087 0 8.43 6.714 15.215 15.047 15.205 8.344 0 15.046-6.797 15.036-15.248 0-8.257-6.778-15.054-15.015-15.043zm12.265 8.537c-2.653.43-5.083 1.235-7.32 2.545a6.45 6.45 0 011.044 1.9c.469-.279.97-.58 1.47-.848.714-.386 1.47-.676 2.28-.805 1.429-.226 2.526.333 3.219 1.61.607 1.139.735 2.363.66 3.62a11.001 11.001 0 01-.415 2.458c-2.12-1.535-4.39-2.706-6.873-3.372a6.864 6.864 0 01-.522 2.094c.49.14 1.012.269 1.534.42.714.225 1.407.514 2.025.944 1.385.966 1.78 2.255 1.183 3.855-.437 1.181-1.236 2.105-2.185 2.888-.554.462-1.15.86-1.8 1.332-.416-2.599-1.173-4.983-2.409-7.184a6.495 6.495 0 01-1.822 1.128c.234.418.49.859.724 1.31.395.773.693 1.567.778 2.437.128 1.353-.447 2.32-1.598 2.964-1.14.644-2.377.773-3.645.676-.735-.053-1.47-.225-2.205-.354-.064-.01-.118-.032-.213-.065 1.438-2.018 2.557-4.166 3.239-6.528a6.32 6.32 0 01-2.067-.537c-.022.065-.032.129-.054.193-.223.913-.511 1.804-.98 2.631-1.012 1.783-2.536 2.276-4.401 1.407-1.087-.505-1.94-1.289-2.664-2.223-.394-.515-.757-1.052-1.172-1.643 2.461-.408 4.742-1.117 6.83-2.266a6.498 6.498 0 01-1.023-1.868c-.394.226-.81.462-1.246.677-.895.44-1.823.773-2.835.719-1.161-.064-1.907-.73-2.44-1.707-.426-.795-.597-1.665-.64-2.556-.053-1.127.096-2.233.384-3.318.01-.032.032-.064.053-.129 1.982 1.44 4.103 2.556 6.426 3.243a6.28 6.28 0 01.66-2.04c-.415-.107-.852-.204-1.267-.376-.64-.258-1.3-.505-1.876-.87-1.492-.934-1.897-2.33-1.247-3.973.512-1.299 1.428-2.265 2.505-3.103.447-.343.927-.644 1.449-1.01.415 2.546 1.161 4.908 2.366 7.077a6.514 6.514 0 011.928-.966c-.096-.161-.202-.333-.309-.516-.554-.945-1.033-1.911-1.225-3.017-.245-1.439.277-2.545 1.545-3.264 1.055-.602 2.216-.774 3.4-.698.798.053 1.598.225 2.397.343.085.011.17.054.288.086-1.514 2.116-2.664 4.381-3.336 6.85a6.505 6.505 0 012.068.677c.042-.172.074-.365.127-.558.267-1.128.608-2.223 1.29-3.19.927-1.31 2.195-1.696 3.708-1.137 1.258.461 2.227 1.331 3.048 2.362.373.515.735 1.074 1.161 1.675z" fill="#00519B"/><path d="M37.173 10.405v26.49c6.394 8.526 13.16 15.333 20.108 20.23 6.937-4.897 13.693-11.683 20.076-20.198V10.405H37.173zM57.6 46.01c-9.058.011-16.453-7.387-16.464-16.482 0-9.224 7.31-16.633 16.432-16.633 9.09-.01 16.432 7.387 16.442 16.547C74.032 38.591 66.69 46 57.6 46.01zM45.954 60.614l1.662-2.072c-5.445-4.424-10.368-9.245-13.49-13.207l-.267-.333-.405-.118c-1.705-.505-3.495.236-4.923 2.018-2.195 2.75-3.271 7.774-1.279 11.457l.075.119c1.172 1.707 2.952 2.813 4.774 2.942.117.01.245.01.362.01 1.428 0 2.77-.611 3.805-1.739l.096-.118c1.118-1.568 1.14-3.544.032-5.047a4.136 4.136 0 00-3.112-1.696l-.863 2.76c1.097-.355 1.694.31 1.854.525.15.204.586.934-.01 1.826-.576.59-1.237.87-1.983.816-.99-.075-2.035-.73-2.75-1.74-1.395-2.663-.543-6.442 1.056-8.44.298-.375 1.012-1.16 1.78-1.18 3.26 4.037 8.183 8.826 13.586 13.218zm40.035-13.712c-1.428-1.782-3.23-2.523-4.924-2.018l-.405.118-.266.333c-3.133 3.962-8.045 8.783-13.49 13.207l1.662 2.072c5.402-4.391 10.325-9.18 13.576-13.218.767.022 1.48.806 1.78 1.181 1.598 1.998 2.45 5.788 1.054 8.44-.703.999-1.758 1.665-2.75 1.74-.745.053-1.406-.226-1.981-.816-.597-.892-.16-1.622-.01-1.826.148-.204.67-.784 1.63-.59l-.842-2.685a4.12 4.12 0 00-2.91 1.675c-1.097 1.504-1.086 3.48.033 5.047l.096.118c1.033 1.128 2.376 1.74 3.804 1.74.117 0 .245 0 .362-.01 1.822-.13 3.602-1.236 4.774-2.943l.075-.118c2.003-3.662.927-8.698-1.269-11.447zM10.54 81.373v-9.317H6.474l-.06 1.55a29.46 29.46 0 01-.163 2.324 15.55 15.55 0 01-.303 1.977 6.315 6.315 0 01-.506 1.55c-.202.42-.452.747-.748.978l-4.27-.51c.473.014.857-.143 1.154-.469.31-.34.553-.808.728-1.406.19-.598.324-1.305.405-2.12.094-.816.162-1.706.202-2.67l.162-4.404h11.41v12.517H10.54zM0 86v-6.075h16.407V86h-3.662v-2.874H3.682V86H0zm17.045-2.874l6.25-14.27h3.946l6.271 14.27h-4.167l-4.896-12.293h1.578l-4.896 12.293h-4.086zm3.419-2.773l1.031-2.976h6.92l1.031 2.976h-8.982zm14.671 2.773v-14.27h3.945v8.378l5.847-8.378h3.763v14.27h-3.945v-8.358l-5.827 8.358h-3.783zM41.892 68c-1.47 0-2.529-.286-3.176-.857-.647-.584-.971-1.406-.971-2.466h2.69c.014.475.136.829.365 1.06.23.23.593.346 1.092.346.513 0 .884-.115 1.113-.346.243-.231.37-.585.384-1.06h2.691c0 1.06-.33 1.882-.991 2.466-.661.571-1.727.857-3.197.857zm8.766.835h4.593l2.529 3.874 2.508-3.874h4.653l-4.653 6.83 5.058 7.46h-4.714l-2.852-4.22-2.833 4.22h-4.612l5.037-7.277-4.714-7.013zM83.651 83.37c-.27 0-.56-.02-.87-.06a9.639 9.639 0 01-.95-.184l.222-3.303c.189.041.37.061.546.061.553 0 .971-.217 1.254-.652.284-.448.48-1.074.587-1.875.121-.802.196-1.74.223-2.814l.202-5.687h11.41v14.27H92.33V71.159l.87.897h-5.725l.809-.937-.101 3.261a36.726 36.726 0 01-.284 3.751c-.148 1.101-.384 2.046-.708 2.834-.323.774-.775 1.372-1.355 1.794-.567.407-1.295.611-2.185.611zm24.96-1.997v-9.317h-4.066l-.061 1.55a29.428 29.428 0 01-.162 2.324 15.55 15.55 0 01-.303 1.977 6.332 6.332 0 01-.506 1.55c-.202.42-.452.747-.748.978l-4.27-.51c.473.014.857-.143 1.154-.469.31-.34.553-.808.728-1.406.189-.598.324-1.305.405-2.12.094-.816.162-1.706.202-2.67l.162-4.404h11.41v12.517h-3.945zM98.071 86v-6.075h16.407V86h-3.662v-2.874h-9.063V86h-3.682zM73.395 75.018a.939.939 0 000 1.875.939.939 0 000-1.875z" fill="#00519B"/><path d="M80.74 72.93a7.041 7.041 0 00-1.67-2.4 7.42 7.42 0 00-2.522-1.572c-.96-.373-2.011-.555-3.162-.555-1.15 0-2.201.192-3.162.565a7.766 7.766 0 00-2.521 1.583 7.348 7.348 0 00-1.671 2.39c-.39.917-.59 1.915-.59 3.014 0 1.09.2 2.088.59 3.005a7.04 7.04 0 001.67 2.4 7.544 7.544 0 002.532 1.583c.971.373 2.022.564 3.172.564 1.131 0 2.182-.181 3.142-.554a7.742 7.742 0 002.522-1.573 7.223 7.223 0 001.67-2.41 7.71 7.71 0 00.591-3.015c0-1.099-.19-2.107-.59-3.025zm-1.96 6.282l-5.474-1.966 1.761 1.523c-.29 1.2-1.64 1.683-3.192 2.016.74-.04 2.792-.292 3.543-1.704l.53.363c-.52 1.25-2.221 1.936-4.313 1.956.23.343 1 .565 1.441.676-.99.11-1.871 0-2.681-.353l1.53-5.929-1.39 1.855c-1.111-.463-1.671-1.643-1.922-3.216-.07 1.623.64 2.843 1.611 3.69l-.37.575c-1.28-1.069-1.881-2.743-1.941-4.588-.36.424-.44.888-.55 1.442-.22-.998.01-2.127.59-2.944l5.603 1.996-1.96-1.603c.73-1.432 1.84-1.694 2.941-1.976-1.31-.03-2.472.423-3.392 1.563l-.41-.414c1.22-1.24 2.721-1.704 4.372-1.734-.34-.252-.88-.454-1.48-.645 1.21-.06 1.97.06 2.961.554 0 .081-1.85 5.778-1.85 5.778l1.51-1.896c.99.343 1.711 1.16 1.801 3.045.24-1.522-.39-2.611-1.43-3.498l.37-.495c1.31 1.2 1.77 2.511 1.8 4.286.36-.333.571-.716.741-1.11-.03 1.23-.16 1.926-.75 2.753zm59.793-54.609h9.36v2.448h-6.24v1.808h2.896c1.355 0 2.395.288 3.12.864.725.576 1.088 1.403 1.088 2.48 0 1.13-.405 2.016-1.216 2.656-.811.63-1.947.944-3.408.944h-5.6v-11.2zm5.392 8.928c.533 0 .939-.106 1.216-.32.277-.213.416-.517.416-.912 0-.79-.544-1.184-1.632-1.184h-2.272v2.416h2.272zm10.563 2.416c-.928 0-1.765-.192-2.512-.576a4.41 4.41 0 01-1.76-1.6c-.416-.682-.624-1.456-.624-2.32 0-.853.208-1.621.624-2.304A4.32 4.32 0 01152 27.563c.747-.384 1.59-.576 2.528-.576.939 0 1.782.192 2.528.576a4.183 4.183 0 011.744 1.584c.416.672.624 1.44.624 2.304 0 .864-.208 1.638-.624 2.32a4.29 4.29 0 01-1.744 1.6c-.746.384-1.589.576-2.528.576zm0-2.416c.534 0 .971-.181 1.312-.544.342-.373.512-.885.512-1.536 0-.64-.17-1.141-.512-1.504-.341-.362-.778-.544-1.312-.544-.533 0-.97.182-1.312.544-.341.363-.512.864-.512 1.504 0 .65.171 1.163.512 1.536.342.363.779.544 1.312.544zm14.998-6.4v8.672h-3.04v-6.256h-2.192l-.064 1.328c-.043 1.13-.155 2.064-.336 2.8-.181.736-.48 1.312-.896 1.728-.416.406-.987.608-1.712.608-.373 0-.864-.07-1.472-.208l.128-2.48c.192.022.32.032.384.032.331 0 .581-.106.752-.32.171-.213.288-.496.352-.848.064-.362.107-.842.128-1.44l.128-3.616h7.84zm10.827 4.352c0 .022-.016.272-.048.752h-6.304c.128.448.373.795.736 1.04.373.235.837.352 1.392.352.416 0 .773-.058 1.072-.176.309-.117.619-.31.928-.576l1.6 1.664c-.843.939-2.075 1.408-3.696 1.408-1.013 0-1.904-.192-2.672-.576-.768-.384-1.365-.917-1.792-1.6-.416-.682-.624-1.456-.624-2.32 0-.853.203-1.616.608-2.288a4.345 4.345 0 011.712-1.6c.725-.384 1.541-.576 2.448-.576.864 0 1.648.182 2.352.544a3.96 3.96 0 011.664 1.552c.416.672.624 1.472.624 2.4zm-4.624-2.336c-.469 0-.864.134-1.184.4-.309.267-.507.63-.592 1.088h3.552c-.085-.458-.288-.821-.608-1.088-.309-.266-.699-.4-1.168-.4zm15.015 2.336c0 .022-.016.272-.048.752h-6.304c.128.448.373.795.736 1.04.373.235.837.352 1.392.352.416 0 .773-.058 1.072-.176a3.16 3.16 0 00.928-.576l1.6 1.664c-.843.939-2.075 1.408-3.696 1.408-1.014 0-1.904-.192-2.672-.576-.768-.384-1.366-.917-1.792-1.6-.416-.682-.624-1.456-.624-2.32 0-.853.202-1.616.608-2.288a4.339 4.339 0 011.712-1.6c.725-.384 1.541-.576 2.448-.576.864 0 1.648.182 2.352.544.704.352 1.258.87 1.664 1.552.416.672.624 1.472.624 2.4zm-4.624-2.336c-.47 0-.864.134-1.184.4-.31.267-.507.63-.592 1.088h3.552c-.086-.458-.288-.821-.608-1.088-.31-.266-.699-.4-1.168-.4zm15.206-4.544v11.2h-3.168v-8.752h-2.08v-2.448h5.248zm5.877 4.08c1.568 0 2.725.32 3.472.96.757.64 1.136 1.494 1.136 2.56 0 .694-.182 1.334-.544 1.92-.352.576-.896 1.04-1.632 1.392-.726.342-1.627.512-2.704.512-.79 0-1.574-.096-2.352-.288-.768-.192-1.43-.464-1.984-.816l1.136-2.384a5.46 5.46 0 001.472.688c.544.16 1.088.24 1.632.24.544 0 .976-.101 1.296-.304.33-.213.496-.506.496-.88a.93.93 0 00-.48-.848c-.32-.192-.886-.288-1.696-.288h-3.04l.56-6.544h7.136v2.448h-4.512l-.144 1.632h.752zm19.495-1.552v8.672h-3.04v-6.256h-2.192l-.064 1.328c-.043 1.13-.155 2.064-.336 2.8-.182.736-.48 1.312-.896 1.728-.416.406-.987.608-1.712.608-.374 0-.864-.07-1.472-.208l.128-2.48c.192.022.32.032.384.032.33 0 .581-.106.752-.32.17-.213.288-.496.352-.848.064-.362.106-.842.128-1.44l.128-3.616h7.84zm10.827 4.352c0 .022-.016.272-.048.752h-6.304c.128.448.373.795.736 1.04.373.235.837.352 1.392.352.416 0 .773-.058 1.072-.176a3.16 3.16 0 00.928-.576l1.6 1.664c-.843.939-2.075 1.408-3.696 1.408-1.014 0-1.904-.192-2.672-.576-.768-.384-1.366-.917-1.792-1.6-.416-.682-.624-1.456-.624-2.32 0-.853.202-1.616.608-2.288a4.339 4.339 0 011.712-1.6c.725-.384 1.541-.576 2.448-.576.864 0 1.648.182 2.352.544.704.352 1.258.87 1.664 1.552.416.672.624 1.472.624 2.4zm-4.624-2.336c-.47 0-.864.134-1.184.4-.31.267-.507.63-.592 1.088h3.552c-.086-.458-.288-.821-.608-1.088-.31-.266-.699-.4-1.168-.4zm13.709.4h-2.784v6.256h-3.024v-6.256h-2.8v-2.416h8.608v2.416zM138.675 56.219h1.344v3.15h4.228v-3.15h1.344v7.42h-1.344V60.53h-4.228v3.108h-1.344v-7.42zm12.175-.07c1.027 0 1.811.252 2.352.756.551.504.826 1.255.826 2.254v4.48h-1.274v-.98a2.162 2.162 0 01-.966.798c-.41.177-.9.266-1.47.266-.83 0-1.498-.201-2.002-.602-.494-.402-.742-.929-.742-1.582 0-.654.238-1.176.714-1.568.476-.402 1.232-.602 2.268-.602h2.128v-.266c0-.579-.168-1.022-.504-1.33-.336-.308-.83-.462-1.484-.462a3.82 3.82 0 00-1.288.224 3.22 3.22 0 00-1.064.574l-.56-1.008c.383-.308.84-.542 1.372-.7a5.595 5.595 0 011.694-.252zm-.308 6.538c.514 0 .957-.112 1.33-.336.374-.234.644-.56.812-.98v-1.036h-2.072c-1.138 0-1.708.382-1.708 1.148 0 .373.145.667.434.882.29.214.691.322 1.204.322zm13.6-6.538c.719 0 1.363.158 1.932.476.57.317 1.013.76 1.33 1.33.327.569.49 1.227.49 1.974 0 .746-.163 1.409-.49 1.988a3.37 3.37 0 01-1.33 1.33c-.569.317-1.213.476-1.932.476a3.486 3.486 0 01-1.47-.308 3.064 3.064 0 01-1.12-.896v3.836h-1.344V56.219h1.288v1.176a2.797 2.797 0 011.134-.924 3.518 3.518 0 011.512-.322zm-.112 6.398a2.51 2.51 0 001.274-.322c.383-.224.682-.532.896-.924a2.77 2.77 0 00.336-1.372c0-.514-.112-.966-.336-1.358a2.244 2.244 0 00-.896-.924 2.508 2.508 0 00-1.274-.322c-.466 0-.891.112-1.274.336a2.4 2.4 0 00-.896.91c-.214.392-.322.844-.322 1.358 0 .513.108.97.322 1.372.215.392.514.7.896.924.383.214.808.322 1.274.322zm9.163-3.808c.933.009 1.647.224 2.142.644.495.42.742 1.012.742 1.778 0 .802-.271 1.423-.812 1.862-.532.429-1.297.639-2.296.63l-3.122-.014v-7.42h1.344v2.506l2.002.014zm3.99-2.52h1.344v7.42h-1.344v-7.42zm-4.312 6.412c.607.009 1.064-.112 1.372-.364.317-.252.476-.626.476-1.12 0-.486-.154-.84-.462-1.064-.308-.224-.77-.341-1.386-.35l-1.68-.028v2.912l1.68.014zm8.269-6.412h1.344v3.15h4.228v-3.15h1.344v7.42h-1.344V60.53h-4.228v3.108h-1.344v-7.42zm12.413 4.284h-1.54v3.136h-1.344v-7.42h1.344v3.136h1.568l2.408-3.136h1.442l-2.814 3.57 3.01 3.85h-1.582l-2.492-3.136zm11.943-.532c0 .102-.009.238-.028.406h-6.02c.084.653.369 1.18.854 1.582.495.392 1.106.588 1.834.588.887 0 1.601-.299 2.142-.896l.742.868a3.24 3.24 0 01-1.26.896 4.307 4.307 0 01-1.666.308c-.784 0-1.479-.159-2.086-.476a3.544 3.544 0 01-1.414-1.358c-.326-.579-.49-1.232-.49-1.96 0-.719.159-1.368.476-1.946a3.475 3.475 0 011.33-1.344 3.787 3.787 0 011.918-.49c.71 0 1.34.163 1.89.49.56.317.994.765 1.302 1.344.318.578.476 1.241.476 1.988zm-3.668-2.688c-.644 0-1.185.196-1.624.588-.429.392-.681.905-.756 1.54h4.76c-.074-.626-.331-1.134-.77-1.526-.429-.402-.966-.602-1.61-.602zm14.147 6.356l-2.142-2.842-2.17 2.842h-1.498l2.926-3.794-2.786-3.626h1.498l2.044 2.674 2.03-2.674h1.47l-2.8 3.626 2.954 3.794h-1.526zm5.872.084c-.737 0-1.4-.164-1.988-.49a3.62 3.62 0 01-1.386-1.344c-.326-.579-.49-1.232-.49-1.96s.164-1.377.49-1.946a3.49 3.49 0 011.386-1.344c.588-.327 1.251-.49 1.988-.49.738 0 1.396.163 1.974.49a3.392 3.392 0 011.372 1.344c.336.569.504 1.218.504 1.946s-.168 1.381-.504 1.96a3.514 3.514 0 01-1.372 1.344c-.578.326-1.236.49-1.974.49zm0-1.176a2.51 2.51 0 001.274-.322c.383-.224.682-.532.896-.924a2.86 2.86 0 00.322-1.372c0-.514-.107-.966-.322-1.358a2.244 2.244 0 00-.896-.924 2.508 2.508 0 00-1.274-.322c-.476 0-.905.107-1.288.322a2.374 2.374 0 00-.896.924c-.214.392-.322.844-.322 1.358 0 .513.108.97.322 1.372.224.392.523.7.896.924.383.214.812.322 1.288.322zm12.106-6.328v7.42h-1.344v-6.244h-3.192l-.084 1.652c-.046.998-.135 1.834-.266 2.506-.13.662-.345 1.194-.644 1.596-.298.401-.714.602-1.246.602-.242 0-.518-.042-.826-.126l.084-1.134c.122.028.234.042.336.042a.907.907 0 00.84-.49 3.09 3.09 0 00.364-1.162c.056-.448.108-1.088.154-1.918l.126-2.744h5.698zm5.777 7.504c-.737 0-1.4-.164-1.988-.49a3.62 3.62 0 01-1.386-1.344c-.327-.579-.49-1.232-.49-1.96s.163-1.377.49-1.946a3.49 3.49 0 011.386-1.344c.588-.327 1.251-.49 1.988-.49.737 0 1.395.163 1.974.49a3.398 3.398 0 011.372 1.344c.336.569.504 1.218.504 1.946s-.168 1.381-.504 1.96a3.521 3.521 0 01-1.372 1.344c-.579.326-1.237.49-1.974.49zm0-1.176a2.51 2.51 0 001.274-.322c.383-.224.681-.532.896-.924a2.86 2.86 0 00.322-1.372c0-.514-.107-.966-.322-1.358a2.25 2.25 0 00-.896-.924 2.508 2.508 0 00-1.274-.322c-.476 0-.905.107-1.288.322a2.374 2.374 0 00-.896.924c-.215.392-.322.844-.322 1.358 0 .513.107.97.322 1.372.224.392.523.7.896.924.383.214.812.322 1.288.322zm13.282-.084v2.898h-1.26v-1.722h-6.202v1.722h-1.274v-2.898h.392c.476-.028.803-.364.98-1.008.177-.644.299-1.554.364-2.73l.112-2.506h5.754v6.244h1.134zm-5.768-3.64c-.037.933-.117 1.708-.238 2.324-.112.606-.322 1.045-.63 1.316h4.158v-5.068h-3.22l-.07 1.428zm7.519-2.604h1.344v5.404l4.55-5.404h1.218v7.42h-1.344v-5.404l-4.536 5.404h-1.232v-7.42zm16.091 0v7.42h-1.344v-6.244h-3.192l-.084 1.652c-.047.998-.136 1.834-.266 2.506-.131.662-.346 1.194-.644 1.596-.299.401-.714.602-1.246.602-.243 0-.518-.042-.826-.126l.084-1.134c.121.028.233.042.336.042a.91.91 0 00.84-.49c.186-.327.308-.714.364-1.162.056-.448.107-1.088.154-1.918l.126-2.744h5.698zm6.028 2.52c.943.009 1.662.224 2.156.644.495.42.742 1.012.742 1.778 0 .802-.27 1.423-.812 1.862-.532.429-1.297.639-2.296.63l-3.22-.014v-7.42h1.344v2.506l2.086.014zm-.322 3.892c.607.009 1.064-.112 1.372-.364.318-.252.476-.626.476-1.12 0-.486-.154-.84-.462-1.064-.298-.224-.76-.341-1.386-.35l-1.764-.028v2.912l1.764.014zm4.945-6.412h1.344v3.15h4.228v-3.15h1.344v7.42h-1.344V60.53h-4.228v3.108h-1.344v-7.42zm12.707 7.504c-.737 0-1.4-.164-1.988-.49a3.62 3.62 0 01-1.386-1.344c-.326-.579-.49-1.232-.49-1.96s.164-1.377.49-1.946a3.49 3.49 0 011.386-1.344c.588-.327 1.251-.49 1.988-.49.738 0 1.396.163 1.974.49a3.392 3.392 0 011.372 1.344c.336.569.504 1.218.504 1.946s-.168 1.381-.504 1.96a3.514 3.514 0 01-1.372 1.344c-.578.326-1.236.49-1.974.49zm0-1.176a2.51 2.51 0 001.274-.322c.383-.224.682-.532.896-.924a2.86 2.86 0 00.322-1.372c0-.514-.107-.966-.322-1.358a2.244 2.244 0 00-.896-.924 2.508 2.508 0 00-1.274-.322c-.476 0-.905.107-1.288.322a2.374 2.374 0 00-.896.924c-.214.392-.322.844-.322 1.358 0 .513.108.97.322 1.372.224.392.523.7.896.924.383.214.812.322 1.288.322zm11.251-5.152h-4.116v6.244h-1.344v-7.42h5.46v1.176zm4.226 6.328c-.737 0-1.4-.164-1.988-.49a3.62 3.62 0 01-1.386-1.344c-.327-.579-.49-1.232-.49-1.96s.163-1.377.49-1.946a3.49 3.49 0 011.386-1.344c.588-.327 1.251-.49 1.988-.49.737 0 1.395.163 1.974.49a3.398 3.398 0 011.372 1.344c.336.569.504 1.218.504 1.946s-.168 1.381-.504 1.96a3.521 3.521 0 01-1.372 1.344c-.579.326-1.237.49-1.974.49zm0-1.176a2.51 2.51 0 001.274-.322c.383-.224.681-.532.896-.924a2.86 2.86 0 00.322-1.372c0-.514-.107-.966-.322-1.358a2.25 2.25 0 00-.896-.924 2.508 2.508 0 00-1.274-.322c-.476 0-.905.107-1.288.322a2.374 2.374 0 00-.896.924c-.215.392-.322.844-.322 1.358 0 .513.107.97.322 1.372.224.392.523.7.896.924.383.214.812.322 1.288.322zM141.853 77.723c-.737 0-1.4-.164-1.988-.49a3.62 3.62 0 01-1.386-1.344c-.327-.579-.49-1.232-.49-1.96s.163-1.377.49-1.946a3.49 3.49 0 011.386-1.344c.588-.327 1.251-.49 1.988-.49.737 0 1.395.163 1.974.49a3.398 3.398 0 011.372 1.344c.336.569.504 1.218.504 1.946s-.168 1.381-.504 1.96a3.521 3.521 0 01-1.372 1.344c-.579.326-1.237.49-1.974.49zm0-1.176a2.51 2.51 0 001.274-.322c.383-.224.681-.532.896-.924a2.86 2.86 0 00.322-1.372c0-.514-.107-.966-.322-1.358a2.25 2.25 0 00-.896-.924 2.508 2.508 0 00-1.274-.322c-.476 0-.905.107-1.288.322a2.374 2.374 0 00-.896.924c-.215.392-.322.844-.322 1.358 0 .513.107.97.322 1.372.224.392.523.7.896.924.383.214.812.322 1.288.322zm9.571-6.076c.69 0 1.306.154 1.848.462a3.22 3.22 0 011.26 1.288c.308.541.462 1.162.462 1.862 0 .718-.164 1.358-.49 1.918-.318.55-.77.98-1.358 1.288-.579.308-1.242.462-1.988.462-1.26 0-2.236-.43-2.926-1.288-.682-.868-1.022-2.086-1.022-3.654 0-1.522.312-2.712.938-3.57.625-.868 1.582-1.442 2.87-1.722l3.388-.756.196 1.232-3.122.672c-.971.214-1.694.578-2.17 1.092-.476.513-.747 1.25-.812 2.212a3.263 3.263 0 011.232-1.106 3.622 3.622 0 011.694-.392zm-.238 6.16a2.44 2.44 0 001.26-.322 2.26 2.26 0 00.868-.882c.205-.383.308-.817.308-1.302 0-.738-.224-1.33-.672-1.778-.448-.448-1.036-.672-1.764-.672s-1.321.224-1.778.672c-.448.448-.672 1.04-.672 1.778 0 .485.102.919.308 1.302.214.373.508.667.882.882a2.48 2.48 0 001.26.322zm8.905 1.092c-.737 0-1.4-.164-1.988-.49a3.62 3.62 0 01-1.386-1.344c-.326-.579-.49-1.232-.49-1.96s.164-1.377.49-1.946a3.49 3.49 0 011.386-1.344c.588-.327 1.251-.49 1.988-.49.738 0 1.396.163 1.974.49a3.392 3.392 0 011.372 1.344c.336.569.504 1.218.504 1.946s-.168 1.381-.504 1.96a3.514 3.514 0 01-1.372 1.344c-.578.326-1.236.49-1.974.49zm0-1.176a2.51 2.51 0 001.274-.322c.383-.224.682-.532.896-.924a2.86 2.86 0 00.322-1.372c0-.514-.107-.966-.322-1.358a2.244 2.244 0 00-.896-.924 2.508 2.508 0 00-1.274-.322c-.476 0-.905.107-1.288.322a2.374 2.374 0 00-.896.924c-.214.392-.322.844-.322 1.358 0 .513.108.97.322 1.372.224.392.523.7.896.924.383.214.812.322 1.288.322zm9.725-6.398c.719 0 1.363.158 1.932.476a3.37 3.37 0 011.33 1.33c.327.569.49 1.227.49 1.974 0 .746-.163 1.409-.49 1.988a3.376 3.376 0 01-1.33 1.33c-.569.317-1.213.476-1.932.476a3.486 3.486 0 01-1.47-.308 3.056 3.056 0 01-1.12-.896v3.836h-1.344V70.219h1.288v1.176a2.797 2.797 0 011.134-.924 3.511 3.511 0 011.512-.322zm-.112 6.398a2.51 2.51 0 001.274-.322c.383-.224.681-.532.896-.924a2.77 2.77 0 00.336-1.372c0-.514-.112-.966-.336-1.358a2.25 2.25 0 00-.896-.924 2.508 2.508 0 00-1.274-.322c-.467 0-.891.112-1.274.336a2.4 2.4 0 00-.896.91c-.215.392-.322.844-.322 1.358 0 .513.107.97.322 1.372.215.392.513.7.896.924a2.56 2.56 0 001.274.322zm12.234-6.328l-3.598 8.162c-.318.756-.691 1.288-1.12 1.596-.42.308-.929.462-1.526.462-.364 0-.719-.061-1.064-.182a2.109 2.109 0 01-.84-.504l.574-1.008a1.87 1.87 0 001.33.546c.326 0 .597-.089.812-.266.224-.168.424-.462.602-.882l.238-.518-3.276-7.406h1.4l2.59 5.936 2.562-5.936h1.316zm8.525 6.244v2.898h-1.26v-1.722h-6.202v1.722h-1.274v-2.898h.392c.476-.028.803-.364.98-1.008.178-.644.299-1.554.364-2.73l.112-2.506h5.754v6.244h1.134zm-5.768-3.64c-.037.933-.116 1.708-.238 2.324-.112.606-.322 1.045-.63 1.316h4.158v-5.068h-3.22l-.07 1.428zm10.697 4.9c-.737 0-1.4-.164-1.988-.49a3.62 3.62 0 01-1.386-1.344c-.327-.579-.49-1.232-.49-1.96s.163-1.377.49-1.946a3.49 3.49 0 011.386-1.344c.588-.327 1.251-.49 1.988-.49.737 0 1.395.163 1.974.49a3.398 3.398 0 011.372 1.344c.336.569.504 1.218.504 1.946s-.168 1.381-.504 1.96a3.521 3.521 0 01-1.372 1.344c-.579.326-1.237.49-1.974.49zm0-1.176a2.51 2.51 0 001.274-.322c.383-.224.681-.532.896-.924a2.86 2.86 0 00.322-1.372c0-.514-.107-.966-.322-1.358a2.25 2.25 0 00-.896-.924 2.508 2.508 0 00-1.274-.322c-.476 0-.905.107-1.288.322a2.374 2.374 0 00-.896.924c-.215.392-.322.844-.322 1.358 0 .513.107.97.322 1.372.224.392.523.7.896.924.383.214.812.322 1.288.322zm10.845-2.758c.961.242 1.442.844 1.442 1.806 0 .653-.247 1.157-.742 1.512-.485.354-1.213.532-2.184.532h-3.57v-7.42h3.444c.877 0 1.563.168 2.058.504.495.326.742.793.742 1.4 0 .392-.107.732-.322 1.022-.205.28-.495.494-.868.644zm-3.738-.378h2.016c.513 0 .901-.094 1.162-.28.271-.187.406-.458.406-.812 0-.71-.523-1.064-1.568-1.064h-2.016v2.156zm2.156 3.192c.56 0 .98-.089 1.26-.266.28-.178.42-.453.42-.826 0-.383-.131-.668-.392-.854-.252-.187-.653-.28-1.204-.28h-2.24v2.226h2.156zm7.773-6.454c1.027 0 1.811.252 2.352.756.551.504.826 1.255.826 2.254v4.48h-1.274v-.98a2.162 2.162 0 01-.966.798c-.41.177-.9.266-1.47.266-.83 0-1.498-.201-2.002-.602-.494-.402-.742-.929-.742-1.582 0-.654.238-1.176.714-1.568.476-.402 1.232-.602 2.268-.602h2.128v-.266c0-.579-.168-1.022-.504-1.33-.336-.308-.83-.462-1.484-.462a3.82 3.82 0 00-1.288.224 3.22 3.22 0 00-1.064.574l-.56-1.008c.383-.308.84-.542 1.372-.7a5.595 5.595 0 011.694-.252zm-.308 6.538c.514 0 .957-.112 1.33-.336.374-.234.644-.56.812-.98v-1.036h-2.072c-1.138 0-1.708.382-1.708 1.148 0 .373.145.667.434.882.29.214.691.322 1.204.322zm5.907-6.468h1.344v3.15h4.228v-3.15h1.344v7.42h-1.344V74.53h-4.228v3.108h-1.344v-7.42zm9.529 0h1.344v5.404l4.55-5.404h1.218v7.42h-1.344v-5.404l-4.536 5.404h-1.232v-7.42zm15.671 0v7.42h-1.204v-2.352h-2.31l-1.624 2.352h-1.442l1.806-2.534c-.56-.168-.99-.444-1.288-.826-.299-.392-.448-.878-.448-1.456 0-.85.289-1.494.868-1.932.578-.448 1.376-.672 2.394-.672h3.248zm-5.138 2.646c0 .494.154.863.462 1.106.317.233.788.35 1.414.35h2.058v-2.926h-2.002c-1.288 0-1.932.49-1.932 1.47z" fill="#00519B"/></svg>