<svg width="220" height="166" viewBox="0 0 220 166" fill="none" xmlns="http://www.w3.org/2000/svg">
<path d="M45.0417 83.0711V82.8239C45.0212 82.8033 45.0212 82.8033 45.0212 82.8033C45.0212 82.5767 44.0177 69.9891 44.0177 69.9891L36.3792 77.6735L39.6967 86.3673H48.6664L48.8507 85.2343L45.0417 83.0711Z" fill="#00519B"/>
<path d="M58.7829 12.1399L57.0627 13.2112L56.5098 15.6628L44.3864 21.5548L52.8851 26.9936L58.7829 20.9368V12.1399Z" fill="#00519B"/>
<path d="M58.7829 32.9269V24.3978L58.7625 23.8828L57.0013 24.9953L56.4279 27.5499L52.5984 29.8984L41.0894 21.7608L41.2737 21.7402L42.2362 18.1349L46.4343 13.5202L47.4787 8.57581L49.6699 7.03069V5.8358L47.192 6.55686L49.4037 4.29069L48.5231 1.09744L47.5811 0.5L46.25 0.973834L46.1476 1.96271L42.8915 3.01339L41.5604 2.35414L37.7718 3.79625C37.096 3.44602 36.584 2.95159 35.8263 3.1576C35.2325 3.32241 34.8638 3.87866 34.741 4.4967C34.4952 4.4143 34.229 4.35249 33.9423 4.35249C32.6521 4.35249 31.3415 5.67099 31.833 6.86588C32.0378 7.38092 32.1811 7.71055 32.5702 8.55521L25.2184 20.1127L18.0918 55.6298L25.1979 66.7546L22.1056 77.6323L26.529 86.3055L27.7782 86.3261H35.642L35.8263 85.193L31.1572 82.5766L30.8091 80.022L47.5197 63.6438L47.7654 51.5301L44.2021 36.3055L51.7178 38.3039L58.7829 32.9269Z" fill="#00519B"/>
<path d="M175.039 83.0709V82.8237C175.06 82.8031 175.06 82.8031 175.06 82.8031C175.06 82.5765 176.063 69.9889 176.063 69.9889L183.702 77.6733L180.384 86.3672H171.415L171.23 85.2341L175.039 83.0709Z" fill="#00519B"/>
<path d="M161.297 12.1389L163.017 13.2102L163.57 15.6618L175.693 21.5538L167.195 26.9926L161.297 20.9358V12.1389Z" fill="#00519B"/>
<path d="M161.297 32.9269V24.3978L161.318 23.8828L163.079 24.9953L163.652 27.5499L167.482 29.8984L178.991 21.7608L178.807 21.7402L177.844 18.1349L173.646 13.5202L172.602 8.57581L170.41 7.03069V5.8358L172.888 6.55686L170.677 4.29069L171.557 1.09744L172.499 0.5L173.83 0.973833L173.933 1.96271L177.189 3.01339L178.52 2.35414L182.308 3.79625C182.984 3.44602 183.496 2.95158 184.254 3.1576C184.848 3.32241 185.216 3.87865 185.339 4.4967C185.585 4.4143 185.851 4.35249 186.138 4.35249C187.428 4.35249 188.739 5.67099 188.247 6.86588C188.042 7.38092 187.899 7.71055 187.51 8.55521L194.862 20.1127L201.968 55.6298L194.862 66.7546L197.954 77.6323L193.531 86.3055L192.282 86.3261H184.418L184.233 85.193L188.903 82.5766L189.251 80.022L172.54 63.6438L172.294 51.5301L175.858 36.3055L168.342 38.3039L161.297 32.9269Z" fill="#00519B"/>
<path d="M171.6 88.5664V95.1714H193.6V88.5664H171.6Z" fill="#E9773E"/>
<path d="M26.4004 88.5664V95.1714H48.4004V88.5664H26.4004Z" fill="#E9773E"/>
<path d="M157.161 74.3972H157.202V17.3515V12.2217H152.103H67.9351H62.8359V17.3515V74.3972H62.9383L62.8564 74.4796C75.7989 91.8879 90.2569 106.742 106.558 118.443L110.039 114.776L113.521 118.443C129.822 106.742 144.28 91.8879 157.222 74.4796L157.161 74.3972ZM110.06 114.714C94.967 104.517 80.98 90.3634 67.9556 72.8315V17.3515H152.123V72.8933C139.078 90.4046 125.112 104.537 110.06 114.714Z" fill="#E9773E"/>
<path d="M110.635 48.666C106.089 48.666 102.341 52.4567 102.361 57.0097C102.382 61.6244 106.109 65.3533 110.696 65.3533C115.243 65.3533 118.97 61.5832 118.97 57.0097C118.949 52.4155 115.222 48.666 110.635 48.666Z" fill="#00519B"/>
<path d="M110.695 27.9619C94.7218 27.9825 81.7383 40.9615 81.7383 56.9071C81.7383 73.0794 94.6399 86.0996 110.654 86.079C126.689 86.079 139.57 73.0382 139.55 56.8247C139.55 40.9821 126.525 27.9413 110.695 27.9619ZM134.266 44.3402C129.167 45.1643 124.498 46.7094 120.197 49.2228C121.057 50.294 121.733 51.5301 122.204 52.8692C123.105 52.3336 124.068 51.7568 125.03 51.2417C126.402 50.5001 127.856 49.9438 129.413 49.6966C132.157 49.264 134.266 50.3352 135.597 52.7868C136.764 54.9706 137.01 57.3192 136.867 59.7296C136.785 61.3159 136.519 62.861 136.068 64.4473C131.993 61.5013 127.631 59.2557 122.859 57.9784C122.737 59.3999 122.388 60.739 121.856 61.9957C122.798 62.2635 123.801 62.5108 124.805 62.7992C126.177 63.2318 127.508 63.7881 128.696 64.6121C131.358 66.4663 132.116 68.9385 130.969 72.0081C130.129 74.2743 128.594 76.046 126.771 77.5499C125.706 78.4358 124.559 79.198 123.31 80.1045C122.511 75.1189 121.057 70.5454 118.682 66.3221C117.658 67.2285 116.47 67.9496 115.18 68.4852C115.63 69.2887 116.122 70.1333 116.573 70.9986C117.33 72.4819 117.904 74.0064 118.067 75.6752C118.313 78.271 117.207 80.1251 114.996 81.3612C112.804 82.5973 110.429 82.8445 107.992 82.6591C106.579 82.5561 105.166 82.2265 103.753 81.9792C103.63 81.9586 103.528 81.9174 103.343 81.8556C106.108 77.9825 108.258 73.8622 109.569 69.3299C108.156 69.2063 106.825 68.8561 105.596 68.2998C105.555 68.4234 105.535 68.547 105.494 68.6706C105.063 70.4218 104.511 72.1317 103.61 73.718C101.664 77.1379 98.7356 78.0855 95.1518 76.4168C93.063 75.4485 91.4247 73.9446 90.0321 72.1523C89.2744 71.1634 88.5782 70.1333 87.7795 69.0003C92.5101 68.2174 96.8925 66.8577 100.906 64.6533C100.067 63.582 99.3909 62.3666 98.9404 61.0687C98.1827 61.5013 97.384 61.9545 96.5444 62.3666C94.8242 63.2112 93.0425 63.8499 91.097 63.7469C88.8649 63.6232 87.4314 62.346 86.4074 60.4712C85.5883 58.9467 85.2606 57.278 85.1787 55.568C85.0763 53.4049 85.363 51.2829 85.9159 49.2022C85.9364 49.1404 85.9774 49.0785 86.0183 48.9549C89.8274 51.7155 93.9026 53.8581 98.367 55.1766C98.5718 53.7757 99.0018 52.4572 99.6367 51.2623C98.838 51.0563 97.9984 50.8709 97.1997 50.5413C95.971 50.0468 94.7013 49.573 93.5954 48.8725C90.7284 47.0802 89.9502 44.402 91.1994 41.25C92.1824 38.7572 93.9436 36.903 96.0119 35.2961C96.872 34.6368 97.7936 34.06 98.797 33.3596C99.5957 38.2421 101.029 42.7745 103.343 46.936C104.449 46.1325 105.698 45.4939 107.05 45.0818C106.866 44.7728 106.661 44.4432 106.456 44.093C105.391 42.28 104.47 40.4259 104.101 38.3039C103.63 35.5433 104.633 33.4214 107.07 32.0411C109.098 30.8874 111.33 30.5577 113.603 30.702C115.139 30.805 116.675 31.1346 118.211 31.3612C118.375 31.3818 118.538 31.4642 118.764 31.526C115.856 35.5845 113.644 39.9315 112.354 44.6698C113.767 44.8758 115.098 45.3291 116.327 45.9677C116.409 45.6381 116.47 45.2673 116.573 44.8964C117.084 42.7333 117.74 40.6319 119.05 38.7778C120.832 36.2644 123.269 35.5227 126.177 36.594C128.594 37.4799 130.457 39.1486 132.034 41.1263C132.751 42.1152 133.447 43.1865 134.266 44.3402Z" fill="#00519B"/>
<path d="M71.4375 20.4629V71.287C83.7247 87.6446 96.7287 100.706 110.081 110.1C123.412 100.706 136.396 87.6858 148.663 71.3488V20.4629H71.4375ZM110.695 88.7777C93.2883 88.7983 79.076 74.6038 79.0556 57.1543C79.0556 39.4575 93.1039 25.2425 110.634 25.2425C128.102 25.2219 142.212 39.4163 142.232 56.9895C142.273 74.542 128.163 88.7571 110.695 88.7777Z" fill="#00519B"/>
<path d="M88.312 116.795L91.5067 112.819C81.0421 104.331 71.5809 95.0812 65.5807 87.4792L65.0687 86.8406L64.2905 86.614C61.0139 85.6457 57.5735 87.0672 54.8294 90.4871C50.6108 95.7611 48.5424 105.403 52.3719 112.469L52.5153 112.696C54.7679 115.971 58.1879 118.093 61.6897 118.34C61.915 118.361 62.1607 118.361 62.386 118.361C65.1301 118.361 67.7105 117.187 69.6969 115.024L69.8812 114.797C72.0315 111.789 72.0724 107.998 69.9426 105.114C68.4887 103.136 66.3179 102.003 63.9629 101.859L62.3041 107.154C64.4134 106.474 65.5602 107.751 65.8674 108.163C66.1541 108.555 66.9937 109.956 65.8469 111.665C64.7411 112.799 63.4714 113.334 62.0379 113.231C60.1333 113.087 58.1264 111.83 56.7544 109.894C54.0717 104.785 55.71 97.5328 58.7818 93.7009C59.3552 92.9799 60.7272 91.476 62.2017 91.4348C68.4682 99.1809 77.9293 108.369 88.312 116.795Z" fill="#00519B"/>
<path d="M165.25 90.4871C162.505 87.0672 159.045 85.6457 155.788 86.614L155.01 86.8406L154.498 87.4792C148.478 95.0812 139.037 104.331 128.572 112.819L131.767 116.795C142.15 108.369 151.611 99.1809 157.857 91.4348C159.331 91.476 160.703 92.9799 161.277 93.7009C164.349 97.5328 165.987 104.805 163.304 109.894C161.952 111.81 159.925 113.087 158.021 113.231C156.587 113.334 155.317 112.799 154.212 111.665C153.065 109.956 153.904 108.555 154.191 108.163C154.478 107.772 155.481 106.659 157.324 107.03L155.707 101.88C153.495 102.106 151.488 103.239 150.116 105.094C148.007 107.978 148.027 111.768 150.177 114.776L150.362 115.003C152.348 117.166 154.928 118.34 157.672 118.34C157.898 118.34 158.143 118.34 158.369 118.32C161.871 118.073 165.291 115.951 167.543 112.675L167.687 112.448C171.537 105.423 169.468 95.7611 165.25 90.4871Z" fill="#00519B"/>
<path d="M20.2557 156.621V138.747H12.4411L12.3245 141.72C12.2726 143.31 12.169 144.797 12.0135 146.179C11.8839 147.561 11.6895 148.825 11.4303 149.972C11.197 151.12 10.873 152.111 10.4583 152.945C10.0695 153.753 9.59003 154.379 9.01981 154.822L0.816448 153.844C1.72361 153.871 2.4623 153.571 3.03252 152.945C3.62866 152.293 4.0952 151.393 4.43215 150.246C4.79501 149.099 5.0542 147.743 5.20972 146.179C5.39115 144.614 5.52075 142.906 5.5985 141.055L5.90953 132.607H27.837V156.621H20.2557ZM0 165.5V153.844H31.5305V165.5H24.4934V159.985H7.07588V165.5H0Z" fill="#00519B"/>
<path d="M32.7557 159.985L44.7692 132.607H52.3505L64.4028 159.985H56.3939L46.9853 136.401H50.0178L40.6092 159.985H32.7557ZM39.3262 154.666L41.309 148.956H54.6054L56.5882 154.666H39.3262Z" fill="#00519B"/>
<path d="M67.5216 159.985V132.607H75.1029V148.682L86.3388 132.607H93.5702V159.985H85.9889V143.949L74.7919 159.985H67.5216ZM80.507 130.964C77.6819 130.964 75.6472 130.417 74.4031 129.321C73.159 128.2 72.5369 126.623 72.5369 124.589H77.7078C77.7337 125.501 77.967 126.179 78.4076 126.623C78.8482 127.066 79.548 127.288 80.507 127.288C81.4919 127.288 82.2047 127.066 82.6453 126.623C83.1119 126.179 83.3581 125.501 83.384 124.589H88.5549C88.5549 126.623 87.9199 128.2 86.6498 129.321C85.3798 130.417 83.3322 130.964 80.507 130.964Z" fill="#00519B"/>
<path d="M97.3536 132.568H106.179L111.039 139.999L115.86 132.568H124.802L115.86 145.67L125.579 159.985H116.521L111.039 151.889L105.596 159.985H96.7315L106.412 146.022L97.3536 132.568Z" fill="#00519B"/>
<path d="M160.758 160.454C160.239 160.454 159.682 160.415 159.086 160.337C158.516 160.259 157.907 160.141 157.259 159.985L157.686 153.649C158.049 153.727 158.399 153.766 158.736 153.766C159.799 153.766 160.602 153.349 161.146 152.515C161.691 151.654 162.067 150.455 162.274 148.916C162.507 147.378 162.65 145.579 162.702 143.519L163.09 132.607H185.018V159.985H177.437V137.026L179.108 138.747H168.106L169.661 136.948L169.466 143.206C169.389 145.866 169.207 148.265 168.922 150.403C168.637 152.515 168.183 154.327 167.561 155.839C166.939 157.325 166.071 158.473 164.957 159.281C163.868 160.063 162.468 160.454 160.758 160.454Z" fill="#00519B"/>
<path d="M208.725 156.621V138.747H200.911L200.794 141.72C200.742 143.31 200.639 144.797 200.483 146.179C200.353 147.561 200.159 148.825 199.9 149.972C199.667 151.12 199.343 152.111 198.928 152.945C198.539 153.753 198.06 154.379 197.489 154.822L189.286 153.844C190.193 153.871 190.932 153.571 191.502 152.945C192.098 152.293 192.565 151.393 192.902 150.246C193.265 149.099 193.524 147.743 193.679 146.179C193.861 144.614 193.99 142.906 194.068 141.055L194.379 132.607H216.307V156.621H208.725ZM188.47 165.5V153.844H220V165.5H212.963V159.985H195.545V165.5H188.47Z" fill="#00519B"/>
<path d="M141.05 144.429C140.069 144.429 139.262 145.241 139.262 146.228C139.262 147.214 140.069 148.027 141.05 148.027C142.031 148.027 142.838 147.214 142.838 146.228C142.838 145.241 142.031 144.429 141.05 144.429Z" fill="#00519B"/>
<path d="M155.166 140.424C154.416 138.664 153.339 137.116 151.954 135.82C150.57 134.505 148.954 133.499 147.108 132.802C145.262 132.086 143.243 131.738 141.032 131.738C138.821 131.738 136.801 132.106 134.955 132.822C133.109 133.537 131.494 134.563 130.11 135.859C128.725 137.174 127.667 138.702 126.898 140.443C126.148 142.204 125.764 144.119 125.764 146.228C125.764 148.317 126.148 150.232 126.898 151.992C127.648 153.753 128.725 155.3 130.11 156.597C131.494 157.912 133.109 158.918 134.975 159.634C136.84 160.349 138.859 160.717 141.07 160.717C143.243 160.717 145.262 160.369 147.108 159.653C148.954 158.937 150.57 157.931 151.954 156.635C153.339 155.32 154.396 153.792 155.166 152.012C155.916 150.232 156.3 148.298 156.3 146.228C156.3 144.119 155.935 142.185 155.166 140.424ZM151.397 152.476L140.878 148.704L144.262 151.625C143.705 153.927 141.109 154.855 138.128 155.494C139.551 155.416 143.493 154.933 144.936 152.225L145.955 152.921C144.955 155.32 141.686 156.635 137.667 156.674C138.109 157.332 139.59 157.757 140.436 157.97C138.532 158.183 136.84 157.97 135.282 157.293L138.224 145.918L135.551 149.478C133.417 148.588 132.34 146.324 131.859 143.307C131.725 146.421 133.09 148.762 134.955 150.387L134.244 151.489C131.783 149.439 130.629 146.228 130.513 142.688C129.821 143.5 129.667 144.39 129.456 145.454C129.033 143.539 129.475 141.372 130.59 139.805L141.359 143.635L137.59 140.56C138.994 137.813 141.128 137.31 143.243 136.768C140.724 136.71 138.494 137.58 136.725 139.766L135.936 138.973C138.282 136.594 141.167 135.704 144.339 135.646C143.686 135.162 142.647 134.775 141.493 134.408C143.82 134.292 145.282 134.524 147.185 135.472C147.185 135.627 143.628 146.557 143.628 146.557L146.532 142.92C148.435 143.577 149.82 145.144 149.993 148.762C150.454 145.841 149.243 143.751 147.243 142.049L147.955 141.101C150.474 143.403 151.358 145.918 151.416 149.323C152.108 148.684 152.512 147.949 152.839 147.195C152.781 149.555 152.531 150.89 151.397 152.476Z" fill="#00519B"/>
</svg>
