<svg width="24" height="20" viewBox="0 0 24 20" fill="none" xmlns="http://www.w3.org/2000/svg">
<path fill-rule="evenodd" clip-rule="evenodd" d="M0.000787077 5.88768C0 6.13483 0 6.39434 0 6.66699V13.667C0 16.4954 0 17.9096 0.87868 18.7883C1.75736 19.667 3.17157 19.667 6 19.667H18C20.8284 19.667 22.2426 19.667 23.1213 18.7883C24 17.9096 24 16.4954 24 13.667V6.66699C24 6.39434 24 6.13483 23.9992 5.88768L12.9845 12.1163C12.3736 12.4617 11.6264 12.4617 11.0155 12.1163L0.000787077 5.88768ZM0.069163 3.74058C0.213483 3.75048 0.357905 3.792 0.492228 3.86795L12 10.3753L23.5078 3.86795C23.6421 3.792 23.7865 3.75049 23.9308 3.74059C23.8386 2.72477 23.6234 2.04778 23.1213 1.54567C22.2426 0.666992 20.8284 0.666992 18 0.666992H6C3.17157 0.666992 1.75736 0.666992 0.87868 1.54567C0.376569 2.04778 0.161384 2.72477 0.069163 3.74058Z" fill="white"/>
</svg>
