<svg width="256" height="291" viewBox="0 0 256 291" fill="none" xmlns="http://www.w3.org/2000/svg">
<g opacity="0.2">
<mask id="path-1-inside-1_362_4443" fill="white">
<path d="M0 223.5C0 100.064 100.064 0 223.5 0C346.936 0 447 100.064 447 223.5V291H0V223.5Z"/>
</mask>
<path d="M-2 223.5C-2 98.9598 98.9598 -2 223.5 -2C348.04 -2 449 98.9598 449 223.5H445C445 101.169 345.831 2 223.5 2C101.169 2 2 101.169 2 223.5H-2ZM447 291H0H447ZM-2 291V223.5C-2 98.9598 98.9598 -2 223.5 -2V2C101.169 2 2 101.169 2 223.5V291H-2ZM223.5 -2C348.04 -2 449 98.9598 449 223.5V291H445V223.5C445 101.169 345.831 2 223.5 2V-2Z" fill="url(#paint0_linear_362_4443)" mask="url(#path-1-inside-1_362_4443)"/>
<mask id="path-3-inside-2_362_4443" fill="white">
<path d="M37.25 234.75C37.25 131.887 120.637 48.5 223.5 48.5C326.363 48.5 409.75 131.887 409.75 234.75V291H37.25V234.75Z"/>
</mask>
<path d="M35.25 234.75C35.25 130.782 119.532 46.5 223.5 46.5C327.468 46.5 411.75 130.782 411.75 234.75H407.75C407.75 132.992 325.258 50.5 223.5 50.5C121.742 50.5 39.25 132.992 39.25 234.75H35.25ZM409.75 291H37.25H409.75ZM35.25 291V234.75C35.25 130.782 119.532 46.5 223.5 46.5V50.5C121.742 50.5 39.25 132.992 39.25 234.75V291H35.25ZM223.5 46.5C327.468 46.5 411.75 130.782 411.75 234.75V291H407.75V234.75C407.75 132.992 325.258 50.5 223.5 50.5V46.5Z" fill="url(#paint1_linear_362_4443)" mask="url(#path-3-inside-2_362_4443)"/>
<mask id="path-5-inside-3_362_4443" fill="white">
<path d="M80.709 247.875C80.709 169.013 144.639 105.083 223.501 105.083C302.362 105.083 366.292 169.013 366.292 247.875V291H80.709V247.875Z"/>
</mask>
<path d="M78.709 247.875C78.709 167.908 143.534 103.083 223.501 103.083C303.467 103.083 368.292 167.908 368.292 247.875H364.292C364.292 170.118 301.258 107.083 223.501 107.083C145.744 107.083 82.709 170.118 82.709 247.875H78.709ZM366.292 291H80.709H366.292ZM78.709 291V247.875C78.709 167.908 143.534 103.083 223.501 103.083V107.083C145.744 107.083 82.709 170.118 82.709 247.875V291H78.709ZM223.501 103.083C303.467 103.083 368.292 167.908 368.292 247.875V291H364.292V247.875C364.292 170.118 301.258 107.083 223.501 107.083V103.083Z" fill="url(#paint2_linear_362_4443)" mask="url(#path-5-inside-3_362_4443)"/>
</g>
<defs>
<linearGradient id="paint0_linear_362_4443" x1="223.5" y1="0" x2="223.5" y2="291" gradientUnits="userSpaceOnUse">
<stop stop-color="white"/>
<stop offset="0.545" stop-color="white" stop-opacity="0.24"/>
<stop offset="1" stop-color="white" stop-opacity="0.05"/>
</linearGradient>
<linearGradient id="paint1_linear_362_4443" x1="223.5" y1="48.5" x2="223.5" y2="291" gradientUnits="userSpaceOnUse">
<stop stop-color="white"/>
<stop offset="0.545" stop-color="white" stop-opacity="0.24"/>
<stop offset="1" stop-color="white" stop-opacity="0.05"/>
</linearGradient>
<linearGradient id="paint2_linear_362_4443" x1="223.501" y1="105.083" x2="223.501" y2="291" gradientUnits="userSpaceOnUse">
<stop stop-color="white"/>
<stop offset="0.545" stop-color="white" stop-opacity="0.24"/>
<stop offset="1" stop-color="white" stop-opacity="0.05"/>
</linearGradient>
</defs>
</svg>
