<svg width="40" height="40" viewBox="0 0 40 40" fill="none" xmlns="http://www.w3.org/2000/svg">
<path d="M19.9998 0C8.97219 0 0 8.97235 0 20C0 31.0277 8.97219 40 19.9998 40C25.3417 40 30.4299 37.8459 34.2074 34.0677C34.8352 33.4398 34.7643 32.3863 34.1277 31.7613L30.9712 28.6513C31.6518 27.719 31.7413 26.5849 31.1798 25.5074C30.4136 24.0364 29.2754 22.859 27.7992 22.0098C27.2298 21.6808 26.6917 21.5201 26.1558 21.5207C25.9472 21.5207 25.7367 21.5462 25.5319 21.5946C24.8507 21.7606 24.1957 22.0797 23.5301 22.5693C23.3216 22.7257 23.0641 22.8036 22.7679 22.8036C22.4064 22.8036 22.0154 22.6793 21.7474 22.4804C19.803 21.0311 18.1543 19.381 16.7049 17.4379C16.4211 17.0556 16.1943 16.2239 16.6147 15.6532C17.1064 14.9883 17.4242 14.3346 17.5894 13.6521C17.7673 12.9166 17.6313 12.1752 17.1756 11.3875C16.3258 9.90858 15.1483 8.77178 13.6773 8.0048C13.2008 7.75649 12.713 7.62944 12.2267 7.62944C11.416 7.62944 10.6564 7.98324 10.0313 8.6488C9.45678 9.26067 8.94869 9.90866 8.36301 10.6925C7.82629 11.4103 7.87078 12.2394 7.90868 12.9702L7.90998 12.9853C7.9761 13.9137 8.32258 15.0107 8.96967 16.3391C10.0634 18.5893 11.6168 20.7259 13.7187 22.8703C14.1508 23.3115 15.8722 25.0336 16.3141 25.4656C18.4597 27.568 20.5962 29.1215 22.8452 30.2153C24.1743 30.8619 25.2713 31.2084 26.1991 31.275L26.2147 31.2757C26.4056 31.2847 26.6095 31.2952 26.8083 31.2952C27.2823 31.2952 27.8896 31.2377 28.4375 30.8546L30.5144 32.901C27.5509 35.3251 23.8795 36.6529 20.0001 36.6529C10.818 36.6529 3.34751 29.1823 3.34751 20.0002C3.34751 10.818 10.8181 3.34738 20.0001 3.34738C29.1821 3.34738 36.6527 10.818 36.6527 20.0002C36.6527 20.9245 37.402 21.6738 38.3263 21.6738C39.2508 21.6738 40 20.9245 40 20.0002C39.9997 8.97235 31.0274 0 19.9998 0Z" fill="#E9773E"/>
</svg>
