<svg width="480" height="615" viewBox="0 0 480 615" fill="none" xmlns="http://www.w3.org/2000/svg">
<path d="M160.022 414.857V413.615C159.919 413.511 159.919 413.511 159.919 413.511C159.919 412.373 154.883 349.13 154.883 349.13L116.552 387.738L133.2 431.418H178.211L179.136 425.725L160.022 414.857Z" fill="#EEF4FE"/>
<path d="M228.978 58.4816L220.345 63.8639L217.571 76.1813L156.733 105.784L199.381 133.11L228.978 102.679V58.4816Z" fill="#EEF4FE"/>
<path d="M228.978 162.92V120.068L228.875 117.481L220.037 123.07L217.16 135.905L197.943 147.705L140.188 106.819L141.113 106.716L145.943 88.6022L167.01 65.4166L172.251 40.5748L183.247 32.8118V26.8084L170.812 30.4311L181.911 19.0453L177.492 3.0017L172.765 0L166.085 2.38065L165.571 7.34902L149.232 12.6279L142.552 9.31565L123.54 16.5612C120.149 14.8015 117.58 12.3174 113.777 13.3524C110.797 14.1805 108.947 16.9752 108.331 20.0804C107.098 19.6664 105.762 19.3558 104.323 19.3558C97.8487 19.3558 91.2717 25.9803 93.7381 31.9837C94.7658 34.5714 95.4852 36.2275 97.4377 40.4713L60.5448 98.5389L24.7823 276.985L60.442 332.879L44.9244 387.531L67.1218 431.108L73.3905 431.211H112.853L113.777 425.518L90.3468 412.373L88.5998 399.538L172.457 317.25L173.69 256.387L155.809 179.896L193.524 189.936L228.978 162.92Z" fill="#EEF4FE"/>
<path d="M812.384 414.854V413.612C812.487 413.509 812.487 413.509 812.487 413.509C812.487 412.37 817.523 349.127 817.523 349.127L855.854 387.735L839.206 431.415H794.195L793.27 425.722L812.384 414.854Z" fill="#EEF4FE"/>
<path d="M743.422 58.4773L752.054 63.8597L754.829 76.1771L815.666 105.78L773.018 133.106L743.422 102.675V58.4773Z" fill="#EEF4FE"/>
<path d="M743.422 162.92V120.068L743.525 117.481L752.362 123.07L755.24 135.905L774.457 147.705L832.211 106.819L831.287 106.716L826.456 88.6022L805.389 65.4165L800.148 40.5748L789.153 32.8118V26.8084L801.587 30.4311L790.488 19.0453L794.907 3.0017L799.635 0L806.314 2.38065L806.828 7.34902L823.168 12.6279L829.848 9.31565L848.859 16.5612C852.251 14.8015 854.82 12.3174 858.622 13.3524C861.602 14.1805 863.452 16.9752 864.069 20.0804C865.302 19.6664 866.638 19.3558 868.077 19.3558C874.551 19.3558 881.128 25.9803 878.662 31.9837C877.634 34.5714 876.915 36.2275 874.962 40.4713L911.855 98.5388L947.515 276.985L911.855 332.879L927.372 387.531L905.175 431.108L898.906 431.211H859.444L858.519 425.518L881.95 412.373L883.697 399.538L799.84 317.25L798.607 256.387L816.488 179.896L778.773 189.936L743.422 162.92Z" fill="#EEF4FE"/>
<path d="M795.12 442.466V475.651H905.521V442.466H795.12Z" fill="#EEF4FE"/>
<path d="M66.4793 442.466V475.651H176.879V442.466H66.4793Z" fill="#EEF4FE"/>
<path d="M722.659 371.276H722.865V58.8915L249.32 58.8915V371.276H249.834L249.423 371.69C314.371 459.154 386.923 533.783 468.725 592.575L486.195 574.151L503.665 592.575C585.467 533.783 658.019 459.154 722.967 371.69L722.659 371.276ZM486.298 573.84C410.559 522.604 340.371 451.495 275.012 363.41V84.6648H697.379V363.72C631.917 451.702 561.831 522.707 486.298 573.84Z" fill="#EEF4FE"/>
<path d="M489.18 241.996C466.366 241.996 447.56 261.041 447.663 283.916C447.766 307.102 466.469 325.836 489.488 325.836C512.302 325.836 531.006 306.895 531.006 283.916C530.903 260.834 512.2 241.996 489.18 241.996Z" fill="#EEF4FE"/>
<path d="M489.491 137.975C409.334 138.079 344.18 203.288 344.18 283.403C344.18 364.656 408.923 430.073 489.286 429.969C569.751 429.969 634.391 364.449 634.288 282.989C634.288 203.392 568.929 137.872 489.491 137.975ZM607.774 220.264C582.186 224.404 558.755 232.167 537.174 244.795C541.49 250.177 544.882 256.388 547.245 263.116C551.767 260.424 556.597 257.526 561.427 254.939C568.312 251.212 575.609 248.418 583.419 247.175C597.189 245.002 607.774 250.384 614.454 262.702C620.312 273.673 621.545 285.473 620.826 297.583C620.415 305.553 619.079 313.317 616.818 321.287C596.367 306.485 574.478 295.203 550.534 288.785C549.917 295.927 548.17 302.655 545.498 308.969C550.226 310.315 555.261 311.557 560.297 313.006C567.182 315.18 573.862 317.974 579.822 322.115C593.182 331.43 596.984 343.851 591.229 359.274C587.016 370.66 579.308 379.561 570.162 387.117C564.818 391.568 559.063 395.398 552.795 399.952C548.787 374.903 541.49 351.925 529.57 330.706C524.431 335.26 518.471 338.883 511.997 341.574C514.258 345.611 516.724 349.855 518.985 354.202C522.787 361.654 525.665 369.314 526.487 377.698C527.72 390.74 522.171 400.056 511.072 406.266C500.076 412.476 488.155 413.719 475.926 412.787C468.835 412.27 461.744 410.613 454.653 409.371C454.037 409.268 453.523 409.061 452.598 408.75C466.471 389.291 477.262 368.589 483.839 345.818C476.748 345.197 470.068 343.437 463.902 340.642C463.697 341.264 463.594 341.885 463.388 342.506C461.23 351.304 458.456 359.895 453.934 367.865C444.171 385.047 429.476 389.808 411.492 381.424C401.01 376.559 392.788 369.003 385.8 359.998C381.998 355.03 378.504 349.855 374.496 344.162C398.235 340.228 420.227 333.397 440.369 322.322C436.156 316.939 432.764 310.832 430.503 304.311C426.701 306.485 422.693 308.762 418.48 310.832C409.848 315.076 400.907 318.285 391.144 317.767C379.943 317.146 372.749 310.729 367.611 301.31C363.5 293.65 361.856 285.266 361.445 276.675C360.931 265.807 362.37 255.146 365.144 244.691C365.247 244.381 365.453 244.07 365.658 243.449C384.773 257.319 405.223 268.084 427.626 274.708C428.654 267.67 430.812 261.045 433.997 255.042C429.99 254.007 425.776 253.075 421.768 251.419C415.602 248.935 409.231 246.554 403.682 243.035C389.294 234.03 385.389 220.574 391.658 204.738C396.591 192.213 405.429 182.897 415.808 174.824C420.124 171.512 424.749 168.613 429.784 165.094C433.792 189.625 440.986 212.397 452.598 233.305C458.147 229.269 464.416 226.06 471.199 223.99C470.274 222.437 469.246 220.781 468.219 219.021C462.875 209.913 458.25 200.597 456.4 189.936C454.037 176.066 459.072 165.405 471.301 158.47C481.475 152.673 492.677 151.017 504.084 151.742C511.791 152.259 519.499 153.915 527.206 155.054C528.028 155.158 528.85 155.572 529.981 155.882C515.388 176.273 504.289 198.113 497.815 221.92C504.906 222.955 511.586 225.232 517.752 228.441C518.163 226.785 518.471 224.921 518.985 223.058C521.554 212.19 524.842 201.632 531.419 192.317C540.36 179.689 552.589 175.962 567.182 181.345C579.308 185.796 588.66 194.18 596.573 204.116C600.17 209.085 603.664 214.467 607.774 220.264Z" fill="#EEF4FE"/>
<path d="M292.486 100.297V355.65C354.146 437.834 419.402 503.458 486.405 550.657C553.306 503.458 618.459 438.041 680.016 355.96V100.297H292.486ZM489.488 443.527C402.137 443.631 330.818 372.314 330.715 284.644C330.715 195.731 401.212 124.311 489.18 124.311C576.839 124.207 647.645 195.524 647.747 283.816C647.953 372.004 577.147 443.424 489.488 443.527Z" fill="#EEF4FE"/>
<path d="M377.17 584.295L393.202 564.318C340.688 521.673 293.21 475.199 263.1 437.004L260.531 433.796L256.626 432.657C240.183 427.792 222.919 434.934 209.148 452.116C187.978 478.614 177.599 527.056 196.816 562.559L197.536 563.697C208.84 580.155 226.002 590.816 243.575 592.058C244.705 592.162 245.938 592.162 247.069 592.162C260.839 592.162 273.788 586.262 283.756 575.394L284.681 574.255C295.471 559.143 295.677 540.098 284.989 525.607C277.693 515.67 266.8 509.977 254.982 509.252L246.658 535.854C257.242 532.438 262.997 538.855 264.539 540.926C265.978 542.892 270.191 549.931 264.436 558.522C258.887 564.215 252.515 566.906 245.322 566.388C235.764 565.664 225.693 559.35 218.808 549.62C205.346 523.95 213.567 487.516 228.982 468.264C231.859 464.641 238.745 457.085 246.144 456.878C277.59 495.796 325.068 541.961 377.17 584.295Z" fill="#EEF4FE"/>
<path d="M763.253 452.116C749.483 434.934 732.115 427.792 715.776 432.657L711.87 433.796L709.301 437.004C679.088 475.199 631.713 521.673 579.2 564.318L595.231 584.295C647.334 541.961 694.811 495.796 726.155 456.878C733.554 457.085 740.439 464.641 743.317 468.264C758.732 487.516 766.953 524.054 753.49 549.62C746.708 559.246 736.534 565.664 726.977 566.388C719.783 566.906 713.412 564.215 707.863 558.522C702.108 549.931 706.321 542.892 707.76 540.926C709.199 538.959 714.234 533.37 723.483 535.233L715.365 509.356C704.266 510.495 694.195 516.187 687.309 525.503C676.725 539.994 676.827 559.039 687.618 574.151L688.543 575.29C698.511 586.158 711.459 592.058 725.23 592.058C726.36 592.058 727.594 592.058 728.724 591.955C746.297 590.713 763.459 580.051 774.763 563.594L775.482 562.455C794.802 527.159 784.423 478.614 763.253 452.116Z" fill="#EEF4FE"/>
<path d="M35.6468 784.393L35.6468 694.589H-3.5682L-4.15351 709.524C-4.41364 717.515 -4.9339 724.982 -5.7143 731.926C-6.36463 738.869 -7.34013 745.223 -8.64079 750.987C-9.81139 756.751 -11.4372 761.729 -13.5183 765.921C-15.4693 769.982 -17.8755 773.127 -20.7369 775.354L-61.9029 770.441C-57.3506 770.572 -53.6437 769.065 -50.7823 765.921C-47.7907 762.646 -45.4495 758.126 -43.7587 752.362C-41.9377 746.598 -40.6371 739.786 -39.8567 731.926C-38.9462 724.065 -38.2959 715.484 -37.9057 706.183L-36.3449 663.738H73.6911V784.393H35.6468ZM-66 829V770.441H92.2256V829H56.9126V801.292H-30.4919V829H-66Z" fill="#EEF4FE"/>
<path d="M98.3743 801.292L158.66 663.738H196.704L257.185 801.292H216.995L169.781 682.799H184.998L137.784 801.292H98.3743ZM131.346 774.568L141.296 745.878H208.02L217.97 774.568H131.346Z" fill="#EEF4FE"/>
<path d="M272.836 801.292V663.738H310.88V744.502L367.264 663.738H403.552V801.292H365.508V720.725L309.319 801.292H272.836ZM337.999 655.484C323.822 655.484 313.611 652.733 307.368 647.231C301.125 641.598 298.004 633.672 298.004 623.454H323.952C324.082 628.039 325.252 631.445 327.464 633.672C329.675 635.899 333.186 637.013 337.999 637.013C342.941 637.013 346.518 635.899 348.729 633.672C351.071 631.445 352.306 628.039 352.436 623.454H378.384C378.384 633.672 375.198 641.598 368.825 647.231C362.451 652.733 352.176 655.484 337.999 655.484Z" fill="#EEF4FE"/>
<path d="M422.538 663.541H466.825L491.213 700.877L515.405 663.541H560.278L515.405 729.371L564.18 801.292H518.722L491.213 760.616L463.899 801.292H419.416L467.996 731.14L422.538 663.541Z" fill="#EEF4FE"/>
<path d="M740.711 803.651C738.11 803.651 735.314 803.454 732.322 803.061C729.461 802.668 726.404 802.079 723.152 801.292L725.299 769.458C727.119 769.851 728.875 770.048 730.566 770.048C735.899 770.048 739.931 767.952 742.662 763.76C745.394 759.437 747.28 753.41 748.32 745.681C749.491 737.952 750.206 728.912 750.466 718.563L752.417 663.738H862.453V801.292H824.409V685.943L832.798 694.589H777.585L785.389 685.55L784.414 716.991C784.023 730.354 783.113 742.406 781.682 753.148C780.251 763.76 777.975 772.865 774.854 780.463C771.732 787.93 767.375 793.694 761.782 797.755C756.319 801.686 749.296 803.651 740.711 803.651Z" fill="#EEF4FE"/>
<path d="M981.421 784.393V694.589H942.206L941.621 709.524C941.361 717.515 940.841 724.982 940.06 731.926C939.41 738.869 938.434 745.223 937.134 750.987C935.963 756.751 934.337 761.729 932.256 765.921C930.305 769.982 927.899 773.127 925.038 775.354L883.872 770.441C888.424 770.572 892.131 769.065 894.992 765.921C897.984 762.646 900.325 758.126 902.016 752.362C903.837 746.598 905.137 739.786 905.918 731.926C906.828 724.065 907.479 715.484 907.869 706.183L909.43 663.738H1019.47V784.393H981.421ZM879.775 829V770.441H1038V829H1002.69V801.292H915.283V829H879.775Z" fill="#EEF4FE"/>
<path d="M641.813 723.135C636.892 723.135 632.839 727.217 632.839 732.174C632.839 737.131 636.892 741.213 641.813 741.213C646.734 741.213 650.787 737.131 650.787 732.174C650.787 727.217 646.734 723.135 641.813 723.135Z" fill="#EEF4FE"/>
<path d="M712.651 703.016C708.887 694.171 703.483 686.396 696.536 679.884C689.588 673.275 681.482 668.221 672.218 664.722C662.954 661.125 652.822 659.376 641.725 659.376C630.628 659.376 620.496 661.223 611.232 664.819C601.968 668.415 593.862 673.566 586.915 680.078C579.967 686.687 574.659 694.366 570.8 703.113C567.036 711.958 565.106 721.58 565.106 732.174C565.106 742.671 567.036 752.293 570.8 761.138C574.563 769.982 579.967 777.758 586.915 784.27C593.862 790.879 601.968 795.933 611.328 799.529C620.689 803.125 630.821 804.972 641.918 804.972C652.822 804.972 662.954 803.223 672.218 799.626C681.482 796.03 689.588 790.976 696.536 784.464C703.483 777.855 708.791 770.177 712.651 761.235C716.414 752.293 718.344 742.574 718.344 732.174C718.344 721.58 716.51 711.86 712.651 703.016ZM693.737 763.568L640.953 744.615L657.937 759.291C655.138 770.857 642.111 775.522 627.154 778.73C634.295 778.341 654.077 775.911 661.314 762.304L666.428 765.803C661.411 777.855 645.006 784.464 624.838 784.659C627.057 787.963 634.488 790.101 638.734 791.171C629.18 792.24 620.689 791.171 612.872 787.769L627.637 730.619L614.223 748.503C603.512 744.032 598.108 732.66 595.696 717.498C595.02 733.146 601.872 744.906 611.232 753.071L607.662 758.611C595.31 748.308 589.52 732.174 588.941 714.388C585.467 718.47 584.695 722.941 583.634 728.286C581.511 718.664 583.73 707.778 589.327 699.906L643.366 719.15L624.452 703.696C631.496 689.895 642.208 687.368 652.822 684.646C640.181 684.355 628.988 688.728 620.11 699.711L616.153 695.726C627.926 683.772 642.401 679.301 658.323 679.009C655.042 676.579 649.831 674.635 644.041 672.789C655.717 672.206 663.051 673.372 672.604 678.134C672.604 678.912 654.752 733.826 654.752 733.826L669.323 715.554C678.877 718.858 685.824 726.731 686.693 744.906C689.009 730.23 682.93 719.733 672.894 711.18L676.464 706.418C689.105 717.984 693.544 730.619 693.834 747.725C697.308 744.518 699.334 740.824 700.974 737.034C700.685 748.891 699.43 755.598 693.737 763.568Z" fill="#EEF4FE"/>
</svg>
