<svg width="249" height="276" viewBox="0 0 249 276" fill="none" xmlns="http://www.w3.org/2000/svg">
<path d="M101.955 187.161V186.601C101.909 186.554 101.909 186.554 101.909 186.554C101.909 186.04 99.6376 157.509 99.6376 157.509L82.3467 174.927L89.8564 194.633H110.16L110.578 192.064L101.955 187.161Z" fill="#EEF4FE"/>
<path d="M133.061 26.3837L129.167 28.812L127.915 34.3689L100.472 47.7242L119.71 60.0522L133.061 46.3233V26.3837Z" fill="#EEF4FE"/>
<path d="M133.061 73.5009V54.1684L133.014 53.0009L129.028 55.5226L127.73 61.313L119.061 66.6364L93.0088 48.1912L93.426 48.1445L95.6048 39.9725L105.108 29.5124L107.472 18.3052L112.432 14.8029V12.0945L106.823 13.7289L111.829 8.59222L109.836 1.35421L107.704 0L104.691 1.07402L104.459 3.31548L97.0882 5.69701L94.075 4.20272L85.4991 7.4715C83.9694 6.67765 82.8104 5.55692 81.0953 6.02389C79.7509 6.39747 78.9165 7.65828 78.6384 9.05919C78.0821 8.8724 77.4795 8.73231 76.8305 8.73231C73.91 8.73231 70.9432 11.7209 72.0558 14.4293C72.5193 15.5968 72.8438 16.3439 73.7246 18.2585L57.0827 44.4554L40.9507 124.961L57.0364 150.177L50.0365 174.833L60.0495 194.492L62.8772 194.539H80.6781L81.0953 191.971L70.526 186.04L69.738 180.25L107.565 143.126L108.121 115.668L100.055 81.1592L117.068 85.6887L133.061 73.5009Z" fill="#EEF4FE"/>
<path d="M396.228 187.16V186.599C396.274 186.553 396.274 186.553 396.274 186.553C396.274 186.039 398.546 157.507 398.546 157.507L415.836 174.925L408.327 194.631H388.023L387.605 192.063L396.228 187.16Z" fill="#EEF4FE"/>
<path d="M365.12 26.3818L369.014 28.81L370.265 34.367L397.708 47.7223L378.47 60.0503L365.12 46.3214V26.3818Z" fill="#EEF4FE"/>
<path d="M365.12 73.5009V54.1684L365.166 53.0009L369.153 55.5226L370.451 61.313L379.119 66.6364L405.171 48.1912L404.754 48.1445L402.576 39.9725L393.072 29.5124L390.708 18.3052L385.748 14.8029V12.0945L391.357 13.7289L386.351 8.59222L388.344 1.35421L390.477 0L393.49 1.07402L393.721 3.31548L401.092 5.69701L404.105 4.20272L412.681 7.4715C414.211 6.67765 415.37 5.55692 417.085 6.02389C418.429 6.39747 419.264 7.65828 419.542 9.05919C420.098 8.8724 420.701 8.7323 421.35 8.7323C424.27 8.7323 427.237 11.7209 426.125 14.4293C425.661 15.5967 425.336 16.3439 424.456 18.2585L441.098 44.4554L457.183 124.961L441.098 150.177L448.097 174.833L438.084 194.492L435.257 194.539H417.456L417.039 191.971L427.608 186.04L428.396 180.25L390.569 143.126L390.013 115.668L398.079 81.1591L381.066 85.6887L365.12 73.5009Z" fill="#EEF4FE"/>
<path d="M388.44 199.617V214.588H438.24V199.617H388.44Z" fill="#EEF4FE"/>
<path d="M59.7597 199.617V214.588H109.56V199.617H59.7597Z" fill="#EEF4FE"/>
<path d="M355.754 167.5H355.846V26.5687L142.237 26.5687V167.5H142.469L142.283 167.687C171.58 207.145 204.308 240.814 241.207 267.338L249.088 259.026L256.969 267.338C293.868 240.814 326.596 207.145 355.893 167.687L355.754 167.5ZM249.134 258.886C214.97 235.771 183.308 203.69 153.826 163.951V38.1962H344.35V164.091C314.821 203.783 283.206 235.817 249.134 258.886Z" fill="#EEF4FE"/>
<path d="M250.435 109.175C240.143 109.175 231.66 117.768 231.707 128.088C231.753 138.548 240.19 147 250.574 147C260.865 147 269.302 138.454 269.302 128.088C269.255 117.674 260.818 109.175 250.435 109.175Z" fill="#EEF4FE"/>
<path d="M250.575 62.247C214.417 62.2937 185.027 91.7128 185.027 127.856C185.027 164.513 214.231 194.026 250.482 193.979C286.779 193.979 315.937 164.42 315.891 127.669C315.891 91.7594 286.408 62.2003 250.575 62.247ZM303.931 99.371C292.388 101.239 281.819 104.741 272.084 110.438C274.031 112.866 275.561 115.668 276.627 118.704C278.667 117.489 280.845 116.182 283.024 115.014C286.13 113.333 289.421 112.073 292.944 111.512C299.156 110.532 303.931 112.96 306.944 118.517C309.586 123.467 310.143 128.79 309.818 134.254C309.633 137.849 309.03 141.352 308.01 144.947C298.785 138.27 288.911 133.18 278.11 130.284C277.832 133.506 277.044 136.542 275.839 139.39C277.971 139.997 280.243 140.558 282.514 141.211C285.62 142.192 288.633 143.453 291.322 145.321C297.348 149.523 299.063 155.127 296.467 162.085C294.567 167.222 291.09 171.237 286.964 174.646C284.554 176.654 281.958 178.382 279.13 180.437C277.322 169.136 274.031 158.769 268.654 149.197C266.336 151.251 263.647 152.886 260.727 154.1C261.747 155.921 262.859 157.835 263.879 159.797C265.594 163.159 266.892 166.615 267.263 170.397C267.819 176.281 265.316 180.483 260.31 183.285C255.349 186.087 249.972 186.647 244.456 186.227C241.257 185.994 238.059 185.247 234.86 184.686C234.582 184.639 234.35 184.546 233.933 184.406C240.191 175.627 245.058 166.288 248.025 156.014C244.827 155.734 241.813 154.94 239.032 153.679C238.939 153.96 238.893 154.24 238.8 154.52C237.827 158.489 236.575 162.365 234.535 165.961C230.132 173.712 223.503 175.86 215.39 172.078C210.662 169.883 206.953 166.474 203.801 162.412C202.086 160.17 200.51 157.835 198.702 155.267C209.41 153.493 219.331 150.411 228.416 145.414C226.516 142.986 224.986 140.231 223.966 137.289C222.251 138.27 220.443 139.297 218.543 140.231C214.649 142.145 210.616 143.593 206.212 143.359C201.159 143.079 197.914 140.184 195.596 135.935C193.742 132.479 193 128.697 192.815 124.821C192.583 119.918 193.232 115.108 194.484 110.391C194.53 110.251 194.623 110.111 194.715 109.831C203.338 116.088 212.563 120.945 222.668 123.934C223.132 120.758 224.105 117.77 225.542 115.061C223.734 114.594 221.834 114.174 220.026 113.427C217.245 112.306 214.37 111.232 211.867 109.644C205.377 105.582 203.616 99.5111 206.444 92.3665C208.669 86.7162 212.655 82.5135 217.337 78.8711C219.284 77.3768 221.37 76.0693 223.642 74.4816C225.45 85.5488 228.695 95.8221 233.933 105.255C236.436 103.434 239.264 101.986 242.323 101.052C241.906 100.352 241.443 99.6045 240.979 98.8107C238.568 94.7013 236.482 90.4986 235.648 85.6888C234.582 79.4315 236.853 74.6217 242.37 71.493C246.959 68.878 252.012 68.1308 257.157 68.4577C260.634 68.6912 264.111 69.4383 267.588 69.952C267.958 69.9987 268.329 70.1855 268.839 70.3256C262.257 79.5249 257.25 89.3779 254.33 100.118C257.528 100.585 260.541 101.612 263.323 103.06C263.508 102.313 263.647 101.472 263.879 100.632C265.038 95.7287 266.521 90.9656 269.488 86.7629C273.521 81.0659 279.038 79.3848 285.62 81.813C291.09 83.821 295.309 87.6034 298.878 92.0863C300.5 94.3278 302.077 96.756 303.931 99.371Z" fill="#EEF4FE"/>
<path d="M161.708 45.2487V160.45C189.522 197.527 218.958 227.133 249.183 248.427C279.361 227.133 308.751 197.621 336.518 160.59V45.2487H161.708ZM250.573 200.095C211.171 200.142 178.999 167.968 178.953 128.416C178.953 88.3032 210.753 56.0824 250.434 56.0824C289.976 56.0357 321.916 88.2098 321.962 128.042C322.055 167.828 290.115 200.049 250.573 200.095Z" fill="#EEF4FE"/>
<path d="M199.908 263.602L207.14 254.59C183.452 235.351 162.035 214.384 148.453 197.153L147.294 195.705L145.532 195.191C138.115 192.997 130.327 196.219 124.116 203.971C114.566 215.925 109.884 237.779 118.553 253.796L118.877 254.31C123.977 261.735 131.718 266.544 139.645 267.105C140.155 267.151 140.711 267.151 141.221 267.151C147.433 267.151 153.274 264.49 157.77 259.586L158.188 259.073C163.055 252.255 163.148 243.663 158.327 237.125C155.035 232.642 150.122 230.074 144.791 229.747L141.036 241.748C145.81 240.207 148.406 243.102 149.102 244.036C149.751 244.924 151.651 248.099 149.055 251.975C146.552 254.543 143.678 255.757 140.433 255.524C136.122 255.197 131.579 252.348 128.473 247.959C122.401 236.378 126.109 219.941 133.062 211.255C134.36 209.621 137.466 206.212 140.804 206.119C154.989 223.677 176.406 244.503 199.908 263.602Z" fill="#EEF4FE"/>
<path d="M374.065 203.971C367.854 196.219 360.019 192.997 352.649 195.191L350.887 195.705L349.728 197.153C336.1 214.384 314.729 235.351 291.041 254.59L298.273 263.602C321.775 244.503 343.192 223.677 357.331 206.119C360.668 206.212 363.774 209.621 365.072 211.255C372.026 219.941 375.734 236.425 369.661 247.959C366.602 252.302 362.013 255.197 357.702 255.524C354.457 255.757 351.583 254.543 349.079 251.975C346.483 248.099 348.384 244.924 349.033 244.036C349.682 243.149 351.953 240.628 356.125 241.468L352.463 229.794C347.457 230.308 342.914 232.876 339.808 237.079C335.033 243.616 335.08 252.208 339.947 259.026L340.364 259.54C344.861 264.443 350.702 267.105 356.914 267.105C357.423 267.105 357.98 267.105 358.49 267.058C366.417 266.498 374.158 261.688 379.257 254.263L379.582 253.749C388.297 237.826 383.615 215.925 374.065 203.971Z" fill="#EEF4FE"/>
<path d="M45.8515 353.876V313.361H28.1622L27.8981 320.099C27.7808 323.704 27.5461 327.073 27.1941 330.205C26.9007 333.338 26.4607 336.204 25.874 338.805C25.346 341.405 24.6126 343.651 23.6738 345.542C22.7938 347.374 21.7083 348.793 20.4176 349.798L1.84814 347.581C3.90163 347.64 5.57376 346.961 6.86453 345.542C8.21397 344.065 9.27005 342.026 10.0328 339.425C10.8542 336.825 11.4409 333.751 11.7929 330.205C12.2036 326.659 12.497 322.788 12.673 318.592L13.377 299.443H63.0128V353.876H45.8515ZM0 374L0 347.581H71.3735V374H55.4443V361.5H16.0172V374H0Z" fill="#EEF4FE"/>
<path d="M74.1471 361.5L101.341 299.443H118.502L145.785 361.5H127.655L106.358 308.042H113.222L91.9244 361.5H74.1471ZM89.0202 349.443L93.5086 336.5H123.607L128.095 349.443H89.0202Z" fill="#EEF4FE"/>
<path d="M152.844 361.5V299.443H170.006V335.879L195.44 299.443H211.809V361.5H194.648V325.152L169.302 361.5H152.844ZM182.239 295.719C175.843 295.719 171.238 294.478 168.422 291.996C165.605 289.454 164.197 285.879 164.197 281.269H175.902C175.961 283.337 176.489 284.874 177.486 285.879C178.484 286.883 180.068 287.386 182.239 287.386C184.468 287.386 186.082 286.883 187.079 285.879C188.135 284.874 188.692 283.337 188.751 281.269H200.456C200.456 285.879 199.019 289.454 196.144 291.996C193.269 294.478 188.634 295.719 182.239 295.719Z" fill="#EEF4FE"/>
<path d="M220.373 299.354H240.351L251.351 316.198L262.264 299.354H282.506L262.264 329.053L284.266 361.5H263.76L251.351 343.149L239.031 361.5H218.965L240.879 329.851L220.373 299.354Z" fill="#EEF4FE"/>
<path d="M363.897 362.564C362.724 362.564 361.462 362.475 360.113 362.298C358.822 362.12 357.443 361.854 355.976 361.5L356.944 347.138C357.766 347.315 358.558 347.404 359.321 347.404C361.726 347.404 363.545 346.458 364.777 344.567C366.009 342.617 366.86 339.898 367.329 336.411C367.857 332.924 368.18 328.846 368.297 324.177L369.177 299.443H418.813V361.5H401.652V309.46L405.436 313.361H380.53L384.051 309.283L383.61 323.468C383.434 329.496 383.024 334.933 382.378 339.78C381.733 344.567 380.706 348.675 379.298 352.103C377.89 355.471 375.925 358.072 373.402 359.904C370.938 361.677 367.769 362.564 363.897 362.564Z" fill="#EEF4FE"/>
<path d="M472.478 353.876V313.361H454.789L454.525 320.099C454.407 323.704 454.173 327.073 453.821 330.205C453.527 333.338 453.087 336.204 452.501 338.805C451.973 341.405 451.239 343.651 450.3 345.542C449.42 347.374 448.335 348.793 447.044 349.798L428.475 347.581C430.528 347.64 432.2 346.961 433.491 345.542C434.841 344.065 435.897 342.026 436.659 339.425C437.481 336.825 438.067 333.751 438.419 330.205C438.83 326.659 439.124 322.788 439.3 318.592L440.004 299.443H489.639V353.876H472.478ZM426.627 374V347.581H498V374H482.071V361.5H442.644V374H426.627Z" fill="#EEF4FE"/>
<path d="M319.285 326.239C317.065 326.239 315.237 328.081 315.237 330.317C315.237 332.554 317.065 334.395 319.285 334.395C321.505 334.395 323.333 332.554 323.333 330.317C323.333 328.081 321.505 326.239 319.285 326.239Z" fill="#EEF4FE"/>
<path d="M351.239 317.163C349.542 313.173 347.104 309.665 343.97 306.727C340.836 303.745 337.179 301.465 333.001 299.887C328.822 298.264 324.251 297.475 319.246 297.475C314.24 297.475 309.669 298.308 305.491 299.93C301.312 301.553 297.655 303.877 294.521 306.815C291.387 309.796 288.993 313.26 287.252 317.207C285.554 321.197 284.684 325.538 284.684 330.317C284.684 335.053 285.554 339.394 287.252 343.384C288.95 347.374 291.387 350.882 294.521 353.82C297.655 356.802 301.312 359.082 305.534 360.704C309.756 362.327 314.327 363.16 319.333 363.16C324.251 363.16 328.822 362.371 333.001 360.748C337.179 359.126 340.836 356.846 343.97 353.908C347.104 350.926 349.498 347.462 351.239 343.428C352.937 339.394 353.807 335.009 353.807 330.317C353.807 325.538 352.98 321.153 351.239 317.163ZM342.708 344.48L318.897 335.93L326.558 342.551C325.296 347.769 319.42 349.874 312.673 351.321C315.894 351.145 324.817 350.049 328.082 343.91L330.389 345.489C328.125 350.926 320.726 353.908 311.628 353.996C312.629 355.486 315.981 356.451 317.896 356.933C313.587 357.416 309.756 356.933 306.231 355.399L312.89 329.616L306.84 337.684C302.008 335.667 299.571 330.537 298.482 323.696C298.178 330.756 301.268 336.061 305.491 339.745L303.88 342.244C298.308 337.596 295.697 330.317 295.435 322.293C293.868 324.135 293.52 326.152 293.041 328.563C292.084 324.222 293.085 319.311 295.609 315.76L319.986 324.442L311.454 317.47C314.632 311.243 319.463 310.103 324.251 308.875C318.549 308.744 313.5 310.717 309.495 315.672L307.71 313.874C313.021 308.481 319.55 306.464 326.733 306.332C325.253 305.236 322.902 304.359 320.29 303.526C325.557 303.263 328.865 303.789 333.175 305.938C333.175 306.288 325.122 331.063 325.122 331.063L331.695 322.819C336.004 324.31 339.138 327.862 339.53 336.061C340.575 329.44 337.832 324.705 333.305 320.846L334.916 318.697C340.618 323.915 342.62 329.616 342.751 337.333C344.318 335.886 345.232 334.22 345.972 332.51C345.842 337.859 345.276 340.885 342.708 344.48Z" fill="#EEF4FE"/>
</svg>
