<svg width="343" height="274" viewBox="0 0 343 274" fill="none" xmlns="http://www.w3.org/2000/svg">
<g opacity="0.3">
<path d="M90.6244 231.082L90.4612 230.473C90.3971 230.436 90.3971 230.436 90.3971 230.436C90.2475 229.878 79.4624 199.53 79.4624 199.53L65.6907 223.511L79.6143 242.736L101.743 236.807L101.449 233.894L90.6244 231.082Z" fill="white"/>
<path d="M77.7 47.2481L74.1634 51.0245L74.4177 57.4299L48.3986 79.9599L72.9554 87.7414L83.5072 68.9206L77.7 47.2481Z" fill="white"/>
<path d="M91.4224 98.4603L85.792 77.4475L85.4015 76.1922L81.791 80.0972L82.0628 86.7699L74.1657 95.0874L40.4007 82.6469L40.8418 82.4744L40.8364 72.9559L48.1469 58.8116L47.4595 45.9399L51.8453 40.6847L51.0565 37.7409L45.4194 41.1554L49.3797 34.1103L45.0993 26.8253L42.381 25.9761L39.4099 28.0234L39.81 30.5273L32.4707 35.2682L28.7516 34.524L20.3572 40.5813C18.4588 40.1651 16.8693 39.2854 15.136 40.2939C13.7797 41.0925 13.2375 42.7066 13.3424 44.3104C12.6817 44.2699 11.9842 44.2936 11.2769 44.4831C8.09402 45.3359 5.73105 49.4507 7.73236 52.0696C8.57757 53.2031 9.14882 53.9204 10.6663 55.7442L0.158651 89.0778L6.02338 181.291L30.8982 204.002L30.4502 232.845L47.0884 251.289L50.1838 250.514L69.584 245.315L69.2907 242.402L56.0447 239.042L53.4994 232.979L83.913 181.582L76.5225 151.575L57.6815 116.423L77.542 116.378L91.4224 98.4603Z" fill="white"/>
<path d="M411.337 145.146L411.173 144.537C411.21 144.473 411.21 144.473 411.21 144.473C411.061 143.915 405.227 112.24 405.227 112.24L429.144 126.122L426.699 149.734L404.57 155.663L403.368 152.994L411.337 145.146Z" fill="white"/>
<path d="M330.609 -20.5209L335.56 -19.0188L338.542 -13.3444L372.341 -6.84233L354.965 12.1751L336.416 1.15164L330.609 -20.5209Z" fill="white"/>
<path d="M344.332 30.6934L338.701 9.68063L338.412 8.3982L343.491 9.9748L346.592 15.8894L357.59 19.1441L380.611 -8.51218L380.143 -8.4411L375.388 -16.687L361.985 -25.2811L356.145 -36.772L349.719 -39.1302L348.93 -42.074L355.519 -41.9356L348.567 -46.0567L348.631 -54.5058L350.561 -56.6005L354.157 -56.313L355.063 -53.9444L363.789 -53.5083L366.638 -56.0124L376.937 -54.9639C378.373 -56.2735 379.309 -57.83 381.314 -57.8233C382.888 -57.8099 384.165 -56.6832 384.876 -55.2417C385.428 -55.6072 386.044 -55.9354 386.751 -56.125C389.934 -56.9778 394.038 -54.5958 393.614 -51.3271C393.449 -49.9229 393.313 -49.016 392.911 -46.6778L418.677 -23.0639L459.654 59.741L449.467 91.8463L464.277 116.601L459.09 140.893L456.022 141.77L436.621 146.968L435.419 144.298L445.21 134.766L444.383 128.242L392.345 98.9377L383.742 69.256L382.483 29.3923L365.261 39.2837L344.332 30.6934Z" fill="white"/>
<path d="M406.477 160.96L410.838 177.232L465.112 162.69L460.752 146.417L406.477 160.96Z" fill="white"/>
<path d="M48.2649 256.943L52.6251 273.215L106.9 258.672L102.539 242.4L48.2649 256.943Z" fill="white"/>
<path d="M361.5 135.597L361.601 135.57L320.557 -17.6098L87.7545 44.7694L128.799 197.949L129.052 197.882L128.904 198.139C172.325 232.472 217.799 259.509 265.739 277.562L271.906 266.227L282.916 272.96C315.406 233.355 341.269 187.203 361.706 135.759L361.5 135.597ZM271.916 266.061C227.95 250.914 184.101 225.291 140.396 190.708L103.771 54.0232L311.414 -1.61453L348.079 135.222C327.457 186.987 302.331 231.038 271.916 266.061Z" fill="white"/>
<path d="M229.732 102.959C218.516 105.964 211.773 117.781 214.829 128.984C217.926 140.34 229.583 147.063 240.899 144.03C252.115 141.025 258.821 129.273 255.802 118.006C252.719 106.701 241.049 99.9269 229.732 102.959Z" fill="white"/>
<path d="M216.218 51.9113C176.824 62.5211 153.362 103.08 163.888 142.364C174.564 182.207 214.988 205.756 254.482 195.119C294.04 184.52 317.209 143.877 306.456 103.946C295.997 64.9149 255.257 41.3963 216.218 51.9113ZM285.18 76.6806C273.144 82.0816 262.645 88.9747 253.695 98.0096C256.524 100.08 259.007 102.679 261.053 105.667C262.922 103.751 264.916 101.694 266.95 99.7889C269.846 97.0547 273.066 94.7232 276.742 93.0853C283.226 90.2055 289.137 91.4504 294.039 96.6104C298.361 101.219 300.517 106.842 301.755 112.876C302.6 116.838 302.963 120.821 302.899 125.027C290.9 120.462 278.657 117.814 266.042 117.821C266.678 121.404 266.703 124.933 266.219 128.381C268.719 128.419 271.358 128.364 274.024 128.412C277.695 128.57 281.346 129.061 284.82 130.306C292.612 133.114 296.113 138.704 295.31 147.025C294.735 153.163 292.115 158.543 288.612 163.453C286.569 166.339 284.243 168.975 281.76 172.034C276.498 160.279 269.892 149.973 261.244 141.138C259.316 144.048 256.862 146.61 254.033 148.783C255.675 150.464 257.445 152.22 259.127 154.054C261.976 157.208 264.397 160.585 265.903 164.587C268.222 170.82 266.718 176.119 262.078 180.626C257.488 185.12 251.791 187.3 245.656 188.454C242.102 189.134 238.399 189.256 234.75 189.581C234.433 189.612 234.153 189.578 233.658 189.547C237.921 178.178 240.506 166.605 240.747 154.573C237.18 155.202 233.665 155.219 230.266 154.661C230.247 154.993 230.278 155.311 230.258 155.642C230.353 160.241 230.118 164.819 228.942 169.323C226.4 179.034 219.802 183.305 209.859 181.563C204.066 180.558 199.032 177.936 194.413 174.441C191.891 172.505 189.493 170.428 186.775 168.164C197.929 163.108 207.843 156.862 216.29 148.777C213.511 146.693 211.041 144.145 209.073 141.246C207.49 142.812 205.818 144.457 204.019 146.027C200.333 149.245 196.359 151.996 191.492 153.028C185.903 154.2 181.523 152 177.76 148.058C174.732 144.844 172.823 140.949 171.492 136.791C169.811 131.529 169.118 126.112 169.108 120.62C169.118 120.454 169.178 120.275 169.198 119.943C180.417 124.227 191.885 126.811 203.769 127.109C203.35 123.522 203.54 119.989 204.317 116.626C202.211 116.646 200.017 116.744 197.829 116.46C194.472 116.054 191.027 115.726 187.836 114.732C179.58 112.211 175.892 106.127 176.893 97.536C177.673 90.7448 180.793 85.0126 184.835 79.6864C186.522 77.4937 188.415 75.4633 190.428 73.0743C195.621 84.5754 202.15 94.794 210.606 103.517C212.804 100.806 215.464 98.4072 218.526 96.4987C217.868 95.8592 217.145 95.1825 216.408 94.455C212.584 90.6925 209.087 86.7336 206.777 81.7495C203.792 75.2596 204.867 69.3685 209.968 64.357C214.208 60.1745 219.497 57.8868 225.2 56.7395C229.057 55.978 233.064 55.7748 237.003 55.3178C237.421 55.2603 237.879 55.355 238.476 55.3584C233.981 67.2795 231.394 79.4509 231.339 91.9774C234.961 91.5509 238.544 91.7876 241.997 92.5488C241.982 91.6826 241.888 90.7283 241.896 89.7471C241.731 84.0793 241.961 78.4691 243.97 73.0347C246.706 65.6649 252.229 62.2267 260.11 62.9437C266.656 63.5288 272.355 66.4081 277.551 70.2383C279.972 72.2007 282.397 74.3798 285.18 76.6806Z" fill="white"/>
<path d="M114.416 59.3868L147.967 184.6C189.078 216.778 229.782 240.361 268.923 254.679C295.611 222.722 319.046 182.062 338.524 133.704L304.932 8.33812L114.416 59.3868ZM256.363 201.741C213.433 213.298 169.001 187.723 157.431 144.746C145.749 101.147 171.023 56.8397 214.269 45.2519C257.35 33.6539 301.53 59.2973 313.181 102.578C324.869 145.795 299.444 190.143 256.363 201.741Z" fill="white"/>
<path d="M219.641 285.563L224.897 273.655C193.478 259.661 164.031 243.126 144.209 228.364L142.525 227.129L140.455 227.085C131.733 226.866 124.184 232.642 119.671 242.881C112.745 258.663 114.008 283.784 128.12 298.662L128.623 299.125C136.343 305.706 146.181 308.674 154.983 306.968C155.552 306.87 156.159 306.707 156.714 306.558C163.484 304.744 169.075 300.146 172.547 293.503L172.852 292.823C176.172 283.991 173.77 274.625 166.612 268.927C161.719 265.016 155.616 263.659 149.711 264.861L149.114 279.001C153.869 275.932 157.541 278.321 158.571 279.133C159.537 279.908 162.533 282.804 160.832 287.775C158.852 291.298 156.074 293.457 152.469 294.15C147.675 295.054 141.895 293.285 137.231 289.421C127.24 278.607 126.495 259.658 131.544 248.187C132.482 246.031 134.874 241.419 138.485 240.343C159.058 255.284 188.464 271.667 219.641 285.563Z" fill="white"/>
<path d="M392.079 169.89C383.051 163.279 373.575 162.064 366.181 166.602L364.411 167.675L363.57 169.587C353.735 192.295 336.551 221.325 316.337 249.154L326.843 256.838C346.895 229.216 364.171 200.325 374.466 177.112C378.131 176.239 382.509 179.037 384.399 180.434C394.507 187.844 403.35 204.678 400.09 218.988C398.021 224.601 393.862 229.088 389.259 230.703C385.791 231.904 382.305 231.424 378.829 229.363C374.871 225.908 376.017 221.902 376.466 220.748C376.915 219.594 378.656 216.19 383.448 215.885L376.057 204.266C370.75 206.286 366.547 210.405 364.386 215.88C361.086 224.38 363.639 233.705 370.929 239.694L371.534 240.13C377.862 244.147 385.003 245.334 391.773 243.52C392.329 243.371 392.935 243.209 393.477 243.009C401.953 240.085 408.989 232.597 412.384 223.037L412.588 222.384C417.449 202.532 405.968 180.095 392.079 169.89Z" fill="white"/>
<path d="M78.0331 428.67L66.2337 384.634L46.955 389.8L48.6295 397.201C49.5516 401.153 50.2769 404.884 50.8056 408.391C51.3981 411.881 51.7534 415.125 51.8713 418.123C52.0532 421.104 51.908 423.759 51.4357 426.089C51.0102 428.337 50.2403 430.196 49.1262 431.665L28.2428 434.679C30.498 434.143 32.1225 432.916 33.1161 430.998C34.1565 428.998 34.7136 426.473 34.7875 423.424C34.9253 420.357 34.6697 416.846 34.0206 412.889C33.4354 408.914 32.6277 404.621 31.5974 400.009L26.7878 378.99L80.8834 364.495L96.7363 423.659L78.0331 428.67ZM33.9227 463.933L26.2286 435.219L104.015 414.376L111.709 443.091L94.3487 447.742L90.7082 434.156L47.7386 445.669L51.3791 459.256L33.9227 463.933Z" fill="white"/>
<path d="M111.091 428.694L122.655 353.302L141.359 348.29L189.166 407.774L169.407 413.068L130.627 361.184L138.108 359.179L130.466 423.503L111.091 428.694ZM123.79 411.246L124.912 395.867L157.714 387.078L166.375 399.835L123.79 411.246Z" fill="white"/>
<path d="M196.86 405.713L178.786 338.262L197.49 333.25L208.101 372.853L225.209 325.823L243.049 321.043L261.122 388.493L242.419 393.505L231.833 353.998L214.796 400.907L196.86 405.713ZM209.737 325.631C202.767 327.498 197.386 327.494 193.594 325.619C189.785 323.679 187.209 320.204 185.866 315.193L198.623 311.775C199.289 314.006 200.312 315.522 201.692 316.323C203.072 317.124 204.944 317.207 207.31 316.573C209.74 315.922 211.352 314.905 212.147 313.522C213.005 312.121 213.165 310.288 212.626 308.023L225.383 304.604C226.726 309.615 226.2 313.921 223.807 317.523C221.397 321.061 216.707 323.763 209.737 325.631Z" fill="white"/>
<path d="M252.357 318.445L274.129 312.611L291.024 327.707L298.012 306.212L320.072 300.301L306.661 338.492L340.09 367.334L317.741 373.322L298.873 357L290.79 380.544L268.921 386.404L283.586 345.604L252.357 318.445Z" fill="white"/>
<path d="M427.185 345.236C425.906 345.579 424.506 345.851 422.983 346.052C421.525 346.237 419.945 346.35 418.243 346.393L415.115 330.5C416.062 330.453 416.951 330.318 417.783 330.095C420.404 329.393 422.111 327.834 422.903 325.419C423.678 322.939 423.813 319.736 423.309 315.808C422.869 311.864 422.033 307.337 420.801 302.228L414.557 275.087L468.652 260.592L486.726 328.043L468.023 333.055L452.867 276.492L458.127 279.627L430.983 286.9L433.632 281.44L437.284 296.985C438.848 303.589 439.984 309.619 440.692 315.075C441.382 320.467 441.46 325.231 440.923 329.369C440.37 333.441 438.985 336.842 436.769 339.57C434.6 342.217 431.405 344.106 427.185 345.236Z" fill="white"/>
<path d="M542.992 304.085L531.193 260.049L511.914 265.215L513.588 272.615C514.511 276.568 515.236 280.298 515.764 283.806C516.357 287.296 516.712 290.54 516.83 293.538C517.012 296.519 516.867 299.174 516.395 301.504C515.969 303.752 515.199 305.611 514.085 307.08L493.202 310.094C495.457 309.558 497.081 308.331 498.075 306.412C499.115 304.412 499.673 301.888 499.746 298.838C499.884 295.772 499.629 292.26 498.98 288.303C498.394 284.329 497.587 280.036 496.556 275.423L491.747 254.404L545.842 239.909L561.695 299.073L542.992 304.085ZM498.882 339.348L491.188 310.633L568.974 289.79L576.668 318.505L559.308 323.157L555.667 309.57L512.698 321.084L516.338 334.671L498.882 339.348Z" fill="white"/>
<path d="M367.986 318.783C365.567 319.431 364.11 321.967 364.762 324.397C365.413 326.828 367.942 328.296 370.361 327.647C372.781 326.999 374.237 324.464 373.586 322.033C372.934 319.602 370.405 318.135 367.986 318.783Z" fill="white"/>
<path d="M400.168 299.586C397.155 295.745 393.477 292.644 389.206 290.366C384.922 288.04 380.273 286.63 375.259 286.134C370.232 285.591 365.021 286.068 359.566 287.53C354.11 288.992 349.371 291.232 345.29 294.215C341.208 297.199 337.9 300.793 335.34 304.901C332.793 309.057 331.192 313.522 330.444 318.319C329.756 323.152 330.071 328.125 331.463 333.32C332.843 338.467 335.056 342.931 338.068 346.772C341.08 350.613 344.758 353.714 349.03 355.992C353.314 358.318 357.963 359.728 363.037 360.259C368.111 360.789 373.335 360.36 378.79 358.898C384.151 357.462 388.902 355.269 392.984 352.286C397.066 349.302 400.387 345.756 402.947 341.647C405.494 337.491 407.094 333.027 407.817 328.134C408.492 323.254 408.164 318.233 406.798 313.134C405.406 307.939 403.227 303.414 400.168 299.586ZM398.825 331.769L370.386 329.429L380.663 334.388C380.807 340.428 375.016 344.432 368.084 347.975C371.544 346.844 380.949 343.046 382.72 335.421L385.694 336.463C384.81 343.033 377.614 348.435 367.725 351.187C369.25 352.515 373.184 352.585 375.411 352.55C370.855 354.333 366.54 354.927 362.251 354.289L362 324.32L357.756 334.856C351.902 334.075 347.752 329.211 344.573 322.093C346.297 329.856 351.211 334.72 356.885 337.49L355.858 340.677C348.432 337.252 343.466 330.104 340.844 321.458C339.673 323.917 339.88 326.211 340.061 328.973C337.753 324.534 337.414 318.904 339.131 314.306L368.226 316.624L356.897 311.538C358.547 303.842 363.481 301.192 368.341 298.459C362.088 299.982 357.16 303.601 354.239 310.156L351.77 308.723C355.987 301.31 362.516 297.211 370.305 294.971C368.373 294.211 365.555 293.945 362.466 293.802C368.13 291.978 371.889 291.583 377.211 292.66C377.313 293.042 375.752 322.321 375.752 322.321L380.515 311.441C385.645 311.803 390.095 314.749 392.91 323.547C392.121 316.045 387.753 311.698 381.695 308.826L382.825 306.021C390.559 310.027 394.401 315.638 396.791 323.988C398.078 321.958 398.589 319.88 398.897 317.805C400.313 323.657 400.577 327.111 398.825 331.769Z" fill="white"/>
</g>
</svg>
