<svg width="40" height="40" viewBox="0 0 40 40" fill="none" xmlns="http://www.w3.org/2000/svg">
<rect width="40" height="40" rx="10" fill="white"/>
<path fill-rule="evenodd" clip-rule="evenodd" d="M20.332 11.3333C17.3536 11.3333 14.932 13.7954 14.932 16.8324C14.932 17.8611 15.3816 19.1373 16.036 20.4103C17.4768 23.2134 19.8768 26.0368 19.8768 26.0368C19.9332 26.1029 20.003 26.1559 20.0816 26.1923C20.1601 26.2287 20.2456 26.2475 20.332 26.2475C20.4185 26.2475 20.5039 26.2287 20.5825 26.1923C20.6611 26.1559 20.7309 26.1029 20.7872 26.0368C20.7872 26.0368 23.1872 23.2134 24.628 20.4103C25.2824 19.1373 25.732 17.8611 25.732 16.8324C25.732 13.7954 23.3104 11.3333 20.332 11.3333ZM20.332 14.5581C19.7588 14.5736 19.2143 14.8141 18.8143 15.2281C18.4144 15.6422 18.1906 16.1973 18.1906 16.7751C18.1906 17.353 18.4144 17.908 18.8143 18.3221C19.2143 18.7362 19.7588 18.9766 20.332 18.9922C20.9052 18.9766 21.4498 18.7362 21.8497 18.3221C22.2497 17.908 22.4735 17.353 22.4735 16.7751C22.4735 16.1973 22.2497 15.6422 21.8497 15.2281C21.4498 14.8141 20.9052 14.5736 20.332 14.5581Z" fill="#00519B"/>
<path fill-rule="evenodd" clip-rule="evenodd" d="M24.1592 24.3349C24.8096 24.5316 25.3456 24.7751 25.716 25.0604C25.956 25.2443 26.132 25.424 26.132 25.6433C26.132 25.7723 26.0592 25.8892 25.9568 26.0061C25.7872 26.1988 25.5352 26.3721 25.2232 26.5334C24.1208 27.1017 22.3384 27.4573 20.332 27.4573C18.3256 27.4573 16.5432 27.1017 15.4408 26.5334C15.1288 26.3721 14.8768 26.1988 14.7072 26.0061C14.6048 25.8892 14.532 25.7723 14.532 25.6433C14.532 25.424 14.708 25.2443 14.948 25.0604C15.3184 24.7751 15.8544 24.5316 16.5048 24.3349C16.6573 24.2887 16.7853 24.1834 16.8607 24.0421C16.9361 23.9008 16.9527 23.7351 16.9068 23.5815C16.861 23.4278 16.7565 23.2989 16.6163 23.2229C16.4761 23.1469 16.3117 23.1302 16.1592 23.1764C15.1688 23.4771 14.3992 23.889 13.9368 24.3445C13.5304 24.7436 13.332 25.1902 13.332 25.6433C13.332 26.2093 13.6496 26.7736 14.2952 27.2444C15.428 28.07 17.7032 28.6666 20.332 28.6666C22.9608 28.6666 25.236 28.07 26.3688 27.2444C27.0144 26.7736 27.332 26.2093 27.332 25.6433C27.332 25.1902 27.1336 24.7436 26.7272 24.3445C26.2648 23.889 25.4952 23.4771 24.5048 23.1764C24.4293 23.1535 24.3501 23.1458 24.2717 23.1538C24.1933 23.1618 24.1172 23.1853 24.0478 23.2229C23.9784 23.2605 23.917 23.3115 23.8671 23.3731C23.8173 23.4346 23.7799 23.5054 23.7572 23.5815C23.7345 23.6575 23.7269 23.7374 23.7349 23.8164C23.7428 23.8954 23.7661 23.9721 23.8034 24.0421C23.8407 24.112 23.8914 24.1739 23.9524 24.2241C24.0135 24.2744 24.0837 24.312 24.1592 24.3349Z" fill="#00519B"/>
</svg>
