<svg width="40" height="40" viewBox="0 0 40 40" fill="none" xmlns="http://www.w3.org/2000/svg">
<rect width="40" height="40" rx="10" fill="white"/>
<path d="M24.4537 18.144C25.4517 16.5328 26.0013 14.4072 26.0013 12.1587V11.5625C26.0013 11.5324 25.9955 11.5026 25.9842 11.4748C25.9729 11.447 25.9563 11.4217 25.9355 11.4004C25.9146 11.3791 25.8898 11.3622 25.8625 11.3507C25.8353 11.3392 25.806 11.3333 25.7765 11.3333H14.8929C14.8332 11.3333 14.776 11.3574 14.7339 11.4004C14.6917 11.4434 14.668 11.5017 14.668 11.5625V12.1587C14.668 14.407 15.2177 16.5326 16.2157 18.1441C16.7013 18.928 17.2677 19.5517 17.8893 19.9999C17.2677 20.4482 16.7013 21.0717 16.2156 21.8557C15.2176 23.4671 14.668 25.5927 14.668 27.8411V28.4373C14.668 28.4981 14.6917 28.5564 14.7338 28.5994C14.776 28.6424 14.8332 28.6666 14.8928 28.6666H25.7765C25.806 28.6666 25.8353 28.6607 25.8625 28.6491C25.8898 28.6376 25.9146 28.6207 25.9355 28.5994C25.9564 28.5781 25.9729 28.5529 25.9842 28.525C25.9955 28.4972 26.0013 28.4674 26.0013 28.4373V27.8411C26.0013 25.5927 25.4517 23.4671 24.4537 21.8557C23.9681 21.0717 23.4017 20.4481 22.7801 19.9999C23.4017 19.5517 23.9681 18.928 24.4537 18.144ZM17.8189 22.3856C18.5433 21.3759 19.4256 20.8253 20.3347 20.8253C21.2438 20.8253 22.1261 21.3758 22.8503 22.3856H17.8189ZM24.354 12.9842C24.2418 14.6053 23.7945 16.1167 23.0847 17.2625C22.3211 18.4955 21.3444 19.1745 20.3347 19.1745C19.3251 19.1745 18.3484 18.4954 17.5846 17.2625C16.8748 16.1165 16.4275 14.6051 16.3153 12.9842H24.354Z" fill="#00519B"/>
</svg>
