<svg width="60" height="60" viewBox="0 0 60 60" fill="none" xmlns="http://www.w3.org/2000/svg">
<rect width="60" height="60" rx="20" fill="#EEF4FE"/>
<path d="M36.6786 27.2162C38.1757 24.7994 39 21.6109 39 18.2381V17.3439C39 17.2987 38.9913 17.254 38.9743 17.2123C38.9574 17.1706 38.9326 17.1327 38.9012 17.1007C38.8699 17.0688 38.8328 17.0435 38.7918 17.0262C38.7509 17.0089 38.7071 17 38.6628 17H22.3373C22.2479 17 22.1621 17.0362 22.0988 17.1007C22.0356 17.1652 22 17.2527 22 17.3439V18.2382C22 21.6107 22.8246 24.7991 24.3216 27.2162C25.05 28.3922 25.8995 29.3277 26.8319 29.9999C25.8995 30.6724 25.05 31.6077 24.3214 32.7837C22.8244 35.2007 22 38.3892 22 41.7618V42.6561C22 42.7473 22.0355 42.8348 22.0988 42.8993C22.162 42.9638 22.2478 43 22.3373 43H38.6628C38.7071 43 38.7509 42.9911 38.7919 42.9738C38.8328 42.9565 38.8699 42.9312 38.9013 42.8993C38.9326 42.8673 38.9574 42.8294 38.9744 42.7877C38.9913 42.746 39 42.7013 39 42.6561V41.7618C39 38.3892 38.1756 35.2008 36.6786 32.7837C35.9501 31.6077 35.1006 30.6723 34.1681 29.9999C35.1006 29.3277 35.9501 28.3922 36.6786 27.2162ZM26.7264 33.5785C27.8129 32.064 29.1365 31.2381 30.5001 31.2381C31.8638 31.2381 33.1873 32.0638 34.2735 33.5785H26.7264ZM36.529 19.4764C36.3608 21.9081 35.6898 24.1752 34.6251 25.8938C33.4797 27.7434 32.0147 28.7618 30.5001 28.7618C28.9857 28.7618 27.5206 27.7433 26.3749 25.8938C25.3102 24.1749 24.6392 21.9078 24.471 19.4764H36.529Z" fill="#00519B"/>
</svg>
