<svg width="60" height="60" viewBox="0 0 60 60" fill="none" xmlns="http://www.w3.org/2000/svg">
<rect width="60" height="60" rx="20" fill="#EEF4FE"/>
<path fill-rule="evenodd" clip-rule="evenodd" d="M30.5 17C26.0324 17 22.4 20.6932 22.4 25.2487C22.4 26.7917 23.0744 28.706 24.056 30.6155C26.2172 34.8203 29.8172 39.0553 29.8172 39.0553C29.9017 39.1544 30.0064 39.234 30.1243 39.2886C30.2422 39.3431 30.3703 39.3714 30.5 39.3714C30.6297 39.3714 30.7578 39.3431 30.8757 39.2886C30.9936 39.234 31.0983 39.1544 31.1828 39.0553C31.1828 39.0553 34.7828 34.8203 36.944 30.6155C37.9256 28.706 38.6 26.7917 38.6 25.2487C38.6 20.6932 34.9676 17 30.5 17ZM30.5 21.8372C29.6402 21.8606 28.8234 22.2212 28.2234 22.8423C27.6235 23.4634 27.2878 24.296 27.2878 25.1628C27.2878 26.0296 27.6235 26.8621 28.2234 27.4833C28.8234 28.1044 29.6402 28.465 30.5 28.4884C31.3598 28.465 32.1766 28.1044 32.7766 27.4833C33.3765 26.8621 33.7122 26.0296 33.7122 25.1628C33.7122 24.296 33.3765 23.4634 32.7766 22.8423C32.1766 22.2212 31.3598 21.8606 30.5 21.8372Z" fill="#00519B"/>
<path fill-rule="evenodd" clip-rule="evenodd" d="M36.2408 36.5024C37.2164 36.7975 38.0204 37.1627 38.576 37.5908C38.936 37.8665 39.2 38.1362 39.2 38.4651C39.2 38.6586 39.0908 38.834 38.9372 39.0093C38.6828 39.2983 38.3048 39.5583 37.8368 39.8002C36.1832 40.6527 33.5096 41.186 30.5 41.186C27.4904 41.186 24.8168 40.6527 23.1632 39.8002C22.6952 39.5583 22.3172 39.2983 22.0628 39.0093C21.9092 38.834 21.8 38.6586 21.8 38.4651C21.8 38.1362 22.064 37.8665 22.424 37.5908C22.9796 37.1627 23.7836 36.7975 24.7592 36.5024C24.9879 36.4331 25.1799 36.2752 25.2929 36.0632C25.406 35.8513 25.4309 35.6028 25.3622 35.3723C25.2935 35.1419 25.1367 34.9484 24.9264 34.8344C24.7161 34.7205 24.4695 34.6954 24.2408 34.7647C22.7552 35.2157 21.6008 35.8337 20.9072 36.5169C20.2976 37.1155 20 37.7855 20 38.4651C20 39.314 20.4764 40.1606 21.4448 40.8668C23.144 42.1051 26.5568 43 30.5 43C34.4432 43 37.856 42.1051 39.5552 40.8668C40.5236 40.1606 41 39.314 41 38.4651C41 37.7855 40.7024 37.1155 40.0928 36.5169C39.3992 35.8337 38.2448 35.2157 36.7592 34.7647C36.646 34.7303 36.5272 34.7189 36.4095 34.7308C36.2919 34.7428 36.1777 34.778 36.0736 34.8344C35.9695 34.8909 35.8774 34.9674 35.8026 35.0597C35.7278 35.152 35.6718 35.2582 35.6378 35.3723C35.6038 35.4864 35.5924 35.6062 35.6042 35.7247C35.6161 35.8433 35.6511 35.9583 35.7071 36.0632C35.763 36.1682 35.839 36.261 35.9306 36.3363C36.0222 36.4117 36.1276 36.4681 36.2408 36.5024Z" fill="#00519B"/>
</svg>
